0
SECTION
2
HEADER
9
$INSUNITS
70
4
9
$MEASUREMENT
70
1
0
ENDSEC
0
SECTION
2
ENTITIES
0
LINE
8
CUT
10
6.0000
20
0.0000
30
0.0
11
244.0000
21
0.0000
31
0.0
0
LINE
8
CUT
10
6.0000
20
180.0000
30
0.0
11
244.0000
21
180.0000
31
0.0
0
LINE
8
CUT
10
0.0000
20
6.0000
30
0.0
11
0.0000
21
174.0000
31
0.0
0
LINE
8
CUT
10
250.0000
20
6.0000
30
0.0
11
250.0000
21
174.0000
31
0.0
0
ARC
8
CUT
10
244.0000
20
174.0000
30
0.0
40
6.0000
50
0.0000
51
90.0000
0
ARC
8
CUT
10
6.0000
20
174.0000
30
0.0
40
6.0000
50
90.0000
51
180.0000
0
ARC
8
CUT
10
6.0000
20
6.0000
30
0.0
40
6.0000
50
180.0000
51
270.0000
0
ARC
8
CUT
10
244.0000
20
6.0000
30
0.0
40
6.0000
50
270.0000
51
360.0000
0
CIRCLE
8
CUT
10
8.0000
20
8.0000
30
0.0
40
1.7000
0
CIRCLE
8
CUT
10
8.0000
20
172.0000
30
0.0
40
1.7000
0
CIRCLE
8
CUT
10
242.0000
20
8.0000
30
0.0
40
1.7000
0
CIRCLE
8
CUT
10
242.0000
20
172.0000
30
0.0
40
1.7000
0
CIRCLE
8
CUT
10
21.8760
20
161.3740
30
0.0
40
1.7000
0
CIRCLE
8
CUT
10
119.9200
20
161.3740
30
0.0
40
1.7000
0
CIRCLE
8
CUT
10
228.1240
20
161.3740
30
0.0
40
1.7000
0
CIRCLE
8
CUT
10
223.5070
20
144.4000
30
0.0
40
1.7000
0
CIRCLE
8
CUT
10
223.5070
20
86.4000
30
0.0
40
1.7000
0
CIRCLE
8
CUT
10
227.1080
20
66.8860
30
0.0
40
1.7000
0
CIRCLE
8
CUT
10
151.6700
20
66.6320
30
0.0
40
1.7000
0
CIRCLE
8
CUT
10
21.8760
20
39.9620
30
0.0
40
1.7000
0
ENDSEC
0
EOF
