0
SECTION
2
HEADER
9
$INSUNITS
70
4
9
$MEASUREMENT
70
1
0
ENDSEC
0
SECTION
2
ENTITIES
0
LINE
8
CUT
10
6.0000
20
0.0000
30
0.0
11
244.0000
21
0.0000
31
0.0
0
LINE
8
CUT
10
6.0000
20
180.0000
30
0.0
11
244.0000
21
180.0000
31
0.0
0
LINE
8
CUT
10
0.0000
20
6.0000
30
0.0
11
0.0000
21
174.0000
31
0.0
0
LINE
8
CUT
10
250.0000
20
6.0000
30
0.0
11
250.0000
21
174.0000
31
0.0
0
ARC
8
CUT
10
244.0000
20
174.0000
30
0.0
40
6.0000
50
0.0000
51
90.0000
0
ARC
8
CUT
10
6.0000
20
174.0000
30
0.0
40
6.0000
50
90.0000
51
180.0000
0
ARC
8
CUT
10
6.0000
20
6.0000
30
0.0
40
6.0000
50
180.0000
51
270.0000
0
ARC
8
CUT
10
244.0000
20
6.0000
30
0.0
40
6.0000
50
270.0000
51
360.0000
0
CIRCLE
8
CUT
10
8.0000
20
8.0000
30
0.0
40
1.7000
0
CIRCLE
8
CUT
10
8.0000
20
172.0000
30
0.0
40
1.7000
0
CIRCLE
8
CUT
10
242.0000
20
8.0000
30
0.0
40
1.7000
0
CIRCLE
8
CUT
10
242.0000
20
172.0000
30
0.0
40
1.7000
0
CIRCLE
8
CUT
10
185.6300
20
93.7600
30
0.0
40
18.0000
0
CIRCLE
8
CUT
10
169.6300
20
77.7600
30
0.0
40
1.7000
0
CIRCLE
8
CUT
10
169.6300
20
109.7600
30
0.0
40
1.7000
0
CIRCLE
8
CUT
10
201.6300
20
77.7600
30
0.0
40
1.7000
0
CIRCLE
8
CUT
10
201.6300
20
109.7600
30
0.0
40
1.7000
0
CIRCLE
8
CUT
10
23.3750
20
15.2000
30
0.0
40
1.4500
0
CIRCLE
8
CUT
10
100.8260
20
15.2000
30
0.0
40
1.4500
0
CIRCLE
8
CUT
10
23.0490
20
36.7000
30
0.0
40
1.4500
0
CIRCLE
8
CUT
10
100.5000
20
36.7000
30
0.0
40
1.4500
0
CIRCLE
8
CUT
10
37.8250
20
92.7250
30
0.0
40
1.4500
0
CIRCLE
8
CUT
10
54.1000
20
93.1250
30
0.0
40
1.4500
0
CIRCLE
8
CUT
10
37.8250
20
127.1850
30
0.0
40
1.4500
0
CIRCLE
8
CUT
10
54.3000
20
127.5850
30
0.0
40
1.4500
0
CIRCLE
8
CUT
10
88.2925
20
137.0595
30
0.0
40
1.4500
0
CIRCLE
8
CUT
10
151.5425
20
137.0595
30
0.0
40
1.4500
0
CIRCLE
8
CUT
10
88.2925
20
163.0595
30
0.0
40
1.4500
0
CIRCLE
8
CUT
10
151.5425
20
163.0595
30
0.0
40
1.4500
0
ENDSEC
0
EOF
