0
SECTION
2
HEADER
9
$INSUNITS
70
4
9
$MEASUREMENT
70
1
0
ENDSEC
0
SECTION
2
ENTITIES
0
LINE
8
SHEET
10
0.1000
20
0.0000
30
0.0
11
579.9000
21
0.0000
31
0.0
0
LINE
8
SHEET
10
0.1000
20
430.0000
30
0.0
11
579.9000
21
430.0000
31
0.0
0
LINE
8
SHEET
10
0.0000
20
0.1000
30
0.0
11
0.0000
21
429.9000
31
0.0
0
LINE
8
SHEET
10
580.0000
20
0.1000
30
0.0
11
580.0000
21
429.9000
31
0.0
0
ARC
8
SHEET
10
579.9000
20
429.9000
30
0.0
40
0.1000
50
0.0000
51
90.0000
0
ARC
8
SHEET
10
0.1000
20
429.9000
30
0.0
40
0.1000
50
90.0000
51
180.0000
0
ARC
8
SHEET
10
0.1000
20
0.1000
30
0.0
40
0.1000
50
180.0000
51
270.0000
0
ARC
8
SHEET
10
579.9000
20
0.1000
30
0.0
40
0.1000
50
270.0000
51
360.0000
0
TEXT
8
TEXT
10
300.0000
20
205.0000
30
0.0
40
8.0000
1
LAN9692 ACRYLIC FRAME - 5 PLATES
0
TEXT
8
TEXT
10
300.0000
20
190.0000
30
0.0
40
5.0000
1
ALL DIMENSIONS mm.  MATERIAL: CLEAR ACRYLIC (PMMA)
0
TEXT
8
TEXT
10
300.0000
20
178.0000
30
0.0
40
5.0000
1
CUT LAYER = CUT.  TEXT AND SHEET OUTLINE DO NOT CUT.
0
TEXT
8
TEXT
10
300.0000
20
166.0000
30
0.0
40
5.0000
1
5T x 2 SHEETS (A, B)   3T x 3 SHEETS (C, D, E)
0
TEXT
8
TEXT
10
300.0000
20
154.0000
30
0.0
40
5.0000
1
HOLES: O3.4 / O2.9 / O36 FAN BORE.  SLOTS AS DRAWN.
0
LINE
8
CUT
10
21.0000
20
235.0000
30
0.0
11
259.0000
21
235.0000
31
0.0
0
LINE
8
CUT
10
21.0000
20
415.0000
30
0.0
11
259.0000
21
415.0000
31
0.0
0
LINE
8
CUT
10
15.0000
20
241.0000
30
0.0
11
15.0000
21
409.0000
31
0.0
0
LINE
8
CUT
10
265.0000
20
241.0000
30
0.0
11
265.0000
21
409.0000
31
0.0
0
ARC
8
CUT
10
259.0000
20
409.0000
30
0.0
40
6.0000
50
0.0000
51
90.0000
0
ARC
8
CUT
10
21.0000
20
409.0000
30
0.0
40
6.0000
50
90.0000
51
180.0000
0
ARC
8
CUT
10
21.0000
20
241.0000
30
0.0
40
6.0000
50
180.0000
51
270.0000
0
ARC
8
CUT
10
259.0000
20
241.0000
30
0.0
40
6.0000
50
270.0000
51
360.0000
0
CIRCLE
8
CUT
10
23.0000
20
243.0000
30
0.0
40
1.7000
0
CIRCLE
8
CUT
10
23.0000
20
407.0000
30
0.0
40
1.7000
0
CIRCLE
8
CUT
10
257.0000
20
243.0000
30
0.0
40
1.7000
0
CIRCLE
8
CUT
10
257.0000
20
407.0000
30
0.0
40
1.7000
0
CIRCLE
8
CUT
10
36.8760
20
396.3740
30
0.0
40
1.7000
0
CIRCLE
8
CUT
10
134.9200
20
396.3740
30
0.0
40
1.7000
0
CIRCLE
8
CUT
10
243.1240
20
396.3740
30
0.0
40
1.7000
0
CIRCLE
8
CUT
10
238.5070
20
379.4000
30
0.0
40
1.7000
0
CIRCLE
8
CUT
10
238.5070
20
321.4000
30
0.0
40
1.7000
0
CIRCLE
8
CUT
10
242.1080
20
301.8860
30
0.0
40
1.7000
0
CIRCLE
8
CUT
10
166.6700
20
301.6320
30
0.0
40
1.7000
0
CIRCLE
8
CUT
10
36.8760
20
274.9620
30
0.0
40
1.7000
0
TEXT
8
TEXT
10
15.0000
20
224.0000
30
0.0
40
6.0000
1
PLATE A (BOTTOM)  5T  CLEAR  x1
0
LINE
8
CUT
10
306.0000
20
235.0000
30
0.0
11
544.0000
21
235.0000
31
0.0
0
LINE
8
CUT
10
306.0000
20
415.0000
30
0.0
11
544.0000
21
415.0000
31
0.0
0
LINE
8
CUT
10
300.0000
20
241.0000
30
0.0
11
300.0000
21
409.0000
31
0.0
0
LINE
8
CUT
10
550.0000
20
241.0000
30
0.0
11
550.0000
21
409.0000
31
0.0
0
ARC
8
CUT
10
544.0000
20
409.0000
30
0.0
40
6.0000
50
0.0000
51
90.0000
0
ARC
8
CUT
10
306.0000
20
409.0000
30
0.0
40
6.0000
50
90.0000
51
180.0000
0
ARC
8
CUT
10
306.0000
20
241.0000
30
0.0
40
6.0000
50
180.0000
51
270.0000
0
ARC
8
CUT
10
544.0000
20
241.0000
30
0.0
40
6.0000
50
270.0000
51
360.0000
0
CIRCLE
8
CUT
10
308.0000
20
243.0000
30
0.0
40
1.7000
0
CIRCLE
8
CUT
10
308.0000
20
407.0000
30
0.0
40
1.7000
0
CIRCLE
8
CUT
10
542.0000
20
243.0000
30
0.0
40
1.7000
0
CIRCLE
8
CUT
10
542.0000
20
407.0000
30
0.0
40
1.7000
0
CIRCLE
8
CUT
10
308.0000
20
275.0000
30
0.0
40
1.7000
0
CIRCLE
8
CUT
10
308.0000
20
375.0000
30
0.0
40
1.7000
0
CIRCLE
8
CUT
10
542.0000
20
275.0000
30
0.0
40
1.7000
0
CIRCLE
8
CUT
10
542.0000
20
375.0000
30
0.0
40
1.7000
0
CIRCLE
8
CUT
10
485.6300
20
328.7600
30
0.0
40
18.0000
0
CIRCLE
8
CUT
10
469.6300
20
312.7600
30
0.0
40
1.7000
0
CIRCLE
8
CUT
10
469.6300
20
344.7600
30
0.0
40
1.7000
0
CIRCLE
8
CUT
10
501.6300
20
312.7600
30
0.0
40
1.7000
0
CIRCLE
8
CUT
10
501.6300
20
344.7600
30
0.0
40
1.7000
0
CIRCLE
8
CUT
10
331.0000
20
305.0000
30
0.0
40
1.7000
0
CIRCLE
8
CUT
10
409.0000
20
305.0000
30
0.0
40
1.7000
0
LINE
8
CUT
10
414.1900
20
361.7000
30
0.0
11
419.7900
21
361.7000
31
0.0
0
LINE
8
CUT
10
414.1900
20
358.3000
30
0.0
11
419.7900
21
358.3000
31
0.0
0
ARC
8
CUT
10
419.7900
20
360.0000
30
0.0
40
1.7000
50
-90.0000
51
90.0000
0
ARC
8
CUT
10
414.1900
20
360.0000
30
0.0
40
1.7000
50
90.0000
51
270.0000
0
LINE
8
CUT
10
333.2000
20
384.7000
30
0.0
11
338.8000
21
384.7000
31
0.0
0
LINE
8
CUT
10
333.2000
20
381.3000
30
0.0
11
338.8000
21
381.3000
31
0.0
0
ARC
8
CUT
10
338.8000
20
383.0000
30
0.0
40
1.7000
50
-90.0000
51
90.0000
0
ARC
8
CUT
10
333.2000
20
383.0000
30
0.0
40
1.7000
50
90.0000
51
270.0000
0
CIRCLE
8
CUT
10
471.3345
20
249.6340
30
0.0
40
1.4500
0
CIRCLE
8
CUT
10
529.3345
20
249.6340
30
0.0
40
1.4500
0
LINE
8
CUT
10
467.9345
20
292.6840
30
0.0
11
474.0345
21
292.6840
31
0.0
0
LINE
8
CUT
10
467.9345
20
289.7840
30
0.0
11
474.0345
21
289.7840
31
0.0
0
ARC
8
CUT
10
474.0345
20
291.2340
30
0.0
40
1.4500
50
-90.0000
51
90.0000
0
ARC
8
CUT
10
467.9345
20
291.2340
30
0.0
40
1.4500
50
90.0000
51
270.0000
0
LINE
8
CUT
10
528.1845
20
292.6540
30
0.0
11
534.2845
21
292.6540
31
0.0
0
LINE
8
CUT
10
528.1845
20
289.7540
30
0.0
11
534.2845
21
289.7540
31
0.0
0
ARC
8
CUT
10
534.2845
20
291.2040
30
0.0
40
1.4500
50
-90.0000
51
90.0000
0
ARC
8
CUT
10
528.1845
20
291.2040
30
0.0
40
1.4500
50
90.0000
51
270.0000
0
CIRCLE
8
CUT
10
352.5000
20
328.5000
30
0.0
40
1.7000
0
CIRCLE
8
CUT
10
352.5000
20
373.5000
30
0.0
40
1.7000
0
CIRCLE
8
CUT
10
387.5000
20
328.5000
30
0.0
40
1.7000
0
CIRCLE
8
CUT
10
387.5000
20
373.5000
30
0.0
40
1.7000
0
CIRCLE
8
CUT
10
483.6000
20
247.1000
30
0.0
40
1.7000
0
CIRCLE
8
CUT
10
483.6000
20
292.1000
30
0.0
40
1.7000
0
CIRCLE
8
CUT
10
518.6000
20
247.1000
30
0.0
40
1.7000
0
CIRCLE
8
CUT
10
518.6000
20
292.1000
30
0.0
40
1.7000
0
TEXT
8
TEXT
10
300.0000
20
224.0000
30
0.0
40
6.0000
1
PLATE B (MIDDLE)  5T  CLEAR  x1
0
LINE
8
CUT
10
21.0000
20
30.0000
30
0.0
11
259.0000
21
30.0000
31
0.0
0
LINE
8
CUT
10
21.0000
20
210.0000
30
0.0
11
259.0000
21
210.0000
31
0.0
0
LINE
8
CUT
10
15.0000
20
36.0000
30
0.0
11
15.0000
21
204.0000
31
0.0
0
LINE
8
CUT
10
265.0000
20
36.0000
30
0.0
11
265.0000
21
204.0000
31
0.0
0
ARC
8
CUT
10
259.0000
20
204.0000
30
0.0
40
6.0000
50
0.0000
51
90.0000
0
ARC
8
CUT
10
21.0000
20
204.0000
30
0.0
40
6.0000
50
90.0000
51
180.0000
0
ARC
8
CUT
10
21.0000
20
36.0000
30
0.0
40
6.0000
50
180.0000
51
270.0000
0
ARC
8
CUT
10
259.0000
20
36.0000
30
0.0
40
6.0000
50
270.0000
51
360.0000
0
CIRCLE
8
CUT
10
23.0000
20
70.0000
30
0.0
40
1.7000
0
CIRCLE
8
CUT
10
23.0000
20
170.0000
30
0.0
40
1.7000
0
CIRCLE
8
CUT
10
257.0000
20
70.0000
30
0.0
40
1.7000
0
CIRCLE
8
CUT
10
257.0000
20
170.0000
30
0.0
40
1.7000
0
LINE
8
CUT
10
176.6300
20
97.7600
30
0.0
11
176.6300
21
149.7600
31
0.0
0
LINE
8
CUT
10
168.6300
20
97.7600
30
0.0
11
168.6300
21
149.7600
31
0.0
0
ARC
8
CUT
10
172.6300
20
149.7600
30
0.0
40
4.0000
50
0.0000
51
180.0000
0
ARC
8
CUT
10
172.6300
20
97.7600
30
0.0
40
4.0000
50
180.0000
51
360.0000
0
LINE
8
CUT
10
190.6300
20
97.7600
30
0.0
11
190.6300
21
149.7600
31
0.0
0
LINE
8
CUT
10
182.6300
20
97.7600
30
0.0
11
182.6300
21
149.7600
31
0.0
0
ARC
8
CUT
10
186.6300
20
149.7600
30
0.0
40
4.0000
50
0.0000
51
180.0000
0
ARC
8
CUT
10
186.6300
20
97.7600
30
0.0
40
4.0000
50
180.0000
51
360.0000
0
LINE
8
CUT
10
204.6300
20
97.7600
30
0.0
11
204.6300
21
149.7600
31
0.0
0
LINE
8
CUT
10
196.6300
20
97.7600
30
0.0
11
196.6300
21
149.7600
31
0.0
0
ARC
8
CUT
10
200.6300
20
149.7600
30
0.0
40
4.0000
50
0.0000
51
180.0000
0
ARC
8
CUT
10
200.6300
20
97.7600
30
0.0
40
4.0000
50
180.0000
51
360.0000
0
LINE
8
CUT
10
218.6300
20
97.7600
30
0.0
11
218.6300
21
149.7600
31
0.0
0
LINE
8
CUT
10
210.6300
20
97.7600
30
0.0
11
210.6300
21
149.7600
31
0.0
0
ARC
8
CUT
10
214.6300
20
149.7600
30
0.0
40
4.0000
50
0.0000
51
180.0000
0
ARC
8
CUT
10
214.6300
20
97.7600
30
0.0
40
4.0000
50
180.0000
51
360.0000
0
LINE
8
CUT
10
232.6300
20
97.7600
30
0.0
11
232.6300
21
149.7600
31
0.0
0
LINE
8
CUT
10
224.6300
20
97.7600
30
0.0
11
224.6300
21
149.7600
31
0.0
0
ARC
8
CUT
10
228.6300
20
149.7600
30
0.0
40
4.0000
50
0.0000
51
180.0000
0
ARC
8
CUT
10
228.6300
20
97.7600
30
0.0
40
4.0000
50
180.0000
51
360.0000
0
LINE
8
ENGRAVE
10
53.0000
20
104.0000
30
0.0
11
53.0000
21
136.0000
31
0.0
0
LINE
8
ENGRAVE
10
70.8560
20
136.0000
30
0.0
11
53.0000
21
118.4000
31
0.0
0
LINE
8
ENGRAVE
10
55.9760
20
121.6000
30
0.0
11
71.8480
21
104.0000
31
0.0
0
LINE
8
ENGRAVE
10
97.0448
20
136.0000
30
0.0
11
77.2048
21
136.0000
31
0.0
0
LINE
8
ENGRAVE
10
77.2048
20
136.0000
30
0.0
11
77.2048
21
104.0000
31
0.0
0
LINE
8
ENGRAVE
10
77.2048
20
104.0000
30
0.0
11
97.0448
21
104.0000
31
0.0
0
LINE
8
ENGRAVE
10
77.2048
20
120.0000
30
0.0
11
92.0848
21
120.0000
31
0.0
0
LINE
8
ENGRAVE
10
101.4096
20
136.0000
30
0.0
11
121.2496
21
136.0000
31
0.0
0
LINE
8
ENGRAVE
10
111.3296
20
136.0000
30
0.0
11
111.3296
21
104.0000
31
0.0
0
LINE
8
ENGRAVE
10
135.5344
20
104.0000
30
0.0
11
135.5344
21
136.0000
31
0.0
0
LINE
8
ENGRAVE
10
128.5904
20
136.0000
30
0.0
11
142.4784
21
136.0000
31
0.0
0
LINE
8
ENGRAVE
10
128.5904
20
104.0000
30
0.0
11
142.4784
21
104.0000
31
0.0
0
TEXT
8
TEXT
10
15.0000
20
19.0000
30
0.0
40
6.0000
1
PLATE C (TOP)  3T  CLEAR  x1
0
LINE
8
CUT
10
304.0000
20
30.0000
30
0.0
11
406.0000
21
30.0000
31
0.0
0
LINE
8
CUT
10
304.0000
20
140.0000
30
0.0
11
406.0000
21
140.0000
31
0.0
0
LINE
8
CUT
10
300.0000
20
34.0000
30
0.0
11
300.0000
21
136.0000
31
0.0
0
LINE
8
CUT
10
410.0000
20
34.0000
30
0.0
11
410.0000
21
136.0000
31
0.0
0
ARC
8
CUT
10
406.0000
20
136.0000
30
0.0
40
4.0000
50
0.0000
51
90.0000
0
ARC
8
CUT
10
304.0000
20
136.0000
30
0.0
40
4.0000
50
90.0000
51
180.0000
0
ARC
8
CUT
10
304.0000
20
34.0000
30
0.0
40
4.0000
50
180.0000
51
270.0000
0
ARC
8
CUT
10
406.0000
20
34.0000
30
0.0
40
4.0000
50
270.0000
51
360.0000
0
CIRCLE
8
CUT
10
316.0000
20
39.0000
30
0.0
40
1.7000
0
CIRCLE
8
CUT
10
394.0000
20
39.0000
30
0.0
40
1.7000
0
CIRCLE
8
CUT
10
401.9900
20
94.0000
30
0.0
40
1.7000
0
CIRCLE
8
CUT
10
321.0000
20
117.0000
30
0.0
40
1.7000
0
CIRCLE
8
CUT
10
337.5000
20
62.5000
30
0.0
40
1.7000
0
CIRCLE
8
CUT
10
337.5000
20
107.5000
30
0.0
40
1.7000
0
CIRCLE
8
CUT
10
372.5000
20
62.5000
30
0.0
40
1.7000
0
CIRCLE
8
CUT
10
372.5000
20
107.5000
30
0.0
40
1.7000
0
TEXT
8
TEXT
10
300.0000
20
19.0000
30
0.0
40
6.0000
1
PLATE E  3T  CLEAR  x1
0
LINE
8
CUT
10
434.0000
20
30.0000
30
0.0
11
502.0000
21
30.0000
31
0.0
0
LINE
8
CUT
10
434.0000
20
90.0000
30
0.0
11
502.0000
21
90.0000
31
0.0
0
LINE
8
CUT
10
430.0000
20
34.0000
30
0.0
11
430.0000
21
86.0000
31
0.0
0
LINE
8
CUT
10
506.0000
20
34.0000
30
0.0
11
506.0000
21
86.0000
31
0.0
0
ARC
8
CUT
10
502.0000
20
86.0000
30
0.0
40
4.0000
50
0.0000
51
90.0000
0
ARC
8
CUT
10
434.0000
20
86.0000
30
0.0
40
4.0000
50
90.0000
51
180.0000
0
ARC
8
CUT
10
434.0000
20
34.0000
30
0.0
40
4.0000
50
180.0000
51
270.0000
0
ARC
8
CUT
10
502.0000
20
34.0000
30
0.0
40
4.0000
50
270.0000
51
360.0000
0
CIRCLE
8
CUT
10
438.2345
20
40.0340
30
0.0
40
1.4500
0
CIRCLE
8
CUT
10
496.2345
20
40.0340
30
0.0
40
1.4500
0
CIRCLE
8
CUT
10
437.8845
20
81.6340
30
0.0
40
1.4500
0
CIRCLE
8
CUT
10
498.1345
20
81.6040
30
0.0
40
1.4500
0
CIRCLE
8
CUT
10
450.5000
20
37.5000
30
0.0
40
1.7000
0
CIRCLE
8
CUT
10
450.5000
20
82.5000
30
0.0
40
1.7000
0
CIRCLE
8
CUT
10
485.5000
20
37.5000
30
0.0
40
1.7000
0
CIRCLE
8
CUT
10
485.5000
20
82.5000
30
0.0
40
1.7000
0
TEXT
8
TEXT
10
430.0000
20
19.0000
30
0.0
40
6.0000
1
PLATE D  3T  CLEAR  x1
0
ENDSEC
0
EOF
