0
SECTION
2
HEADER
9
$INSUNITS
70
4
9
$MEASUREMENT
70
1
0
ENDSEC
0
SECTION
2
ENTITIES
0
LINE
8
SHEET
10
0.1000
20
0.0000
30
0.0
11
699.9000
21
0.0000
31
0.0
0
LINE
8
SHEET
10
0.1000
20
600.0000
30
0.0
11
699.9000
21
600.0000
31
0.0
0
LINE
8
SHEET
10
0.0000
20
0.1000
30
0.0
11
0.0000
21
599.9000
31
0.0
0
LINE
8
SHEET
10
700.0000
20
0.1000
30
0.0
11
700.0000
21
599.9000
31
0.0
0
ARC
8
SHEET
10
699.9000
20
599.9000
30
0.0
40
0.1000
50
0.0000
51
90.0000
0
ARC
8
SHEET
10
0.1000
20
599.9000
30
0.0
40
0.1000
50
90.0000
51
180.0000
0
ARC
8
SHEET
10
0.1000
20
0.1000
30
0.0
40
0.1000
50
180.0000
51
270.0000
0
ARC
8
SHEET
10
699.9000
20
0.1000
30
0.0
40
0.1000
50
270.0000
51
360.0000
0
LINE
8
DIM
10
12.0000
20
587.0000
30
0.0
11
12.0000
21
578.0000
31
0.0
0
LINE
8
DIM
10
12.0000
20
578.0000
30
0.0
11
17.0220
21
578.0000
31
0.0
0
LINE
8
DIM
10
18.8076
20
578.0000
30
0.0
11
21.5976
21
587.0000
31
0.0
0
LINE
8
DIM
10
21.5976
20
587.0000
30
0.0
11
24.3876
21
578.0000
31
0.0
0
LINE
8
DIM
10
20.0352
20
581.6000
30
0.0
11
23.1600
21
581.6000
31
0.0
0
LINE
8
DIM
10
25.6152
20
578.0000
30
0.0
11
25.6152
21
587.0000
31
0.0
0
LINE
8
DIM
10
25.6152
20
587.0000
30
0.0
11
31.1952
21
578.0000
31
0.0
0
LINE
8
DIM
10
31.1952
20
578.0000
30
0.0
11
31.1952
21
587.0000
31
0.0
0
LINE
8
DIM
10
32.4228
20
578.9000
30
0.0
11
35.2128
21
578.0000
31
0.0
0
LINE
8
DIM
10
35.2128
20
578.0000
30
0.0
11
38.0028
21
580.2500
31
0.0
0
LINE
8
DIM
10
38.0028
20
580.2500
30
0.0
11
38.0028
21
585.6500
31
0.0
0
LINE
8
DIM
10
38.0028
20
585.6500
30
0.0
11
35.2128
21
587.0000
31
0.0
0
LINE
8
DIM
10
35.2128
20
587.0000
30
0.0
11
32.4228
21
585.6500
31
0.0
0
LINE
8
DIM
10
32.4228
20
585.6500
30
0.0
11
32.4228
21
583.8500
31
0.0
0
LINE
8
DIM
10
32.4228
20
583.8500
30
0.0
11
35.2128
21
582.5000
31
0.0
0
LINE
8
DIM
10
35.2128
20
582.5000
30
0.0
11
38.0028
21
583.8500
31
0.0
0
LINE
8
DIM
10
44.8104
20
586.1000
30
0.0
11
42.0204
21
587.0000
31
0.0
0
LINE
8
DIM
10
42.0204
20
587.0000
30
0.0
11
39.2304
21
584.7500
31
0.0
0
LINE
8
DIM
10
39.2304
20
584.7500
30
0.0
11
39.2304
21
579.3500
31
0.0
0
LINE
8
DIM
10
39.2304
20
579.3500
30
0.0
11
42.0204
21
578.0000
31
0.0
0
LINE
8
DIM
10
42.0204
20
578.0000
30
0.0
11
44.8104
21
579.3500
31
0.0
0
LINE
8
DIM
10
44.8104
20
579.3500
30
0.0
11
44.8104
21
581.1500
31
0.0
0
LINE
8
DIM
10
44.8104
20
581.1500
30
0.0
11
42.0204
21
582.5000
31
0.0
0
LINE
8
DIM
10
42.0204
20
582.5000
30
0.0
11
39.2304
21
581.1500
31
0.0
0
LINE
8
DIM
10
46.0380
20
578.9000
30
0.0
11
48.8280
21
578.0000
31
0.0
0
LINE
8
DIM
10
48.8280
20
578.0000
30
0.0
11
51.6180
21
580.2500
31
0.0
0
LINE
8
DIM
10
51.6180
20
580.2500
30
0.0
11
51.6180
21
585.6500
31
0.0
0
LINE
8
DIM
10
51.6180
20
585.6500
30
0.0
11
48.8280
21
587.0000
31
0.0
0
LINE
8
DIM
10
48.8280
20
587.0000
30
0.0
11
46.0380
21
585.6500
31
0.0
0
LINE
8
DIM
10
46.0380
20
585.6500
30
0.0
11
46.0380
21
583.8500
31
0.0
0
LINE
8
DIM
10
46.0380
20
583.8500
30
0.0
11
48.8280
21
582.5000
31
0.0
0
LINE
8
DIM
10
48.8280
20
582.5000
30
0.0
11
51.6180
21
583.8500
31
0.0
0
LINE
8
DIM
10
52.8456
20
585.6500
30
0.0
11
55.6356
21
587.0000
31
0.0
0
LINE
8
DIM
10
55.6356
20
587.0000
30
0.0
11
58.4256
21
585.6500
31
0.0
0
LINE
8
DIM
10
58.4256
20
585.6500
30
0.0
11
58.4256
21
583.4000
31
0.0
0
LINE
8
DIM
10
58.4256
20
583.4000
30
0.0
11
52.8456
21
578.0000
31
0.0
0
LINE
8
DIM
10
52.8456
20
578.0000
30
0.0
11
58.4256
21
578.0000
31
0.0
0
LINE
8
DIM
10
66.4608
20
578.0000
30
0.0
11
69.2508
21
587.0000
31
0.0
0
LINE
8
DIM
10
69.2508
20
587.0000
30
0.0
11
72.0408
21
578.0000
31
0.0
0
LINE
8
DIM
10
67.6884
20
581.6000
30
0.0
11
70.8132
21
581.6000
31
0.0
0
LINE
8
DIM
10
78.8484
20
585.6500
30
0.0
11
76.0584
21
587.0000
31
0.0
0
LINE
8
DIM
10
76.0584
20
587.0000
30
0.0
11
73.2684
21
584.7500
31
0.0
0
LINE
8
DIM
10
73.2684
20
584.7500
30
0.0
11
73.2684
21
580.2500
31
0.0
0
LINE
8
DIM
10
73.2684
20
580.2500
30
0.0
11
76.0584
21
578.0000
31
0.0
0
LINE
8
DIM
10
76.0584
20
578.0000
30
0.0
11
78.8484
21
579.3500
31
0.0
0
LINE
8
DIM
10
80.0760
20
578.0000
30
0.0
11
80.0760
21
587.0000
31
0.0
0
LINE
8
DIM
10
80.0760
20
587.0000
30
0.0
11
83.9820
21
587.0000
31
0.0
0
LINE
8
DIM
10
83.9820
20
587.0000
30
0.0
11
85.6560
21
585.2000
31
0.0
0
LINE
8
DIM
10
85.6560
20
585.2000
30
0.0
11
85.6560
21
583.4000
31
0.0
0
LINE
8
DIM
10
85.6560
20
583.4000
30
0.0
11
83.9820
21
582.0500
31
0.0
0
LINE
8
DIM
10
83.9820
20
582.0500
30
0.0
11
80.0760
21
582.0500
31
0.0
0
LINE
8
DIM
10
82.8660
20
582.0500
30
0.0
11
85.6560
21
578.0000
31
0.0
0
LINE
8
DIM
10
86.8836
20
587.0000
30
0.0
11
89.6736
21
582.5000
31
0.0
0
LINE
8
DIM
10
89.6736
20
582.5000
30
0.0
11
92.4636
21
587.0000
31
0.0
0
LINE
8
DIM
10
89.6736
20
582.5000
30
0.0
11
89.6736
21
578.0000
31
0.0
0
LINE
8
DIM
10
93.6912
20
587.0000
30
0.0
11
93.6912
21
578.0000
31
0.0
0
LINE
8
DIM
10
93.6912
20
578.0000
30
0.0
11
98.7132
21
578.0000
31
0.0
0
LINE
8
DIM
10
103.2888
20
578.0000
30
0.0
11
103.2888
21
587.0000
31
0.0
0
LINE
8
DIM
10
101.3358
20
587.0000
30
0.0
11
105.2418
21
587.0000
31
0.0
0
LINE
8
DIM
10
101.3358
20
578.0000
30
0.0
11
105.2418
21
578.0000
31
0.0
0
LINE
8
DIM
10
112.8864
20
585.6500
30
0.0
11
110.0964
21
587.0000
31
0.0
0
LINE
8
DIM
10
110.0964
20
587.0000
30
0.0
11
107.3064
21
584.7500
31
0.0
0
LINE
8
DIM
10
107.3064
20
584.7500
30
0.0
11
107.3064
21
580.2500
31
0.0
0
LINE
8
DIM
10
107.3064
20
580.2500
30
0.0
11
110.0964
21
578.0000
31
0.0
0
LINE
8
DIM
10
110.0964
20
578.0000
30
0.0
11
112.8864
21
579.3500
31
0.0
0
LINE
8
DIM
10
126.5016
20
587.0000
30
0.0
11
120.9216
21
587.0000
31
0.0
0
LINE
8
DIM
10
120.9216
20
587.0000
30
0.0
11
120.9216
21
578.0000
31
0.0
0
LINE
8
DIM
10
120.9216
20
582.5000
30
0.0
11
125.1066
21
582.5000
31
0.0
0
LINE
8
DIM
10
127.7292
20
578.0000
30
0.0
11
127.7292
21
587.0000
31
0.0
0
LINE
8
DIM
10
127.7292
20
587.0000
30
0.0
11
131.6352
21
587.0000
31
0.0
0
LINE
8
DIM
10
131.6352
20
587.0000
30
0.0
11
133.3092
21
585.2000
31
0.0
0
LINE
8
DIM
10
133.3092
20
585.2000
30
0.0
11
133.3092
21
583.4000
31
0.0
0
LINE
8
DIM
10
133.3092
20
583.4000
30
0.0
11
131.6352
21
582.0500
31
0.0
0
LINE
8
DIM
10
131.6352
20
582.0500
30
0.0
11
127.7292
21
582.0500
31
0.0
0
LINE
8
DIM
10
130.5192
20
582.0500
30
0.0
11
133.3092
21
578.0000
31
0.0
0
LINE
8
DIM
10
134.5368
20
578.0000
30
0.0
11
137.3268
21
587.0000
31
0.0
0
LINE
8
DIM
10
137.3268
20
587.0000
30
0.0
11
140.1168
21
578.0000
31
0.0
0
LINE
8
DIM
10
135.7644
20
581.6000
30
0.0
11
138.8892
21
581.6000
31
0.0
0
LINE
8
DIM
10
141.3444
20
578.0000
30
0.0
11
141.3444
21
587.0000
31
0.0
0
LINE
8
DIM
10
141.3444
20
587.0000
30
0.0
11
144.1344
21
582.0500
31
0.0
0
LINE
8
DIM
10
144.1344
20
582.0500
30
0.0
11
146.9244
21
587.0000
31
0.0
0
LINE
8
DIM
10
146.9244
20
587.0000
30
0.0
11
146.9244
21
578.0000
31
0.0
0
LINE
8
DIM
10
153.7320
20
587.0000
30
0.0
11
148.1520
21
587.0000
31
0.0
0
LINE
8
DIM
10
148.1520
20
587.0000
30
0.0
11
148.1520
21
578.0000
31
0.0
0
LINE
8
DIM
10
148.1520
20
578.0000
30
0.0
11
153.7320
21
578.0000
31
0.0
0
LINE
8
DIM
10
148.1520
20
582.5000
30
0.0
11
152.3370
21
582.5000
31
0.0
0
LINE
8
DIM
10
12.0000
20
569.0000
30
0.0
11
12.0000
21
565.0000
31
0.0
0
LINE
8
DIM
10
12.0000
20
565.0000
30
0.0
11
13.5500
21
564.0000
31
0.0
0
LINE
8
DIM
10
13.5500
20
564.0000
30
0.0
11
15.1000
21
565.0000
31
0.0
0
LINE
8
DIM
10
15.1000
20
565.0000
30
0.0
11
15.1000
21
569.0000
31
0.0
0
LINE
8
DIM
10
15.7820
20
564.0000
30
0.0
11
15.7820
21
569.0000
31
0.0
0
LINE
8
DIM
10
15.7820
20
569.0000
30
0.0
11
18.8820
21
564.0000
31
0.0
0
LINE
8
DIM
10
18.8820
20
564.0000
30
0.0
11
18.8820
21
569.0000
31
0.0
0
LINE
8
DIM
10
21.1140
20
564.0000
30
0.0
11
21.1140
21
569.0000
31
0.0
0
LINE
8
DIM
10
20.0290
20
569.0000
30
0.0
11
22.1990
21
569.0000
31
0.0
0
LINE
8
DIM
10
20.0290
20
564.0000
30
0.0
11
22.1990
21
564.0000
31
0.0
0
LINE
8
DIM
10
23.3460
20
569.0000
30
0.0
11
26.4460
21
569.0000
31
0.0
0
LINE
8
DIM
10
24.8960
20
569.0000
30
0.0
11
24.8960
21
564.0000
31
0.0
0
LINE
8
DIM
10
30.9100
20
564.0000
30
0.0
11
30.9100
21
569.0000
31
0.0
0
LINE
8
DIM
10
30.9100
20
569.0000
30
0.0
11
32.4600
21
566.2500
31
0.0
0
LINE
8
DIM
10
32.4600
20
566.2500
30
0.0
11
34.0100
21
569.0000
31
0.0
0
LINE
8
DIM
10
34.0100
20
569.0000
30
0.0
11
34.0100
21
564.0000
31
0.0
0
LINE
8
DIM
10
34.6920
20
564.0000
30
0.0
11
34.6920
21
569.0000
31
0.0
0
LINE
8
DIM
10
34.6920
20
569.0000
30
0.0
11
36.2420
21
566.2500
31
0.0
0
LINE
8
DIM
10
36.2420
20
566.2500
30
0.0
11
37.7920
21
569.0000
31
0.0
0
LINE
8
DIM
10
37.7920
20
569.0000
30
0.0
11
37.7920
21
564.0000
31
0.0
0
LINE
8
DIM
10
49.8200
20
564.0000
30
0.0
11
49.8200
21
569.0000
31
0.0
0
LINE
8
DIM
10
49.8200
20
569.0000
30
0.0
11
51.3700
21
566.2500
31
0.0
0
LINE
8
DIM
10
51.3700
20
566.2500
30
0.0
11
52.9200
21
569.0000
31
0.0
0
LINE
8
DIM
10
52.9200
20
569.0000
30
0.0
11
52.9200
21
564.0000
31
0.0
0
LINE
8
DIM
10
53.6020
20
564.0000
30
0.0
11
55.1520
21
569.0000
31
0.0
0
LINE
8
DIM
10
55.1520
20
569.0000
30
0.0
11
56.7020
21
564.0000
31
0.0
0
LINE
8
DIM
10
54.2840
20
566.0000
30
0.0
11
56.0200
21
566.0000
31
0.0
0
LINE
8
DIM
10
57.3840
20
569.0000
30
0.0
11
60.4840
21
569.0000
31
0.0
0
LINE
8
DIM
10
58.9340
20
569.0000
30
0.0
11
58.9340
21
564.0000
31
0.0
0
LINE
8
DIM
10
64.2660
20
569.0000
30
0.0
11
61.1660
21
569.0000
31
0.0
0
LINE
8
DIM
10
61.1660
20
569.0000
30
0.0
11
61.1660
21
564.0000
31
0.0
0
LINE
8
DIM
10
61.1660
20
564.0000
30
0.0
11
64.2660
21
564.0000
31
0.0
0
LINE
8
DIM
10
61.1660
20
566.5000
30
0.0
11
63.4910
21
566.5000
31
0.0
0
LINE
8
DIM
10
64.9480
20
564.0000
30
0.0
11
64.9480
21
569.0000
31
0.0
0
LINE
8
DIM
10
64.9480
20
569.0000
30
0.0
11
67.1180
21
569.0000
31
0.0
0
LINE
8
DIM
10
67.1180
20
569.0000
30
0.0
11
68.0480
21
568.0000
31
0.0
0
LINE
8
DIM
10
68.0480
20
568.0000
30
0.0
11
68.0480
21
567.0000
31
0.0
0
LINE
8
DIM
10
68.0480
20
567.0000
30
0.0
11
67.1180
21
566.2500
31
0.0
0
LINE
8
DIM
10
67.1180
20
566.2500
30
0.0
11
64.9480
21
566.2500
31
0.0
0
LINE
8
DIM
10
66.4980
20
566.2500
30
0.0
11
68.0480
21
564.0000
31
0.0
0
LINE
8
DIM
10
70.2800
20
564.0000
30
0.0
11
70.2800
21
569.0000
31
0.0
0
LINE
8
DIM
10
69.1950
20
569.0000
30
0.0
11
71.3650
21
569.0000
31
0.0
0
LINE
8
DIM
10
69.1950
20
564.0000
30
0.0
11
71.3650
21
564.0000
31
0.0
0
LINE
8
DIM
10
72.5120
20
564.0000
30
0.0
11
74.0620
21
569.0000
31
0.0
0
LINE
8
DIM
10
74.0620
20
569.0000
30
0.0
11
75.6120
21
564.0000
31
0.0
0
LINE
8
DIM
10
73.1940
20
566.0000
30
0.0
11
74.9300
21
566.0000
31
0.0
0
LINE
8
DIM
10
76.2940
20
569.0000
30
0.0
11
76.2940
21
564.0000
31
0.0
0
LINE
8
DIM
10
76.2940
20
564.0000
30
0.0
11
79.0840
21
564.0000
31
0.0
0
LINE
8
DIM
10
86.9580
20
568.2500
30
0.0
11
85.4080
21
569.0000
31
0.0
0
LINE
8
DIM
10
85.4080
20
569.0000
30
0.0
11
83.8580
21
567.7500
31
0.0
0
LINE
8
DIM
10
83.8580
20
567.7500
30
0.0
11
83.8580
21
565.2500
31
0.0
0
LINE
8
DIM
10
83.8580
20
565.2500
30
0.0
11
85.4080
21
564.0000
31
0.0
0
LINE
8
DIM
10
85.4080
20
564.0000
30
0.0
11
86.9580
21
564.7500
31
0.0
0
LINE
8
DIM
10
87.6400
20
569.0000
30
0.0
11
87.6400
21
564.0000
31
0.0
0
LINE
8
DIM
10
87.6400
20
564.0000
30
0.0
11
90.4300
21
564.0000
31
0.0
0
LINE
8
DIM
10
94.5220
20
569.0000
30
0.0
11
91.4220
21
569.0000
31
0.0
0
LINE
8
DIM
10
91.4220
20
569.0000
30
0.0
11
91.4220
21
564.0000
31
0.0
0
LINE
8
DIM
10
91.4220
20
564.0000
30
0.0
11
94.5220
21
564.0000
31
0.0
0
LINE
8
DIM
10
91.4220
20
566.5000
30
0.0
11
93.7470
21
566.5000
31
0.0
0
LINE
8
DIM
10
95.2040
20
564.0000
30
0.0
11
96.7540
21
569.0000
31
0.0
0
LINE
8
DIM
10
96.7540
20
569.0000
30
0.0
11
98.3040
21
564.0000
31
0.0
0
LINE
8
DIM
10
95.8860
20
566.0000
30
0.0
11
97.6220
21
566.0000
31
0.0
0
LINE
8
DIM
10
98.9860
20
564.0000
30
0.0
11
98.9860
21
569.0000
31
0.0
0
LINE
8
DIM
10
98.9860
20
569.0000
30
0.0
11
101.1560
21
569.0000
31
0.0
0
LINE
8
DIM
10
101.1560
20
569.0000
30
0.0
11
102.0860
21
568.0000
31
0.0
0
LINE
8
DIM
10
102.0860
20
568.0000
30
0.0
11
102.0860
21
567.0000
31
0.0
0
LINE
8
DIM
10
102.0860
20
567.0000
30
0.0
11
101.1560
21
566.2500
31
0.0
0
LINE
8
DIM
10
101.1560
20
566.2500
30
0.0
11
98.9860
21
566.2500
31
0.0
0
LINE
8
DIM
10
100.5360
20
566.2500
30
0.0
11
102.0860
21
564.0000
31
0.0
0
LINE
8
DIM
10
106.5500
20
564.0000
30
0.0
11
108.1000
21
569.0000
31
0.0
0
LINE
8
DIM
10
108.1000
20
569.0000
30
0.0
11
109.6500
21
564.0000
31
0.0
0
LINE
8
DIM
10
107.2320
20
566.0000
30
0.0
11
108.9680
21
566.0000
31
0.0
0
LINE
8
DIM
10
113.4320
20
568.2500
30
0.0
11
111.8820
21
569.0000
31
0.0
0
LINE
8
DIM
10
111.8820
20
569.0000
30
0.0
11
110.3320
21
567.7500
31
0.0
0
LINE
8
DIM
10
110.3320
20
567.7500
30
0.0
11
110.3320
21
565.2500
31
0.0
0
LINE
8
DIM
10
110.3320
20
565.2500
30
0.0
11
111.8820
21
564.0000
31
0.0
0
LINE
8
DIM
10
111.8820
20
564.0000
30
0.0
11
113.4320
21
564.7500
31
0.0
0
LINE
8
DIM
10
114.1140
20
564.0000
30
0.0
11
114.1140
21
569.0000
31
0.0
0
LINE
8
DIM
10
114.1140
20
569.0000
30
0.0
11
116.2840
21
569.0000
31
0.0
0
LINE
8
DIM
10
116.2840
20
569.0000
30
0.0
11
117.2140
21
568.0000
31
0.0
0
LINE
8
DIM
10
117.2140
20
568.0000
30
0.0
11
117.2140
21
567.0000
31
0.0
0
LINE
8
DIM
10
117.2140
20
567.0000
30
0.0
11
116.2840
21
566.2500
31
0.0
0
LINE
8
DIM
10
116.2840
20
566.2500
30
0.0
11
114.1140
21
566.2500
31
0.0
0
LINE
8
DIM
10
115.6640
20
566.2500
30
0.0
11
117.2140
21
564.0000
31
0.0
0
LINE
8
DIM
10
117.8960
20
569.0000
30
0.0
11
119.4460
21
566.5000
31
0.0
0
LINE
8
DIM
10
119.4460
20
566.5000
30
0.0
11
120.9960
21
569.0000
31
0.0
0
LINE
8
DIM
10
119.4460
20
566.5000
30
0.0
11
119.4460
21
564.0000
31
0.0
0
LINE
8
DIM
10
121.6780
20
569.0000
30
0.0
11
121.6780
21
564.0000
31
0.0
0
LINE
8
DIM
10
121.6780
20
564.0000
30
0.0
11
124.4680
21
564.0000
31
0.0
0
LINE
8
DIM
10
127.0100
20
564.0000
30
0.0
11
127.0100
21
569.0000
31
0.0
0
LINE
8
DIM
10
125.9250
20
569.0000
30
0.0
11
128.0950
21
569.0000
31
0.0
0
LINE
8
DIM
10
125.9250
20
564.0000
30
0.0
11
128.0950
21
564.0000
31
0.0
0
LINE
8
DIM
10
132.3420
20
568.2500
30
0.0
11
130.7920
21
569.0000
31
0.0
0
LINE
8
DIM
10
130.7920
20
569.0000
30
0.0
11
129.2420
21
567.7500
31
0.0
0
LINE
8
DIM
10
129.2420
20
567.7500
30
0.0
11
129.2420
21
565.2500
31
0.0
0
LINE
8
DIM
10
129.2420
20
565.2500
30
0.0
11
130.7920
21
564.0000
31
0.0
0
LINE
8
DIM
10
130.7920
20
564.0000
30
0.0
11
132.3420
21
564.7500
31
0.0
0
LINE
8
DIM
10
136.8060
20
564.0000
30
0.0
11
136.8060
21
569.0000
31
0.0
0
LINE
8
DIM
10
136.8060
20
569.0000
30
0.0
11
138.9760
21
569.0000
31
0.0
0
LINE
8
DIM
10
138.9760
20
569.0000
30
0.0
11
139.9060
21
568.0000
31
0.0
0
LINE
8
DIM
10
139.9060
20
568.0000
30
0.0
11
139.9060
21
567.0000
31
0.0
0
LINE
8
DIM
10
139.9060
20
567.0000
30
0.0
11
138.9760
21
566.2500
31
0.0
0
LINE
8
DIM
10
138.9760
20
566.2500
30
0.0
11
136.8060
21
566.2500
31
0.0
0
LINE
8
DIM
10
140.5880
20
564.0000
30
0.0
11
140.5880
21
569.0000
31
0.0
0
LINE
8
DIM
10
140.5880
20
569.0000
30
0.0
11
142.1380
21
566.2500
31
0.0
0
LINE
8
DIM
10
142.1380
20
566.2500
30
0.0
11
143.6880
21
569.0000
31
0.0
0
LINE
8
DIM
10
143.6880
20
569.0000
30
0.0
11
143.6880
21
564.0000
31
0.0
0
LINE
8
DIM
10
144.3700
20
564.0000
30
0.0
11
144.3700
21
569.0000
31
0.0
0
LINE
8
DIM
10
144.3700
20
569.0000
30
0.0
11
145.9200
21
566.2500
31
0.0
0
LINE
8
DIM
10
145.9200
20
566.2500
30
0.0
11
147.4700
21
569.0000
31
0.0
0
LINE
8
DIM
10
147.4700
20
569.0000
30
0.0
11
147.4700
21
564.0000
31
0.0
0
LINE
8
DIM
10
148.1520
20
564.0000
30
0.0
11
149.7020
21
569.0000
31
0.0
0
LINE
8
DIM
10
149.7020
20
569.0000
30
0.0
11
151.2520
21
564.0000
31
0.0
0
LINE
8
DIM
10
148.8340
20
566.0000
30
0.0
11
150.5700
21
566.0000
31
0.0
0
LINE
8
DIM
10
166.3800
20
569.0000
30
0.0
11
163.2800
21
569.0000
31
0.0
0
LINE
8
DIM
10
163.2800
20
569.0000
30
0.0
11
163.2800
21
566.7500
31
0.0
0
LINE
8
DIM
10
163.2800
20
566.7500
30
0.0
11
165.1400
21
567.0000
31
0.0
0
LINE
8
DIM
10
165.1400
20
567.0000
30
0.0
11
166.3800
21
566.0000
31
0.0
0
LINE
8
DIM
10
166.3800
20
566.0000
30
0.0
11
166.3800
21
564.7500
31
0.0
0
LINE
8
DIM
10
166.3800
20
564.7500
30
0.0
11
164.8300
21
564.0000
31
0.0
0
LINE
8
DIM
10
164.8300
20
564.0000
30
0.0
11
163.2800
21
564.5000
31
0.0
0
LINE
8
DIM
10
170.8440
20
564.0000
30
0.0
11
170.8440
21
569.0000
31
0.0
0
LINE
8
DIM
10
170.8440
20
569.0000
30
0.0
11
173.0140
21
569.0000
31
0.0
0
LINE
8
DIM
10
173.0140
20
569.0000
30
0.0
11
173.9440
21
568.0000
31
0.0
0
LINE
8
DIM
10
173.9440
20
568.0000
30
0.0
11
173.9440
21
567.0000
31
0.0
0
LINE
8
DIM
10
173.9440
20
567.0000
30
0.0
11
173.0140
21
566.2500
31
0.0
0
LINE
8
DIM
10
173.0140
20
566.2500
30
0.0
11
170.8440
21
566.2500
31
0.0
0
LINE
8
DIM
10
174.6260
20
564.0000
30
0.0
11
176.1760
21
569.0000
31
0.0
0
LINE
8
DIM
10
176.1760
20
569.0000
30
0.0
11
177.7260
21
564.0000
31
0.0
0
LINE
8
DIM
10
175.3080
20
566.0000
30
0.0
11
177.0440
21
566.0000
31
0.0
0
LINE
8
DIM
10
178.4080
20
564.0000
30
0.0
11
178.4080
21
569.0000
31
0.0
0
LINE
8
DIM
10
178.4080
20
569.0000
30
0.0
11
180.5780
21
569.0000
31
0.0
0
LINE
8
DIM
10
180.5780
20
569.0000
30
0.0
11
181.5080
21
568.0000
31
0.0
0
LINE
8
DIM
10
181.5080
20
568.0000
30
0.0
11
181.5080
21
567.0000
31
0.0
0
LINE
8
DIM
10
181.5080
20
567.0000
30
0.0
11
180.5780
21
566.2500
31
0.0
0
LINE
8
DIM
10
180.5780
20
566.2500
30
0.0
11
178.4080
21
566.2500
31
0.0
0
LINE
8
DIM
10
179.9580
20
566.2500
30
0.0
11
181.5080
21
564.0000
31
0.0
0
LINE
8
DIM
10
182.1900
20
569.0000
30
0.0
11
185.2900
21
569.0000
31
0.0
0
LINE
8
DIM
10
183.7400
20
569.0000
30
0.0
11
183.7400
21
564.0000
31
0.0
0
LINE
8
DIM
10
189.0720
20
568.2500
30
0.0
11
187.5220
21
569.0000
31
0.0
0
LINE
8
DIM
10
187.5220
20
569.0000
30
0.0
11
185.9720
21
568.2500
31
0.0
0
LINE
8
DIM
10
185.9720
20
568.2500
30
0.0
11
185.9720
21
567.0000
31
0.0
0
LINE
8
DIM
10
185.9720
20
567.0000
30
0.0
11
189.0720
21
566.0000
31
0.0
0
LINE
8
DIM
10
189.0720
20
566.0000
30
0.0
11
189.0720
21
564.7500
31
0.0
0
LINE
8
DIM
10
189.0720
20
564.7500
30
0.0
11
187.5220
21
564.0000
31
0.0
0
LINE
8
DIM
10
187.5220
20
564.0000
30
0.0
11
185.9720
21
564.7500
31
0.0
0
LINE
8
DIM
10
201.7200
20
568.0000
30
0.0
11
202.6500
21
569.0000
31
0.0
0
LINE
8
DIM
10
202.6500
20
569.0000
30
0.0
11
202.6500
21
564.0000
31
0.0
0
LINE
8
DIM
10
201.5650
20
564.0000
30
0.0
11
203.7350
21
564.0000
31
0.0
0
LINE
8
DIM
10
211.7640
20
568.2500
30
0.0
11
210.2140
21
569.0000
31
0.0
0
LINE
8
DIM
10
210.2140
20
569.0000
30
0.0
11
208.6640
21
568.2500
31
0.0
0
LINE
8
DIM
10
208.6640
20
568.2500
30
0.0
11
208.6640
21
567.0000
31
0.0
0
LINE
8
DIM
10
208.6640
20
567.0000
30
0.0
11
211.7640
21
566.0000
31
0.0
0
LINE
8
DIM
10
211.7640
20
566.0000
30
0.0
11
211.7640
21
564.7500
31
0.0
0
LINE
8
DIM
10
211.7640
20
564.7500
30
0.0
11
210.2140
21
564.0000
31
0.0
0
LINE
8
DIM
10
210.2140
20
564.0000
30
0.0
11
208.6640
21
564.7500
31
0.0
0
LINE
8
DIM
10
215.5460
20
569.0000
30
0.0
11
212.4460
21
569.0000
31
0.0
0
LINE
8
DIM
10
212.4460
20
569.0000
30
0.0
11
212.4460
21
564.0000
31
0.0
0
LINE
8
DIM
10
212.4460
20
564.0000
30
0.0
11
215.5460
21
564.0000
31
0.0
0
LINE
8
DIM
10
212.4460
20
566.5000
30
0.0
11
214.7710
21
566.5000
31
0.0
0
LINE
8
DIM
10
216.2280
20
569.0000
30
0.0
11
219.3280
21
569.0000
31
0.0
0
LINE
8
DIM
10
217.7780
20
569.0000
30
0.0
11
217.7780
21
564.0000
31
0.0
0
LINE
8
DIM
10
12.0000
20
559.0000
30
0.0
11
12.0000
21
554.0000
31
0.0
0
LINE
8
DIM
10
12.0000
20
554.0000
30
0.0
11
14.7900
21
554.0000
31
0.0
0
LINE
8
DIM
10
15.7820
20
554.0000
30
0.0
11
17.3320
21
559.0000
31
0.0
0
LINE
8
DIM
10
17.3320
20
559.0000
30
0.0
11
18.8820
21
554.0000
31
0.0
0
LINE
8
DIM
10
16.4640
20
556.0000
30
0.0
11
18.2000
21
556.0000
31
0.0
0
LINE
8
DIM
10
19.5640
20
559.0000
30
0.0
11
21.1140
21
556.5000
31
0.0
0
LINE
8
DIM
10
21.1140
20
556.5000
30
0.0
11
22.6640
21
559.0000
31
0.0
0
LINE
8
DIM
10
21.1140
20
556.5000
30
0.0
11
21.1140
21
554.0000
31
0.0
0
LINE
8
DIM
10
26.4460
20
559.0000
30
0.0
11
23.3460
21
559.0000
31
0.0
0
LINE
8
DIM
10
23.3460
20
559.0000
30
0.0
11
23.3460
21
554.0000
31
0.0
0
LINE
8
DIM
10
23.3460
20
554.0000
30
0.0
11
26.4460
21
554.0000
31
0.0
0
LINE
8
DIM
10
23.3460
20
556.5000
30
0.0
11
25.6710
21
556.5000
31
0.0
0
LINE
8
DIM
10
27.1280
20
554.0000
30
0.0
11
27.1280
21
559.0000
31
0.0
0
LINE
8
DIM
10
27.1280
20
559.0000
30
0.0
11
29.2980
21
559.0000
31
0.0
0
LINE
8
DIM
10
29.2980
20
559.0000
30
0.0
11
30.2280
21
558.0000
31
0.0
0
LINE
8
DIM
10
30.2280
20
558.0000
30
0.0
11
30.2280
21
557.0000
31
0.0
0
LINE
8
DIM
10
30.2280
20
557.0000
30
0.0
11
29.2980
21
556.2500
31
0.0
0
LINE
8
DIM
10
29.2980
20
556.2500
30
0.0
11
27.1280
21
556.2500
31
0.0
0
LINE
8
DIM
10
28.6780
20
556.2500
30
0.0
11
30.2280
21
554.0000
31
0.0
0
LINE
8
DIM
10
37.7920
20
558.2500
30
0.0
11
36.2420
21
559.0000
31
0.0
0
LINE
8
DIM
10
36.2420
20
559.0000
30
0.0
11
34.6920
21
557.7500
31
0.0
0
LINE
8
DIM
10
34.6920
20
557.7500
30
0.0
11
34.6920
21
555.2500
31
0.0
0
LINE
8
DIM
10
34.6920
20
555.2500
30
0.0
11
36.2420
21
554.0000
31
0.0
0
LINE
8
DIM
10
36.2420
20
554.0000
30
0.0
11
37.7920
21
554.7500
31
0.0
0
LINE
8
DIM
10
38.4740
20
559.0000
30
0.0
11
38.4740
21
555.0000
31
0.0
0
LINE
8
DIM
10
38.4740
20
555.0000
30
0.0
11
40.0240
21
554.0000
31
0.0
0
LINE
8
DIM
10
40.0240
20
554.0000
30
0.0
11
41.5740
21
555.0000
31
0.0
0
LINE
8
DIM
10
41.5740
20
555.0000
30
0.0
11
41.5740
21
559.0000
31
0.0
0
LINE
8
DIM
10
42.2560
20
559.0000
30
0.0
11
45.3560
21
559.0000
31
0.0
0
LINE
8
DIM
10
43.8060
20
559.0000
30
0.0
11
43.8060
21
554.0000
31
0.0
0
LINE
8
DIM
10
50.1300
20
557.1000
30
0.0
11
52.6100
21
557.1000
31
0.0
0
LINE
8
DIM
10
50.1300
20
555.9000
30
0.0
11
52.6100
21
555.9000
31
0.0
0
LINE
8
DIM
10
60.4840
20
558.2500
30
0.0
11
58.9340
21
559.0000
31
0.0
0
LINE
8
DIM
10
58.9340
20
559.0000
30
0.0
11
57.3840
21
557.7500
31
0.0
0
LINE
8
DIM
10
57.3840
20
557.7500
30
0.0
11
57.3840
21
555.2500
31
0.0
0
LINE
8
DIM
10
57.3840
20
555.2500
30
0.0
11
58.9340
21
554.0000
31
0.0
0
LINE
8
DIM
10
58.9340
20
554.0000
30
0.0
11
60.4840
21
554.7500
31
0.0
0
LINE
8
DIM
10
61.1660
20
559.0000
30
0.0
11
61.1660
21
555.0000
31
0.0
0
LINE
8
DIM
10
61.1660
20
555.0000
30
0.0
11
62.7160
21
554.0000
31
0.0
0
LINE
8
DIM
10
62.7160
20
554.0000
30
0.0
11
64.2660
21
555.0000
31
0.0
0
LINE
8
DIM
10
64.2660
20
555.0000
30
0.0
11
64.2660
21
559.0000
31
0.0
0
LINE
8
DIM
10
64.9480
20
559.0000
30
0.0
11
68.0480
21
559.0000
31
0.0
0
LINE
8
DIM
10
66.4980
20
559.0000
30
0.0
11
66.4980
21
554.0000
31
0.0
0
LINE
8
DIM
10
80.0760
20
559.0000
30
0.0
11
80.0760
21
554.0000
31
0.0
0
LINE
8
DIM
10
80.0760
20
554.0000
30
0.0
11
82.8660
21
554.0000
31
0.0
0
LINE
8
DIM
10
83.8580
20
554.0000
30
0.0
11
85.4080
21
559.0000
31
0.0
0
LINE
8
DIM
10
85.4080
20
559.0000
30
0.0
11
86.9580
21
554.0000
31
0.0
0
LINE
8
DIM
10
84.5400
20
556.0000
30
0.0
11
86.2760
21
556.0000
31
0.0
0
LINE
8
DIM
10
87.6400
20
559.0000
30
0.0
11
89.1900
21
556.5000
31
0.0
0
LINE
8
DIM
10
89.1900
20
556.5000
30
0.0
11
90.7400
21
559.0000
31
0.0
0
LINE
8
DIM
10
89.1900
20
556.5000
30
0.0
11
89.1900
21
554.0000
31
0.0
0
LINE
8
DIM
10
94.5220
20
559.0000
30
0.0
11
91.4220
21
559.0000
31
0.0
0
LINE
8
DIM
10
91.4220
20
559.0000
30
0.0
11
91.4220
21
554.0000
31
0.0
0
LINE
8
DIM
10
91.4220
20
554.0000
30
0.0
11
94.5220
21
554.0000
31
0.0
0
LINE
8
DIM
10
91.4220
20
556.5000
30
0.0
11
93.7470
21
556.5000
31
0.0
0
LINE
8
DIM
10
95.2040
20
554.0000
30
0.0
11
95.2040
21
559.0000
31
0.0
0
LINE
8
DIM
10
95.2040
20
559.0000
30
0.0
11
97.3740
21
559.0000
31
0.0
0
LINE
8
DIM
10
97.3740
20
559.0000
30
0.0
11
98.3040
21
558.0000
31
0.0
0
LINE
8
DIM
10
98.3040
20
558.0000
30
0.0
11
98.3040
21
557.0000
31
0.0
0
LINE
8
DIM
10
98.3040
20
557.0000
30
0.0
11
97.3740
21
556.2500
31
0.0
0
LINE
8
DIM
10
97.3740
20
556.2500
30
0.0
11
95.2040
21
556.2500
31
0.0
0
LINE
8
DIM
10
96.7540
20
556.2500
30
0.0
11
98.3040
21
554.0000
31
0.0
0
LINE
8
DIM
10
105.8680
20
559.0000
30
0.0
11
102.7680
21
559.0000
31
0.0
0
LINE
8
DIM
10
102.7680
20
559.0000
30
0.0
11
102.7680
21
554.0000
31
0.0
0
LINE
8
DIM
10
102.7680
20
554.0000
30
0.0
11
105.8680
21
554.0000
31
0.0
0
LINE
8
DIM
10
102.7680
20
556.5000
30
0.0
11
105.0930
21
556.5000
31
0.0
0
LINE
8
DIM
10
106.5500
20
554.0000
30
0.0
11
106.5500
21
559.0000
31
0.0
0
LINE
8
DIM
10
106.5500
20
559.0000
30
0.0
11
109.6500
21
554.0000
31
0.0
0
LINE
8
DIM
10
109.6500
20
554.0000
30
0.0
11
109.6500
21
559.0000
31
0.0
0
LINE
8
DIM
10
113.4320
20
558.2500
30
0.0
11
111.8820
21
559.0000
31
0.0
0
LINE
8
DIM
10
111.8820
20
559.0000
30
0.0
11
110.3320
21
557.7500
31
0.0
0
LINE
8
DIM
10
110.3320
20
557.7500
30
0.0
11
110.3320
21
555.2500
31
0.0
0
LINE
8
DIM
10
110.3320
20
555.2500
30
0.0
11
111.8820
21
554.0000
31
0.0
0
LINE
8
DIM
10
111.8820
20
554.0000
30
0.0
11
113.4320
21
555.0000
31
0.0
0
LINE
8
DIM
10
113.4320
20
555.0000
30
0.0
11
113.4320
21
556.2500
31
0.0
0
LINE
8
DIM
10
113.4320
20
556.2500
30
0.0
11
112.0370
21
556.2500
31
0.0
0
LINE
8
DIM
10
114.1140
20
554.0000
30
0.0
11
114.1140
21
559.0000
31
0.0
0
LINE
8
DIM
10
114.1140
20
559.0000
30
0.0
11
116.2840
21
559.0000
31
0.0
0
LINE
8
DIM
10
116.2840
20
559.0000
30
0.0
11
117.2140
21
558.0000
31
0.0
0
LINE
8
DIM
10
117.2140
20
558.0000
30
0.0
11
117.2140
21
557.0000
31
0.0
0
LINE
8
DIM
10
117.2140
20
557.0000
30
0.0
11
116.2840
21
556.2500
31
0.0
0
LINE
8
DIM
10
116.2840
20
556.2500
30
0.0
11
114.1140
21
556.2500
31
0.0
0
LINE
8
DIM
10
115.6640
20
556.2500
30
0.0
11
117.2140
21
554.0000
31
0.0
0
LINE
8
DIM
10
117.8960
20
554.0000
30
0.0
11
119.4460
21
559.0000
31
0.0
0
LINE
8
DIM
10
119.4460
20
559.0000
30
0.0
11
120.9960
21
554.0000
31
0.0
0
LINE
8
DIM
10
118.5780
20
556.0000
30
0.0
11
120.3140
21
556.0000
31
0.0
0
LINE
8
DIM
10
121.6780
20
559.0000
30
0.0
11
123.2280
21
554.0000
31
0.0
0
LINE
8
DIM
10
123.2280
20
554.0000
30
0.0
11
124.7780
21
559.0000
31
0.0
0
LINE
8
DIM
10
128.5600
20
559.0000
30
0.0
11
125.4600
21
559.0000
31
0.0
0
LINE
8
DIM
10
125.4600
20
559.0000
30
0.0
11
125.4600
21
554.0000
31
0.0
0
LINE
8
DIM
10
125.4600
20
554.0000
30
0.0
11
128.5600
21
554.0000
31
0.0
0
LINE
8
DIM
10
125.4600
20
556.5000
30
0.0
11
127.7850
21
556.5000
31
0.0
0
LINE
8
DIM
10
133.3340
20
557.1000
30
0.0
11
135.8140
21
557.1000
31
0.0
0
LINE
8
DIM
10
133.3340
20
555.9000
30
0.0
11
135.8140
21
555.9000
31
0.0
0
LINE
8
DIM
10
143.6880
20
559.0000
30
0.0
11
140.5880
21
559.0000
31
0.0
0
LINE
8
DIM
10
140.5880
20
559.0000
30
0.0
11
140.5880
21
554.0000
31
0.0
0
LINE
8
DIM
10
140.5880
20
554.0000
30
0.0
11
143.6880
21
554.0000
31
0.0
0
LINE
8
DIM
10
140.5880
20
556.5000
30
0.0
11
142.9130
21
556.5000
31
0.0
0
LINE
8
DIM
10
144.3700
20
554.0000
30
0.0
11
144.3700
21
559.0000
31
0.0
0
LINE
8
DIM
10
144.3700
20
559.0000
30
0.0
11
147.4700
21
554.0000
31
0.0
0
LINE
8
DIM
10
147.4700
20
554.0000
30
0.0
11
147.4700
21
559.0000
31
0.0
0
LINE
8
DIM
10
151.2520
20
558.2500
30
0.0
11
149.7020
21
559.0000
31
0.0
0
LINE
8
DIM
10
149.7020
20
559.0000
30
0.0
11
148.1520
21
557.7500
31
0.0
0
LINE
8
DIM
10
148.1520
20
557.7500
30
0.0
11
148.1520
21
555.2500
31
0.0
0
LINE
8
DIM
10
148.1520
20
555.2500
30
0.0
11
149.7020
21
554.0000
31
0.0
0
LINE
8
DIM
10
149.7020
20
554.0000
30
0.0
11
151.2520
21
555.0000
31
0.0
0
LINE
8
DIM
10
151.2520
20
555.0000
30
0.0
11
151.2520
21
556.2500
31
0.0
0
LINE
8
DIM
10
151.2520
20
556.2500
30
0.0
11
149.8570
21
556.2500
31
0.0
0
LINE
8
DIM
10
151.9340
20
554.0000
30
0.0
11
151.9340
21
559.0000
31
0.0
0
LINE
8
DIM
10
151.9340
20
559.0000
30
0.0
11
154.1040
21
559.0000
31
0.0
0
LINE
8
DIM
10
154.1040
20
559.0000
30
0.0
11
155.0340
21
558.0000
31
0.0
0
LINE
8
DIM
10
155.0340
20
558.0000
30
0.0
11
155.0340
21
557.0000
31
0.0
0
LINE
8
DIM
10
155.0340
20
557.0000
30
0.0
11
154.1040
21
556.2500
31
0.0
0
LINE
8
DIM
10
154.1040
20
556.2500
30
0.0
11
151.9340
21
556.2500
31
0.0
0
LINE
8
DIM
10
153.4840
20
556.2500
30
0.0
11
155.0340
21
554.0000
31
0.0
0
LINE
8
DIM
10
155.7160
20
554.0000
30
0.0
11
157.2660
21
559.0000
31
0.0
0
LINE
8
DIM
10
157.2660
20
559.0000
30
0.0
11
158.8160
21
554.0000
31
0.0
0
LINE
8
DIM
10
156.3980
20
556.0000
30
0.0
11
158.1340
21
556.0000
31
0.0
0
LINE
8
DIM
10
159.4980
20
559.0000
30
0.0
11
161.0480
21
554.0000
31
0.0
0
LINE
8
DIM
10
161.0480
20
554.0000
30
0.0
11
162.5980
21
559.0000
31
0.0
0
LINE
8
DIM
10
166.3800
20
559.0000
30
0.0
11
163.2800
21
559.0000
31
0.0
0
LINE
8
DIM
10
163.2800
20
559.0000
30
0.0
11
163.2800
21
554.0000
31
0.0
0
LINE
8
DIM
10
163.2800
20
554.0000
30
0.0
11
166.3800
21
554.0000
31
0.0
0
LINE
8
DIM
10
163.2800
20
556.5000
30
0.0
11
165.6050
21
556.5000
31
0.0
0
LINE
8
DIM
10
172.3940
20
559.0000
30
0.0
11
170.8440
21
557.7500
31
0.0
0
LINE
8
DIM
10
170.8440
20
557.7500
30
0.0
11
170.8440
21
555.2500
31
0.0
0
LINE
8
DIM
10
170.8440
20
555.2500
30
0.0
11
172.3940
21
554.0000
31
0.0
0
LINE
8
DIM
10
172.3940
20
554.0000
30
0.0
11
173.9440
21
555.2500
31
0.0
0
LINE
8
DIM
10
173.9440
20
555.2500
30
0.0
11
173.9440
21
557.7500
31
0.0
0
LINE
8
DIM
10
173.9440
20
557.7500
30
0.0
11
172.3940
21
559.0000
31
0.0
0
LINE
8
DIM
10
174.6260
20
554.0000
30
0.0
11
174.6260
21
559.0000
31
0.0
0
LINE
8
DIM
10
174.6260
20
559.0000
30
0.0
11
177.7260
21
554.0000
31
0.0
0
LINE
8
DIM
10
177.7260
20
554.0000
30
0.0
11
177.7260
21
559.0000
31
0.0
0
LINE
8
DIM
10
178.4080
20
559.0000
30
0.0
11
178.4080
21
554.0000
31
0.0
0
LINE
8
DIM
10
178.4080
20
554.0000
30
0.0
11
181.1980
21
554.0000
31
0.0
0
LINE
8
DIM
10
182.1900
20
559.0000
30
0.0
11
183.7400
21
556.5000
31
0.0
0
LINE
8
DIM
10
183.7400
20
556.5000
30
0.0
11
185.2900
21
559.0000
31
0.0
0
LINE
8
DIM
10
183.7400
20
556.5000
30
0.0
11
183.7400
21
554.0000
31
0.0
0
LINE
8
DIM
10
197.3180
20
559.0000
30
0.0
11
197.3180
21
554.0000
31
0.0
0
LINE
8
DIM
10
197.3180
20
554.0000
30
0.0
11
200.1080
21
554.0000
31
0.0
0
LINE
8
DIM
10
201.1000
20
554.0000
30
0.0
11
202.6500
21
559.0000
31
0.0
0
LINE
8
DIM
10
202.6500
20
559.0000
30
0.0
11
204.2000
21
554.0000
31
0.0
0
LINE
8
DIM
10
201.7820
20
556.0000
30
0.0
11
203.5180
21
556.0000
31
0.0
0
LINE
8
DIM
10
204.8820
20
559.0000
30
0.0
11
206.4320
21
556.5000
31
0.0
0
LINE
8
DIM
10
206.4320
20
556.5000
30
0.0
11
207.9820
21
559.0000
31
0.0
0
LINE
8
DIM
10
206.4320
20
556.5000
30
0.0
11
206.4320
21
554.0000
31
0.0
0
LINE
8
DIM
10
211.7640
20
559.0000
30
0.0
11
208.6640
21
559.0000
31
0.0
0
LINE
8
DIM
10
208.6640
20
559.0000
30
0.0
11
208.6640
21
554.0000
31
0.0
0
LINE
8
DIM
10
208.6640
20
554.0000
30
0.0
11
211.7640
21
554.0000
31
0.0
0
LINE
8
DIM
10
208.6640
20
556.5000
30
0.0
11
210.9890
21
556.5000
31
0.0
0
LINE
8
DIM
10
212.4460
20
554.0000
30
0.0
11
212.4460
21
559.0000
31
0.0
0
LINE
8
DIM
10
212.4460
20
559.0000
30
0.0
11
214.6160
21
559.0000
31
0.0
0
LINE
8
DIM
10
214.6160
20
559.0000
30
0.0
11
215.5460
21
558.0000
31
0.0
0
LINE
8
DIM
10
215.5460
20
558.0000
30
0.0
11
215.5460
21
557.0000
31
0.0
0
LINE
8
DIM
10
215.5460
20
557.0000
30
0.0
11
214.6160
21
556.2500
31
0.0
0
LINE
8
DIM
10
214.6160
20
556.2500
30
0.0
11
212.4460
21
556.2500
31
0.0
0
LINE
8
DIM
10
213.9960
20
556.2500
30
0.0
11
215.5460
21
554.0000
31
0.0
0
LINE
8
DIM
10
220.0100
20
554.0000
30
0.0
11
220.0100
21
559.0000
31
0.0
0
LINE
8
DIM
10
220.0100
20
559.0000
30
0.0
11
221.8700
21
559.0000
31
0.0
0
LINE
8
DIM
10
221.8700
20
559.0000
30
0.0
11
223.1100
21
557.5000
31
0.0
0
LINE
8
DIM
10
223.1100
20
557.5000
30
0.0
11
223.1100
21
555.5000
31
0.0
0
LINE
8
DIM
10
223.1100
20
555.5000
30
0.0
11
221.8700
21
554.0000
31
0.0
0
LINE
8
DIM
10
221.8700
20
554.0000
30
0.0
11
220.0100
21
554.0000
31
0.0
0
LINE
8
DIM
10
225.3420
20
554.0000
30
0.0
11
225.3420
21
559.0000
31
0.0
0
LINE
8
DIM
10
224.2570
20
559.0000
30
0.0
11
226.4270
21
559.0000
31
0.0
0
LINE
8
DIM
10
224.2570
20
554.0000
30
0.0
11
226.4270
21
554.0000
31
0.0
0
LINE
8
DIM
10
227.5740
20
554.0000
30
0.0
11
227.5740
21
559.0000
31
0.0
0
LINE
8
DIM
10
227.5740
20
559.0000
30
0.0
11
229.1240
21
556.2500
31
0.0
0
LINE
8
DIM
10
229.1240
20
556.2500
30
0.0
11
230.6740
21
559.0000
31
0.0
0
LINE
8
DIM
10
230.6740
20
559.0000
30
0.0
11
230.6740
21
554.0000
31
0.0
0
LINE
8
DIM
10
235.1380
20
554.0000
30
0.0
11
236.6880
21
559.0000
31
0.0
0
LINE
8
DIM
10
236.6880
20
559.0000
30
0.0
11
238.2380
21
554.0000
31
0.0
0
LINE
8
DIM
10
235.8200
20
556.0000
30
0.0
11
237.5560
21
556.0000
31
0.0
0
LINE
8
DIM
10
238.9200
20
554.0000
30
0.0
11
238.9200
21
559.0000
31
0.0
0
LINE
8
DIM
10
238.9200
20
559.0000
30
0.0
11
242.0200
21
554.0000
31
0.0
0
LINE
8
DIM
10
242.0200
20
554.0000
30
0.0
11
242.0200
21
559.0000
31
0.0
0
LINE
8
DIM
10
242.7020
20
554.0000
30
0.0
11
242.7020
21
559.0000
31
0.0
0
LINE
8
DIM
10
242.7020
20
559.0000
30
0.0
11
244.5620
21
559.0000
31
0.0
0
LINE
8
DIM
10
244.5620
20
559.0000
30
0.0
11
245.8020
21
557.5000
31
0.0
0
LINE
8
DIM
10
245.8020
20
557.5000
30
0.0
11
245.8020
21
555.5000
31
0.0
0
LINE
8
DIM
10
245.8020
20
555.5000
30
0.0
11
244.5620
21
554.0000
31
0.0
0
LINE
8
DIM
10
244.5620
20
554.0000
30
0.0
11
242.7020
21
554.0000
31
0.0
0
LINE
8
DIM
10
253.3660
20
558.2500
30
0.0
11
251.8160
21
559.0000
31
0.0
0
LINE
8
DIM
10
251.8160
20
559.0000
30
0.0
11
250.2660
21
558.2500
31
0.0
0
LINE
8
DIM
10
250.2660
20
558.2500
30
0.0
11
250.2660
21
557.0000
31
0.0
0
LINE
8
DIM
10
250.2660
20
557.0000
30
0.0
11
253.3660
21
556.0000
31
0.0
0
LINE
8
DIM
10
253.3660
20
556.0000
30
0.0
11
253.3660
21
554.7500
31
0.0
0
LINE
8
DIM
10
253.3660
20
554.7500
30
0.0
11
251.8160
21
554.0000
31
0.0
0
LINE
8
DIM
10
251.8160
20
554.0000
30
0.0
11
250.2660
21
554.7500
31
0.0
0
LINE
8
DIM
10
254.0480
20
554.0000
30
0.0
11
254.0480
21
559.0000
31
0.0
0
LINE
8
DIM
10
257.1480
20
554.0000
30
0.0
11
257.1480
21
559.0000
31
0.0
0
LINE
8
DIM
10
254.0480
20
556.5000
30
0.0
11
257.1480
21
556.5000
31
0.0
0
LINE
8
DIM
10
260.9300
20
559.0000
30
0.0
11
257.8300
21
559.0000
31
0.0
0
LINE
8
DIM
10
257.8300
20
559.0000
30
0.0
11
257.8300
21
554.0000
31
0.0
0
LINE
8
DIM
10
257.8300
20
554.0000
30
0.0
11
260.9300
21
554.0000
31
0.0
0
LINE
8
DIM
10
257.8300
20
556.5000
30
0.0
11
260.1550
21
556.5000
31
0.0
0
LINE
8
DIM
10
264.7120
20
559.0000
30
0.0
11
261.6120
21
559.0000
31
0.0
0
LINE
8
DIM
10
261.6120
20
559.0000
30
0.0
11
261.6120
21
554.0000
31
0.0
0
LINE
8
DIM
10
261.6120
20
554.0000
30
0.0
11
264.7120
21
554.0000
31
0.0
0
LINE
8
DIM
10
261.6120
20
556.5000
30
0.0
11
263.9370
21
556.5000
31
0.0
0
LINE
8
DIM
10
265.3940
20
559.0000
30
0.0
11
268.4940
21
559.0000
31
0.0
0
LINE
8
DIM
10
266.9440
20
559.0000
30
0.0
11
266.9440
21
554.0000
31
0.0
0
LINE
8
DIM
10
272.9580
20
554.0000
30
0.0
11
272.9580
21
559.0000
31
0.0
0
LINE
8
DIM
10
272.9580
20
559.0000
30
0.0
11
274.8180
21
559.0000
31
0.0
0
LINE
8
DIM
10
274.8180
20
559.0000
30
0.0
11
276.0580
21
557.5000
31
0.0
0
LINE
8
DIM
10
276.0580
20
557.5000
30
0.0
11
276.0580
21
555.5000
31
0.0
0
LINE
8
DIM
10
276.0580
20
555.5000
30
0.0
11
274.8180
21
554.0000
31
0.0
0
LINE
8
DIM
10
274.8180
20
554.0000
30
0.0
11
272.9580
21
554.0000
31
0.0
0
LINE
8
DIM
10
278.2900
20
559.0000
30
0.0
11
276.7400
21
557.7500
31
0.0
0
LINE
8
DIM
10
276.7400
20
557.7500
30
0.0
11
276.7400
21
555.2500
31
0.0
0
LINE
8
DIM
10
276.7400
20
555.2500
30
0.0
11
278.2900
21
554.0000
31
0.0
0
LINE
8
DIM
10
278.2900
20
554.0000
30
0.0
11
279.8400
21
555.2500
31
0.0
0
LINE
8
DIM
10
279.8400
20
555.2500
30
0.0
11
279.8400
21
557.7500
31
0.0
0
LINE
8
DIM
10
279.8400
20
557.7500
30
0.0
11
278.2900
21
559.0000
31
0.0
0
LINE
8
DIM
10
284.3040
20
554.0000
30
0.0
11
284.3040
21
559.0000
31
0.0
0
LINE
8
DIM
10
284.3040
20
559.0000
30
0.0
11
287.4040
21
554.0000
31
0.0
0
LINE
8
DIM
10
287.4040
20
554.0000
30
0.0
11
287.4040
21
559.0000
31
0.0
0
LINE
8
DIM
10
289.6360
20
559.0000
30
0.0
11
288.0860
21
557.7500
31
0.0
0
LINE
8
DIM
10
288.0860
20
557.7500
30
0.0
11
288.0860
21
555.2500
31
0.0
0
LINE
8
DIM
10
288.0860
20
555.2500
30
0.0
11
289.6360
21
554.0000
31
0.0
0
LINE
8
DIM
10
289.6360
20
554.0000
30
0.0
11
291.1860
21
555.2500
31
0.0
0
LINE
8
DIM
10
291.1860
20
555.2500
30
0.0
11
291.1860
21
557.7500
31
0.0
0
LINE
8
DIM
10
291.1860
20
557.7500
30
0.0
11
289.6360
21
559.0000
31
0.0
0
LINE
8
DIM
10
291.8680
20
559.0000
30
0.0
11
294.9680
21
559.0000
31
0.0
0
LINE
8
DIM
10
293.4180
20
559.0000
30
0.0
11
293.4180
21
554.0000
31
0.0
0
LINE
8
DIM
10
302.5320
20
558.2500
30
0.0
11
300.9820
21
559.0000
31
0.0
0
LINE
8
DIM
10
300.9820
20
559.0000
30
0.0
11
299.4320
21
557.7500
31
0.0
0
LINE
8
DIM
10
299.4320
20
557.7500
30
0.0
11
299.4320
21
555.2500
31
0.0
0
LINE
8
DIM
10
299.4320
20
555.2500
30
0.0
11
300.9820
21
554.0000
31
0.0
0
LINE
8
DIM
10
300.9820
20
554.0000
30
0.0
11
302.5320
21
554.7500
31
0.0
0
LINE
8
DIM
10
303.2140
20
559.0000
30
0.0
11
303.2140
21
555.0000
31
0.0
0
LINE
8
DIM
10
303.2140
20
555.0000
30
0.0
11
304.7640
21
554.0000
31
0.0
0
LINE
8
DIM
10
304.7640
20
554.0000
30
0.0
11
306.3140
21
555.0000
31
0.0
0
LINE
8
DIM
10
306.3140
20
555.0000
30
0.0
11
306.3140
21
559.0000
31
0.0
0
LINE
8
DIM
10
306.9960
20
559.0000
30
0.0
11
310.0960
21
559.0000
31
0.0
0
LINE
8
DIM
10
308.5460
20
559.0000
30
0.0
11
308.5460
21
554.0000
31
0.0
0
LINE
8
DIM
10
10.0000
20
300.0000
30
0.0
11
345.0000
21
300.0000
31
0.0
0
LINE
8
DIM
10
10.0000
20
550.0000
30
0.0
11
345.0000
21
550.0000
31
0.0
0
LINE
8
DIM
10
10.0000
20
300.0000
30
0.0
11
10.0000
21
550.0000
31
0.0
0
LINE
8
DIM
10
345.0000
20
300.0000
30
0.0
11
345.0000
21
550.0000
31
0.0
0
LINE
8
DIM
10
18.0000
20
534.0000
30
0.0
11
18.0000
21
541.0000
31
0.0
0
LINE
8
DIM
10
18.0000
20
541.0000
30
0.0
11
21.0380
21
541.0000
31
0.0
0
LINE
8
DIM
10
21.0380
20
541.0000
30
0.0
11
22.3400
21
539.9500
31
0.0
0
LINE
8
DIM
10
22.3400
20
539.9500
30
0.0
11
22.3400
21
538.5500
31
0.0
0
LINE
8
DIM
10
22.3400
20
538.5500
30
0.0
11
21.0380
21
537.5000
31
0.0
0
LINE
8
DIM
10
21.0380
20
537.5000
30
0.0
11
18.0000
21
537.5000
31
0.0
0
LINE
8
DIM
10
21.0380
20
537.5000
30
0.0
11
22.3400
21
536.4500
31
0.0
0
LINE
8
DIM
10
22.3400
20
536.4500
30
0.0
11
22.3400
21
535.0500
31
0.0
0
LINE
8
DIM
10
22.3400
20
535.0500
30
0.0
11
21.0380
21
534.0000
31
0.0
0
LINE
8
DIM
10
21.0380
20
534.0000
30
0.0
11
18.0000
21
534.0000
31
0.0
0
LINE
8
DIM
10
25.4648
20
541.0000
30
0.0
11
23.2948
21
539.2500
31
0.0
0
LINE
8
DIM
10
23.2948
20
539.2500
30
0.0
11
23.2948
21
535.7500
31
0.0
0
LINE
8
DIM
10
23.2948
20
535.7500
30
0.0
11
25.4648
21
534.0000
31
0.0
0
LINE
8
DIM
10
25.4648
20
534.0000
30
0.0
11
27.6348
21
535.7500
31
0.0
0
LINE
8
DIM
10
27.6348
20
535.7500
30
0.0
11
27.6348
21
539.2500
31
0.0
0
LINE
8
DIM
10
27.6348
20
539.2500
30
0.0
11
25.4648
21
541.0000
31
0.0
0
LINE
8
DIM
10
28.5896
20
541.0000
30
0.0
11
32.9296
21
541.0000
31
0.0
0
LINE
8
DIM
10
30.7596
20
541.0000
30
0.0
11
30.7596
21
534.0000
31
0.0
0
LINE
8
DIM
10
33.8844
20
541.0000
30
0.0
11
38.2244
21
541.0000
31
0.0
0
LINE
8
DIM
10
36.0544
20
541.0000
30
0.0
11
36.0544
21
534.0000
31
0.0
0
LINE
8
DIM
10
41.3492
20
541.0000
30
0.0
11
39.1792
21
539.2500
31
0.0
0
LINE
8
DIM
10
39.1792
20
539.2500
30
0.0
11
39.1792
21
535.7500
31
0.0
0
LINE
8
DIM
10
39.1792
20
535.7500
30
0.0
11
41.3492
21
534.0000
31
0.0
0
LINE
8
DIM
10
41.3492
20
534.0000
30
0.0
11
43.5192
21
535.7500
31
0.0
0
LINE
8
DIM
10
43.5192
20
535.7500
30
0.0
11
43.5192
21
539.2500
31
0.0
0
LINE
8
DIM
10
43.5192
20
539.2500
30
0.0
11
41.3492
21
541.0000
31
0.0
0
LINE
8
DIM
10
44.4740
20
534.0000
30
0.0
11
44.4740
21
541.0000
31
0.0
0
LINE
8
DIM
10
44.4740
20
541.0000
30
0.0
11
46.6440
21
537.1500
31
0.0
0
LINE
8
DIM
10
46.6440
20
537.1500
30
0.0
11
48.8140
21
541.0000
31
0.0
0
LINE
8
DIM
10
48.8140
20
541.0000
30
0.0
11
48.8140
21
534.0000
31
0.0
0
LINE
8
DIM
10
55.0636
20
534.0000
30
0.0
11
55.0636
21
541.0000
31
0.0
0
LINE
8
DIM
10
55.0636
20
541.0000
30
0.0
11
58.1016
21
541.0000
31
0.0
0
LINE
8
DIM
10
58.1016
20
541.0000
30
0.0
11
59.4036
21
539.6000
31
0.0
0
LINE
8
DIM
10
59.4036
20
539.6000
30
0.0
11
59.4036
21
538.2000
31
0.0
0
LINE
8
DIM
10
59.4036
20
538.2000
30
0.0
11
58.1016
21
537.1500
31
0.0
0
LINE
8
DIM
10
58.1016
20
537.1500
30
0.0
11
55.0636
21
537.1500
31
0.0
0
LINE
8
DIM
10
60.3584
20
541.0000
30
0.0
11
60.3584
21
534.0000
31
0.0
0
LINE
8
DIM
10
60.3584
20
534.0000
30
0.0
11
64.2644
21
534.0000
31
0.0
0
LINE
8
DIM
10
65.6532
20
534.0000
30
0.0
11
67.8232
21
541.0000
31
0.0
0
LINE
8
DIM
10
67.8232
20
541.0000
30
0.0
11
69.9932
21
534.0000
31
0.0
0
LINE
8
DIM
10
66.6080
20
536.8000
30
0.0
11
69.0384
21
536.8000
31
0.0
0
LINE
8
DIM
10
70.9480
20
541.0000
30
0.0
11
75.2880
21
541.0000
31
0.0
0
LINE
8
DIM
10
73.1180
20
541.0000
30
0.0
11
73.1180
21
534.0000
31
0.0
0
LINE
8
DIM
10
80.5828
20
541.0000
30
0.0
11
76.2428
21
541.0000
31
0.0
0
LINE
8
DIM
10
76.2428
20
541.0000
30
0.0
11
76.2428
21
534.0000
31
0.0
0
LINE
8
DIM
10
76.2428
20
534.0000
30
0.0
11
80.5828
21
534.0000
31
0.0
0
LINE
8
DIM
10
76.2428
20
537.5000
30
0.0
11
79.4978
21
537.5000
31
0.0
0
LINE
8
DIM
10
86.8324
20
534.0000
30
0.0
11
89.0024
21
541.0000
31
0.0
0
LINE
8
DIM
10
89.0024
20
541.0000
30
0.0
11
91.1724
21
534.0000
31
0.0
0
LINE
8
DIM
10
87.7872
20
536.8000
30
0.0
11
90.2176
21
536.8000
31
0.0
0
LINE
8
DIM
10
108.8796
20
539.6000
30
0.0
11
110.1816
21
541.0000
31
0.0
0
LINE
8
DIM
10
110.1816
20
541.0000
30
0.0
11
110.1816
21
534.0000
31
0.0
0
LINE
8
DIM
10
108.6626
20
534.0000
30
0.0
11
111.7006
21
534.0000
31
0.0
0
LINE
8
DIM
10
122.9412
20
541.0000
30
0.0
11
118.6012
21
541.0000
31
0.0
0
LINE
8
DIM
10
118.6012
20
541.0000
30
0.0
11
118.6012
21
534.0000
31
0.0
0
LINE
8
DIM
10
118.6012
20
534.0000
30
0.0
11
122.9412
21
534.0000
31
0.0
0
LINE
8
DIM
10
118.6012
20
537.5000
30
0.0
11
121.8562
21
537.5000
31
0.0
0
LINE
8
DIM
10
123.8960
20
534.0000
30
0.0
11
126.0660
21
541.0000
31
0.0
0
LINE
8
DIM
10
126.0660
20
541.0000
30
0.0
11
128.2360
21
534.0000
31
0.0
0
LINE
8
DIM
10
124.8508
20
536.8000
30
0.0
11
127.2812
21
536.8000
31
0.0
0
LINE
8
DIM
10
283.9160
20
539.9100
30
0.0
11
282.4900
21
540.6000
31
0.0
0
LINE
8
DIM
10
282.4900
20
540.6000
30
0.0
11
281.0640
21
539.4500
31
0.0
0
LINE
8
DIM
10
281.0640
20
539.4500
30
0.0
11
281.0640
21
537.1500
31
0.0
0
LINE
8
DIM
10
281.0640
20
537.1500
30
0.0
11
282.4900
21
536.0000
31
0.0
0
LINE
8
DIM
10
282.4900
20
536.0000
30
0.0
11
283.9160
21
536.6900
31
0.0
0
LINE
8
DIM
10
284.5434
20
540.6000
30
0.0
11
284.5434
21
536.0000
31
0.0
0
LINE
8
DIM
10
284.5434
20
536.0000
30
0.0
11
287.1102
21
536.0000
31
0.0
0
LINE
8
DIM
10
290.8749
20
540.6000
30
0.0
11
288.0229
21
540.6000
31
0.0
0
LINE
8
DIM
10
288.0229
20
540.6000
30
0.0
11
288.0229
21
536.0000
31
0.0
0
LINE
8
DIM
10
288.0229
20
536.0000
30
0.0
11
290.8749
21
536.0000
31
0.0
0
LINE
8
DIM
10
288.0229
20
538.3000
30
0.0
11
290.1619
21
538.3000
31
0.0
0
LINE
8
DIM
10
291.5023
20
536.0000
30
0.0
11
292.9283
21
540.6000
31
0.0
0
LINE
8
DIM
10
292.9283
20
540.6000
30
0.0
11
294.3543
21
536.0000
31
0.0
0
LINE
8
DIM
10
292.1298
20
537.8400
30
0.0
11
293.7269
21
537.8400
31
0.0
0
LINE
8
DIM
10
294.9818
20
536.0000
30
0.0
11
294.9818
21
540.6000
31
0.0
0
LINE
8
DIM
10
294.9818
20
540.6000
30
0.0
11
296.9782
21
540.6000
31
0.0
0
LINE
8
DIM
10
296.9782
20
540.6000
30
0.0
11
297.8338
21
539.6800
31
0.0
0
LINE
8
DIM
10
297.8338
20
539.6800
30
0.0
11
297.8338
21
538.7600
31
0.0
0
LINE
8
DIM
10
297.8338
20
538.7600
30
0.0
11
296.9782
21
538.0700
31
0.0
0
LINE
8
DIM
10
296.9782
20
538.0700
30
0.0
11
294.9818
21
538.0700
31
0.0
0
LINE
8
DIM
10
296.4078
20
538.0700
30
0.0
11
297.8338
21
536.0000
31
0.0
0
LINE
8
DIM
10
301.9406
20
536.0000
30
0.0
11
303.3666
21
540.6000
31
0.0
0
LINE
8
DIM
10
303.3666
20
540.6000
30
0.0
11
304.7926
21
536.0000
31
0.0
0
LINE
8
DIM
10
302.5681
20
537.8400
30
0.0
11
304.1652
21
537.8400
31
0.0
0
LINE
8
DIM
10
308.2721
20
539.9100
30
0.0
11
306.8461
21
540.6000
31
0.0
0
LINE
8
DIM
10
306.8461
20
540.6000
30
0.0
11
305.4201
21
539.4500
31
0.0
0
LINE
8
DIM
10
305.4201
20
539.4500
30
0.0
11
305.4201
21
537.1500
31
0.0
0
LINE
8
DIM
10
305.4201
20
537.1500
30
0.0
11
306.8461
21
536.0000
31
0.0
0
LINE
8
DIM
10
306.8461
20
536.0000
30
0.0
11
308.2721
21
536.6900
31
0.0
0
LINE
8
DIM
10
308.8995
20
536.0000
30
0.0
11
308.8995
21
540.6000
31
0.0
0
LINE
8
DIM
10
308.8995
20
540.6000
30
0.0
11
310.8959
21
540.6000
31
0.0
0
LINE
8
DIM
10
310.8959
20
540.6000
30
0.0
11
311.7515
21
539.6800
31
0.0
0
LINE
8
DIM
10
311.7515
20
539.6800
30
0.0
11
311.7515
21
538.7600
31
0.0
0
LINE
8
DIM
10
311.7515
20
538.7600
30
0.0
11
310.8959
21
538.0700
31
0.0
0
LINE
8
DIM
10
310.8959
20
538.0700
30
0.0
11
308.8995
21
538.0700
31
0.0
0
LINE
8
DIM
10
310.3255
20
538.0700
30
0.0
11
311.7515
21
536.0000
31
0.0
0
LINE
8
DIM
10
312.3790
20
540.6000
30
0.0
11
313.8050
21
538.3000
31
0.0
0
LINE
8
DIM
10
313.8050
20
538.3000
30
0.0
11
315.2310
21
540.6000
31
0.0
0
LINE
8
DIM
10
313.8050
20
538.3000
30
0.0
11
313.8050
21
536.0000
31
0.0
0
LINE
8
DIM
10
315.8584
20
540.6000
30
0.0
11
315.8584
21
536.0000
31
0.0
0
LINE
8
DIM
10
315.8584
20
536.0000
30
0.0
11
318.4252
21
536.0000
31
0.0
0
LINE
8
DIM
10
320.7638
20
536.0000
30
0.0
11
320.7638
21
540.6000
31
0.0
0
LINE
8
DIM
10
319.7656
20
540.6000
30
0.0
11
321.7620
21
540.6000
31
0.0
0
LINE
8
DIM
10
319.7656
20
536.0000
30
0.0
11
321.7620
21
536.0000
31
0.0
0
LINE
8
DIM
10
325.6693
20
539.9100
30
0.0
11
324.2433
21
540.6000
31
0.0
0
LINE
8
DIM
10
324.2433
20
540.6000
30
0.0
11
322.8173
21
539.4500
31
0.0
0
LINE
8
DIM
10
322.8173
20
539.4500
30
0.0
11
322.8173
21
537.1500
31
0.0
0
LINE
8
DIM
10
322.8173
20
537.1500
30
0.0
11
324.2433
21
536.0000
31
0.0
0
LINE
8
DIM
10
324.2433
20
536.0000
30
0.0
11
325.6693
21
536.6900
31
0.0
0
LINE
8
DIM
10
329.7762
20
540.1400
30
0.0
11
331.2022
21
540.6000
31
0.0
0
LINE
8
DIM
10
331.2022
20
540.6000
30
0.0
11
332.6282
21
539.9100
31
0.0
0
LINE
8
DIM
10
332.6282
20
539.9100
30
0.0
11
332.6282
21
538.7600
31
0.0
0
LINE
8
DIM
10
332.6282
20
538.7600
30
0.0
11
331.2022
21
538.3000
31
0.0
0
LINE
8
DIM
10
331.2022
20
538.3000
30
0.0
11
332.6282
21
537.8400
31
0.0
0
LINE
8
DIM
10
332.6282
20
537.8400
30
0.0
11
332.6282
21
536.6900
31
0.0
0
LINE
8
DIM
10
332.6282
20
536.6900
30
0.0
11
331.2022
21
536.0000
31
0.0
0
LINE
8
DIM
10
331.2022
20
536.0000
30
0.0
11
329.7762
21
536.4600
31
0.0
0
LINE
8
DIM
10
333.2556
20
540.6000
30
0.0
11
336.1076
21
540.6000
31
0.0
0
LINE
8
DIM
10
334.6816
20
540.6000
30
0.0
11
334.6816
21
536.0000
31
0.0
0
LINE
8
DIM
10
295.0480
20
530.9100
30
0.0
11
296.4740
21
531.6000
31
0.0
0
LINE
8
DIM
10
296.4740
20
531.6000
30
0.0
11
297.9000
21
530.9100
31
0.0
0
LINE
8
DIM
10
297.9000
20
530.9100
30
0.0
11
297.9000
21
529.7600
31
0.0
0
LINE
8
DIM
10
297.9000
20
529.7600
30
0.0
11
295.0480
21
527.0000
31
0.0
0
LINE
8
DIM
10
295.0480
20
527.0000
30
0.0
11
297.9000
21
527.0000
31
0.0
0
LINE
8
DIM
10
301.3794
20
531.6000
30
0.0
11
298.5274
21
531.6000
31
0.0
0
LINE
8
DIM
10
298.5274
20
531.6000
30
0.0
11
298.5274
21
529.5300
31
0.0
0
LINE
8
DIM
10
298.5274
20
529.5300
30
0.0
11
300.2386
21
529.7600
31
0.0
0
LINE
8
DIM
10
300.2386
20
529.7600
30
0.0
11
301.3794
21
528.8400
31
0.0
0
LINE
8
DIM
10
301.3794
20
528.8400
30
0.0
11
301.3794
21
527.6900
31
0.0
0
LINE
8
DIM
10
301.3794
20
527.6900
30
0.0
11
299.9534
21
527.0000
31
0.0
0
LINE
8
DIM
10
299.9534
20
527.0000
30
0.0
11
298.5274
21
527.4600
31
0.0
0
LINE
8
DIM
10
303.4329
20
531.6000
30
0.0
11
302.0069
21
530.4500
31
0.0
0
LINE
8
DIM
10
302.0069
20
530.4500
30
0.0
11
302.0069
21
528.1500
31
0.0
0
LINE
8
DIM
10
302.0069
20
528.1500
30
0.0
11
303.4329
21
527.0000
31
0.0
0
LINE
8
DIM
10
303.4329
20
527.0000
30
0.0
11
304.8589
21
528.1500
31
0.0
0
LINE
8
DIM
10
304.8589
20
528.1500
30
0.0
11
304.8589
21
530.4500
31
0.0
0
LINE
8
DIM
10
304.8589
20
530.4500
30
0.0
11
303.4329
21
531.6000
31
0.0
0
LINE
8
DIM
10
308.9658
20
527.0000
30
0.0
11
311.8178
21
531.6000
31
0.0
0
LINE
8
DIM
10
308.9658
20
531.6000
30
0.0
11
311.8178
21
527.0000
31
0.0
0
LINE
8
DIM
10
316.4950
20
530.6800
30
0.0
11
317.3506
21
531.6000
31
0.0
0
LINE
8
DIM
10
317.3506
20
531.6000
30
0.0
11
317.3506
21
527.0000
31
0.0
0
LINE
8
DIM
10
316.3524
20
527.0000
30
0.0
11
318.3488
21
527.0000
31
0.0
0
LINE
8
DIM
10
320.8301
20
529.3000
30
0.0
11
319.4041
21
529.9900
31
0.0
0
LINE
8
DIM
10
319.4041
20
529.9900
30
0.0
11
319.4041
21
530.9100
31
0.0
0
LINE
8
DIM
10
319.4041
20
530.9100
30
0.0
11
320.8301
21
531.6000
31
0.0
0
LINE
8
DIM
10
320.8301
20
531.6000
30
0.0
11
322.2561
21
530.9100
31
0.0
0
LINE
8
DIM
10
322.2561
20
530.9100
30
0.0
11
322.2561
21
529.9900
31
0.0
0
LINE
8
DIM
10
322.2561
20
529.9900
30
0.0
11
320.8301
21
529.3000
31
0.0
0
LINE
8
DIM
10
320.8301
20
529.3000
30
0.0
11
319.4041
21
528.6100
31
0.0
0
LINE
8
DIM
10
319.4041
20
528.6100
30
0.0
11
319.4041
21
527.6900
31
0.0
0
LINE
8
DIM
10
319.4041
20
527.6900
30
0.0
11
320.8301
21
527.0000
31
0.0
0
LINE
8
DIM
10
320.8301
20
527.0000
30
0.0
11
322.2561
21
527.6900
31
0.0
0
LINE
8
DIM
10
322.2561
20
527.6900
30
0.0
11
322.2561
21
528.6100
31
0.0
0
LINE
8
DIM
10
322.2561
20
528.6100
30
0.0
11
320.8301
21
529.3000
31
0.0
0
LINE
8
DIM
10
324.3095
20
531.6000
30
0.0
11
322.8835
21
530.4500
31
0.0
0
LINE
8
DIM
10
322.8835
20
530.4500
30
0.0
11
322.8835
21
528.1500
31
0.0
0
LINE
8
DIM
10
322.8835
20
528.1500
30
0.0
11
324.3095
21
527.0000
31
0.0
0
LINE
8
DIM
10
324.3095
20
527.0000
30
0.0
11
325.7355
21
528.1500
31
0.0
0
LINE
8
DIM
10
325.7355
20
528.1500
30
0.0
11
325.7355
21
530.4500
31
0.0
0
LINE
8
DIM
10
325.7355
20
530.4500
30
0.0
11
324.3095
21
531.6000
31
0.0
0
LINE
8
DIM
10
329.8424
20
527.0000
30
0.0
11
329.8424
21
531.6000
31
0.0
0
LINE
8
DIM
10
329.8424
20
531.6000
30
0.0
11
331.2684
21
529.0700
31
0.0
0
LINE
8
DIM
10
331.2684
20
529.0700
30
0.0
11
332.6944
21
531.6000
31
0.0
0
LINE
8
DIM
10
332.6944
20
531.6000
30
0.0
11
332.6944
21
527.0000
31
0.0
0
LINE
8
DIM
10
333.3218
20
527.0000
30
0.0
11
333.3218
21
531.6000
31
0.0
0
LINE
8
DIM
10
333.3218
20
531.6000
30
0.0
11
334.7478
21
529.0700
31
0.0
0
LINE
8
DIM
10
334.7478
20
529.0700
30
0.0
11
336.1738
21
531.6000
31
0.0
0
LINE
8
DIM
10
336.1738
20
531.6000
30
0.0
11
336.1738
21
527.0000
31
0.0
0
LINE
8
DIM
10
283.9160
20
521.9100
30
0.0
11
282.4900
21
522.6000
31
0.0
0
LINE
8
DIM
10
282.4900
20
522.6000
30
0.0
11
281.0640
21
521.4500
31
0.0
0
LINE
8
DIM
10
281.0640
20
521.4500
30
0.0
11
281.0640
21
519.1500
31
0.0
0
LINE
8
DIM
10
281.0640
20
519.1500
30
0.0
11
282.4900
21
518.0000
31
0.0
0
LINE
8
DIM
10
282.4900
20
518.0000
30
0.0
11
283.9160
21
518.6900
31
0.0
0
LINE
8
DIM
10
284.5434
20
522.6000
30
0.0
11
284.5434
21
518.9200
31
0.0
0
LINE
8
DIM
10
284.5434
20
518.9200
30
0.0
11
285.9694
21
518.0000
31
0.0
0
LINE
8
DIM
10
285.9694
20
518.0000
30
0.0
11
287.3954
21
518.9200
31
0.0
0
LINE
8
DIM
10
287.3954
20
518.9200
30
0.0
11
287.3954
21
522.6000
31
0.0
0
LINE
8
DIM
10
288.0229
20
522.6000
30
0.0
11
290.8749
21
522.6000
31
0.0
0
LINE
8
DIM
10
289.4489
20
522.6000
30
0.0
11
289.4489
21
518.0000
31
0.0
0
LINE
8
DIM
10
296.4078
20
522.6000
30
0.0
11
294.9818
21
521.4500
31
0.0
0
LINE
8
DIM
10
294.9818
20
521.4500
30
0.0
11
294.9818
21
519.1500
31
0.0
0
LINE
8
DIM
10
294.9818
20
519.1500
30
0.0
11
296.4078
21
518.0000
31
0.0
0
LINE
8
DIM
10
296.4078
20
518.0000
30
0.0
11
297.8338
21
519.1500
31
0.0
0
LINE
8
DIM
10
297.8338
20
519.1500
30
0.0
11
297.8338
21
521.4500
31
0.0
0
LINE
8
DIM
10
297.8338
20
521.4500
30
0.0
11
296.4078
21
522.6000
31
0.0
0
LINE
8
DIM
10
298.4612
20
518.0000
30
0.0
11
298.4612
21
522.6000
31
0.0
0
LINE
8
DIM
10
298.4612
20
522.6000
30
0.0
11
301.3132
21
518.0000
31
0.0
0
LINE
8
DIM
10
301.3132
20
518.0000
30
0.0
11
301.3132
21
522.6000
31
0.0
0
LINE
8
DIM
10
305.4201
20
522.6000
30
0.0
11
305.4201
21
518.0000
31
0.0
0
LINE
8
DIM
10
305.4201
20
518.0000
30
0.0
11
307.9869
21
518.0000
31
0.0
0
LINE
8
DIM
10
308.8995
20
518.0000
30
0.0
11
310.3255
21
522.6000
31
0.0
0
LINE
8
DIM
10
310.3255
20
522.6000
30
0.0
11
311.7515
21
518.0000
31
0.0
0
LINE
8
DIM
10
309.5270
20
519.8400
30
0.0
11
311.1241
21
519.8400
31
0.0
0
LINE
8
DIM
10
312.3790
20
522.6000
30
0.0
11
313.8050
21
520.3000
31
0.0
0
LINE
8
DIM
10
313.8050
20
520.3000
30
0.0
11
315.2310
21
522.6000
31
0.0
0
LINE
8
DIM
10
313.8050
20
520.3000
30
0.0
11
313.8050
21
518.0000
31
0.0
0
LINE
8
DIM
10
318.7104
20
522.6000
30
0.0
11
315.8584
21
522.6000
31
0.0
0
LINE
8
DIM
10
315.8584
20
522.6000
30
0.0
11
315.8584
21
518.0000
31
0.0
0
LINE
8
DIM
10
315.8584
20
518.0000
30
0.0
11
318.7104
21
518.0000
31
0.0
0
LINE
8
DIM
10
315.8584
20
520.3000
30
0.0
11
317.9974
21
520.3000
31
0.0
0
LINE
8
DIM
10
319.3378
20
518.0000
30
0.0
11
319.3378
21
522.6000
31
0.0
0
LINE
8
DIM
10
319.3378
20
522.6000
30
0.0
11
321.3342
21
522.6000
31
0.0
0
LINE
8
DIM
10
321.3342
20
522.6000
30
0.0
11
322.1898
21
521.6800
31
0.0
0
LINE
8
DIM
10
322.1898
20
521.6800
30
0.0
11
322.1898
21
520.7600
31
0.0
0
LINE
8
DIM
10
322.1898
20
520.7600
30
0.0
11
321.3342
21
520.0700
31
0.0
0
LINE
8
DIM
10
321.3342
20
520.0700
30
0.0
11
319.3378
21
520.0700
31
0.0
0
LINE
8
DIM
10
320.7638
20
520.0700
30
0.0
11
322.1898
21
518.0000
31
0.0
0
LINE
8
DIM
10
329.1487
20
521.9100
30
0.0
11
327.7227
21
522.6000
31
0.0
0
LINE
8
DIM
10
327.7227
20
522.6000
30
0.0
11
326.2967
21
521.4500
31
0.0
0
LINE
8
DIM
10
326.2967
20
521.4500
30
0.0
11
326.2967
21
519.1500
31
0.0
0
LINE
8
DIM
10
326.2967
20
519.1500
30
0.0
11
327.7227
21
518.0000
31
0.0
0
LINE
8
DIM
10
327.7227
20
518.0000
30
0.0
11
329.1487
21
518.6900
31
0.0
0
LINE
8
DIM
10
329.7762
20
522.6000
30
0.0
11
329.7762
21
518.9200
31
0.0
0
LINE
8
DIM
10
329.7762
20
518.9200
30
0.0
11
331.2022
21
518.0000
31
0.0
0
LINE
8
DIM
10
331.2022
20
518.0000
30
0.0
11
332.6282
21
518.9200
31
0.0
0
LINE
8
DIM
10
332.6282
20
518.9200
30
0.0
11
332.6282
21
522.6000
31
0.0
0
LINE
8
DIM
10
333.2556
20
522.6000
30
0.0
11
336.1076
21
522.6000
31
0.0
0
LINE
8
DIM
10
334.6816
20
522.6000
30
0.0
11
334.6816
21
518.0000
31
0.0
0
LINE
8
CUT
10
64.5000
20
334.0000
30
0.0
11
302.5000
21
334.0000
31
0.0
0
LINE
8
CUT
10
64.5000
20
514.0000
30
0.0
11
302.5000
21
514.0000
31
0.0
0
LINE
8
CUT
10
58.5000
20
340.0000
30
0.0
11
58.5000
21
508.0000
31
0.0
0
LINE
8
CUT
10
308.5000
20
340.0000
30
0.0
11
308.5000
21
508.0000
31
0.0
0
ARC
8
CUT
10
302.5000
20
508.0000
30
0.0
40
6.0000
50
0.0000
51
90.0000
0
ARC
8
CUT
10
64.5000
20
508.0000
30
0.0
40
6.0000
50
90.0000
51
180.0000
0
ARC
8
CUT
10
64.5000
20
340.0000
30
0.0
40
6.0000
50
180.0000
51
270.0000
0
ARC
8
CUT
10
302.5000
20
340.0000
30
0.0
40
6.0000
50
270.0000
51
360.0000
0
CIRCLE
8
CUT
10
66.5000
20
342.0000
30
0.0
40
1.7000
0
CIRCLE
8
CUT
10
66.5000
20
506.0000
30
0.0
40
1.7000
0
CIRCLE
8
CUT
10
300.5000
20
342.0000
30
0.0
40
1.7000
0
CIRCLE
8
CUT
10
300.5000
20
506.0000
30
0.0
40
1.7000
0
CIRCLE
8
CUT
10
80.3760
20
495.3740
30
0.0
40
1.7000
0
CIRCLE
8
CUT
10
178.4200
20
495.3740
30
0.0
40
1.7000
0
CIRCLE
8
CUT
10
286.6240
20
495.3740
30
0.0
40
1.7000
0
CIRCLE
8
CUT
10
282.0070
20
478.4000
30
0.0
40
1.7000
0
CIRCLE
8
CUT
10
282.0070
20
420.4000
30
0.0
40
1.7000
0
CIRCLE
8
CUT
10
285.6080
20
400.8860
30
0.0
40
1.7000
0
CIRCLE
8
CUT
10
210.1700
20
400.6320
30
0.0
40
1.7000
0
CIRCLE
8
CUT
10
80.3760
20
373.9620
30
0.0
40
1.7000
0
LINE
8
DIM
10
58.5000
20
321.0000
30
0.0
11
308.5000
21
321.0000
31
0.0
0
LINE
8
DIM
10
58.5000
20
321.0000
30
0.0
11
60.9000
21
321.9600
31
0.0
0
LINE
8
DIM
10
58.5000
20
321.0000
30
0.0
11
60.9000
21
320.0400
31
0.0
0
LINE
8
DIM
10
308.5000
20
321.0000
30
0.0
11
306.1000
21
321.9600
31
0.0
0
LINE
8
DIM
10
308.5000
20
321.0000
30
0.0
11
306.1000
21
320.0400
31
0.0
0
LINE
8
DIM
10
177.8000
20
327.2500
30
0.0
11
179.3500
21
328.0000
31
0.0
0
LINE
8
DIM
10
179.3500
20
328.0000
30
0.0
11
180.9000
21
327.2500
31
0.0
0
LINE
8
DIM
10
180.9000
20
327.2500
30
0.0
11
180.9000
21
326.0000
31
0.0
0
LINE
8
DIM
10
180.9000
20
326.0000
30
0.0
11
177.8000
21
323.0000
31
0.0
0
LINE
8
DIM
10
177.8000
20
323.0000
30
0.0
11
180.9000
21
323.0000
31
0.0
0
LINE
8
DIM
10
184.6820
20
328.0000
30
0.0
11
181.5820
21
328.0000
31
0.0
0
LINE
8
DIM
10
181.5820
20
328.0000
30
0.0
11
181.5820
21
325.7500
31
0.0
0
LINE
8
DIM
10
181.5820
20
325.7500
30
0.0
11
183.4420
21
326.0000
31
0.0
0
LINE
8
DIM
10
183.4420
20
326.0000
30
0.0
11
184.6820
21
325.0000
31
0.0
0
LINE
8
DIM
10
184.6820
20
325.0000
30
0.0
11
184.6820
21
323.7500
31
0.0
0
LINE
8
DIM
10
184.6820
20
323.7500
30
0.0
11
183.1320
21
323.0000
31
0.0
0
LINE
8
DIM
10
183.1320
20
323.0000
30
0.0
11
181.5820
21
323.5000
31
0.0
0
LINE
8
DIM
10
186.9140
20
328.0000
30
0.0
11
185.3640
21
326.7500
31
0.0
0
LINE
8
DIM
10
185.3640
20
326.7500
30
0.0
11
185.3640
21
324.2500
31
0.0
0
LINE
8
DIM
10
185.3640
20
324.2500
30
0.0
11
186.9140
21
323.0000
31
0.0
0
LINE
8
DIM
10
186.9140
20
323.0000
30
0.0
11
188.4640
21
324.2500
31
0.0
0
LINE
8
DIM
10
188.4640
20
324.2500
30
0.0
11
188.4640
21
326.7500
31
0.0
0
LINE
8
DIM
10
188.4640
20
326.7500
30
0.0
11
186.9140
21
328.0000
31
0.0
0
LINE
8
DIM
10
45.5000
20
334.0000
30
0.0
11
45.5000
21
514.0000
31
0.0
0
LINE
8
DIM
10
45.5000
20
334.0000
30
0.0
11
46.4600
21
336.4000
31
0.0
0
LINE
8
DIM
10
45.5000
20
334.0000
30
0.0
11
44.5400
21
336.4000
31
0.0
0
LINE
8
DIM
10
45.5000
20
514.0000
30
0.0
11
46.4600
21
511.6000
31
0.0
0
LINE
8
DIM
10
45.5000
20
514.0000
30
0.0
11
44.5400
21
511.6000
31
0.0
0
LINE
8
DIM
10
30.7200
20
425.5000
30
0.0
11
31.6500
21
426.5000
31
0.0
0
LINE
8
DIM
10
31.6500
20
426.5000
30
0.0
11
31.6500
21
421.5000
31
0.0
0
LINE
8
DIM
10
30.5650
20
421.5000
30
0.0
11
32.7350
21
421.5000
31
0.0
0
LINE
8
DIM
10
35.4320
20
424.0000
30
0.0
11
33.8820
21
424.7500
31
0.0
0
LINE
8
DIM
10
33.8820
20
424.7500
30
0.0
11
33.8820
21
425.7500
31
0.0
0
LINE
8
DIM
10
33.8820
20
425.7500
30
0.0
11
35.4320
21
426.5000
31
0.0
0
LINE
8
DIM
10
35.4320
20
426.5000
30
0.0
11
36.9820
21
425.7500
31
0.0
0
LINE
8
DIM
10
36.9820
20
425.7500
30
0.0
11
36.9820
21
424.7500
31
0.0
0
LINE
8
DIM
10
36.9820
20
424.7500
30
0.0
11
35.4320
21
424.0000
31
0.0
0
LINE
8
DIM
10
35.4320
20
424.0000
30
0.0
11
33.8820
21
423.2500
31
0.0
0
LINE
8
DIM
10
33.8820
20
423.2500
30
0.0
11
33.8820
21
422.2500
31
0.0
0
LINE
8
DIM
10
33.8820
20
422.2500
30
0.0
11
35.4320
21
421.5000
31
0.0
0
LINE
8
DIM
10
35.4320
20
421.5000
30
0.0
11
36.9820
21
422.2500
31
0.0
0
LINE
8
DIM
10
36.9820
20
422.2500
30
0.0
11
36.9820
21
423.2500
31
0.0
0
LINE
8
DIM
10
36.9820
20
423.2500
30
0.0
11
35.4320
21
424.0000
31
0.0
0
LINE
8
DIM
10
39.2140
20
426.5000
30
0.0
11
37.6640
21
425.2500
31
0.0
0
LINE
8
DIM
10
37.6640
20
425.2500
30
0.0
11
37.6640
21
422.7500
31
0.0
0
LINE
8
DIM
10
37.6640
20
422.7500
30
0.0
11
39.2140
21
421.5000
31
0.0
0
LINE
8
DIM
10
39.2140
20
421.5000
30
0.0
11
40.7640
21
422.7500
31
0.0
0
LINE
8
DIM
10
40.7640
20
422.7500
30
0.0
11
40.7640
21
425.2500
31
0.0
0
LINE
8
DIM
10
40.7640
20
425.2500
30
0.0
11
39.2140
21
426.5000
31
0.0
0
LINE
8
DIM
10
355.0000
20
300.0000
30
0.0
11
690.0000
21
300.0000
31
0.0
0
LINE
8
DIM
10
355.0000
20
550.0000
30
0.0
11
690.0000
21
550.0000
31
0.0
0
LINE
8
DIM
10
355.0000
20
300.0000
30
0.0
11
355.0000
21
550.0000
31
0.0
0
LINE
8
DIM
10
690.0000
20
300.0000
30
0.0
11
690.0000
21
550.0000
31
0.0
0
LINE
8
DIM
10
363.0000
20
534.0000
30
0.0
11
363.0000
21
541.0000
31
0.0
0
LINE
8
DIM
10
363.0000
20
541.0000
30
0.0
11
365.1700
21
537.1500
31
0.0
0
LINE
8
DIM
10
365.1700
20
537.1500
30
0.0
11
367.3400
21
541.0000
31
0.0
0
LINE
8
DIM
10
367.3400
20
541.0000
30
0.0
11
367.3400
21
534.0000
31
0.0
0
LINE
8
DIM
10
370.4648
20
534.0000
30
0.0
11
370.4648
21
541.0000
31
0.0
0
LINE
8
DIM
10
368.9458
20
541.0000
30
0.0
11
371.9838
21
541.0000
31
0.0
0
LINE
8
DIM
10
368.9458
20
534.0000
30
0.0
11
371.9838
21
534.0000
31
0.0
0
LINE
8
DIM
10
373.5896
20
534.0000
30
0.0
11
373.5896
21
541.0000
31
0.0
0
LINE
8
DIM
10
373.5896
20
541.0000
30
0.0
11
376.1936
21
541.0000
31
0.0
0
LINE
8
DIM
10
376.1936
20
541.0000
30
0.0
11
377.9296
21
538.9000
31
0.0
0
LINE
8
DIM
10
377.9296
20
538.9000
30
0.0
11
377.9296
21
536.1000
31
0.0
0
LINE
8
DIM
10
377.9296
20
536.1000
30
0.0
11
376.1936
21
534.0000
31
0.0
0
LINE
8
DIM
10
376.1936
20
534.0000
30
0.0
11
373.5896
21
534.0000
31
0.0
0
LINE
8
DIM
10
378.8844
20
534.0000
30
0.0
11
378.8844
21
541.0000
31
0.0
0
LINE
8
DIM
10
378.8844
20
541.0000
30
0.0
11
381.4884
21
541.0000
31
0.0
0
LINE
8
DIM
10
381.4884
20
541.0000
30
0.0
11
383.2244
21
538.9000
31
0.0
0
LINE
8
DIM
10
383.2244
20
538.9000
30
0.0
11
383.2244
21
536.1000
31
0.0
0
LINE
8
DIM
10
383.2244
20
536.1000
30
0.0
11
381.4884
21
534.0000
31
0.0
0
LINE
8
DIM
10
381.4884
20
534.0000
30
0.0
11
378.8844
21
534.0000
31
0.0
0
LINE
8
DIM
10
384.1792
20
541.0000
30
0.0
11
384.1792
21
534.0000
31
0.0
0
LINE
8
DIM
10
384.1792
20
534.0000
30
0.0
11
388.0852
21
534.0000
31
0.0
0
LINE
8
DIM
10
393.8140
20
541.0000
30
0.0
11
389.4740
21
541.0000
31
0.0
0
LINE
8
DIM
10
389.4740
20
541.0000
30
0.0
11
389.4740
21
534.0000
31
0.0
0
LINE
8
DIM
10
389.4740
20
534.0000
30
0.0
11
393.8140
21
534.0000
31
0.0
0
LINE
8
DIM
10
389.4740
20
537.5000
30
0.0
11
392.7290
21
537.5000
31
0.0
0
LINE
8
DIM
10
400.0636
20
534.0000
30
0.0
11
400.0636
21
541.0000
31
0.0
0
LINE
8
DIM
10
400.0636
20
541.0000
30
0.0
11
403.1016
21
541.0000
31
0.0
0
LINE
8
DIM
10
403.1016
20
541.0000
30
0.0
11
404.4036
21
539.6000
31
0.0
0
LINE
8
DIM
10
404.4036
20
539.6000
30
0.0
11
404.4036
21
538.2000
31
0.0
0
LINE
8
DIM
10
404.4036
20
538.2000
30
0.0
11
403.1016
21
537.1500
31
0.0
0
LINE
8
DIM
10
403.1016
20
537.1500
30
0.0
11
400.0636
21
537.1500
31
0.0
0
LINE
8
DIM
10
405.3584
20
541.0000
30
0.0
11
405.3584
21
534.0000
31
0.0
0
LINE
8
DIM
10
405.3584
20
534.0000
30
0.0
11
409.2644
21
534.0000
31
0.0
0
LINE
8
DIM
10
410.6532
20
534.0000
30
0.0
11
412.8232
21
541.0000
31
0.0
0
LINE
8
DIM
10
412.8232
20
541.0000
30
0.0
11
414.9932
21
534.0000
31
0.0
0
LINE
8
DIM
10
411.6080
20
536.8000
30
0.0
11
414.0384
21
536.8000
31
0.0
0
LINE
8
DIM
10
415.9480
20
541.0000
30
0.0
11
420.2880
21
541.0000
31
0.0
0
LINE
8
DIM
10
418.1180
20
541.0000
30
0.0
11
418.1180
21
534.0000
31
0.0
0
LINE
8
DIM
10
425.5828
20
541.0000
30
0.0
11
421.2428
21
541.0000
31
0.0
0
LINE
8
DIM
10
421.2428
20
541.0000
30
0.0
11
421.2428
21
534.0000
31
0.0
0
LINE
8
DIM
10
421.2428
20
534.0000
30
0.0
11
425.5828
21
534.0000
31
0.0
0
LINE
8
DIM
10
421.2428
20
537.5000
30
0.0
11
424.4978
21
537.5000
31
0.0
0
LINE
8
DIM
10
431.8324
20
534.0000
30
0.0
11
431.8324
21
541.0000
31
0.0
0
LINE
8
DIM
10
431.8324
20
541.0000
30
0.0
11
434.8704
21
541.0000
31
0.0
0
LINE
8
DIM
10
434.8704
20
541.0000
30
0.0
11
436.1724
21
539.9500
31
0.0
0
LINE
8
DIM
10
436.1724
20
539.9500
30
0.0
11
436.1724
21
538.5500
31
0.0
0
LINE
8
DIM
10
436.1724
20
538.5500
30
0.0
11
434.8704
21
537.5000
31
0.0
0
LINE
8
DIM
10
434.8704
20
537.5000
30
0.0
11
431.8324
21
537.5000
31
0.0
0
LINE
8
DIM
10
434.8704
20
537.5000
30
0.0
11
436.1724
21
536.4500
31
0.0
0
LINE
8
DIM
10
436.1724
20
536.4500
30
0.0
11
436.1724
21
535.0500
31
0.0
0
LINE
8
DIM
10
436.1724
20
535.0500
30
0.0
11
434.8704
21
534.0000
31
0.0
0
LINE
8
DIM
10
434.8704
20
534.0000
30
0.0
11
431.8324
21
534.0000
31
0.0
0
LINE
8
DIM
10
453.8796
20
539.6000
30
0.0
11
455.1816
21
541.0000
31
0.0
0
LINE
8
DIM
10
455.1816
20
541.0000
30
0.0
11
455.1816
21
534.0000
31
0.0
0
LINE
8
DIM
10
453.6626
20
534.0000
30
0.0
11
456.7006
21
534.0000
31
0.0
0
LINE
8
DIM
10
467.9412
20
541.0000
30
0.0
11
463.6012
21
541.0000
31
0.0
0
LINE
8
DIM
10
463.6012
20
541.0000
30
0.0
11
463.6012
21
534.0000
31
0.0
0
LINE
8
DIM
10
463.6012
20
534.0000
30
0.0
11
467.9412
21
534.0000
31
0.0
0
LINE
8
DIM
10
463.6012
20
537.5000
30
0.0
11
466.8562
21
537.5000
31
0.0
0
LINE
8
DIM
10
468.8960
20
534.0000
30
0.0
11
471.0660
21
541.0000
31
0.0
0
LINE
8
DIM
10
471.0660
20
541.0000
30
0.0
11
473.2360
21
534.0000
31
0.0
0
LINE
8
DIM
10
469.8508
20
536.8000
30
0.0
11
472.2812
21
536.8000
31
0.0
0
LINE
8
DIM
10
628.9160
20
539.9100
30
0.0
11
627.4900
21
540.6000
31
0.0
0
LINE
8
DIM
10
627.4900
20
540.6000
30
0.0
11
626.0640
21
539.4500
31
0.0
0
LINE
8
DIM
10
626.0640
20
539.4500
30
0.0
11
626.0640
21
537.1500
31
0.0
0
LINE
8
DIM
10
626.0640
20
537.1500
30
0.0
11
627.4900
21
536.0000
31
0.0
0
LINE
8
DIM
10
627.4900
20
536.0000
30
0.0
11
628.9160
21
536.6900
31
0.0
0
LINE
8
DIM
10
629.5434
20
540.6000
30
0.0
11
629.5434
21
536.0000
31
0.0
0
LINE
8
DIM
10
629.5434
20
536.0000
30
0.0
11
632.1102
21
536.0000
31
0.0
0
LINE
8
DIM
10
635.8749
20
540.6000
30
0.0
11
633.0229
21
540.6000
31
0.0
0
LINE
8
DIM
10
633.0229
20
540.6000
30
0.0
11
633.0229
21
536.0000
31
0.0
0
LINE
8
DIM
10
633.0229
20
536.0000
30
0.0
11
635.8749
21
536.0000
31
0.0
0
LINE
8
DIM
10
633.0229
20
538.3000
30
0.0
11
635.1619
21
538.3000
31
0.0
0
LINE
8
DIM
10
636.5023
20
536.0000
30
0.0
11
637.9283
21
540.6000
31
0.0
0
LINE
8
DIM
10
637.9283
20
540.6000
30
0.0
11
639.3543
21
536.0000
31
0.0
0
LINE
8
DIM
10
637.1298
20
537.8400
30
0.0
11
638.7269
21
537.8400
31
0.0
0
LINE
8
DIM
10
639.9818
20
536.0000
30
0.0
11
639.9818
21
540.6000
31
0.0
0
LINE
8
DIM
10
639.9818
20
540.6000
30
0.0
11
641.9782
21
540.6000
31
0.0
0
LINE
8
DIM
10
641.9782
20
540.6000
30
0.0
11
642.8338
21
539.6800
31
0.0
0
LINE
8
DIM
10
642.8338
20
539.6800
30
0.0
11
642.8338
21
538.7600
31
0.0
0
LINE
8
DIM
10
642.8338
20
538.7600
30
0.0
11
641.9782
21
538.0700
31
0.0
0
LINE
8
DIM
10
641.9782
20
538.0700
30
0.0
11
639.9818
21
538.0700
31
0.0
0
LINE
8
DIM
10
641.4078
20
538.0700
30
0.0
11
642.8338
21
536.0000
31
0.0
0
LINE
8
DIM
10
646.9406
20
536.0000
30
0.0
11
648.3666
21
540.6000
31
0.0
0
LINE
8
DIM
10
648.3666
20
540.6000
30
0.0
11
649.7926
21
536.0000
31
0.0
0
LINE
8
DIM
10
647.5681
20
537.8400
30
0.0
11
649.1652
21
537.8400
31
0.0
0
LINE
8
DIM
10
653.2721
20
539.9100
30
0.0
11
651.8461
21
540.6000
31
0.0
0
LINE
8
DIM
10
651.8461
20
540.6000
30
0.0
11
650.4201
21
539.4500
31
0.0
0
LINE
8
DIM
10
650.4201
20
539.4500
30
0.0
11
650.4201
21
537.1500
31
0.0
0
LINE
8
DIM
10
650.4201
20
537.1500
30
0.0
11
651.8461
21
536.0000
31
0.0
0
LINE
8
DIM
10
651.8461
20
536.0000
30
0.0
11
653.2721
21
536.6900
31
0.0
0
LINE
8
DIM
10
653.8995
20
536.0000
30
0.0
11
653.8995
21
540.6000
31
0.0
0
LINE
8
DIM
10
653.8995
20
540.6000
30
0.0
11
655.8959
21
540.6000
31
0.0
0
LINE
8
DIM
10
655.8959
20
540.6000
30
0.0
11
656.7515
21
539.6800
31
0.0
0
LINE
8
DIM
10
656.7515
20
539.6800
30
0.0
11
656.7515
21
538.7600
31
0.0
0
LINE
8
DIM
10
656.7515
20
538.7600
30
0.0
11
655.8959
21
538.0700
31
0.0
0
LINE
8
DIM
10
655.8959
20
538.0700
30
0.0
11
653.8995
21
538.0700
31
0.0
0
LINE
8
DIM
10
655.3255
20
538.0700
30
0.0
11
656.7515
21
536.0000
31
0.0
0
LINE
8
DIM
10
657.3790
20
540.6000
30
0.0
11
658.8050
21
538.3000
31
0.0
0
LINE
8
DIM
10
658.8050
20
538.3000
30
0.0
11
660.2310
21
540.6000
31
0.0
0
LINE
8
DIM
10
658.8050
20
538.3000
30
0.0
11
658.8050
21
536.0000
31
0.0
0
LINE
8
DIM
10
660.8584
20
540.6000
30
0.0
11
660.8584
21
536.0000
31
0.0
0
LINE
8
DIM
10
660.8584
20
536.0000
30
0.0
11
663.4252
21
536.0000
31
0.0
0
LINE
8
DIM
10
665.7638
20
536.0000
30
0.0
11
665.7638
21
540.6000
31
0.0
0
LINE
8
DIM
10
664.7656
20
540.6000
30
0.0
11
666.7620
21
540.6000
31
0.0
0
LINE
8
DIM
10
664.7656
20
536.0000
30
0.0
11
666.7620
21
536.0000
31
0.0
0
LINE
8
DIM
10
670.6693
20
539.9100
30
0.0
11
669.2433
21
540.6000
31
0.0
0
LINE
8
DIM
10
669.2433
20
540.6000
30
0.0
11
667.8173
21
539.4500
31
0.0
0
LINE
8
DIM
10
667.8173
20
539.4500
30
0.0
11
667.8173
21
537.1500
31
0.0
0
LINE
8
DIM
10
667.8173
20
537.1500
30
0.0
11
669.2433
21
536.0000
31
0.0
0
LINE
8
DIM
10
669.2433
20
536.0000
30
0.0
11
670.6693
21
536.6900
31
0.0
0
LINE
8
DIM
10
674.7762
20
540.1400
30
0.0
11
676.2022
21
540.6000
31
0.0
0
LINE
8
DIM
10
676.2022
20
540.6000
30
0.0
11
677.6282
21
539.9100
31
0.0
0
LINE
8
DIM
10
677.6282
20
539.9100
30
0.0
11
677.6282
21
538.7600
31
0.0
0
LINE
8
DIM
10
677.6282
20
538.7600
30
0.0
11
676.2022
21
538.3000
31
0.0
0
LINE
8
DIM
10
676.2022
20
538.3000
30
0.0
11
677.6282
21
537.8400
31
0.0
0
LINE
8
DIM
10
677.6282
20
537.8400
30
0.0
11
677.6282
21
536.6900
31
0.0
0
LINE
8
DIM
10
677.6282
20
536.6900
30
0.0
11
676.2022
21
536.0000
31
0.0
0
LINE
8
DIM
10
676.2022
20
536.0000
30
0.0
11
674.7762
21
536.4600
31
0.0
0
LINE
8
DIM
10
678.2556
20
540.6000
30
0.0
11
681.1076
21
540.6000
31
0.0
0
LINE
8
DIM
10
679.6816
20
540.6000
30
0.0
11
679.6816
21
536.0000
31
0.0
0
LINE
8
DIM
10
640.0480
20
530.9100
30
0.0
11
641.4740
21
531.6000
31
0.0
0
LINE
8
DIM
10
641.4740
20
531.6000
30
0.0
11
642.9000
21
530.9100
31
0.0
0
LINE
8
DIM
10
642.9000
20
530.9100
30
0.0
11
642.9000
21
529.7600
31
0.0
0
LINE
8
DIM
10
642.9000
20
529.7600
30
0.0
11
640.0480
21
527.0000
31
0.0
0
LINE
8
DIM
10
640.0480
20
527.0000
30
0.0
11
642.9000
21
527.0000
31
0.0
0
LINE
8
DIM
10
646.3794
20
531.6000
30
0.0
11
643.5274
21
531.6000
31
0.0
0
LINE
8
DIM
10
643.5274
20
531.6000
30
0.0
11
643.5274
21
529.5300
31
0.0
0
LINE
8
DIM
10
643.5274
20
529.5300
30
0.0
11
645.2386
21
529.7600
31
0.0
0
LINE
8
DIM
10
645.2386
20
529.7600
30
0.0
11
646.3794
21
528.8400
31
0.0
0
LINE
8
DIM
10
646.3794
20
528.8400
30
0.0
11
646.3794
21
527.6900
31
0.0
0
LINE
8
DIM
10
646.3794
20
527.6900
30
0.0
11
644.9534
21
527.0000
31
0.0
0
LINE
8
DIM
10
644.9534
20
527.0000
30
0.0
11
643.5274
21
527.4600
31
0.0
0
LINE
8
DIM
10
648.4329
20
531.6000
30
0.0
11
647.0069
21
530.4500
31
0.0
0
LINE
8
DIM
10
647.0069
20
530.4500
30
0.0
11
647.0069
21
528.1500
31
0.0
0
LINE
8
DIM
10
647.0069
20
528.1500
30
0.0
11
648.4329
21
527.0000
31
0.0
0
LINE
8
DIM
10
648.4329
20
527.0000
30
0.0
11
649.8589
21
528.1500
31
0.0
0
LINE
8
DIM
10
649.8589
20
528.1500
30
0.0
11
649.8589
21
530.4500
31
0.0
0
LINE
8
DIM
10
649.8589
20
530.4500
30
0.0
11
648.4329
21
531.6000
31
0.0
0
LINE
8
DIM
10
653.9658
20
527.0000
30
0.0
11
656.8178
21
531.6000
31
0.0
0
LINE
8
DIM
10
653.9658
20
531.6000
30
0.0
11
656.8178
21
527.0000
31
0.0
0
LINE
8
DIM
10
661.4950
20
530.6800
30
0.0
11
662.3506
21
531.6000
31
0.0
0
LINE
8
DIM
10
662.3506
20
531.6000
30
0.0
11
662.3506
21
527.0000
31
0.0
0
LINE
8
DIM
10
661.3524
20
527.0000
30
0.0
11
663.3488
21
527.0000
31
0.0
0
LINE
8
DIM
10
665.8301
20
529.3000
30
0.0
11
664.4041
21
529.9900
31
0.0
0
LINE
8
DIM
10
664.4041
20
529.9900
30
0.0
11
664.4041
21
530.9100
31
0.0
0
LINE
8
DIM
10
664.4041
20
530.9100
30
0.0
11
665.8301
21
531.6000
31
0.0
0
LINE
8
DIM
10
665.8301
20
531.6000
30
0.0
11
667.2561
21
530.9100
31
0.0
0
LINE
8
DIM
10
667.2561
20
530.9100
30
0.0
11
667.2561
21
529.9900
31
0.0
0
LINE
8
DIM
10
667.2561
20
529.9900
30
0.0
11
665.8301
21
529.3000
31
0.0
0
LINE
8
DIM
10
665.8301
20
529.3000
30
0.0
11
664.4041
21
528.6100
31
0.0
0
LINE
8
DIM
10
664.4041
20
528.6100
30
0.0
11
664.4041
21
527.6900
31
0.0
0
LINE
8
DIM
10
664.4041
20
527.6900
30
0.0
11
665.8301
21
527.0000
31
0.0
0
LINE
8
DIM
10
665.8301
20
527.0000
30
0.0
11
667.2561
21
527.6900
31
0.0
0
LINE
8
DIM
10
667.2561
20
527.6900
30
0.0
11
667.2561
21
528.6100
31
0.0
0
LINE
8
DIM
10
667.2561
20
528.6100
30
0.0
11
665.8301
21
529.3000
31
0.0
0
LINE
8
DIM
10
669.3095
20
531.6000
30
0.0
11
667.8835
21
530.4500
31
0.0
0
LINE
8
DIM
10
667.8835
20
530.4500
30
0.0
11
667.8835
21
528.1500
31
0.0
0
LINE
8
DIM
10
667.8835
20
528.1500
30
0.0
11
669.3095
21
527.0000
31
0.0
0
LINE
8
DIM
10
669.3095
20
527.0000
30
0.0
11
670.7355
21
528.1500
31
0.0
0
LINE
8
DIM
10
670.7355
20
528.1500
30
0.0
11
670.7355
21
530.4500
31
0.0
0
LINE
8
DIM
10
670.7355
20
530.4500
30
0.0
11
669.3095
21
531.6000
31
0.0
0
LINE
8
DIM
10
674.8424
20
527.0000
30
0.0
11
674.8424
21
531.6000
31
0.0
0
LINE
8
DIM
10
674.8424
20
531.6000
30
0.0
11
676.2684
21
529.0700
31
0.0
0
LINE
8
DIM
10
676.2684
20
529.0700
30
0.0
11
677.6944
21
531.6000
31
0.0
0
LINE
8
DIM
10
677.6944
20
531.6000
30
0.0
11
677.6944
21
527.0000
31
0.0
0
LINE
8
DIM
10
678.3218
20
527.0000
30
0.0
11
678.3218
21
531.6000
31
0.0
0
LINE
8
DIM
10
678.3218
20
531.6000
30
0.0
11
679.7478
21
529.0700
31
0.0
0
LINE
8
DIM
10
679.7478
20
529.0700
30
0.0
11
681.1738
21
531.6000
31
0.0
0
LINE
8
DIM
10
681.1738
20
531.6000
30
0.0
11
681.1738
21
527.0000
31
0.0
0
LINE
8
DIM
10
628.9160
20
521.9100
30
0.0
11
627.4900
21
522.6000
31
0.0
0
LINE
8
DIM
10
627.4900
20
522.6000
30
0.0
11
626.0640
21
521.4500
31
0.0
0
LINE
8
DIM
10
626.0640
20
521.4500
30
0.0
11
626.0640
21
519.1500
31
0.0
0
LINE
8
DIM
10
626.0640
20
519.1500
30
0.0
11
627.4900
21
518.0000
31
0.0
0
LINE
8
DIM
10
627.4900
20
518.0000
30
0.0
11
628.9160
21
518.6900
31
0.0
0
LINE
8
DIM
10
629.5434
20
522.6000
30
0.0
11
629.5434
21
518.9200
31
0.0
0
LINE
8
DIM
10
629.5434
20
518.9200
30
0.0
11
630.9694
21
518.0000
31
0.0
0
LINE
8
DIM
10
630.9694
20
518.0000
30
0.0
11
632.3954
21
518.9200
31
0.0
0
LINE
8
DIM
10
632.3954
20
518.9200
30
0.0
11
632.3954
21
522.6000
31
0.0
0
LINE
8
DIM
10
633.0229
20
522.6000
30
0.0
11
635.8749
21
522.6000
31
0.0
0
LINE
8
DIM
10
634.4489
20
522.6000
30
0.0
11
634.4489
21
518.0000
31
0.0
0
LINE
8
DIM
10
641.4078
20
522.6000
30
0.0
11
639.9818
21
521.4500
31
0.0
0
LINE
8
DIM
10
639.9818
20
521.4500
30
0.0
11
639.9818
21
519.1500
31
0.0
0
LINE
8
DIM
10
639.9818
20
519.1500
30
0.0
11
641.4078
21
518.0000
31
0.0
0
LINE
8
DIM
10
641.4078
20
518.0000
30
0.0
11
642.8338
21
519.1500
31
0.0
0
LINE
8
DIM
10
642.8338
20
519.1500
30
0.0
11
642.8338
21
521.4500
31
0.0
0
LINE
8
DIM
10
642.8338
20
521.4500
30
0.0
11
641.4078
21
522.6000
31
0.0
0
LINE
8
DIM
10
643.4612
20
518.0000
30
0.0
11
643.4612
21
522.6000
31
0.0
0
LINE
8
DIM
10
643.4612
20
522.6000
30
0.0
11
646.3132
21
518.0000
31
0.0
0
LINE
8
DIM
10
646.3132
20
518.0000
30
0.0
11
646.3132
21
522.6000
31
0.0
0
LINE
8
DIM
10
650.4201
20
522.6000
30
0.0
11
650.4201
21
518.0000
31
0.0
0
LINE
8
DIM
10
650.4201
20
518.0000
30
0.0
11
652.9869
21
518.0000
31
0.0
0
LINE
8
DIM
10
653.8995
20
518.0000
30
0.0
11
655.3255
21
522.6000
31
0.0
0
LINE
8
DIM
10
655.3255
20
522.6000
30
0.0
11
656.7515
21
518.0000
31
0.0
0
LINE
8
DIM
10
654.5270
20
519.8400
30
0.0
11
656.1241
21
519.8400
31
0.0
0
LINE
8
DIM
10
657.3790
20
522.6000
30
0.0
11
658.8050
21
520.3000
31
0.0
0
LINE
8
DIM
10
658.8050
20
520.3000
30
0.0
11
660.2310
21
522.6000
31
0.0
0
LINE
8
DIM
10
658.8050
20
520.3000
30
0.0
11
658.8050
21
518.0000
31
0.0
0
LINE
8
DIM
10
663.7104
20
522.6000
30
0.0
11
660.8584
21
522.6000
31
0.0
0
LINE
8
DIM
10
660.8584
20
522.6000
30
0.0
11
660.8584
21
518.0000
31
0.0
0
LINE
8
DIM
10
660.8584
20
518.0000
30
0.0
11
663.7104
21
518.0000
31
0.0
0
LINE
8
DIM
10
660.8584
20
520.3000
30
0.0
11
662.9974
21
520.3000
31
0.0
0
LINE
8
DIM
10
664.3378
20
518.0000
30
0.0
11
664.3378
21
522.6000
31
0.0
0
LINE
8
DIM
10
664.3378
20
522.6000
30
0.0
11
666.3342
21
522.6000
31
0.0
0
LINE
8
DIM
10
666.3342
20
522.6000
30
0.0
11
667.1898
21
521.6800
31
0.0
0
LINE
8
DIM
10
667.1898
20
521.6800
30
0.0
11
667.1898
21
520.7600
31
0.0
0
LINE
8
DIM
10
667.1898
20
520.7600
30
0.0
11
666.3342
21
520.0700
31
0.0
0
LINE
8
DIM
10
666.3342
20
520.0700
30
0.0
11
664.3378
21
520.0700
31
0.0
0
LINE
8
DIM
10
665.7638
20
520.0700
30
0.0
11
667.1898
21
518.0000
31
0.0
0
LINE
8
DIM
10
674.1487
20
521.9100
30
0.0
11
672.7227
21
522.6000
31
0.0
0
LINE
8
DIM
10
672.7227
20
522.6000
30
0.0
11
671.2967
21
521.4500
31
0.0
0
LINE
8
DIM
10
671.2967
20
521.4500
30
0.0
11
671.2967
21
519.1500
31
0.0
0
LINE
8
DIM
10
671.2967
20
519.1500
30
0.0
11
672.7227
21
518.0000
31
0.0
0
LINE
8
DIM
10
672.7227
20
518.0000
30
0.0
11
674.1487
21
518.6900
31
0.0
0
LINE
8
DIM
10
674.7762
20
522.6000
30
0.0
11
674.7762
21
518.9200
31
0.0
0
LINE
8
DIM
10
674.7762
20
518.9200
30
0.0
11
676.2022
21
518.0000
31
0.0
0
LINE
8
DIM
10
676.2022
20
518.0000
30
0.0
11
677.6282
21
518.9200
31
0.0
0
LINE
8
DIM
10
677.6282
20
518.9200
30
0.0
11
677.6282
21
522.6000
31
0.0
0
LINE
8
DIM
10
678.2556
20
522.6000
30
0.0
11
681.1076
21
522.6000
31
0.0
0
LINE
8
DIM
10
679.6816
20
522.6000
30
0.0
11
679.6816
21
518.0000
31
0.0
0
LINE
8
CUT
10
409.5000
20
334.0000
30
0.0
11
647.5000
21
334.0000
31
0.0
0
LINE
8
CUT
10
409.5000
20
514.0000
30
0.0
11
647.5000
21
514.0000
31
0.0
0
LINE
8
CUT
10
403.5000
20
340.0000
30
0.0
11
403.5000
21
508.0000
31
0.0
0
LINE
8
CUT
10
653.5000
20
340.0000
30
0.0
11
653.5000
21
508.0000
31
0.0
0
ARC
8
CUT
10
647.5000
20
508.0000
30
0.0
40
6.0000
50
0.0000
51
90.0000
0
ARC
8
CUT
10
409.5000
20
508.0000
30
0.0
40
6.0000
50
90.0000
51
180.0000
0
ARC
8
CUT
10
409.5000
20
340.0000
30
0.0
40
6.0000
50
180.0000
51
270.0000
0
ARC
8
CUT
10
647.5000
20
340.0000
30
0.0
40
6.0000
50
270.0000
51
360.0000
0
CIRCLE
8
CUT
10
411.5000
20
342.0000
30
0.0
40
1.7000
0
CIRCLE
8
CUT
10
411.5000
20
506.0000
30
0.0
40
1.7000
0
CIRCLE
8
CUT
10
645.5000
20
342.0000
30
0.0
40
1.7000
0
CIRCLE
8
CUT
10
645.5000
20
506.0000
30
0.0
40
1.7000
0
CIRCLE
8
CUT
10
589.1300
20
427.7600
30
0.0
40
18.0000
0
CIRCLE
8
CUT
10
573.1300
20
411.7600
30
0.0
40
1.7000
0
CIRCLE
8
CUT
10
573.1300
20
443.7600
30
0.0
40
1.7000
0
CIRCLE
8
CUT
10
605.1300
20
411.7600
30
0.0
40
1.7000
0
CIRCLE
8
CUT
10
605.1300
20
443.7600
30
0.0
40
1.7000
0
CIRCLE
8
CUT
10
436.5000
20
408.0000
30
0.0
40
1.7000
0
CIRCLE
8
CUT
10
514.5000
20
408.0000
30
0.0
40
1.7000
0
CIRCLE
8
CUT
10
522.4900
20
463.0000
30
0.0
40
1.7000
0
CIRCLE
8
CUT
10
441.5000
20
486.0000
30
0.0
40
1.7000
0
CIRCLE
8
CUT
10
613.2655
20
499.9660
30
0.0
40
1.4500
0
CIRCLE
8
CUT
10
555.2655
20
499.9660
30
0.0
40
1.4500
0
CIRCLE
8
CUT
10
613.6155
20
458.3660
30
0.0
40
1.4500
0
CIRCLE
8
CUT
10
553.3655
20
458.3960
30
0.0
40
1.4500
0
CIRCLE
8
CUT
10
426.7925
20
353.4750
30
0.0
40
1.4500
0
CIRCLE
8
CUT
10
490.0425
20
353.4750
30
0.0
40
1.4500
0
CIRCLE
8
CUT
10
426.7925
20
380.5000
30
0.0
40
1.4500
0
CIRCLE
8
CUT
10
490.0425
20
380.5000
30
0.0
40
1.4500
0
CIRCLE
8
CUT
10
567.7925
20
351.0595
30
0.0
40
1.4500
0
CIRCLE
8
CUT
10
631.0425
20
351.0595
30
0.0
40
1.4500
0
CIRCLE
8
CUT
10
567.7925
20
377.0595
30
0.0
40
1.4500
0
CIRCLE
8
CUT
10
631.0425
20
377.0595
30
0.0
40
1.4500
0
LINE
8
DIM
10
403.5000
20
321.0000
30
0.0
11
653.5000
21
321.0000
31
0.0
0
LINE
8
DIM
10
403.5000
20
321.0000
30
0.0
11
405.9000
21
321.9600
31
0.0
0
LINE
8
DIM
10
403.5000
20
321.0000
30
0.0
11
405.9000
21
320.0400
31
0.0
0
LINE
8
DIM
10
653.5000
20
321.0000
30
0.0
11
651.1000
21
321.9600
31
0.0
0
LINE
8
DIM
10
653.5000
20
321.0000
30
0.0
11
651.1000
21
320.0400
31
0.0
0
LINE
8
DIM
10
522.8000
20
327.2500
30
0.0
11
524.3500
21
328.0000
31
0.0
0
LINE
8
DIM
10
524.3500
20
328.0000
30
0.0
11
525.9000
21
327.2500
31
0.0
0
LINE
8
DIM
10
525.9000
20
327.2500
30
0.0
11
525.9000
21
326.0000
31
0.0
0
LINE
8
DIM
10
525.9000
20
326.0000
30
0.0
11
522.8000
21
323.0000
31
0.0
0
LINE
8
DIM
10
522.8000
20
323.0000
30
0.0
11
525.9000
21
323.0000
31
0.0
0
LINE
8
DIM
10
529.6820
20
328.0000
30
0.0
11
526.5820
21
328.0000
31
0.0
0
LINE
8
DIM
10
526.5820
20
328.0000
30
0.0
11
526.5820
21
325.7500
31
0.0
0
LINE
8
DIM
10
526.5820
20
325.7500
30
0.0
11
528.4420
21
326.0000
31
0.0
0
LINE
8
DIM
10
528.4420
20
326.0000
30
0.0
11
529.6820
21
325.0000
31
0.0
0
LINE
8
DIM
10
529.6820
20
325.0000
30
0.0
11
529.6820
21
323.7500
31
0.0
0
LINE
8
DIM
10
529.6820
20
323.7500
30
0.0
11
528.1320
21
323.0000
31
0.0
0
LINE
8
DIM
10
528.1320
20
323.0000
30
0.0
11
526.5820
21
323.5000
31
0.0
0
LINE
8
DIM
10
531.9140
20
328.0000
30
0.0
11
530.3640
21
326.7500
31
0.0
0
LINE
8
DIM
10
530.3640
20
326.7500
30
0.0
11
530.3640
21
324.2500
31
0.0
0
LINE
8
DIM
10
530.3640
20
324.2500
30
0.0
11
531.9140
21
323.0000
31
0.0
0
LINE
8
DIM
10
531.9140
20
323.0000
30
0.0
11
533.4640
21
324.2500
31
0.0
0
LINE
8
DIM
10
533.4640
20
324.2500
30
0.0
11
533.4640
21
326.7500
31
0.0
0
LINE
8
DIM
10
533.4640
20
326.7500
30
0.0
11
531.9140
21
328.0000
31
0.0
0
LINE
8
DIM
10
390.5000
20
334.0000
30
0.0
11
390.5000
21
514.0000
31
0.0
0
LINE
8
DIM
10
390.5000
20
334.0000
30
0.0
11
391.4600
21
336.4000
31
0.0
0
LINE
8
DIM
10
390.5000
20
334.0000
30
0.0
11
389.5400
21
336.4000
31
0.0
0
LINE
8
DIM
10
390.5000
20
514.0000
30
0.0
11
391.4600
21
511.6000
31
0.0
0
LINE
8
DIM
10
390.5000
20
514.0000
30
0.0
11
389.5400
21
511.6000
31
0.0
0
LINE
8
DIM
10
375.7200
20
425.5000
30
0.0
11
376.6500
21
426.5000
31
0.0
0
LINE
8
DIM
10
376.6500
20
426.5000
30
0.0
11
376.6500
21
421.5000
31
0.0
0
LINE
8
DIM
10
375.5650
20
421.5000
30
0.0
11
377.7350
21
421.5000
31
0.0
0
LINE
8
DIM
10
380.4320
20
424.0000
30
0.0
11
378.8820
21
424.7500
31
0.0
0
LINE
8
DIM
10
378.8820
20
424.7500
30
0.0
11
378.8820
21
425.7500
31
0.0
0
LINE
8
DIM
10
378.8820
20
425.7500
30
0.0
11
380.4320
21
426.5000
31
0.0
0
LINE
8
DIM
10
380.4320
20
426.5000
30
0.0
11
381.9820
21
425.7500
31
0.0
0
LINE
8
DIM
10
381.9820
20
425.7500
30
0.0
11
381.9820
21
424.7500
31
0.0
0
LINE
8
DIM
10
381.9820
20
424.7500
30
0.0
11
380.4320
21
424.0000
31
0.0
0
LINE
8
DIM
10
380.4320
20
424.0000
30
0.0
11
378.8820
21
423.2500
31
0.0
0
LINE
8
DIM
10
378.8820
20
423.2500
30
0.0
11
378.8820
21
422.2500
31
0.0
0
LINE
8
DIM
10
378.8820
20
422.2500
30
0.0
11
380.4320
21
421.5000
31
0.0
0
LINE
8
DIM
10
380.4320
20
421.5000
30
0.0
11
381.9820
21
422.2500
31
0.0
0
LINE
8
DIM
10
381.9820
20
422.2500
30
0.0
11
381.9820
21
423.2500
31
0.0
0
LINE
8
DIM
10
381.9820
20
423.2500
30
0.0
11
380.4320
21
424.0000
31
0.0
0
LINE
8
DIM
10
384.2140
20
426.5000
30
0.0
11
382.6640
21
425.2500
31
0.0
0
LINE
8
DIM
10
382.6640
20
425.2500
30
0.0
11
382.6640
21
422.7500
31
0.0
0
LINE
8
DIM
10
382.6640
20
422.7500
30
0.0
11
384.2140
21
421.5000
31
0.0
0
LINE
8
DIM
10
384.2140
20
421.5000
30
0.0
11
385.7640
21
422.7500
31
0.0
0
LINE
8
DIM
10
385.7640
20
422.7500
30
0.0
11
385.7640
21
425.2500
31
0.0
0
LINE
8
DIM
10
385.7640
20
425.2500
30
0.0
11
384.2140
21
426.5000
31
0.0
0
LINE
8
DIM
10
10.0000
20
30.0000
30
0.0
11
345.0000
21
30.0000
31
0.0
0
LINE
8
DIM
10
10.0000
20
280.0000
30
0.0
11
345.0000
21
280.0000
31
0.0
0
LINE
8
DIM
10
10.0000
20
30.0000
30
0.0
11
10.0000
21
280.0000
31
0.0
0
LINE
8
DIM
10
345.0000
20
30.0000
30
0.0
11
345.0000
21
280.0000
31
0.0
0
LINE
8
DIM
10
18.0000
20
271.0000
30
0.0
11
22.3400
21
271.0000
31
0.0
0
LINE
8
DIM
10
20.1700
20
271.0000
30
0.0
11
20.1700
21
264.0000
31
0.0
0
LINE
8
DIM
10
25.4648
20
271.0000
30
0.0
11
23.2948
21
269.2500
31
0.0
0
LINE
8
DIM
10
23.2948
20
269.2500
30
0.0
11
23.2948
21
265.7500
31
0.0
0
LINE
8
DIM
10
23.2948
20
265.7500
30
0.0
11
25.4648
21
264.0000
31
0.0
0
LINE
8
DIM
10
25.4648
20
264.0000
30
0.0
11
27.6348
21
265.7500
31
0.0
0
LINE
8
DIM
10
27.6348
20
265.7500
30
0.0
11
27.6348
21
269.2500
31
0.0
0
LINE
8
DIM
10
27.6348
20
269.2500
30
0.0
11
25.4648
21
271.0000
31
0.0
0
LINE
8
DIM
10
28.5896
20
264.0000
30
0.0
11
28.5896
21
271.0000
31
0.0
0
LINE
8
DIM
10
28.5896
20
271.0000
30
0.0
11
31.6276
21
271.0000
31
0.0
0
LINE
8
DIM
10
31.6276
20
271.0000
30
0.0
11
32.9296
21
269.6000
31
0.0
0
LINE
8
DIM
10
32.9296
20
269.6000
30
0.0
11
32.9296
21
268.2000
31
0.0
0
LINE
8
DIM
10
32.9296
20
268.2000
30
0.0
11
31.6276
21
267.1500
31
0.0
0
LINE
8
DIM
10
31.6276
20
267.1500
30
0.0
11
28.5896
21
267.1500
31
0.0
0
LINE
8
DIM
10
39.1792
20
264.0000
30
0.0
11
39.1792
21
271.0000
31
0.0
0
LINE
8
DIM
10
39.1792
20
271.0000
30
0.0
11
42.2172
21
271.0000
31
0.0
0
LINE
8
DIM
10
42.2172
20
271.0000
30
0.0
11
43.5192
21
269.6000
31
0.0
0
LINE
8
DIM
10
43.5192
20
269.6000
30
0.0
11
43.5192
21
268.2000
31
0.0
0
LINE
8
DIM
10
43.5192
20
268.2000
30
0.0
11
42.2172
21
267.1500
31
0.0
0
LINE
8
DIM
10
42.2172
20
267.1500
30
0.0
11
39.1792
21
267.1500
31
0.0
0
LINE
8
DIM
10
44.4740
20
271.0000
30
0.0
11
44.4740
21
264.0000
31
0.0
0
LINE
8
DIM
10
44.4740
20
264.0000
30
0.0
11
48.3800
21
264.0000
31
0.0
0
LINE
8
DIM
10
49.7688
20
264.0000
30
0.0
11
51.9388
21
271.0000
31
0.0
0
LINE
8
DIM
10
51.9388
20
271.0000
30
0.0
11
54.1088
21
264.0000
31
0.0
0
LINE
8
DIM
10
50.7236
20
266.8000
30
0.0
11
53.1540
21
266.8000
31
0.0
0
LINE
8
DIM
10
55.0636
20
271.0000
30
0.0
11
59.4036
21
271.0000
31
0.0
0
LINE
8
DIM
10
57.2336
20
271.0000
30
0.0
11
57.2336
21
264.0000
31
0.0
0
LINE
8
DIM
10
64.6984
20
271.0000
30
0.0
11
60.3584
21
271.0000
31
0.0
0
LINE
8
DIM
10
60.3584
20
271.0000
30
0.0
11
60.3584
21
264.0000
31
0.0
0
LINE
8
DIM
10
60.3584
20
264.0000
30
0.0
11
64.6984
21
264.0000
31
0.0
0
LINE
8
DIM
10
60.3584
20
267.5000
30
0.0
11
63.6134
21
267.5000
31
0.0
0
LINE
8
DIM
10
75.2880
20
269.9500
30
0.0
11
73.1180
21
271.0000
31
0.0
0
LINE
8
DIM
10
73.1180
20
271.0000
30
0.0
11
70.9480
21
269.2500
31
0.0
0
LINE
8
DIM
10
70.9480
20
269.2500
30
0.0
11
70.9480
21
265.7500
31
0.0
0
LINE
8
DIM
10
70.9480
20
265.7500
30
0.0
11
73.1180
21
264.0000
31
0.0
0
LINE
8
DIM
10
73.1180
20
264.0000
30
0.0
11
75.2880
21
265.0500
31
0.0
0
LINE
8
DIM
10
92.9952
20
269.6000
30
0.0
11
94.2972
21
271.0000
31
0.0
0
LINE
8
DIM
10
94.2972
20
271.0000
30
0.0
11
94.2972
21
264.0000
31
0.0
0
LINE
8
DIM
10
92.7782
20
264.0000
30
0.0
11
95.8162
21
264.0000
31
0.0
0
LINE
8
DIM
10
107.0568
20
271.0000
30
0.0
11
102.7168
21
271.0000
31
0.0
0
LINE
8
DIM
10
102.7168
20
271.0000
30
0.0
11
102.7168
21
264.0000
31
0.0
0
LINE
8
DIM
10
102.7168
20
264.0000
30
0.0
11
107.0568
21
264.0000
31
0.0
0
LINE
8
DIM
10
102.7168
20
267.5000
30
0.0
11
105.9718
21
267.5000
31
0.0
0
LINE
8
DIM
10
108.0116
20
264.0000
30
0.0
11
110.1816
21
271.0000
31
0.0
0
LINE
8
DIM
10
110.1816
20
271.0000
30
0.0
11
112.3516
21
264.0000
31
0.0
0
LINE
8
DIM
10
108.9664
20
266.8000
30
0.0
11
111.3968
21
266.8000
31
0.0
0
LINE
8
DIM
10
283.9160
20
269.9100
30
0.0
11
282.4900
21
270.6000
31
0.0
0
LINE
8
DIM
10
282.4900
20
270.6000
30
0.0
11
281.0640
21
269.4500
31
0.0
0
LINE
8
DIM
10
281.0640
20
269.4500
30
0.0
11
281.0640
21
267.1500
31
0.0
0
LINE
8
DIM
10
281.0640
20
267.1500
30
0.0
11
282.4900
21
266.0000
31
0.0
0
LINE
8
DIM
10
282.4900
20
266.0000
30
0.0
11
283.9160
21
266.6900
31
0.0
0
LINE
8
DIM
10
284.5434
20
270.6000
30
0.0
11
284.5434
21
266.0000
31
0.0
0
LINE
8
DIM
10
284.5434
20
266.0000
30
0.0
11
287.1102
21
266.0000
31
0.0
0
LINE
8
DIM
10
290.8749
20
270.6000
30
0.0
11
288.0229
21
270.6000
31
0.0
0
LINE
8
DIM
10
288.0229
20
270.6000
30
0.0
11
288.0229
21
266.0000
31
0.0
0
LINE
8
DIM
10
288.0229
20
266.0000
30
0.0
11
290.8749
21
266.0000
31
0.0
0
LINE
8
DIM
10
288.0229
20
268.3000
30
0.0
11
290.1619
21
268.3000
31
0.0
0
LINE
8
DIM
10
291.5023
20
266.0000
30
0.0
11
292.9283
21
270.6000
31
0.0
0
LINE
8
DIM
10
292.9283
20
270.6000
30
0.0
11
294.3543
21
266.0000
31
0.0
0
LINE
8
DIM
10
292.1298
20
267.8400
30
0.0
11
293.7269
21
267.8400
31
0.0
0
LINE
8
DIM
10
294.9818
20
266.0000
30
0.0
11
294.9818
21
270.6000
31
0.0
0
LINE
8
DIM
10
294.9818
20
270.6000
30
0.0
11
296.9782
21
270.6000
31
0.0
0
LINE
8
DIM
10
296.9782
20
270.6000
30
0.0
11
297.8338
21
269.6800
31
0.0
0
LINE
8
DIM
10
297.8338
20
269.6800
30
0.0
11
297.8338
21
268.7600
31
0.0
0
LINE
8
DIM
10
297.8338
20
268.7600
30
0.0
11
296.9782
21
268.0700
31
0.0
0
LINE
8
DIM
10
296.9782
20
268.0700
30
0.0
11
294.9818
21
268.0700
31
0.0
0
LINE
8
DIM
10
296.4078
20
268.0700
30
0.0
11
297.8338
21
266.0000
31
0.0
0
LINE
8
DIM
10
301.9406
20
266.0000
30
0.0
11
303.3666
21
270.6000
31
0.0
0
LINE
8
DIM
10
303.3666
20
270.6000
30
0.0
11
304.7926
21
266.0000
31
0.0
0
LINE
8
DIM
10
302.5681
20
267.8400
30
0.0
11
304.1652
21
267.8400
31
0.0
0
LINE
8
DIM
10
308.2721
20
269.9100
30
0.0
11
306.8461
21
270.6000
31
0.0
0
LINE
8
DIM
10
306.8461
20
270.6000
30
0.0
11
305.4201
21
269.4500
31
0.0
0
LINE
8
DIM
10
305.4201
20
269.4500
30
0.0
11
305.4201
21
267.1500
31
0.0
0
LINE
8
DIM
10
305.4201
20
267.1500
30
0.0
11
306.8461
21
266.0000
31
0.0
0
LINE
8
DIM
10
306.8461
20
266.0000
30
0.0
11
308.2721
21
266.6900
31
0.0
0
LINE
8
DIM
10
308.8995
20
266.0000
30
0.0
11
308.8995
21
270.6000
31
0.0
0
LINE
8
DIM
10
308.8995
20
270.6000
30
0.0
11
310.8959
21
270.6000
31
0.0
0
LINE
8
DIM
10
310.8959
20
270.6000
30
0.0
11
311.7515
21
269.6800
31
0.0
0
LINE
8
DIM
10
311.7515
20
269.6800
30
0.0
11
311.7515
21
268.7600
31
0.0
0
LINE
8
DIM
10
311.7515
20
268.7600
30
0.0
11
310.8959
21
268.0700
31
0.0
0
LINE
8
DIM
10
310.8959
20
268.0700
30
0.0
11
308.8995
21
268.0700
31
0.0
0
LINE
8
DIM
10
310.3255
20
268.0700
30
0.0
11
311.7515
21
266.0000
31
0.0
0
LINE
8
DIM
10
312.3790
20
270.6000
30
0.0
11
313.8050
21
268.3000
31
0.0
0
LINE
8
DIM
10
313.8050
20
268.3000
30
0.0
11
315.2310
21
270.6000
31
0.0
0
LINE
8
DIM
10
313.8050
20
268.3000
30
0.0
11
313.8050
21
266.0000
31
0.0
0
LINE
8
DIM
10
315.8584
20
270.6000
30
0.0
11
315.8584
21
266.0000
31
0.0
0
LINE
8
DIM
10
315.8584
20
266.0000
30
0.0
11
318.4252
21
266.0000
31
0.0
0
LINE
8
DIM
10
320.7638
20
266.0000
30
0.0
11
320.7638
21
270.6000
31
0.0
0
LINE
8
DIM
10
319.7656
20
270.6000
30
0.0
11
321.7620
21
270.6000
31
0.0
0
LINE
8
DIM
10
319.7656
20
266.0000
30
0.0
11
321.7620
21
266.0000
31
0.0
0
LINE
8
DIM
10
325.6693
20
269.9100
30
0.0
11
324.2433
21
270.6000
31
0.0
0
LINE
8
DIM
10
324.2433
20
270.6000
30
0.0
11
322.8173
21
269.4500
31
0.0
0
LINE
8
DIM
10
322.8173
20
269.4500
30
0.0
11
322.8173
21
267.1500
31
0.0
0
LINE
8
DIM
10
322.8173
20
267.1500
30
0.0
11
324.2433
21
266.0000
31
0.0
0
LINE
8
DIM
10
324.2433
20
266.0000
30
0.0
11
325.6693
21
266.6900
31
0.0
0
LINE
8
DIM
10
329.7762
20
270.1400
30
0.0
11
331.2022
21
270.6000
31
0.0
0
LINE
8
DIM
10
331.2022
20
270.6000
30
0.0
11
332.6282
21
269.9100
31
0.0
0
LINE
8
DIM
10
332.6282
20
269.9100
30
0.0
11
332.6282
21
268.7600
31
0.0
0
LINE
8
DIM
10
332.6282
20
268.7600
30
0.0
11
331.2022
21
268.3000
31
0.0
0
LINE
8
DIM
10
331.2022
20
268.3000
30
0.0
11
332.6282
21
267.8400
31
0.0
0
LINE
8
DIM
10
332.6282
20
267.8400
30
0.0
11
332.6282
21
266.6900
31
0.0
0
LINE
8
DIM
10
332.6282
20
266.6900
30
0.0
11
331.2022
21
266.0000
31
0.0
0
LINE
8
DIM
10
331.2022
20
266.0000
30
0.0
11
329.7762
21
266.4600
31
0.0
0
LINE
8
DIM
10
333.2556
20
270.6000
30
0.0
11
336.1076
21
270.6000
31
0.0
0
LINE
8
DIM
10
334.6816
20
270.6000
30
0.0
11
334.6816
21
266.0000
31
0.0
0
LINE
8
DIM
10
295.0480
20
260.9100
30
0.0
11
296.4740
21
261.6000
31
0.0
0
LINE
8
DIM
10
296.4740
20
261.6000
30
0.0
11
297.9000
21
260.9100
31
0.0
0
LINE
8
DIM
10
297.9000
20
260.9100
30
0.0
11
297.9000
21
259.7600
31
0.0
0
LINE
8
DIM
10
297.9000
20
259.7600
30
0.0
11
295.0480
21
257.0000
31
0.0
0
LINE
8
DIM
10
295.0480
20
257.0000
30
0.0
11
297.9000
21
257.0000
31
0.0
0
LINE
8
DIM
10
301.3794
20
261.6000
30
0.0
11
298.5274
21
261.6000
31
0.0
0
LINE
8
DIM
10
298.5274
20
261.6000
30
0.0
11
298.5274
21
259.5300
31
0.0
0
LINE
8
DIM
10
298.5274
20
259.5300
30
0.0
11
300.2386
21
259.7600
31
0.0
0
LINE
8
DIM
10
300.2386
20
259.7600
30
0.0
11
301.3794
21
258.8400
31
0.0
0
LINE
8
DIM
10
301.3794
20
258.8400
30
0.0
11
301.3794
21
257.6900
31
0.0
0
LINE
8
DIM
10
301.3794
20
257.6900
30
0.0
11
299.9534
21
257.0000
31
0.0
0
LINE
8
DIM
10
299.9534
20
257.0000
30
0.0
11
298.5274
21
257.4600
31
0.0
0
LINE
8
DIM
10
303.4329
20
261.6000
30
0.0
11
302.0069
21
260.4500
31
0.0
0
LINE
8
DIM
10
302.0069
20
260.4500
30
0.0
11
302.0069
21
258.1500
31
0.0
0
LINE
8
DIM
10
302.0069
20
258.1500
30
0.0
11
303.4329
21
257.0000
31
0.0
0
LINE
8
DIM
10
303.4329
20
257.0000
30
0.0
11
304.8589
21
258.1500
31
0.0
0
LINE
8
DIM
10
304.8589
20
258.1500
30
0.0
11
304.8589
21
260.4500
31
0.0
0
LINE
8
DIM
10
304.8589
20
260.4500
30
0.0
11
303.4329
21
261.6000
31
0.0
0
LINE
8
DIM
10
308.9658
20
257.0000
30
0.0
11
311.8178
21
261.6000
31
0.0
0
LINE
8
DIM
10
308.9658
20
261.6000
30
0.0
11
311.8178
21
257.0000
31
0.0
0
LINE
8
DIM
10
316.4950
20
260.6800
30
0.0
11
317.3506
21
261.6000
31
0.0
0
LINE
8
DIM
10
317.3506
20
261.6000
30
0.0
11
317.3506
21
257.0000
31
0.0
0
LINE
8
DIM
10
316.3524
20
257.0000
30
0.0
11
318.3488
21
257.0000
31
0.0
0
LINE
8
DIM
10
320.8301
20
259.3000
30
0.0
11
319.4041
21
259.9900
31
0.0
0
LINE
8
DIM
10
319.4041
20
259.9900
30
0.0
11
319.4041
21
260.9100
31
0.0
0
LINE
8
DIM
10
319.4041
20
260.9100
30
0.0
11
320.8301
21
261.6000
31
0.0
0
LINE
8
DIM
10
320.8301
20
261.6000
30
0.0
11
322.2561
21
260.9100
31
0.0
0
LINE
8
DIM
10
322.2561
20
260.9100
30
0.0
11
322.2561
21
259.9900
31
0.0
0
LINE
8
DIM
10
322.2561
20
259.9900
30
0.0
11
320.8301
21
259.3000
31
0.0
0
LINE
8
DIM
10
320.8301
20
259.3000
30
0.0
11
319.4041
21
258.6100
31
0.0
0
LINE
8
DIM
10
319.4041
20
258.6100
30
0.0
11
319.4041
21
257.6900
31
0.0
0
LINE
8
DIM
10
319.4041
20
257.6900
30
0.0
11
320.8301
21
257.0000
31
0.0
0
LINE
8
DIM
10
320.8301
20
257.0000
30
0.0
11
322.2561
21
257.6900
31
0.0
0
LINE
8
DIM
10
322.2561
20
257.6900
30
0.0
11
322.2561
21
258.6100
31
0.0
0
LINE
8
DIM
10
322.2561
20
258.6100
30
0.0
11
320.8301
21
259.3000
31
0.0
0
LINE
8
DIM
10
324.3095
20
261.6000
30
0.0
11
322.8835
21
260.4500
31
0.0
0
LINE
8
DIM
10
322.8835
20
260.4500
30
0.0
11
322.8835
21
258.1500
31
0.0
0
LINE
8
DIM
10
322.8835
20
258.1500
30
0.0
11
324.3095
21
257.0000
31
0.0
0
LINE
8
DIM
10
324.3095
20
257.0000
30
0.0
11
325.7355
21
258.1500
31
0.0
0
LINE
8
DIM
10
325.7355
20
258.1500
30
0.0
11
325.7355
21
260.4500
31
0.0
0
LINE
8
DIM
10
325.7355
20
260.4500
30
0.0
11
324.3095
21
261.6000
31
0.0
0
LINE
8
DIM
10
329.8424
20
257.0000
30
0.0
11
329.8424
21
261.6000
31
0.0
0
LINE
8
DIM
10
329.8424
20
261.6000
30
0.0
11
331.2684
21
259.0700
31
0.0
0
LINE
8
DIM
10
331.2684
20
259.0700
30
0.0
11
332.6944
21
261.6000
31
0.0
0
LINE
8
DIM
10
332.6944
20
261.6000
30
0.0
11
332.6944
21
257.0000
31
0.0
0
LINE
8
DIM
10
333.3218
20
257.0000
30
0.0
11
333.3218
21
261.6000
31
0.0
0
LINE
8
DIM
10
333.3218
20
261.6000
30
0.0
11
334.7478
21
259.0700
31
0.0
0
LINE
8
DIM
10
334.7478
20
259.0700
30
0.0
11
336.1738
21
261.6000
31
0.0
0
LINE
8
DIM
10
336.1738
20
261.6000
30
0.0
11
336.1738
21
257.0000
31
0.0
0
LINE
8
DIM
10
283.9160
20
251.9100
30
0.0
11
282.4900
21
252.6000
31
0.0
0
LINE
8
DIM
10
282.4900
20
252.6000
30
0.0
11
281.0640
21
251.4500
31
0.0
0
LINE
8
DIM
10
281.0640
20
251.4500
30
0.0
11
281.0640
21
249.1500
31
0.0
0
LINE
8
DIM
10
281.0640
20
249.1500
30
0.0
11
282.4900
21
248.0000
31
0.0
0
LINE
8
DIM
10
282.4900
20
248.0000
30
0.0
11
283.9160
21
248.6900
31
0.0
0
LINE
8
DIM
10
284.5434
20
252.6000
30
0.0
11
284.5434
21
248.9200
31
0.0
0
LINE
8
DIM
10
284.5434
20
248.9200
30
0.0
11
285.9694
21
248.0000
31
0.0
0
LINE
8
DIM
10
285.9694
20
248.0000
30
0.0
11
287.3954
21
248.9200
31
0.0
0
LINE
8
DIM
10
287.3954
20
248.9200
30
0.0
11
287.3954
21
252.6000
31
0.0
0
LINE
8
DIM
10
288.0229
20
252.6000
30
0.0
11
290.8749
21
252.6000
31
0.0
0
LINE
8
DIM
10
289.4489
20
252.6000
30
0.0
11
289.4489
21
248.0000
31
0.0
0
LINE
8
DIM
10
296.4078
20
252.6000
30
0.0
11
294.9818
21
251.4500
31
0.0
0
LINE
8
DIM
10
294.9818
20
251.4500
30
0.0
11
294.9818
21
249.1500
31
0.0
0
LINE
8
DIM
10
294.9818
20
249.1500
30
0.0
11
296.4078
21
248.0000
31
0.0
0
LINE
8
DIM
10
296.4078
20
248.0000
30
0.0
11
297.8338
21
249.1500
31
0.0
0
LINE
8
DIM
10
297.8338
20
249.1500
30
0.0
11
297.8338
21
251.4500
31
0.0
0
LINE
8
DIM
10
297.8338
20
251.4500
30
0.0
11
296.4078
21
252.6000
31
0.0
0
LINE
8
DIM
10
298.4612
20
248.0000
30
0.0
11
298.4612
21
252.6000
31
0.0
0
LINE
8
DIM
10
298.4612
20
252.6000
30
0.0
11
301.3132
21
248.0000
31
0.0
0
LINE
8
DIM
10
301.3132
20
248.0000
30
0.0
11
301.3132
21
252.6000
31
0.0
0
LINE
8
DIM
10
305.4201
20
252.6000
30
0.0
11
305.4201
21
248.0000
31
0.0
0
LINE
8
DIM
10
305.4201
20
248.0000
30
0.0
11
307.9869
21
248.0000
31
0.0
0
LINE
8
DIM
10
308.8995
20
248.0000
30
0.0
11
310.3255
21
252.6000
31
0.0
0
LINE
8
DIM
10
310.3255
20
252.6000
30
0.0
11
311.7515
21
248.0000
31
0.0
0
LINE
8
DIM
10
309.5270
20
249.8400
30
0.0
11
311.1241
21
249.8400
31
0.0
0
LINE
8
DIM
10
312.3790
20
252.6000
30
0.0
11
313.8050
21
250.3000
31
0.0
0
LINE
8
DIM
10
313.8050
20
250.3000
30
0.0
11
315.2310
21
252.6000
31
0.0
0
LINE
8
DIM
10
313.8050
20
250.3000
30
0.0
11
313.8050
21
248.0000
31
0.0
0
LINE
8
DIM
10
318.7104
20
252.6000
30
0.0
11
315.8584
21
252.6000
31
0.0
0
LINE
8
DIM
10
315.8584
20
252.6000
30
0.0
11
315.8584
21
248.0000
31
0.0
0
LINE
8
DIM
10
315.8584
20
248.0000
30
0.0
11
318.7104
21
248.0000
31
0.0
0
LINE
8
DIM
10
315.8584
20
250.3000
30
0.0
11
317.9974
21
250.3000
31
0.0
0
LINE
8
DIM
10
319.3378
20
248.0000
30
0.0
11
319.3378
21
252.6000
31
0.0
0
LINE
8
DIM
10
319.3378
20
252.6000
30
0.0
11
321.3342
21
252.6000
31
0.0
0
LINE
8
DIM
10
321.3342
20
252.6000
30
0.0
11
322.1898
21
251.6800
31
0.0
0
LINE
8
DIM
10
322.1898
20
251.6800
30
0.0
11
322.1898
21
250.7600
31
0.0
0
LINE
8
DIM
10
322.1898
20
250.7600
30
0.0
11
321.3342
21
250.0700
31
0.0
0
LINE
8
DIM
10
321.3342
20
250.0700
30
0.0
11
319.3378
21
250.0700
31
0.0
0
LINE
8
DIM
10
320.7638
20
250.0700
30
0.0
11
322.1898
21
248.0000
31
0.0
0
LINE
8
DIM
10
329.1487
20
251.9100
30
0.0
11
327.7227
21
252.6000
31
0.0
0
LINE
8
DIM
10
327.7227
20
252.6000
30
0.0
11
326.2967
21
251.4500
31
0.0
0
LINE
8
DIM
10
326.2967
20
251.4500
30
0.0
11
326.2967
21
249.1500
31
0.0
0
LINE
8
DIM
10
326.2967
20
249.1500
30
0.0
11
327.7227
21
248.0000
31
0.0
0
LINE
8
DIM
10
327.7227
20
248.0000
30
0.0
11
329.1487
21
248.6900
31
0.0
0
LINE
8
DIM
10
329.7762
20
252.6000
30
0.0
11
329.7762
21
248.9200
31
0.0
0
LINE
8
DIM
10
329.7762
20
248.9200
30
0.0
11
331.2022
21
248.0000
31
0.0
0
LINE
8
DIM
10
331.2022
20
248.0000
30
0.0
11
332.6282
21
248.9200
31
0.0
0
LINE
8
DIM
10
332.6282
20
248.9200
30
0.0
11
332.6282
21
252.6000
31
0.0
0
LINE
8
DIM
10
333.2556
20
252.6000
30
0.0
11
336.1076
21
252.6000
31
0.0
0
LINE
8
DIM
10
334.6816
20
252.6000
30
0.0
11
334.6816
21
248.0000
31
0.0
0
LINE
8
CUT
10
64.5000
20
64.0000
30
0.0
11
302.5000
21
64.0000
31
0.0
0
LINE
8
CUT
10
64.5000
20
244.0000
30
0.0
11
302.5000
21
244.0000
31
0.0
0
LINE
8
CUT
10
58.5000
20
70.0000
30
0.0
11
58.5000
21
238.0000
31
0.0
0
LINE
8
CUT
10
308.5000
20
70.0000
30
0.0
11
308.5000
21
238.0000
31
0.0
0
ARC
8
CUT
10
302.5000
20
238.0000
30
0.0
40
6.0000
50
0.0000
51
90.0000
0
ARC
8
CUT
10
64.5000
20
238.0000
30
0.0
40
6.0000
50
90.0000
51
180.0000
0
ARC
8
CUT
10
64.5000
20
70.0000
30
0.0
40
6.0000
50
180.0000
51
270.0000
0
ARC
8
CUT
10
302.5000
20
70.0000
30
0.0
40
6.0000
50
270.0000
51
360.0000
0
CIRCLE
8
CUT
10
66.5000
20
72.0000
30
0.0
40
1.7000
0
CIRCLE
8
CUT
10
66.5000
20
236.0000
30
0.0
40
1.7000
0
CIRCLE
8
CUT
10
300.5000
20
72.0000
30
0.0
40
1.7000
0
CIRCLE
8
CUT
10
300.5000
20
236.0000
30
0.0
40
1.7000
0
CIRCLE
8
CUT
10
85.5000
20
83.5000
30
0.0
40
1.4500
0
CIRCLE
8
CUT
10
143.5000
20
83.5000
30
0.0
40
1.4500
0
CIRCLE
8
CUT
10
85.5000
20
132.5000
30
0.0
40
1.4500
0
CIRCLE
8
CUT
10
143.5000
20
132.5000
30
0.0
40
1.4500
0
CIRCLE
8
CUT
10
197.0000
20
122.5000
30
0.0
40
1.7000
0
CIRCLE
8
CUT
10
260.0000
20
122.5000
30
0.0
40
1.7000
0
CIRCLE
8
CUT
10
197.0000
20
205.5000
30
0.0
40
1.7000
0
CIRCLE
8
CUT
10
260.0000
20
205.5000
30
0.0
40
1.7000
0
LINE
8
DIM
10
58.5000
20
51.0000
30
0.0
11
308.5000
21
51.0000
31
0.0
0
LINE
8
DIM
10
58.5000
20
51.0000
30
0.0
11
60.9000
21
51.9600
31
0.0
0
LINE
8
DIM
10
58.5000
20
51.0000
30
0.0
11
60.9000
21
50.0400
31
0.0
0
LINE
8
DIM
10
308.5000
20
51.0000
30
0.0
11
306.1000
21
51.9600
31
0.0
0
LINE
8
DIM
10
308.5000
20
51.0000
30
0.0
11
306.1000
21
50.0400
31
0.0
0
LINE
8
DIM
10
177.8000
20
57.2500
30
0.0
11
179.3500
21
58.0000
31
0.0
0
LINE
8
DIM
10
179.3500
20
58.0000
30
0.0
11
180.9000
21
57.2500
31
0.0
0
LINE
8
DIM
10
180.9000
20
57.2500
30
0.0
11
180.9000
21
56.0000
31
0.0
0
LINE
8
DIM
10
180.9000
20
56.0000
30
0.0
11
177.8000
21
53.0000
31
0.0
0
LINE
8
DIM
10
177.8000
20
53.0000
30
0.0
11
180.9000
21
53.0000
31
0.0
0
LINE
8
DIM
10
184.6820
20
58.0000
30
0.0
11
181.5820
21
58.0000
31
0.0
0
LINE
8
DIM
10
181.5820
20
58.0000
30
0.0
11
181.5820
21
55.7500
31
0.0
0
LINE
8
DIM
10
181.5820
20
55.7500
30
0.0
11
183.4420
21
56.0000
31
0.0
0
LINE
8
DIM
10
183.4420
20
56.0000
30
0.0
11
184.6820
21
55.0000
31
0.0
0
LINE
8
DIM
10
184.6820
20
55.0000
30
0.0
11
184.6820
21
53.7500
31
0.0
0
LINE
8
DIM
10
184.6820
20
53.7500
30
0.0
11
183.1320
21
53.0000
31
0.0
0
LINE
8
DIM
10
183.1320
20
53.0000
30
0.0
11
181.5820
21
53.5000
31
0.0
0
LINE
8
DIM
10
186.9140
20
58.0000
30
0.0
11
185.3640
21
56.7500
31
0.0
0
LINE
8
DIM
10
185.3640
20
56.7500
30
0.0
11
185.3640
21
54.2500
31
0.0
0
LINE
8
DIM
10
185.3640
20
54.2500
30
0.0
11
186.9140
21
53.0000
31
0.0
0
LINE
8
DIM
10
186.9140
20
53.0000
30
0.0
11
188.4640
21
54.2500
31
0.0
0
LINE
8
DIM
10
188.4640
20
54.2500
30
0.0
11
188.4640
21
56.7500
31
0.0
0
LINE
8
DIM
10
188.4640
20
56.7500
30
0.0
11
186.9140
21
58.0000
31
0.0
0
LINE
8
DIM
10
45.5000
20
64.0000
30
0.0
11
45.5000
21
244.0000
31
0.0
0
LINE
8
DIM
10
45.5000
20
64.0000
30
0.0
11
46.4600
21
66.4000
31
0.0
0
LINE
8
DIM
10
45.5000
20
64.0000
30
0.0
11
44.5400
21
66.4000
31
0.0
0
LINE
8
DIM
10
45.5000
20
244.0000
30
0.0
11
46.4600
21
241.6000
31
0.0
0
LINE
8
DIM
10
45.5000
20
244.0000
30
0.0
11
44.5400
21
241.6000
31
0.0
0
LINE
8
DIM
10
30.7200
20
155.5000
30
0.0
11
31.6500
21
156.5000
31
0.0
0
LINE
8
DIM
10
31.6500
20
156.5000
30
0.0
11
31.6500
21
151.5000
31
0.0
0
LINE
8
DIM
10
30.5650
20
151.5000
30
0.0
11
32.7350
21
151.5000
31
0.0
0
LINE
8
DIM
10
35.4320
20
154.0000
30
0.0
11
33.8820
21
154.7500
31
0.0
0
LINE
8
DIM
10
33.8820
20
154.7500
30
0.0
11
33.8820
21
155.7500
31
0.0
0
LINE
8
DIM
10
33.8820
20
155.7500
30
0.0
11
35.4320
21
156.5000
31
0.0
0
LINE
8
DIM
10
35.4320
20
156.5000
30
0.0
11
36.9820
21
155.7500
31
0.0
0
LINE
8
DIM
10
36.9820
20
155.7500
30
0.0
11
36.9820
21
154.7500
31
0.0
0
LINE
8
DIM
10
36.9820
20
154.7500
30
0.0
11
35.4320
21
154.0000
31
0.0
0
LINE
8
DIM
10
35.4320
20
154.0000
30
0.0
11
33.8820
21
153.2500
31
0.0
0
LINE
8
DIM
10
33.8820
20
153.2500
30
0.0
11
33.8820
21
152.2500
31
0.0
0
LINE
8
DIM
10
33.8820
20
152.2500
30
0.0
11
35.4320
21
151.5000
31
0.0
0
LINE
8
DIM
10
35.4320
20
151.5000
30
0.0
11
36.9820
21
152.2500
31
0.0
0
LINE
8
DIM
10
36.9820
20
152.2500
30
0.0
11
36.9820
21
153.2500
31
0.0
0
LINE
8
DIM
10
36.9820
20
153.2500
30
0.0
11
35.4320
21
154.0000
31
0.0
0
LINE
8
DIM
10
39.2140
20
156.5000
30
0.0
11
37.6640
21
155.2500
31
0.0
0
LINE
8
DIM
10
37.6640
20
155.2500
30
0.0
11
37.6640
21
152.7500
31
0.0
0
LINE
8
DIM
10
37.6640
20
152.7500
30
0.0
11
39.2140
21
151.5000
31
0.0
0
LINE
8
DIM
10
39.2140
20
151.5000
30
0.0
11
40.7640
21
152.7500
31
0.0
0
LINE
8
DIM
10
40.7640
20
152.7500
30
0.0
11
40.7640
21
155.2500
31
0.0
0
LINE
8
DIM
10
40.7640
20
155.2500
30
0.0
11
39.2140
21
156.5000
31
0.0
0
LINE
8
DIM
10
355.0000
20
30.0000
30
0.0
11
690.0000
21
30.0000
31
0.0
0
LINE
8
DIM
10
355.0000
20
280.0000
30
0.0
11
690.0000
21
280.0000
31
0.0
0
LINE
8
DIM
10
355.0000
20
30.0000
30
0.0
11
355.0000
21
280.0000
31
0.0
0
LINE
8
DIM
10
690.0000
20
30.0000
30
0.0
11
690.0000
21
280.0000
31
0.0
0
LINE
8
DIM
10
363.0000
20
271.0000
30
0.0
11
363.0000
21
265.4000
31
0.0
0
LINE
8
DIM
10
363.0000
20
265.4000
30
0.0
11
365.1700
21
264.0000
31
0.0
0
LINE
8
DIM
10
365.1700
20
264.0000
30
0.0
11
367.3400
21
265.4000
31
0.0
0
LINE
8
DIM
10
367.3400
20
265.4000
30
0.0
11
367.3400
21
271.0000
31
0.0
0
LINE
8
DIM
10
368.2948
20
264.0000
30
0.0
11
368.2948
21
271.0000
31
0.0
0
LINE
8
DIM
10
368.2948
20
271.0000
30
0.0
11
371.3328
21
271.0000
31
0.0
0
LINE
8
DIM
10
371.3328
20
271.0000
30
0.0
11
372.6348
21
269.6000
31
0.0
0
LINE
8
DIM
10
372.6348
20
269.6000
30
0.0
11
372.6348
21
268.2000
31
0.0
0
LINE
8
DIM
10
372.6348
20
268.2000
30
0.0
11
371.3328
21
267.1500
31
0.0
0
LINE
8
DIM
10
371.3328
20
267.1500
30
0.0
11
368.2948
21
267.1500
31
0.0
0
LINE
8
DIM
10
373.5896
20
264.0000
30
0.0
11
373.5896
21
271.0000
31
0.0
0
LINE
8
DIM
10
373.5896
20
271.0000
30
0.0
11
376.6276
21
271.0000
31
0.0
0
LINE
8
DIM
10
376.6276
20
271.0000
30
0.0
11
377.9296
21
269.6000
31
0.0
0
LINE
8
DIM
10
377.9296
20
269.6000
30
0.0
11
377.9296
21
268.2000
31
0.0
0
LINE
8
DIM
10
377.9296
20
268.2000
30
0.0
11
376.6276
21
267.1500
31
0.0
0
LINE
8
DIM
10
376.6276
20
267.1500
30
0.0
11
373.5896
21
267.1500
31
0.0
0
LINE
8
DIM
10
383.2244
20
271.0000
30
0.0
11
378.8844
21
271.0000
31
0.0
0
LINE
8
DIM
10
378.8844
20
271.0000
30
0.0
11
378.8844
21
264.0000
31
0.0
0
LINE
8
DIM
10
378.8844
20
264.0000
30
0.0
11
383.2244
21
264.0000
31
0.0
0
LINE
8
DIM
10
378.8844
20
267.5000
30
0.0
11
382.1394
21
267.5000
31
0.0
0
LINE
8
DIM
10
384.1792
20
264.0000
30
0.0
11
384.1792
21
271.0000
31
0.0
0
LINE
8
DIM
10
384.1792
20
271.0000
30
0.0
11
387.2172
21
271.0000
31
0.0
0
LINE
8
DIM
10
387.2172
20
271.0000
30
0.0
11
388.5192
21
269.6000
31
0.0
0
LINE
8
DIM
10
388.5192
20
269.6000
30
0.0
11
388.5192
21
268.2000
31
0.0
0
LINE
8
DIM
10
388.5192
20
268.2000
30
0.0
11
387.2172
21
267.1500
31
0.0
0
LINE
8
DIM
10
387.2172
20
267.1500
30
0.0
11
384.1792
21
267.1500
31
0.0
0
LINE
8
DIM
10
386.3492
20
267.1500
30
0.0
11
388.5192
21
264.0000
31
0.0
0
LINE
8
DIM
10
394.7688
20
264.0000
30
0.0
11
394.7688
21
271.0000
31
0.0
0
LINE
8
DIM
10
394.7688
20
271.0000
30
0.0
11
397.8068
21
271.0000
31
0.0
0
LINE
8
DIM
10
397.8068
20
271.0000
30
0.0
11
399.1088
21
269.6000
31
0.0
0
LINE
8
DIM
10
399.1088
20
269.6000
30
0.0
11
399.1088
21
268.2000
31
0.0
0
LINE
8
DIM
10
399.1088
20
268.2000
30
0.0
11
397.8068
21
267.1500
31
0.0
0
LINE
8
DIM
10
397.8068
20
267.1500
30
0.0
11
394.7688
21
267.1500
31
0.0
0
LINE
8
DIM
10
400.0636
20
271.0000
30
0.0
11
400.0636
21
264.0000
31
0.0
0
LINE
8
DIM
10
400.0636
20
264.0000
30
0.0
11
403.9696
21
264.0000
31
0.0
0
LINE
8
DIM
10
405.3584
20
264.0000
30
0.0
11
407.5284
21
271.0000
31
0.0
0
LINE
8
DIM
10
407.5284
20
271.0000
30
0.0
11
409.6984
21
264.0000
31
0.0
0
LINE
8
DIM
10
406.3132
20
266.8000
30
0.0
11
408.7436
21
266.8000
31
0.0
0
LINE
8
DIM
10
410.6532
20
271.0000
30
0.0
11
414.9932
21
271.0000
31
0.0
0
LINE
8
DIM
10
412.8232
20
271.0000
30
0.0
11
412.8232
21
264.0000
31
0.0
0
LINE
8
DIM
10
420.2880
20
271.0000
30
0.0
11
415.9480
21
271.0000
31
0.0
0
LINE
8
DIM
10
415.9480
20
271.0000
30
0.0
11
415.9480
21
264.0000
31
0.0
0
LINE
8
DIM
10
415.9480
20
264.0000
30
0.0
11
420.2880
21
264.0000
31
0.0
0
LINE
8
DIM
10
415.9480
20
267.5000
30
0.0
11
419.2030
21
267.5000
31
0.0
0
LINE
8
DIM
10
426.5376
20
264.0000
30
0.0
11
426.5376
21
271.0000
31
0.0
0
LINE
8
DIM
10
426.5376
20
271.0000
30
0.0
11
429.1416
21
271.0000
31
0.0
0
LINE
8
DIM
10
429.1416
20
271.0000
30
0.0
11
430.8776
21
268.9000
31
0.0
0
LINE
8
DIM
10
430.8776
20
268.9000
30
0.0
11
430.8776
21
266.1000
31
0.0
0
LINE
8
DIM
10
430.8776
20
266.1000
30
0.0
11
429.1416
21
264.0000
31
0.0
0
LINE
8
DIM
10
429.1416
20
264.0000
30
0.0
11
426.5376
21
264.0000
31
0.0
0
LINE
8
DIM
10
448.5848
20
269.6000
30
0.0
11
449.8868
21
271.0000
31
0.0
0
LINE
8
DIM
10
449.8868
20
271.0000
30
0.0
11
449.8868
21
264.0000
31
0.0
0
LINE
8
DIM
10
448.3678
20
264.0000
30
0.0
11
451.4058
21
264.0000
31
0.0
0
LINE
8
DIM
10
462.6464
20
271.0000
30
0.0
11
458.3064
21
271.0000
31
0.0
0
LINE
8
DIM
10
458.3064
20
271.0000
30
0.0
11
458.3064
21
264.0000
31
0.0
0
LINE
8
DIM
10
458.3064
20
264.0000
30
0.0
11
462.6464
21
264.0000
31
0.0
0
LINE
8
DIM
10
458.3064
20
267.5000
30
0.0
11
461.5614
21
267.5000
31
0.0
0
LINE
8
DIM
10
463.6012
20
264.0000
30
0.0
11
465.7712
21
271.0000
31
0.0
0
LINE
8
DIM
10
465.7712
20
271.0000
30
0.0
11
467.9412
21
264.0000
31
0.0
0
LINE
8
DIM
10
464.5560
20
266.8000
30
0.0
11
466.9864
21
266.8000
31
0.0
0
LINE
8
DIM
10
628.9160
20
269.9100
30
0.0
11
627.4900
21
270.6000
31
0.0
0
LINE
8
DIM
10
627.4900
20
270.6000
30
0.0
11
626.0640
21
269.4500
31
0.0
0
LINE
8
DIM
10
626.0640
20
269.4500
30
0.0
11
626.0640
21
267.1500
31
0.0
0
LINE
8
DIM
10
626.0640
20
267.1500
30
0.0
11
627.4900
21
266.0000
31
0.0
0
LINE
8
DIM
10
627.4900
20
266.0000
30
0.0
11
628.9160
21
266.6900
31
0.0
0
LINE
8
DIM
10
629.5434
20
270.6000
30
0.0
11
629.5434
21
266.0000
31
0.0
0
LINE
8
DIM
10
629.5434
20
266.0000
30
0.0
11
632.1102
21
266.0000
31
0.0
0
LINE
8
DIM
10
635.8749
20
270.6000
30
0.0
11
633.0229
21
270.6000
31
0.0
0
LINE
8
DIM
10
633.0229
20
270.6000
30
0.0
11
633.0229
21
266.0000
31
0.0
0
LINE
8
DIM
10
633.0229
20
266.0000
30
0.0
11
635.8749
21
266.0000
31
0.0
0
LINE
8
DIM
10
633.0229
20
268.3000
30
0.0
11
635.1619
21
268.3000
31
0.0
0
LINE
8
DIM
10
636.5023
20
266.0000
30
0.0
11
637.9283
21
270.6000
31
0.0
0
LINE
8
DIM
10
637.9283
20
270.6000
30
0.0
11
639.3543
21
266.0000
31
0.0
0
LINE
8
DIM
10
637.1298
20
267.8400
30
0.0
11
638.7269
21
267.8400
31
0.0
0
LINE
8
DIM
10
639.9818
20
266.0000
30
0.0
11
639.9818
21
270.6000
31
0.0
0
LINE
8
DIM
10
639.9818
20
270.6000
30
0.0
11
641.9782
21
270.6000
31
0.0
0
LINE
8
DIM
10
641.9782
20
270.6000
30
0.0
11
642.8338
21
269.6800
31
0.0
0
LINE
8
DIM
10
642.8338
20
269.6800
30
0.0
11
642.8338
21
268.7600
31
0.0
0
LINE
8
DIM
10
642.8338
20
268.7600
30
0.0
11
641.9782
21
268.0700
31
0.0
0
LINE
8
DIM
10
641.9782
20
268.0700
30
0.0
11
639.9818
21
268.0700
31
0.0
0
LINE
8
DIM
10
641.4078
20
268.0700
30
0.0
11
642.8338
21
266.0000
31
0.0
0
LINE
8
DIM
10
646.9406
20
266.0000
30
0.0
11
648.3666
21
270.6000
31
0.0
0
LINE
8
DIM
10
648.3666
20
270.6000
30
0.0
11
649.7926
21
266.0000
31
0.0
0
LINE
8
DIM
10
647.5681
20
267.8400
30
0.0
11
649.1652
21
267.8400
31
0.0
0
LINE
8
DIM
10
653.2721
20
269.9100
30
0.0
11
651.8461
21
270.6000
31
0.0
0
LINE
8
DIM
10
651.8461
20
270.6000
30
0.0
11
650.4201
21
269.4500
31
0.0
0
LINE
8
DIM
10
650.4201
20
269.4500
30
0.0
11
650.4201
21
267.1500
31
0.0
0
LINE
8
DIM
10
650.4201
20
267.1500
30
0.0
11
651.8461
21
266.0000
31
0.0
0
LINE
8
DIM
10
651.8461
20
266.0000
30
0.0
11
653.2721
21
266.6900
31
0.0
0
LINE
8
DIM
10
653.8995
20
266.0000
30
0.0
11
653.8995
21
270.6000
31
0.0
0
LINE
8
DIM
10
653.8995
20
270.6000
30
0.0
11
655.8959
21
270.6000
31
0.0
0
LINE
8
DIM
10
655.8959
20
270.6000
30
0.0
11
656.7515
21
269.6800
31
0.0
0
LINE
8
DIM
10
656.7515
20
269.6800
30
0.0
11
656.7515
21
268.7600
31
0.0
0
LINE
8
DIM
10
656.7515
20
268.7600
30
0.0
11
655.8959
21
268.0700
31
0.0
0
LINE
8
DIM
10
655.8959
20
268.0700
30
0.0
11
653.8995
21
268.0700
31
0.0
0
LINE
8
DIM
10
655.3255
20
268.0700
30
0.0
11
656.7515
21
266.0000
31
0.0
0
LINE
8
DIM
10
657.3790
20
270.6000
30
0.0
11
658.8050
21
268.3000
31
0.0
0
LINE
8
DIM
10
658.8050
20
268.3000
30
0.0
11
660.2310
21
270.6000
31
0.0
0
LINE
8
DIM
10
658.8050
20
268.3000
30
0.0
11
658.8050
21
266.0000
31
0.0
0
LINE
8
DIM
10
660.8584
20
270.6000
30
0.0
11
660.8584
21
266.0000
31
0.0
0
LINE
8
DIM
10
660.8584
20
266.0000
30
0.0
11
663.4252
21
266.0000
31
0.0
0
LINE
8
DIM
10
665.7638
20
266.0000
30
0.0
11
665.7638
21
270.6000
31
0.0
0
LINE
8
DIM
10
664.7656
20
270.6000
30
0.0
11
666.7620
21
270.6000
31
0.0
0
LINE
8
DIM
10
664.7656
20
266.0000
30
0.0
11
666.7620
21
266.0000
31
0.0
0
LINE
8
DIM
10
670.6693
20
269.9100
30
0.0
11
669.2433
21
270.6000
31
0.0
0
LINE
8
DIM
10
669.2433
20
270.6000
30
0.0
11
667.8173
21
269.4500
31
0.0
0
LINE
8
DIM
10
667.8173
20
269.4500
30
0.0
11
667.8173
21
267.1500
31
0.0
0
LINE
8
DIM
10
667.8173
20
267.1500
30
0.0
11
669.2433
21
266.0000
31
0.0
0
LINE
8
DIM
10
669.2433
20
266.0000
30
0.0
11
670.6693
21
266.6900
31
0.0
0
LINE
8
DIM
10
674.7762
20
270.1400
30
0.0
11
676.2022
21
270.6000
31
0.0
0
LINE
8
DIM
10
676.2022
20
270.6000
30
0.0
11
677.6282
21
269.9100
31
0.0
0
LINE
8
DIM
10
677.6282
20
269.9100
30
0.0
11
677.6282
21
268.7600
31
0.0
0
LINE
8
DIM
10
677.6282
20
268.7600
30
0.0
11
676.2022
21
268.3000
31
0.0
0
LINE
8
DIM
10
676.2022
20
268.3000
30
0.0
11
677.6282
21
267.8400
31
0.0
0
LINE
8
DIM
10
677.6282
20
267.8400
30
0.0
11
677.6282
21
266.6900
31
0.0
0
LINE
8
DIM
10
677.6282
20
266.6900
30
0.0
11
676.2022
21
266.0000
31
0.0
0
LINE
8
DIM
10
676.2022
20
266.0000
30
0.0
11
674.7762
21
266.4600
31
0.0
0
LINE
8
DIM
10
678.2556
20
270.6000
30
0.0
11
681.1076
21
270.6000
31
0.0
0
LINE
8
DIM
10
679.6816
20
270.6000
30
0.0
11
679.6816
21
266.0000
31
0.0
0
LINE
8
DIM
10
640.0480
20
260.9100
30
0.0
11
641.4740
21
261.6000
31
0.0
0
LINE
8
DIM
10
641.4740
20
261.6000
30
0.0
11
642.9000
21
260.9100
31
0.0
0
LINE
8
DIM
10
642.9000
20
260.9100
30
0.0
11
642.9000
21
259.7600
31
0.0
0
LINE
8
DIM
10
642.9000
20
259.7600
30
0.0
11
640.0480
21
257.0000
31
0.0
0
LINE
8
DIM
10
640.0480
20
257.0000
30
0.0
11
642.9000
21
257.0000
31
0.0
0
LINE
8
DIM
10
646.3794
20
261.6000
30
0.0
11
643.5274
21
261.6000
31
0.0
0
LINE
8
DIM
10
643.5274
20
261.6000
30
0.0
11
643.5274
21
259.5300
31
0.0
0
LINE
8
DIM
10
643.5274
20
259.5300
30
0.0
11
645.2386
21
259.7600
31
0.0
0
LINE
8
DIM
10
645.2386
20
259.7600
30
0.0
11
646.3794
21
258.8400
31
0.0
0
LINE
8
DIM
10
646.3794
20
258.8400
30
0.0
11
646.3794
21
257.6900
31
0.0
0
LINE
8
DIM
10
646.3794
20
257.6900
30
0.0
11
644.9534
21
257.0000
31
0.0
0
LINE
8
DIM
10
644.9534
20
257.0000
30
0.0
11
643.5274
21
257.4600
31
0.0
0
LINE
8
DIM
10
648.4329
20
261.6000
30
0.0
11
647.0069
21
260.4500
31
0.0
0
LINE
8
DIM
10
647.0069
20
260.4500
30
0.0
11
647.0069
21
258.1500
31
0.0
0
LINE
8
DIM
10
647.0069
20
258.1500
30
0.0
11
648.4329
21
257.0000
31
0.0
0
LINE
8
DIM
10
648.4329
20
257.0000
30
0.0
11
649.8589
21
258.1500
31
0.0
0
LINE
8
DIM
10
649.8589
20
258.1500
30
0.0
11
649.8589
21
260.4500
31
0.0
0
LINE
8
DIM
10
649.8589
20
260.4500
30
0.0
11
648.4329
21
261.6000
31
0.0
0
LINE
8
DIM
10
653.9658
20
257.0000
30
0.0
11
656.8178
21
261.6000
31
0.0
0
LINE
8
DIM
10
653.9658
20
261.6000
30
0.0
11
656.8178
21
257.0000
31
0.0
0
LINE
8
DIM
10
661.4950
20
260.6800
30
0.0
11
662.3506
21
261.6000
31
0.0
0
LINE
8
DIM
10
662.3506
20
261.6000
30
0.0
11
662.3506
21
257.0000
31
0.0
0
LINE
8
DIM
10
661.3524
20
257.0000
30
0.0
11
663.3488
21
257.0000
31
0.0
0
LINE
8
DIM
10
665.8301
20
259.3000
30
0.0
11
664.4041
21
259.9900
31
0.0
0
LINE
8
DIM
10
664.4041
20
259.9900
30
0.0
11
664.4041
21
260.9100
31
0.0
0
LINE
8
DIM
10
664.4041
20
260.9100
30
0.0
11
665.8301
21
261.6000
31
0.0
0
LINE
8
DIM
10
665.8301
20
261.6000
30
0.0
11
667.2561
21
260.9100
31
0.0
0
LINE
8
DIM
10
667.2561
20
260.9100
30
0.0
11
667.2561
21
259.9900
31
0.0
0
LINE
8
DIM
10
667.2561
20
259.9900
30
0.0
11
665.8301
21
259.3000
31
0.0
0
LINE
8
DIM
10
665.8301
20
259.3000
30
0.0
11
664.4041
21
258.6100
31
0.0
0
LINE
8
DIM
10
664.4041
20
258.6100
30
0.0
11
664.4041
21
257.6900
31
0.0
0
LINE
8
DIM
10
664.4041
20
257.6900
30
0.0
11
665.8301
21
257.0000
31
0.0
0
LINE
8
DIM
10
665.8301
20
257.0000
30
0.0
11
667.2561
21
257.6900
31
0.0
0
LINE
8
DIM
10
667.2561
20
257.6900
30
0.0
11
667.2561
21
258.6100
31
0.0
0
LINE
8
DIM
10
667.2561
20
258.6100
30
0.0
11
665.8301
21
259.3000
31
0.0
0
LINE
8
DIM
10
669.3095
20
261.6000
30
0.0
11
667.8835
21
260.4500
31
0.0
0
LINE
8
DIM
10
667.8835
20
260.4500
30
0.0
11
667.8835
21
258.1500
31
0.0
0
LINE
8
DIM
10
667.8835
20
258.1500
30
0.0
11
669.3095
21
257.0000
31
0.0
0
LINE
8
DIM
10
669.3095
20
257.0000
30
0.0
11
670.7355
21
258.1500
31
0.0
0
LINE
8
DIM
10
670.7355
20
258.1500
30
0.0
11
670.7355
21
260.4500
31
0.0
0
LINE
8
DIM
10
670.7355
20
260.4500
30
0.0
11
669.3095
21
261.6000
31
0.0
0
LINE
8
DIM
10
674.8424
20
257.0000
30
0.0
11
674.8424
21
261.6000
31
0.0
0
LINE
8
DIM
10
674.8424
20
261.6000
30
0.0
11
676.2684
21
259.0700
31
0.0
0
LINE
8
DIM
10
676.2684
20
259.0700
30
0.0
11
677.6944
21
261.6000
31
0.0
0
LINE
8
DIM
10
677.6944
20
261.6000
30
0.0
11
677.6944
21
257.0000
31
0.0
0
LINE
8
DIM
10
678.3218
20
257.0000
30
0.0
11
678.3218
21
261.6000
31
0.0
0
LINE
8
DIM
10
678.3218
20
261.6000
30
0.0
11
679.7478
21
259.0700
31
0.0
0
LINE
8
DIM
10
679.7478
20
259.0700
30
0.0
11
681.1738
21
261.6000
31
0.0
0
LINE
8
DIM
10
681.1738
20
261.6000
30
0.0
11
681.1738
21
257.0000
31
0.0
0
LINE
8
DIM
10
628.9160
20
251.9100
30
0.0
11
627.4900
21
252.6000
31
0.0
0
LINE
8
DIM
10
627.4900
20
252.6000
30
0.0
11
626.0640
21
251.4500
31
0.0
0
LINE
8
DIM
10
626.0640
20
251.4500
30
0.0
11
626.0640
21
249.1500
31
0.0
0
LINE
8
DIM
10
626.0640
20
249.1500
30
0.0
11
627.4900
21
248.0000
31
0.0
0
LINE
8
DIM
10
627.4900
20
248.0000
30
0.0
11
628.9160
21
248.6900
31
0.0
0
LINE
8
DIM
10
629.5434
20
252.6000
30
0.0
11
629.5434
21
248.9200
31
0.0
0
LINE
8
DIM
10
629.5434
20
248.9200
30
0.0
11
630.9694
21
248.0000
31
0.0
0
LINE
8
DIM
10
630.9694
20
248.0000
30
0.0
11
632.3954
21
248.9200
31
0.0
0
LINE
8
DIM
10
632.3954
20
248.9200
30
0.0
11
632.3954
21
252.6000
31
0.0
0
LINE
8
DIM
10
633.0229
20
252.6000
30
0.0
11
635.8749
21
252.6000
31
0.0
0
LINE
8
DIM
10
634.4489
20
252.6000
30
0.0
11
634.4489
21
248.0000
31
0.0
0
LINE
8
DIM
10
641.4078
20
252.6000
30
0.0
11
639.9818
21
251.4500
31
0.0
0
LINE
8
DIM
10
639.9818
20
251.4500
30
0.0
11
639.9818
21
249.1500
31
0.0
0
LINE
8
DIM
10
639.9818
20
249.1500
30
0.0
11
641.4078
21
248.0000
31
0.0
0
LINE
8
DIM
10
641.4078
20
248.0000
30
0.0
11
642.8338
21
249.1500
31
0.0
0
LINE
8
DIM
10
642.8338
20
249.1500
30
0.0
11
642.8338
21
251.4500
31
0.0
0
LINE
8
DIM
10
642.8338
20
251.4500
30
0.0
11
641.4078
21
252.6000
31
0.0
0
LINE
8
DIM
10
643.4612
20
248.0000
30
0.0
11
643.4612
21
252.6000
31
0.0
0
LINE
8
DIM
10
643.4612
20
252.6000
30
0.0
11
646.3132
21
248.0000
31
0.0
0
LINE
8
DIM
10
646.3132
20
248.0000
30
0.0
11
646.3132
21
252.6000
31
0.0
0
LINE
8
DIM
10
650.4201
20
252.6000
30
0.0
11
650.4201
21
248.0000
31
0.0
0
LINE
8
DIM
10
650.4201
20
248.0000
30
0.0
11
652.9869
21
248.0000
31
0.0
0
LINE
8
DIM
10
653.8995
20
248.0000
30
0.0
11
655.3255
21
252.6000
31
0.0
0
LINE
8
DIM
10
655.3255
20
252.6000
30
0.0
11
656.7515
21
248.0000
31
0.0
0
LINE
8
DIM
10
654.5270
20
249.8400
30
0.0
11
656.1241
21
249.8400
31
0.0
0
LINE
8
DIM
10
657.3790
20
252.6000
30
0.0
11
658.8050
21
250.3000
31
0.0
0
LINE
8
DIM
10
658.8050
20
250.3000
30
0.0
11
660.2310
21
252.6000
31
0.0
0
LINE
8
DIM
10
658.8050
20
250.3000
30
0.0
11
658.8050
21
248.0000
31
0.0
0
LINE
8
DIM
10
663.7104
20
252.6000
30
0.0
11
660.8584
21
252.6000
31
0.0
0
LINE
8
DIM
10
660.8584
20
252.6000
30
0.0
11
660.8584
21
248.0000
31
0.0
0
LINE
8
DIM
10
660.8584
20
248.0000
30
0.0
11
663.7104
21
248.0000
31
0.0
0
LINE
8
DIM
10
660.8584
20
250.3000
30
0.0
11
662.9974
21
250.3000
31
0.0
0
LINE
8
DIM
10
664.3378
20
248.0000
30
0.0
11
664.3378
21
252.6000
31
0.0
0
LINE
8
DIM
10
664.3378
20
252.6000
30
0.0
11
666.3342
21
252.6000
31
0.0
0
LINE
8
DIM
10
666.3342
20
252.6000
30
0.0
11
667.1898
21
251.6800
31
0.0
0
LINE
8
DIM
10
667.1898
20
251.6800
30
0.0
11
667.1898
21
250.7600
31
0.0
0
LINE
8
DIM
10
667.1898
20
250.7600
30
0.0
11
666.3342
21
250.0700
31
0.0
0
LINE
8
DIM
10
666.3342
20
250.0700
30
0.0
11
664.3378
21
250.0700
31
0.0
0
LINE
8
DIM
10
665.7638
20
250.0700
30
0.0
11
667.1898
21
248.0000
31
0.0
0
LINE
8
DIM
10
674.1487
20
251.9100
30
0.0
11
672.7227
21
252.6000
31
0.0
0
LINE
8
DIM
10
672.7227
20
252.6000
30
0.0
11
671.2967
21
251.4500
31
0.0
0
LINE
8
DIM
10
671.2967
20
251.4500
30
0.0
11
671.2967
21
249.1500
31
0.0
0
LINE
8
DIM
10
671.2967
20
249.1500
30
0.0
11
672.7227
21
248.0000
31
0.0
0
LINE
8
DIM
10
672.7227
20
248.0000
30
0.0
11
674.1487
21
248.6900
31
0.0
0
LINE
8
DIM
10
674.7762
20
252.6000
30
0.0
11
674.7762
21
248.9200
31
0.0
0
LINE
8
DIM
10
674.7762
20
248.9200
30
0.0
11
676.2022
21
248.0000
31
0.0
0
LINE
8
DIM
10
676.2022
20
248.0000
30
0.0
11
677.6282
21
248.9200
31
0.0
0
LINE
8
DIM
10
677.6282
20
248.9200
30
0.0
11
677.6282
21
252.6000
31
0.0
0
LINE
8
DIM
10
678.2556
20
252.6000
30
0.0
11
681.1076
21
252.6000
31
0.0
0
LINE
8
DIM
10
679.6816
20
252.6000
30
0.0
11
679.6816
21
248.0000
31
0.0
0
LINE
8
CUT
10
409.5000
20
64.0000
30
0.0
11
647.5000
21
64.0000
31
0.0
0
LINE
8
CUT
10
409.5000
20
244.0000
30
0.0
11
647.5000
21
244.0000
31
0.0
0
LINE
8
CUT
10
403.5000
20
70.0000
30
0.0
11
403.5000
21
238.0000
31
0.0
0
LINE
8
CUT
10
653.5000
20
70.0000
30
0.0
11
653.5000
21
238.0000
31
0.0
0
ARC
8
CUT
10
647.5000
20
238.0000
30
0.0
40
6.0000
50
0.0000
51
90.0000
0
ARC
8
CUT
10
409.5000
20
238.0000
30
0.0
40
6.0000
50
90.0000
51
180.0000
0
ARC
8
CUT
10
409.5000
20
70.0000
30
0.0
40
6.0000
50
180.0000
51
270.0000
0
ARC
8
CUT
10
647.5000
20
70.0000
30
0.0
40
6.0000
50
270.0000
51
360.0000
0
CIRCLE
8
CUT
10
411.5000
20
72.0000
30
0.0
40
1.7000
0
CIRCLE
8
CUT
10
411.5000
20
236.0000
30
0.0
40
1.7000
0
CIRCLE
8
CUT
10
645.5000
20
72.0000
30
0.0
40
1.7000
0
CIRCLE
8
CUT
10
645.5000
20
236.0000
30
0.0
40
1.7000
0
LINE
8
DIM
10
403.5000
20
51.0000
30
0.0
11
653.5000
21
51.0000
31
0.0
0
LINE
8
DIM
10
403.5000
20
51.0000
30
0.0
11
405.9000
21
51.9600
31
0.0
0
LINE
8
DIM
10
403.5000
20
51.0000
30
0.0
11
405.9000
21
50.0400
31
0.0
0
LINE
8
DIM
10
653.5000
20
51.0000
30
0.0
11
651.1000
21
51.9600
31
0.0
0
LINE
8
DIM
10
653.5000
20
51.0000
30
0.0
11
651.1000
21
50.0400
31
0.0
0
LINE
8
DIM
10
522.8000
20
57.2500
30
0.0
11
524.3500
21
58.0000
31
0.0
0
LINE
8
DIM
10
524.3500
20
58.0000
30
0.0
11
525.9000
21
57.2500
31
0.0
0
LINE
8
DIM
10
525.9000
20
57.2500
30
0.0
11
525.9000
21
56.0000
31
0.0
0
LINE
8
DIM
10
525.9000
20
56.0000
30
0.0
11
522.8000
21
53.0000
31
0.0
0
LINE
8
DIM
10
522.8000
20
53.0000
30
0.0
11
525.9000
21
53.0000
31
0.0
0
LINE
8
DIM
10
529.6820
20
58.0000
30
0.0
11
526.5820
21
58.0000
31
0.0
0
LINE
8
DIM
10
526.5820
20
58.0000
30
0.0
11
526.5820
21
55.7500
31
0.0
0
LINE
8
DIM
10
526.5820
20
55.7500
30
0.0
11
528.4420
21
56.0000
31
0.0
0
LINE
8
DIM
10
528.4420
20
56.0000
30
0.0
11
529.6820
21
55.0000
31
0.0
0
LINE
8
DIM
10
529.6820
20
55.0000
30
0.0
11
529.6820
21
53.7500
31
0.0
0
LINE
8
DIM
10
529.6820
20
53.7500
30
0.0
11
528.1320
21
53.0000
31
0.0
0
LINE
8
DIM
10
528.1320
20
53.0000
30
0.0
11
526.5820
21
53.5000
31
0.0
0
LINE
8
DIM
10
531.9140
20
58.0000
30
0.0
11
530.3640
21
56.7500
31
0.0
0
LINE
8
DIM
10
530.3640
20
56.7500
30
0.0
11
530.3640
21
54.2500
31
0.0
0
LINE
8
DIM
10
530.3640
20
54.2500
30
0.0
11
531.9140
21
53.0000
31
0.0
0
LINE
8
DIM
10
531.9140
20
53.0000
30
0.0
11
533.4640
21
54.2500
31
0.0
0
LINE
8
DIM
10
533.4640
20
54.2500
30
0.0
11
533.4640
21
56.7500
31
0.0
0
LINE
8
DIM
10
533.4640
20
56.7500
30
0.0
11
531.9140
21
58.0000
31
0.0
0
LINE
8
DIM
10
390.5000
20
64.0000
30
0.0
11
390.5000
21
244.0000
31
0.0
0
LINE
8
DIM
10
390.5000
20
64.0000
30
0.0
11
391.4600
21
66.4000
31
0.0
0
LINE
8
DIM
10
390.5000
20
64.0000
30
0.0
11
389.5400
21
66.4000
31
0.0
0
LINE
8
DIM
10
390.5000
20
244.0000
30
0.0
11
391.4600
21
241.6000
31
0.0
0
LINE
8
DIM
10
390.5000
20
244.0000
30
0.0
11
389.5400
21
241.6000
31
0.0
0
LINE
8
DIM
10
375.7200
20
155.5000
30
0.0
11
376.6500
21
156.5000
31
0.0
0
LINE
8
DIM
10
376.6500
20
156.5000
30
0.0
11
376.6500
21
151.5000
31
0.0
0
LINE
8
DIM
10
375.5650
20
151.5000
30
0.0
11
377.7350
21
151.5000
31
0.0
0
LINE
8
DIM
10
380.4320
20
154.0000
30
0.0
11
378.8820
21
154.7500
31
0.0
0
LINE
8
DIM
10
378.8820
20
154.7500
30
0.0
11
378.8820
21
155.7500
31
0.0
0
LINE
8
DIM
10
378.8820
20
155.7500
30
0.0
11
380.4320
21
156.5000
31
0.0
0
LINE
8
DIM
10
380.4320
20
156.5000
30
0.0
11
381.9820
21
155.7500
31
0.0
0
LINE
8
DIM
10
381.9820
20
155.7500
30
0.0
11
381.9820
21
154.7500
31
0.0
0
LINE
8
DIM
10
381.9820
20
154.7500
30
0.0
11
380.4320
21
154.0000
31
0.0
0
LINE
8
DIM
10
380.4320
20
154.0000
30
0.0
11
378.8820
21
153.2500
31
0.0
0
LINE
8
DIM
10
378.8820
20
153.2500
30
0.0
11
378.8820
21
152.2500
31
0.0
0
LINE
8
DIM
10
378.8820
20
152.2500
30
0.0
11
380.4320
21
151.5000
31
0.0
0
LINE
8
DIM
10
380.4320
20
151.5000
30
0.0
11
381.9820
21
152.2500
31
0.0
0
LINE
8
DIM
10
381.9820
20
152.2500
30
0.0
11
381.9820
21
153.2500
31
0.0
0
LINE
8
DIM
10
381.9820
20
153.2500
30
0.0
11
380.4320
21
154.0000
31
0.0
0
LINE
8
DIM
10
384.2140
20
156.5000
30
0.0
11
382.6640
21
155.2500
31
0.0
0
LINE
8
DIM
10
382.6640
20
155.2500
30
0.0
11
382.6640
21
152.7500
31
0.0
0
LINE
8
DIM
10
382.6640
20
152.7500
30
0.0
11
384.2140
21
151.5000
31
0.0
0
LINE
8
DIM
10
384.2140
20
151.5000
30
0.0
11
385.7640
21
152.7500
31
0.0
0
LINE
8
DIM
10
385.7640
20
152.7500
30
0.0
11
385.7640
21
155.2500
31
0.0
0
LINE
8
DIM
10
385.7640
20
155.2500
30
0.0
11
384.2140
21
156.5000
31
0.0
0
LINE
8
DIM
10
355.0000
20
244.0000
30
0.0
11
355.0000
21
249.0000
31
0.0
0
LINE
8
DIM
10
358.1000
20
244.0000
30
0.0
11
358.1000
21
249.0000
31
0.0
0
LINE
8
DIM
10
355.0000
20
246.5000
30
0.0
11
358.1000
21
246.5000
31
0.0
0
LINE
8
DIM
10
360.3320
20
249.0000
30
0.0
11
358.7820
21
247.7500
31
0.0
0
LINE
8
DIM
10
358.7820
20
247.7500
30
0.0
11
358.7820
21
245.2500
31
0.0
0
LINE
8
DIM
10
358.7820
20
245.2500
30
0.0
11
360.3320
21
244.0000
31
0.0
0
LINE
8
DIM
10
360.3320
20
244.0000
30
0.0
11
361.8820
21
245.2500
31
0.0
0
LINE
8
DIM
10
361.8820
20
245.2500
30
0.0
11
361.8820
21
247.7500
31
0.0
0
LINE
8
DIM
10
361.8820
20
247.7500
30
0.0
11
360.3320
21
249.0000
31
0.0
0
LINE
8
DIM
10
362.5640
20
249.0000
30
0.0
11
362.5640
21
244.0000
31
0.0
0
LINE
8
DIM
10
362.5640
20
244.0000
30
0.0
11
365.3540
21
244.0000
31
0.0
0
LINE
8
DIM
10
369.4460
20
249.0000
30
0.0
11
366.3460
21
249.0000
31
0.0
0
LINE
8
DIM
10
366.3460
20
249.0000
30
0.0
11
366.3460
21
244.0000
31
0.0
0
LINE
8
DIM
10
366.3460
20
244.0000
30
0.0
11
369.4460
21
244.0000
31
0.0
0
LINE
8
DIM
10
366.3460
20
246.5000
30
0.0
11
368.6710
21
246.5000
31
0.0
0
LINE
8
DIM
10
373.2280
20
248.2500
30
0.0
11
371.6780
21
249.0000
31
0.0
0
LINE
8
DIM
10
371.6780
20
249.0000
30
0.0
11
370.1280
21
248.2500
31
0.0
0
LINE
8
DIM
10
370.1280
20
248.2500
30
0.0
11
370.1280
21
247.0000
31
0.0
0
LINE
8
DIM
10
370.1280
20
247.0000
30
0.0
11
373.2280
21
246.0000
31
0.0
0
LINE
8
DIM
10
373.2280
20
246.0000
30
0.0
11
373.2280
21
244.7500
31
0.0
0
LINE
8
DIM
10
373.2280
20
244.7500
30
0.0
11
371.6780
21
244.0000
31
0.0
0
LINE
8
DIM
10
371.6780
20
244.0000
30
0.0
11
370.1280
21
244.7500
31
0.0
0
LINE
8
DIM
10
383.0240
20
249.0000
30
0.0
11
381.4740
21
247.7500
31
0.0
0
LINE
8
DIM
10
381.4740
20
247.7500
30
0.0
11
381.4740
21
245.2500
31
0.0
0
LINE
8
DIM
10
381.4740
20
245.2500
30
0.0
11
383.0240
21
244.0000
31
0.0
0
LINE
8
DIM
10
383.0240
20
244.0000
30
0.0
11
384.5740
21
245.2500
31
0.0
0
LINE
8
DIM
10
384.5740
20
245.2500
30
0.0
11
384.5740
21
247.7500
31
0.0
0
LINE
8
DIM
10
384.5740
20
247.7500
30
0.0
11
383.0240
21
249.0000
31
0.0
0
LINE
8
DIM
10
385.2560
20
248.5000
30
0.0
11
386.8060
21
249.0000
31
0.0
0
LINE
8
DIM
10
386.8060
20
249.0000
30
0.0
11
388.3560
21
248.2500
31
0.0
0
LINE
8
DIM
10
388.3560
20
248.2500
30
0.0
11
388.3560
21
247.0000
31
0.0
0
LINE
8
DIM
10
388.3560
20
247.0000
30
0.0
11
386.8060
21
246.5000
31
0.0
0
LINE
8
DIM
10
386.8060
20
246.5000
30
0.0
11
388.3560
21
246.0000
31
0.0
0
LINE
8
DIM
10
388.3560
20
246.0000
30
0.0
11
388.3560
21
244.7500
31
0.0
0
LINE
8
DIM
10
388.3560
20
244.7500
30
0.0
11
386.8060
21
244.0000
31
0.0
0
LINE
8
DIM
10
386.8060
20
244.0000
30
0.0
11
385.2560
21
244.5000
31
0.0
0
LINE
8
DIM
10
392.1380
20
248.5000
30
0.0
11
390.5880
21
249.0000
31
0.0
0
LINE
8
DIM
10
390.5880
20
249.0000
30
0.0
11
389.0380
21
247.7500
31
0.0
0
LINE
8
DIM
10
389.0380
20
247.7500
30
0.0
11
389.0380
21
244.7500
31
0.0
0
LINE
8
DIM
10
389.0380
20
244.7500
30
0.0
11
390.5880
21
244.0000
31
0.0
0
LINE
8
DIM
10
390.5880
20
244.0000
30
0.0
11
392.1380
21
244.7500
31
0.0
0
LINE
8
DIM
10
392.1380
20
244.7500
30
0.0
11
392.1380
21
245.7500
31
0.0
0
LINE
8
DIM
10
392.1380
20
245.7500
30
0.0
11
390.5880
21
246.5000
31
0.0
0
LINE
8
DIM
10
390.5880
20
246.5000
30
0.0
11
389.0380
21
245.7500
31
0.0
0
LINE
8
DIM
10
399.7020
20
249.0000
30
0.0
11
396.6020
21
249.0000
31
0.0
0
LINE
8
DIM
10
396.6020
20
249.0000
30
0.0
11
396.6020
21
244.0000
31
0.0
0
LINE
8
DIM
10
396.6020
20
246.5000
30
0.0
11
398.9270
21
246.5000
31
0.0
0
LINE
8
DIM
10
400.3840
20
244.0000
30
0.0
11
401.9340
21
249.0000
31
0.0
0
LINE
8
DIM
10
401.9340
20
249.0000
30
0.0
11
403.4840
21
244.0000
31
0.0
0
LINE
8
DIM
10
401.0660
20
246.0000
30
0.0
11
402.8020
21
246.0000
31
0.0
0
LINE
8
DIM
10
404.1660
20
244.0000
30
0.0
11
404.1660
21
249.0000
31
0.0
0
LINE
8
DIM
10
404.1660
20
249.0000
30
0.0
11
407.2660
21
244.0000
31
0.0
0
LINE
8
DIM
10
407.2660
20
244.0000
30
0.0
11
407.2660
21
249.0000
31
0.0
0
LINE
8
DIM
10
411.7300
20
244.0000
30
0.0
11
411.7300
21
249.0000
31
0.0
0
LINE
8
DIM
10
411.7300
20
249.0000
30
0.0
11
413.9000
21
249.0000
31
0.0
0
LINE
8
DIM
10
413.9000
20
249.0000
30
0.0
11
414.8300
21
248.2500
31
0.0
0
LINE
8
DIM
10
414.8300
20
248.2500
30
0.0
11
414.8300
21
247.2500
31
0.0
0
LINE
8
DIM
10
414.8300
20
247.2500
30
0.0
11
413.9000
21
246.5000
31
0.0
0
LINE
8
DIM
10
413.9000
20
246.5000
30
0.0
11
411.7300
21
246.5000
31
0.0
0
LINE
8
DIM
10
413.9000
20
246.5000
30
0.0
11
414.8300
21
245.7500
31
0.0
0
LINE
8
DIM
10
414.8300
20
245.7500
30
0.0
11
414.8300
21
244.7500
31
0.0
0
LINE
8
DIM
10
414.8300
20
244.7500
30
0.0
11
413.9000
21
244.0000
31
0.0
0
LINE
8
DIM
10
413.9000
20
244.0000
30
0.0
11
411.7300
21
244.0000
31
0.0
0
LINE
8
DIM
10
417.0620
20
249.0000
30
0.0
11
415.5120
21
247.7500
31
0.0
0
LINE
8
DIM
10
415.5120
20
247.7500
30
0.0
11
415.5120
21
245.2500
31
0.0
0
LINE
8
DIM
10
415.5120
20
245.2500
30
0.0
11
417.0620
21
244.0000
31
0.0
0
LINE
8
DIM
10
417.0620
20
244.0000
30
0.0
11
418.6120
21
245.2500
31
0.0
0
LINE
8
DIM
10
418.6120
20
245.2500
30
0.0
11
418.6120
21
247.7500
31
0.0
0
LINE
8
DIM
10
418.6120
20
247.7500
30
0.0
11
417.0620
21
249.0000
31
0.0
0
LINE
8
DIM
10
419.2940
20
244.0000
30
0.0
11
419.2940
21
249.0000
31
0.0
0
LINE
8
DIM
10
419.2940
20
249.0000
30
0.0
11
421.4640
21
249.0000
31
0.0
0
LINE
8
DIM
10
421.4640
20
249.0000
30
0.0
11
422.3940
21
248.0000
31
0.0
0
LINE
8
DIM
10
422.3940
20
248.0000
30
0.0
11
422.3940
21
247.0000
31
0.0
0
LINE
8
DIM
10
422.3940
20
247.0000
30
0.0
11
421.4640
21
246.2500
31
0.0
0
LINE
8
DIM
10
421.4640
20
246.2500
30
0.0
11
419.2940
21
246.2500
31
0.0
0
LINE
8
DIM
10
420.8440
20
246.2500
30
0.0
11
422.3940
21
244.0000
31
0.0
0
LINE
8
DIM
10
426.1760
20
249.0000
30
0.0
11
423.0760
21
249.0000
31
0.0
0
LINE
8
DIM
10
423.0760
20
249.0000
30
0.0
11
423.0760
21
244.0000
31
0.0
0
LINE
8
DIM
10
423.0760
20
244.0000
30
0.0
11
426.1760
21
244.0000
31
0.0
0
LINE
8
DIM
10
423.0760
20
246.5000
30
0.0
11
425.4010
21
246.5000
31
0.0
0
LINE
8
DIM
10
439.7540
20
249.0000
30
0.0
11
438.2040
21
247.7500
31
0.0
0
LINE
8
DIM
10
438.2040
20
247.7500
30
0.0
11
438.2040
21
245.2500
31
0.0
0
LINE
8
DIM
10
438.2040
20
245.2500
30
0.0
11
439.7540
21
244.0000
31
0.0
0
LINE
8
DIM
10
439.7540
20
244.0000
30
0.0
11
441.3040
21
245.2500
31
0.0
0
LINE
8
DIM
10
441.3040
20
245.2500
30
0.0
11
441.3040
21
247.7500
31
0.0
0
LINE
8
DIM
10
441.3040
20
247.7500
30
0.0
11
439.7540
21
249.0000
31
0.0
0
LINE
8
DIM
10
441.9860
20
248.5000
30
0.0
11
443.5360
21
249.0000
31
0.0
0
LINE
8
DIM
10
443.5360
20
249.0000
30
0.0
11
445.0860
21
248.2500
31
0.0
0
LINE
8
DIM
10
445.0860
20
248.2500
30
0.0
11
445.0860
21
247.0000
31
0.0
0
LINE
8
DIM
10
445.0860
20
247.0000
30
0.0
11
443.5360
21
246.5000
31
0.0
0
LINE
8
DIM
10
443.5360
20
246.5000
30
0.0
11
445.0860
21
246.0000
31
0.0
0
LINE
8
DIM
10
445.0860
20
246.0000
30
0.0
11
445.0860
21
244.7500
31
0.0
0
LINE
8
DIM
10
445.0860
20
244.7500
30
0.0
11
443.5360
21
244.0000
31
0.0
0
LINE
8
DIM
10
443.5360
20
244.0000
30
0.0
11
441.9860
21
244.5000
31
0.0
0
LINE
8
DIM
10
447.0080
20
244.0000
30
0.0
11
447.6280
21
244.0000
31
0.0
0
LINE
8
DIM
10
451.8750
20
244.0000
30
0.0
11
451.8750
21
249.0000
31
0.0
0
LINE
8
DIM
10
451.8750
20
249.0000
30
0.0
11
449.5500
21
245.5000
31
0.0
0
LINE
8
DIM
10
449.5500
20
245.5000
30
0.0
11
452.6500
21
245.5000
31
0.0
0
LINE
8
DIM
10
460.2140
20
249.0000
30
0.0
11
457.1140
21
249.0000
31
0.0
0
LINE
8
DIM
10
457.1140
20
249.0000
30
0.0
11
457.1140
21
244.0000
31
0.0
0
LINE
8
DIM
10
457.1140
20
246.5000
30
0.0
11
459.4390
21
246.5000
31
0.0
0
LINE
8
DIM
10
462.4460
20
249.0000
30
0.0
11
460.8960
21
247.7500
31
0.0
0
LINE
8
DIM
10
460.8960
20
247.7500
30
0.0
11
460.8960
21
245.2500
31
0.0
0
LINE
8
DIM
10
460.8960
20
245.2500
30
0.0
11
462.4460
21
244.0000
31
0.0
0
LINE
8
DIM
10
462.4460
20
244.0000
30
0.0
11
463.9960
21
245.2500
31
0.0
0
LINE
8
DIM
10
463.9960
20
245.2500
30
0.0
11
463.9960
21
247.7500
31
0.0
0
LINE
8
DIM
10
463.9960
20
247.7500
30
0.0
11
462.4460
21
249.0000
31
0.0
0
LINE
8
DIM
10
464.6780
20
244.0000
30
0.0
11
464.6780
21
249.0000
31
0.0
0
LINE
8
DIM
10
464.6780
20
249.0000
30
0.0
11
466.8480
21
249.0000
31
0.0
0
LINE
8
DIM
10
466.8480
20
249.0000
30
0.0
11
467.7780
21
248.0000
31
0.0
0
LINE
8
DIM
10
467.7780
20
248.0000
30
0.0
11
467.7780
21
247.0000
31
0.0
0
LINE
8
DIM
10
467.7780
20
247.0000
30
0.0
11
466.8480
21
246.2500
31
0.0
0
LINE
8
DIM
10
466.8480
20
246.2500
30
0.0
11
464.6780
21
246.2500
31
0.0
0
LINE
8
DIM
10
466.2280
20
246.2500
30
0.0
11
467.7780
21
244.0000
31
0.0
0
LINE
8
DIM
10
472.2420
20
244.0000
30
0.0
11
472.2420
21
249.0000
31
0.0
0
LINE
8
DIM
10
472.2420
20
249.0000
30
0.0
11
473.7920
21
246.2500
31
0.0
0
LINE
8
DIM
10
473.7920
20
246.2500
30
0.0
11
475.3420
21
249.0000
31
0.0
0
LINE
8
DIM
10
475.3420
20
249.0000
30
0.0
11
475.3420
21
244.0000
31
0.0
0
LINE
8
DIM
10
476.0240
20
248.5000
30
0.0
11
477.5740
21
249.0000
31
0.0
0
LINE
8
DIM
10
477.5740
20
249.0000
30
0.0
11
479.1240
21
248.2500
31
0.0
0
LINE
8
DIM
10
479.1240
20
248.2500
30
0.0
11
479.1240
21
247.0000
31
0.0
0
LINE
8
DIM
10
479.1240
20
247.0000
30
0.0
11
477.5740
21
246.5000
31
0.0
0
LINE
8
DIM
10
477.5740
20
246.5000
30
0.0
11
479.1240
21
246.0000
31
0.0
0
LINE
8
DIM
10
479.1240
20
246.0000
30
0.0
11
479.1240
21
244.7500
31
0.0
0
LINE
8
DIM
10
479.1240
20
244.7500
30
0.0
11
477.5740
21
244.0000
31
0.0
0
LINE
8
DIM
10
477.5740
20
244.0000
30
0.0
11
476.0240
21
244.5000
31
0.0
0
LINE
8
DIM
10
492.7020
20
249.0000
30
0.0
11
491.1520
21
247.7500
31
0.0
0
LINE
8
DIM
10
491.1520
20
247.7500
30
0.0
11
491.1520
21
245.2500
31
0.0
0
LINE
8
DIM
10
491.1520
20
245.2500
30
0.0
11
492.7020
21
244.0000
31
0.0
0
LINE
8
DIM
10
492.7020
20
244.0000
30
0.0
11
494.2520
21
245.2500
31
0.0
0
LINE
8
DIM
10
494.2520
20
245.2500
30
0.0
11
494.2520
21
247.7500
31
0.0
0
LINE
8
DIM
10
494.2520
20
247.7500
30
0.0
11
492.7020
21
249.0000
31
0.0
0
LINE
8
DIM
10
494.9340
20
248.2500
30
0.0
11
496.4840
21
249.0000
31
0.0
0
LINE
8
DIM
10
496.4840
20
249.0000
30
0.0
11
498.0340
21
248.2500
31
0.0
0
LINE
8
DIM
10
498.0340
20
248.2500
30
0.0
11
498.0340
21
247.0000
31
0.0
0
LINE
8
DIM
10
498.0340
20
247.0000
30
0.0
11
494.9340
21
244.0000
31
0.0
0
LINE
8
DIM
10
494.9340
20
244.0000
30
0.0
11
498.0340
21
244.0000
31
0.0
0
LINE
8
DIM
10
499.9560
20
244.0000
30
0.0
11
500.5760
21
244.0000
31
0.0
0
LINE
8
DIM
10
502.4980
20
244.5000
30
0.0
11
504.0480
21
244.0000
31
0.0
0
LINE
8
DIM
10
504.0480
20
244.0000
30
0.0
11
505.5980
21
245.2500
31
0.0
0
LINE
8
DIM
10
505.5980
20
245.2500
30
0.0
11
505.5980
21
248.2500
31
0.0
0
LINE
8
DIM
10
505.5980
20
248.2500
30
0.0
11
504.0480
21
249.0000
31
0.0
0
LINE
8
DIM
10
504.0480
20
249.0000
30
0.0
11
502.4980
21
248.2500
31
0.0
0
LINE
8
DIM
10
502.4980
20
248.2500
30
0.0
11
502.4980
21
247.2500
31
0.0
0
LINE
8
DIM
10
502.4980
20
247.2500
30
0.0
11
504.0480
21
246.5000
31
0.0
0
LINE
8
DIM
10
504.0480
20
246.5000
30
0.0
11
505.5980
21
247.2500
31
0.0
0
LINE
8
DIM
10
513.1620
20
249.0000
30
0.0
11
510.0620
21
249.0000
31
0.0
0
LINE
8
DIM
10
510.0620
20
249.0000
30
0.0
11
510.0620
21
244.0000
31
0.0
0
LINE
8
DIM
10
510.0620
20
246.5000
30
0.0
11
512.3870
21
246.5000
31
0.0
0
LINE
8
DIM
10
515.3940
20
249.0000
30
0.0
11
513.8440
21
247.7500
31
0.0
0
LINE
8
DIM
10
513.8440
20
247.7500
30
0.0
11
513.8440
21
245.2500
31
0.0
0
LINE
8
DIM
10
513.8440
20
245.2500
30
0.0
11
515.3940
21
244.0000
31
0.0
0
LINE
8
DIM
10
515.3940
20
244.0000
30
0.0
11
516.9440
21
245.2500
31
0.0
0
LINE
8
DIM
10
516.9440
20
245.2500
30
0.0
11
516.9440
21
247.7500
31
0.0
0
LINE
8
DIM
10
516.9440
20
247.7500
30
0.0
11
515.3940
21
249.0000
31
0.0
0
LINE
8
DIM
10
517.6260
20
244.0000
30
0.0
11
517.6260
21
249.0000
31
0.0
0
LINE
8
DIM
10
517.6260
20
249.0000
30
0.0
11
519.7960
21
249.0000
31
0.0
0
LINE
8
DIM
10
519.7960
20
249.0000
30
0.0
11
520.7260
21
248.0000
31
0.0
0
LINE
8
DIM
10
520.7260
20
248.0000
30
0.0
11
520.7260
21
247.0000
31
0.0
0
LINE
8
DIM
10
520.7260
20
247.0000
30
0.0
11
519.7960
21
246.2500
31
0.0
0
LINE
8
DIM
10
519.7960
20
246.2500
30
0.0
11
517.6260
21
246.2500
31
0.0
0
LINE
8
DIM
10
519.1760
20
246.2500
30
0.0
11
520.7260
21
244.0000
31
0.0
0
LINE
8
DIM
10
525.1900
20
244.0000
30
0.0
11
525.1900
21
249.0000
31
0.0
0
LINE
8
DIM
10
525.1900
20
249.0000
30
0.0
11
526.7400
21
246.2500
31
0.0
0
LINE
8
DIM
10
526.7400
20
246.2500
30
0.0
11
528.2900
21
249.0000
31
0.0
0
LINE
8
DIM
10
528.2900
20
249.0000
30
0.0
11
528.2900
21
244.0000
31
0.0
0
LINE
8
DIM
10
528.9720
20
248.2500
30
0.0
11
530.5220
21
249.0000
31
0.0
0
LINE
8
DIM
10
530.5220
20
249.0000
30
0.0
11
532.0720
21
248.2500
31
0.0
0
LINE
8
DIM
10
532.0720
20
248.2500
30
0.0
11
532.0720
21
247.0000
31
0.0
0
LINE
8
DIM
10
532.0720
20
247.0000
30
0.0
11
528.9720
21
244.0000
31
0.0
0
LINE
8
DIM
10
528.9720
20
244.0000
30
0.0
11
532.0720
21
244.0000
31
0.0
0
LINE
8
DIM
10
533.9940
20
244.0000
30
0.0
11
534.6140
21
244.0000
31
0.0
0
LINE
8
DIM
10
539.6360
20
249.0000
30
0.0
11
536.5360
21
249.0000
31
0.0
0
LINE
8
DIM
10
536.5360
20
249.0000
30
0.0
11
536.5360
21
246.7500
31
0.0
0
LINE
8
DIM
10
536.5360
20
246.7500
30
0.0
11
538.3960
21
247.0000
31
0.0
0
LINE
8
DIM
10
538.3960
20
247.0000
30
0.0
11
539.6360
21
246.0000
31
0.0
0
LINE
8
DIM
10
539.6360
20
246.0000
30
0.0
11
539.6360
21
244.7500
31
0.0
0
LINE
8
DIM
10
539.6360
20
244.7500
30
0.0
11
538.0860
21
244.0000
31
0.0
0
LINE
8
DIM
10
538.0860
20
244.0000
30
0.0
11
536.5360
21
244.5000
31
0.0
0
LINE
8
DIM
10
358.1000
20
236.2500
30
0.0
11
356.5500
21
237.0000
31
0.0
0
LINE
8
DIM
10
356.5500
20
237.0000
30
0.0
11
355.0000
21
236.2500
31
0.0
0
LINE
8
DIM
10
355.0000
20
236.2500
30
0.0
11
355.0000
21
235.0000
31
0.0
0
LINE
8
DIM
10
355.0000
20
235.0000
30
0.0
11
358.1000
21
234.0000
31
0.0
0
LINE
8
DIM
10
358.1000
20
234.0000
30
0.0
11
358.1000
21
232.7500
31
0.0
0
LINE
8
DIM
10
358.1000
20
232.7500
30
0.0
11
356.5500
21
232.0000
31
0.0
0
LINE
8
DIM
10
356.5500
20
232.0000
30
0.0
11
355.0000
21
232.7500
31
0.0
0
LINE
8
DIM
10
358.7820
20
237.0000
30
0.0
11
358.7820
21
232.0000
31
0.0
0
LINE
8
DIM
10
358.7820
20
232.0000
30
0.0
11
361.5720
21
232.0000
31
0.0
0
LINE
8
DIM
10
364.1140
20
237.0000
30
0.0
11
362.5640
21
235.7500
31
0.0
0
LINE
8
DIM
10
362.5640
20
235.7500
30
0.0
11
362.5640
21
233.2500
31
0.0
0
LINE
8
DIM
10
362.5640
20
233.2500
30
0.0
11
364.1140
21
232.0000
31
0.0
0
LINE
8
DIM
10
364.1140
20
232.0000
30
0.0
11
365.6640
21
233.2500
31
0.0
0
LINE
8
DIM
10
365.6640
20
233.2500
30
0.0
11
365.6640
21
235.7500
31
0.0
0
LINE
8
DIM
10
365.6640
20
235.7500
30
0.0
11
364.1140
21
237.0000
31
0.0
0
LINE
8
DIM
10
366.3460
20
237.0000
30
0.0
11
369.4460
21
237.0000
31
0.0
0
LINE
8
DIM
10
367.8960
20
237.0000
30
0.0
11
367.8960
21
232.0000
31
0.0
0
LINE
8
DIM
10
373.2280
20
236.2500
30
0.0
11
371.6780
21
237.0000
31
0.0
0
LINE
8
DIM
10
371.6780
20
237.0000
30
0.0
11
370.1280
21
236.2500
31
0.0
0
LINE
8
DIM
10
370.1280
20
236.2500
30
0.0
11
370.1280
21
235.0000
31
0.0
0
LINE
8
DIM
10
370.1280
20
235.0000
30
0.0
11
373.2280
21
234.0000
31
0.0
0
LINE
8
DIM
10
373.2280
20
234.0000
30
0.0
11
373.2280
21
232.7500
31
0.0
0
LINE
8
DIM
10
373.2280
20
232.7500
30
0.0
11
371.6780
21
232.0000
31
0.0
0
LINE
8
DIM
10
371.6780
20
232.0000
30
0.0
11
370.1280
21
232.7500
31
0.0
0
LINE
8
DIM
10
377.6920
20
232.0000
30
0.0
11
379.2420
21
237.0000
31
0.0
0
LINE
8
DIM
10
379.2420
20
237.0000
30
0.0
11
380.7920
21
232.0000
31
0.0
0
LINE
8
DIM
10
378.3740
20
234.0000
30
0.0
11
380.1100
21
234.0000
31
0.0
0
LINE
8
DIM
10
384.5740
20
236.2500
30
0.0
11
383.0240
21
237.0000
31
0.0
0
LINE
8
DIM
10
383.0240
20
237.0000
30
0.0
11
381.4740
21
236.2500
31
0.0
0
LINE
8
DIM
10
381.4740
20
236.2500
30
0.0
11
381.4740
21
235.0000
31
0.0
0
LINE
8
DIM
10
381.4740
20
235.0000
30
0.0
11
384.5740
21
234.0000
31
0.0
0
LINE
8
DIM
10
384.5740
20
234.0000
30
0.0
11
384.5740
21
232.7500
31
0.0
0
LINE
8
DIM
10
384.5740
20
232.7500
30
0.0
11
383.0240
21
232.0000
31
0.0
0
LINE
8
DIM
10
383.0240
20
232.0000
30
0.0
11
381.4740
21
232.7500
31
0.0
0
LINE
8
DIM
10
389.0380
20
232.0000
30
0.0
11
389.0380
21
237.0000
31
0.0
0
LINE
8
DIM
10
389.0380
20
237.0000
30
0.0
11
390.8980
21
237.0000
31
0.0
0
LINE
8
DIM
10
390.8980
20
237.0000
30
0.0
11
392.1380
21
235.5000
31
0.0
0
LINE
8
DIM
10
392.1380
20
235.5000
30
0.0
11
392.1380
21
233.5000
31
0.0
0
LINE
8
DIM
10
392.1380
20
233.5000
30
0.0
11
390.8980
21
232.0000
31
0.0
0
LINE
8
DIM
10
390.8980
20
232.0000
30
0.0
11
389.0380
21
232.0000
31
0.0
0
LINE
8
DIM
10
392.8200
20
232.0000
30
0.0
11
392.8200
21
237.0000
31
0.0
0
LINE
8
DIM
10
392.8200
20
237.0000
30
0.0
11
394.9900
21
237.0000
31
0.0
0
LINE
8
DIM
10
394.9900
20
237.0000
30
0.0
11
395.9200
21
236.0000
31
0.0
0
LINE
8
DIM
10
395.9200
20
236.0000
30
0.0
11
395.9200
21
235.0000
31
0.0
0
LINE
8
DIM
10
395.9200
20
235.0000
30
0.0
11
394.9900
21
234.2500
31
0.0
0
LINE
8
DIM
10
394.9900
20
234.2500
30
0.0
11
392.8200
21
234.2500
31
0.0
0
LINE
8
DIM
10
394.3700
20
234.2500
30
0.0
11
395.9200
21
232.0000
31
0.0
0
LINE
8
DIM
10
396.6020
20
232.0000
30
0.0
11
398.1520
21
237.0000
31
0.0
0
LINE
8
DIM
10
398.1520
20
237.0000
30
0.0
11
399.7020
21
232.0000
31
0.0
0
LINE
8
DIM
10
397.2840
20
234.0000
30
0.0
11
399.0200
21
234.0000
31
0.0
0
LINE
8
DIM
10
400.3840
20
237.0000
30
0.0
11
401.0040
21
232.0000
31
0.0
0
LINE
8
DIM
10
401.0040
20
232.0000
30
0.0
11
401.9340
21
235.0000
31
0.0
0
LINE
8
DIM
10
401.9340
20
235.0000
30
0.0
11
402.8640
21
232.0000
31
0.0
0
LINE
8
DIM
10
402.8640
20
232.0000
30
0.0
11
403.4840
21
237.0000
31
0.0
0
LINE
8
DIM
10
404.1660
20
232.0000
30
0.0
11
404.1660
21
237.0000
31
0.0
0
LINE
8
DIM
10
404.1660
20
237.0000
30
0.0
11
407.2660
21
232.0000
31
0.0
0
LINE
8
DIM
10
407.2660
20
232.0000
30
0.0
11
407.2660
21
237.0000
31
0.0
0
LINE
8
DIM
10
419.2940
20
237.0000
30
0.0
11
422.3940
21
237.0000
31
0.0
0
LINE
8
DIM
10
420.8440
20
237.0000
30
0.0
11
420.8440
21
232.0000
31
0.0
0
LINE
8
DIM
10
424.6260
20
237.0000
30
0.0
11
423.0760
21
235.7500
31
0.0
0
LINE
8
DIM
10
423.0760
20
235.7500
30
0.0
11
423.0760
21
233.2500
31
0.0
0
LINE
8
DIM
10
423.0760
20
233.2500
30
0.0
11
424.6260
21
232.0000
31
0.0
0
LINE
8
DIM
10
424.6260
20
232.0000
30
0.0
11
426.1760
21
233.2500
31
0.0
0
LINE
8
DIM
10
426.1760
20
233.2500
30
0.0
11
426.1760
21
235.7500
31
0.0
0
LINE
8
DIM
10
426.1760
20
235.7500
30
0.0
11
424.6260
21
237.0000
31
0.0
0
LINE
8
DIM
10
426.8580
20
232.0000
30
0.0
11
426.8580
21
237.0000
31
0.0
0
LINE
8
DIM
10
426.8580
20
237.0000
30
0.0
11
429.0280
21
237.0000
31
0.0
0
LINE
8
DIM
10
429.0280
20
237.0000
30
0.0
11
429.9580
21
236.0000
31
0.0
0
LINE
8
DIM
10
429.9580
20
236.0000
30
0.0
11
429.9580
21
235.0000
31
0.0
0
LINE
8
DIM
10
429.9580
20
235.0000
30
0.0
11
429.0280
21
234.2500
31
0.0
0
LINE
8
DIM
10
429.0280
20
234.2500
30
0.0
11
426.8580
21
234.2500
31
0.0
0
LINE
8
DIM
10
434.4220
20
232.0000
30
0.0
11
434.4220
21
237.0000
31
0.0
0
LINE
8
DIM
10
434.4220
20
237.0000
30
0.0
11
436.5920
21
237.0000
31
0.0
0
LINE
8
DIM
10
436.5920
20
237.0000
30
0.0
11
437.5220
21
236.0000
31
0.0
0
LINE
8
DIM
10
437.5220
20
236.0000
30
0.0
11
437.5220
21
235.0000
31
0.0
0
LINE
8
DIM
10
437.5220
20
235.0000
30
0.0
11
436.5920
21
234.2500
31
0.0
0
LINE
8
DIM
10
436.5920
20
234.2500
30
0.0
11
434.4220
21
234.2500
31
0.0
0
LINE
8
DIM
10
438.2040
20
237.0000
30
0.0
11
438.2040
21
232.0000
31
0.0
0
LINE
8
DIM
10
438.2040
20
232.0000
30
0.0
11
440.9940
21
232.0000
31
0.0
0
LINE
8
DIM
10
441.9860
20
232.0000
30
0.0
11
443.5360
21
237.0000
31
0.0
0
LINE
8
DIM
10
443.5360
20
237.0000
30
0.0
11
445.0860
21
232.0000
31
0.0
0
LINE
8
DIM
10
442.6680
20
234.0000
30
0.0
11
444.4040
21
234.0000
31
0.0
0
LINE
8
DIM
10
445.7680
20
237.0000
30
0.0
11
448.8680
21
237.0000
31
0.0
0
LINE
8
DIM
10
447.3180
20
237.0000
30
0.0
11
447.3180
21
232.0000
31
0.0
0
LINE
8
DIM
10
452.6500
20
237.0000
30
0.0
11
449.5500
21
237.0000
31
0.0
0
LINE
8
DIM
10
449.5500
20
237.0000
30
0.0
11
449.5500
21
232.0000
31
0.0
0
LINE
8
DIM
10
449.5500
20
232.0000
30
0.0
11
452.6500
21
232.0000
31
0.0
0
LINE
8
DIM
10
449.5500
20
234.5000
30
0.0
11
451.8750
21
234.5000
31
0.0
0
LINE
8
DIM
10
460.2140
20
236.2500
30
0.0
11
458.6640
21
237.0000
31
0.0
0
LINE
8
DIM
10
458.6640
20
237.0000
30
0.0
11
457.1140
21
235.7500
31
0.0
0
LINE
8
DIM
10
457.1140
20
235.7500
30
0.0
11
457.1140
21
233.2500
31
0.0
0
LINE
8
DIM
10
457.1140
20
233.2500
30
0.0
11
458.6640
21
232.0000
31
0.0
0
LINE
8
DIM
10
458.6640
20
232.0000
30
0.0
11
460.2140
21
232.7500
31
0.0
0
LINE
8
DIM
10
464.6780
20
232.0000
30
0.0
11
464.6780
21
237.0000
31
0.0
0
LINE
8
DIM
10
467.7780
20
232.0000
30
0.0
11
467.7780
21
237.0000
31
0.0
0
LINE
8
DIM
10
464.6780
20
234.5000
30
0.0
11
467.7780
21
234.5000
31
0.0
0
LINE
8
DIM
10
468.4600
20
232.0000
30
0.0
11
470.0100
21
237.0000
31
0.0
0
LINE
8
DIM
10
470.0100
20
237.0000
30
0.0
11
471.5600
21
232.0000
31
0.0
0
LINE
8
DIM
10
469.1420
20
234.0000
30
0.0
11
470.8780
21
234.0000
31
0.0
0
LINE
8
DIM
10
475.3420
20
236.2500
30
0.0
11
473.7920
21
237.0000
31
0.0
0
LINE
8
DIM
10
473.7920
20
237.0000
30
0.0
11
472.2420
21
236.2500
31
0.0
0
LINE
8
DIM
10
472.2420
20
236.2500
30
0.0
11
472.2420
21
235.0000
31
0.0
0
LINE
8
DIM
10
472.2420
20
235.0000
30
0.0
11
475.3420
21
234.0000
31
0.0
0
LINE
8
DIM
10
475.3420
20
234.0000
30
0.0
11
475.3420
21
232.7500
31
0.0
0
LINE
8
DIM
10
475.3420
20
232.7500
30
0.0
11
473.7920
21
232.0000
31
0.0
0
LINE
8
DIM
10
473.7920
20
232.0000
30
0.0
11
472.2420
21
232.7500
31
0.0
0
LINE
8
DIM
10
482.9060
20
237.0000
30
0.0
11
479.8060
21
237.0000
31
0.0
0
LINE
8
DIM
10
479.8060
20
237.0000
30
0.0
11
479.8060
21
232.0000
31
0.0
0
LINE
8
DIM
10
479.8060
20
232.0000
30
0.0
11
482.9060
21
232.0000
31
0.0
0
LINE
8
DIM
10
479.8060
20
234.5000
30
0.0
11
482.1310
21
234.5000
31
0.0
0
LINE
8
DIM
10
483.5880
20
232.0000
30
0.0
11
483.5880
21
237.0000
31
0.0
0
LINE
8
DIM
10
483.5880
20
237.0000
30
0.0
11
486.6880
21
232.0000
31
0.0
0
LINE
8
DIM
10
486.6880
20
232.0000
30
0.0
11
486.6880
21
237.0000
31
0.0
0
LINE
8
DIM
10
490.4700
20
236.2500
30
0.0
11
488.9200
21
237.0000
31
0.0
0
LINE
8
DIM
10
488.9200
20
237.0000
30
0.0
11
487.3700
21
235.7500
31
0.0
0
LINE
8
DIM
10
487.3700
20
235.7500
30
0.0
11
487.3700
21
233.2500
31
0.0
0
LINE
8
DIM
10
487.3700
20
233.2500
30
0.0
11
488.9200
21
232.0000
31
0.0
0
LINE
8
DIM
10
488.9200
20
232.0000
30
0.0
11
490.4700
21
233.0000
31
0.0
0
LINE
8
DIM
10
490.4700
20
233.0000
30
0.0
11
490.4700
21
234.2500
31
0.0
0
LINE
8
DIM
10
490.4700
20
234.2500
30
0.0
11
489.0750
21
234.2500
31
0.0
0
LINE
8
DIM
10
491.1520
20
232.0000
30
0.0
11
491.1520
21
237.0000
31
0.0
0
LINE
8
DIM
10
491.1520
20
237.0000
30
0.0
11
493.3220
21
237.0000
31
0.0
0
LINE
8
DIM
10
493.3220
20
237.0000
30
0.0
11
494.2520
21
236.0000
31
0.0
0
LINE
8
DIM
10
494.2520
20
236.0000
30
0.0
11
494.2520
21
235.0000
31
0.0
0
LINE
8
DIM
10
494.2520
20
235.0000
30
0.0
11
493.3220
21
234.2500
31
0.0
0
LINE
8
DIM
10
493.3220
20
234.2500
30
0.0
11
491.1520
21
234.2500
31
0.0
0
LINE
8
DIM
10
492.7020
20
234.2500
30
0.0
11
494.2520
21
232.0000
31
0.0
0
LINE
8
DIM
10
494.9340
20
232.0000
30
0.0
11
496.4840
21
237.0000
31
0.0
0
LINE
8
DIM
10
496.4840
20
237.0000
30
0.0
11
498.0340
21
232.0000
31
0.0
0
LINE
8
DIM
10
495.6160
20
234.0000
30
0.0
11
497.3520
21
234.0000
31
0.0
0
LINE
8
DIM
10
498.7160
20
237.0000
30
0.0
11
500.2660
21
232.0000
31
0.0
0
LINE
8
DIM
10
500.2660
20
232.0000
30
0.0
11
501.8160
21
237.0000
31
0.0
0
LINE
8
DIM
10
505.5980
20
237.0000
30
0.0
11
502.4980
21
237.0000
31
0.0
0
LINE
8
DIM
10
502.4980
20
237.0000
30
0.0
11
502.4980
21
232.0000
31
0.0
0
LINE
8
DIM
10
502.4980
20
232.0000
30
0.0
11
505.5980
21
232.0000
31
0.0
0
LINE
8
DIM
10
502.4980
20
234.5000
30
0.0
11
504.8230
21
234.5000
31
0.0
0
LINE
8
DIM
10
506.2800
20
232.0000
30
0.0
11
506.2800
21
237.0000
31
0.0
0
LINE
8
DIM
10
506.2800
20
237.0000
30
0.0
11
508.1400
21
237.0000
31
0.0
0
LINE
8
DIM
10
508.1400
20
237.0000
30
0.0
11
509.3800
21
235.5000
31
0.0
0
LINE
8
DIM
10
509.3800
20
235.5000
30
0.0
11
509.3800
21
233.5000
31
0.0
0
LINE
8
DIM
10
509.3800
20
233.5000
30
0.0
11
508.1400
21
232.0000
31
0.0
0
LINE
8
DIM
10
508.1400
20
232.0000
30
0.0
11
506.2800
21
232.0000
31
0.0
0
LINE
8
DIM
10
513.8440
20
237.0000
30
0.0
11
516.9440
21
237.0000
31
0.0
0
LINE
8
DIM
10
515.3940
20
237.0000
30
0.0
11
515.3940
21
232.0000
31
0.0
0
LINE
8
DIM
10
520.7260
20
237.0000
30
0.0
11
517.6260
21
237.0000
31
0.0
0
LINE
8
DIM
10
517.6260
20
237.0000
30
0.0
11
517.6260
21
232.0000
31
0.0
0
LINE
8
DIM
10
517.6260
20
232.0000
30
0.0
11
520.7260
21
232.0000
31
0.0
0
LINE
8
DIM
10
517.6260
20
234.5000
30
0.0
11
519.9510
21
234.5000
31
0.0
0
LINE
8
DIM
10
521.4080
20
232.0000
30
0.0
11
524.5080
21
237.0000
31
0.0
0
LINE
8
DIM
10
521.4080
20
237.0000
30
0.0
11
524.5080
21
232.0000
31
0.0
0
LINE
8
DIM
10
525.1900
20
237.0000
30
0.0
11
528.2900
21
237.0000
31
0.0
0
LINE
8
DIM
10
526.7400
20
237.0000
30
0.0
11
526.7400
21
232.0000
31
0.0
0
LINE
8
DIM
10
534.3040
20
237.0000
30
0.0
11
532.7540
21
235.7500
31
0.0
0
LINE
8
DIM
10
532.7540
20
235.7500
30
0.0
11
532.7540
21
233.2500
31
0.0
0
LINE
8
DIM
10
532.7540
20
233.2500
30
0.0
11
534.3040
21
232.0000
31
0.0
0
LINE
8
DIM
10
534.3040
20
232.0000
30
0.0
11
535.8540
21
233.2500
31
0.0
0
LINE
8
DIM
10
535.8540
20
233.2500
30
0.0
11
535.8540
21
235.7500
31
0.0
0
LINE
8
DIM
10
535.8540
20
235.7500
30
0.0
11
534.3040
21
237.0000
31
0.0
0
LINE
8
DIM
10
536.5360
20
232.0000
30
0.0
11
536.5360
21
237.0000
31
0.0
0
LINE
8
DIM
10
536.5360
20
237.0000
30
0.0
11
539.6360
21
232.0000
31
0.0
0
LINE
8
DIM
10
539.6360
20
232.0000
30
0.0
11
539.6360
21
237.0000
31
0.0
0
LINE
8
DIM
10
544.1000
20
237.0000
30
0.0
11
544.1000
21
232.0000
31
0.0
0
LINE
8
DIM
10
544.1000
20
232.0000
30
0.0
11
546.8900
21
232.0000
31
0.0
0
LINE
8
DIM
10
547.8820
20
232.0000
30
0.0
11
549.4320
21
237.0000
31
0.0
0
LINE
8
DIM
10
549.4320
20
237.0000
30
0.0
11
550.9820
21
232.0000
31
0.0
0
LINE
8
DIM
10
548.5640
20
234.0000
30
0.0
11
550.3000
21
234.0000
31
0.0
0
LINE
8
DIM
10
551.6640
20
237.0000
30
0.0
11
553.2140
21
234.5000
31
0.0
0
LINE
8
DIM
10
553.2140
20
234.5000
30
0.0
11
554.7640
21
237.0000
31
0.0
0
LINE
8
DIM
10
553.2140
20
234.5000
30
0.0
11
553.2140
21
232.0000
31
0.0
0
LINE
8
DIM
10
558.5460
20
237.0000
30
0.0
11
555.4460
21
237.0000
31
0.0
0
LINE
8
DIM
10
555.4460
20
237.0000
30
0.0
11
555.4460
21
232.0000
31
0.0
0
LINE
8
DIM
10
555.4460
20
232.0000
30
0.0
11
558.5460
21
232.0000
31
0.0
0
LINE
8
DIM
10
555.4460
20
234.5000
30
0.0
11
557.7710
21
234.5000
31
0.0
0
LINE
8
DIM
10
559.2280
20
232.0000
30
0.0
11
559.2280
21
237.0000
31
0.0
0
LINE
8
DIM
10
559.2280
20
237.0000
30
0.0
11
561.3980
21
237.0000
31
0.0
0
LINE
8
DIM
10
561.3980
20
237.0000
30
0.0
11
562.3280
21
236.0000
31
0.0
0
LINE
8
DIM
10
562.3280
20
236.0000
30
0.0
11
562.3280
21
235.0000
31
0.0
0
LINE
8
DIM
10
562.3280
20
235.0000
30
0.0
11
561.3980
21
234.2500
31
0.0
0
LINE
8
DIM
10
561.3980
20
234.2500
30
0.0
11
559.2280
21
234.2500
31
0.0
0
LINE
8
DIM
10
560.7780
20
234.2500
30
0.0
11
562.3280
21
232.0000
31
0.0
0
LINE
8
DIM
10
569.8920
20
237.0000
30
0.0
11
566.7920
21
237.0000
31
0.0
0
LINE
8
DIM
10
566.7920
20
237.0000
30
0.0
11
566.7920
21
232.0000
31
0.0
0
LINE
8
DIM
10
566.7920
20
232.0000
30
0.0
11
569.8920
21
232.0000
31
0.0
0
LINE
8
DIM
10
566.7920
20
234.5000
30
0.0
11
569.1170
21
234.5000
31
0.0
0
LINE
8
DIM
10
570.5740
20
232.0000
30
0.0
11
570.5740
21
237.0000
31
0.0
0
LINE
8
DIM
10
570.5740
20
237.0000
30
0.0
11
573.6740
21
232.0000
31
0.0
0
LINE
8
DIM
10
573.6740
20
232.0000
30
0.0
11
573.6740
21
237.0000
31
0.0
0
LINE
8
DIM
10
577.4560
20
236.2500
30
0.0
11
575.9060
21
237.0000
31
0.0
0
LINE
8
DIM
10
575.9060
20
237.0000
30
0.0
11
574.3560
21
235.7500
31
0.0
0
LINE
8
DIM
10
574.3560
20
235.7500
30
0.0
11
574.3560
21
233.2500
31
0.0
0
LINE
8
DIM
10
574.3560
20
233.2500
30
0.0
11
575.9060
21
232.0000
31
0.0
0
LINE
8
DIM
10
575.9060
20
232.0000
30
0.0
11
577.4560
21
233.0000
31
0.0
0
LINE
8
DIM
10
577.4560
20
233.0000
30
0.0
11
577.4560
21
234.2500
31
0.0
0
LINE
8
DIM
10
577.4560
20
234.2500
30
0.0
11
576.0610
21
234.2500
31
0.0
0
LINE
8
DIM
10
578.1380
20
232.0000
30
0.0
11
578.1380
21
237.0000
31
0.0
0
LINE
8
DIM
10
578.1380
20
237.0000
30
0.0
11
580.3080
21
237.0000
31
0.0
0
LINE
8
DIM
10
580.3080
20
237.0000
30
0.0
11
581.2380
21
236.0000
31
0.0
0
LINE
8
DIM
10
581.2380
20
236.0000
30
0.0
11
581.2380
21
235.0000
31
0.0
0
LINE
8
DIM
10
581.2380
20
235.0000
30
0.0
11
580.3080
21
234.2500
31
0.0
0
LINE
8
DIM
10
580.3080
20
234.2500
30
0.0
11
578.1380
21
234.2500
31
0.0
0
LINE
8
DIM
10
579.6880
20
234.2500
30
0.0
11
581.2380
21
232.0000
31
0.0
0
LINE
8
DIM
10
581.9200
20
232.0000
30
0.0
11
583.4700
21
237.0000
31
0.0
0
LINE
8
DIM
10
583.4700
20
237.0000
30
0.0
11
585.0200
21
232.0000
31
0.0
0
LINE
8
DIM
10
582.6020
20
234.0000
30
0.0
11
584.3380
21
234.0000
31
0.0
0
LINE
8
DIM
10
585.7020
20
237.0000
30
0.0
11
587.2520
21
232.0000
31
0.0
0
LINE
8
DIM
10
587.2520
20
232.0000
30
0.0
11
588.8020
21
237.0000
31
0.0
0
LINE
8
DIM
10
592.5840
20
237.0000
30
0.0
11
589.4840
21
237.0000
31
0.0
0
LINE
8
DIM
10
589.4840
20
237.0000
30
0.0
11
589.4840
21
232.0000
31
0.0
0
LINE
8
DIM
10
589.4840
20
232.0000
30
0.0
11
592.5840
21
232.0000
31
0.0
0
LINE
8
DIM
10
589.4840
20
234.5000
30
0.0
11
591.8090
21
234.5000
31
0.0
0
ENDSEC
0
EOF
