0
SECTION
2
HEADER
9
$INSUNITS
70
4
9
$MEASUREMENT
70
1
0
ENDSEC
0
SECTION
2
ENTITIES
0
LINE
8
SHEET
10
0.1000
20
0.0000
30
0.0
11
519.9000
21
0.0000
31
0.0
0
LINE
8
SHEET
10
0.1000
20
380.0000
30
0.0
11
519.9000
21
380.0000
31
0.0
0
LINE
8
SHEET
10
0.0000
20
0.1000
30
0.0
11
0.0000
21
379.9000
31
0.0
0
LINE
8
SHEET
10
520.0000
20
0.1000
30
0.0
11
520.0000
21
379.9000
31
0.0
0
ARC
8
SHEET
10
519.9000
20
379.9000
30
0.0
40
0.1000
50
0.0000
51
90.0000
0
ARC
8
SHEET
10
0.1000
20
379.9000
30
0.0
40
0.1000
50
90.0000
51
180.0000
0
ARC
8
SHEET
10
0.1000
20
0.1000
30
0.0
40
0.1000
50
180.0000
51
270.0000
0
ARC
8
SHEET
10
519.9000
20
0.1000
30
0.0
40
0.1000
50
270.0000
51
360.0000
0
LINE
8
CUT
10
11.0000
20
5.0000
30
0.0
11
249.0000
21
5.0000
31
0.0
0
LINE
8
CUT
10
11.0000
20
185.0000
30
0.0
11
249.0000
21
185.0000
31
0.0
0
LINE
8
CUT
10
5.0000
20
11.0000
30
0.0
11
5.0000
21
179.0000
31
0.0
0
LINE
8
CUT
10
255.0000
20
11.0000
30
0.0
11
255.0000
21
179.0000
31
0.0
0
ARC
8
CUT
10
249.0000
20
179.0000
30
0.0
40
6.0000
50
0.0000
51
90.0000
0
ARC
8
CUT
10
11.0000
20
179.0000
30
0.0
40
6.0000
50
90.0000
51
180.0000
0
ARC
8
CUT
10
11.0000
20
11.0000
30
0.0
40
6.0000
50
180.0000
51
270.0000
0
ARC
8
CUT
10
249.0000
20
11.0000
30
0.0
40
6.0000
50
270.0000
51
360.0000
0
CIRCLE
8
CUT
10
13.0000
20
13.0000
30
0.0
40
1.7000
0
CIRCLE
8
CUT
10
13.0000
20
177.0000
30
0.0
40
1.7000
0
CIRCLE
8
CUT
10
247.0000
20
13.0000
30
0.0
40
1.7000
0
CIRCLE
8
CUT
10
247.0000
20
177.0000
30
0.0
40
1.7000
0
CIRCLE
8
CUT
10
26.8760
20
166.3740
30
0.0
40
1.7000
0
CIRCLE
8
CUT
10
124.9200
20
166.3740
30
0.0
40
1.7000
0
CIRCLE
8
CUT
10
233.1240
20
166.3740
30
0.0
40
1.7000
0
CIRCLE
8
CUT
10
228.5070
20
149.4000
30
0.0
40
1.7000
0
CIRCLE
8
CUT
10
228.5070
20
91.4000
30
0.0
40
1.7000
0
CIRCLE
8
CUT
10
232.1080
20
71.8860
30
0.0
40
1.7000
0
CIRCLE
8
CUT
10
156.6700
20
71.6320
30
0.0
40
1.7000
0
CIRCLE
8
CUT
10
26.8760
20
44.9620
30
0.0
40
1.7000
0
LINE
8
CUT
10
11.0000
20
195.0000
30
0.0
11
249.0000
21
195.0000
31
0.0
0
LINE
8
CUT
10
11.0000
20
375.0000
30
0.0
11
249.0000
21
375.0000
31
0.0
0
LINE
8
CUT
10
5.0000
20
201.0000
30
0.0
11
5.0000
21
369.0000
31
0.0
0
LINE
8
CUT
10
255.0000
20
201.0000
30
0.0
11
255.0000
21
369.0000
31
0.0
0
ARC
8
CUT
10
249.0000
20
369.0000
30
0.0
40
6.0000
50
0.0000
51
90.0000
0
ARC
8
CUT
10
11.0000
20
369.0000
30
0.0
40
6.0000
50
90.0000
51
180.0000
0
ARC
8
CUT
10
11.0000
20
201.0000
30
0.0
40
6.0000
50
180.0000
51
270.0000
0
ARC
8
CUT
10
249.0000
20
201.0000
30
0.0
40
6.0000
50
270.0000
51
360.0000
0
CIRCLE
8
CUT
10
13.0000
20
203.0000
30
0.0
40
1.7000
0
CIRCLE
8
CUT
10
13.0000
20
367.0000
30
0.0
40
1.7000
0
CIRCLE
8
CUT
10
247.0000
20
203.0000
30
0.0
40
1.7000
0
CIRCLE
8
CUT
10
247.0000
20
367.0000
30
0.0
40
1.7000
0
CIRCLE
8
CUT
10
190.6300
20
288.7600
30
0.0
40
18.0000
0
CIRCLE
8
CUT
10
174.6300
20
272.7600
30
0.0
40
1.7000
0
CIRCLE
8
CUT
10
174.6300
20
304.7600
30
0.0
40
1.7000
0
CIRCLE
8
CUT
10
206.6300
20
272.7600
30
0.0
40
1.7000
0
CIRCLE
8
CUT
10
206.6300
20
304.7600
30
0.0
40
1.7000
0
CIRCLE
8
CUT
10
38.0000
20
269.0000
30
0.0
40
1.7000
0
CIRCLE
8
CUT
10
116.0000
20
269.0000
30
0.0
40
1.7000
0
CIRCLE
8
CUT
10
123.9900
20
324.0000
30
0.0
40
1.7000
0
CIRCLE
8
CUT
10
43.0000
20
347.0000
30
0.0
40
1.7000
0
CIRCLE
8
CUT
10
214.7655
20
360.9660
30
0.0
40
1.4500
0
CIRCLE
8
CUT
10
156.7655
20
360.9660
30
0.0
40
1.4500
0
CIRCLE
8
CUT
10
215.1155
20
319.3660
30
0.0
40
1.4500
0
CIRCLE
8
CUT
10
154.8655
20
319.3960
30
0.0
40
1.4500
0
CIRCLE
8
CUT
10
28.2925
20
214.4750
30
0.0
40
1.4500
0
CIRCLE
8
CUT
10
91.5425
20
214.4750
30
0.0
40
1.4500
0
CIRCLE
8
CUT
10
28.2925
20
241.5000
30
0.0
40
1.4500
0
CIRCLE
8
CUT
10
91.5425
20
241.5000
30
0.0
40
1.4500
0
CIRCLE
8
CUT
10
169.2925
20
212.0595
30
0.0
40
1.4500
0
CIRCLE
8
CUT
10
232.5425
20
212.0595
30
0.0
40
1.4500
0
CIRCLE
8
CUT
10
169.2925
20
238.0595
30
0.0
40
1.4500
0
CIRCLE
8
CUT
10
232.5425
20
238.0595
30
0.0
40
1.4500
0
LINE
8
CUT
10
271.0000
20
5.0000
30
0.0
11
509.0000
21
5.0000
31
0.0
0
LINE
8
CUT
10
271.0000
20
185.0000
30
0.0
11
509.0000
21
185.0000
31
0.0
0
LINE
8
CUT
10
265.0000
20
11.0000
30
0.0
11
265.0000
21
179.0000
31
0.0
0
LINE
8
CUT
10
515.0000
20
11.0000
30
0.0
11
515.0000
21
179.0000
31
0.0
0
ARC
8
CUT
10
509.0000
20
179.0000
30
0.0
40
6.0000
50
0.0000
51
90.0000
0
ARC
8
CUT
10
271.0000
20
179.0000
30
0.0
40
6.0000
50
90.0000
51
180.0000
0
ARC
8
CUT
10
271.0000
20
11.0000
30
0.0
40
6.0000
50
180.0000
51
270.0000
0
ARC
8
CUT
10
509.0000
20
11.0000
30
0.0
40
6.0000
50
270.0000
51
360.0000
0
CIRCLE
8
CUT
10
273.0000
20
13.0000
30
0.0
40
1.7000
0
CIRCLE
8
CUT
10
273.0000
20
177.0000
30
0.0
40
1.7000
0
CIRCLE
8
CUT
10
507.0000
20
13.0000
30
0.0
40
1.7000
0
CIRCLE
8
CUT
10
507.0000
20
177.0000
30
0.0
40
1.7000
0
CIRCLE
8
CUT
10
291.0000
20
35.5000
30
0.0
40
1.4500
0
CIRCLE
8
CUT
10
349.0000
20
35.5000
30
0.0
40
1.4500
0
CIRCLE
8
CUT
10
291.0000
20
84.5000
30
0.0
40
1.4500
0
CIRCLE
8
CUT
10
349.0000
20
84.5000
30
0.0
40
1.4500
0
CIRCLE
8
CUT
10
413.5000
20
58.5000
30
0.0
40
1.7000
0
CIRCLE
8
CUT
10
476.5000
20
58.5000
30
0.0
40
1.7000
0
CIRCLE
8
CUT
10
413.5000
20
141.5000
30
0.0
40
1.7000
0
CIRCLE
8
CUT
10
476.5000
20
141.5000
30
0.0
40
1.7000
0
LINE
8
CUT
10
271.0000
20
195.0000
30
0.0
11
509.0000
21
195.0000
31
0.0
0
LINE
8
CUT
10
271.0000
20
375.0000
30
0.0
11
509.0000
21
375.0000
31
0.0
0
LINE
8
CUT
10
265.0000
20
201.0000
30
0.0
11
265.0000
21
369.0000
31
0.0
0
LINE
8
CUT
10
515.0000
20
201.0000
30
0.0
11
515.0000
21
369.0000
31
0.0
0
ARC
8
CUT
10
509.0000
20
369.0000
30
0.0
40
6.0000
50
0.0000
51
90.0000
0
ARC
8
CUT
10
271.0000
20
369.0000
30
0.0
40
6.0000
50
90.0000
51
180.0000
0
ARC
8
CUT
10
271.0000
20
201.0000
30
0.0
40
6.0000
50
180.0000
51
270.0000
0
ARC
8
CUT
10
509.0000
20
201.0000
30
0.0
40
6.0000
50
270.0000
51
360.0000
0
CIRCLE
8
CUT
10
273.0000
20
203.0000
30
0.0
40
1.7000
0
CIRCLE
8
CUT
10
273.0000
20
367.0000
30
0.0
40
1.7000
0
CIRCLE
8
CUT
10
507.0000
20
203.0000
30
0.0
40
1.7000
0
CIRCLE
8
CUT
10
507.0000
20
367.0000
30
0.0
40
1.7000
0
ENDSEC
0
EOF
