0
SECTION
2
HEADER
9
$INSUNITS
70
4
9
$MEASUREMENT
70
1
0
ENDSEC
0
SECTION
2
ENTITIES
0
LINE
8
SHEET
10
0.1000
20
0.0000
30
0.0
11
259.9000
21
0.0000
31
0.0
0
LINE
8
SHEET
10
0.1000
20
190.0000
30
0.0
11
259.9000
21
190.0000
31
0.0
0
LINE
8
SHEET
10
0.0000
20
0.1000
30
0.0
11
0.0000
21
189.9000
31
0.0
0
LINE
8
SHEET
10
260.0000
20
0.1000
30
0.0
11
260.0000
21
189.9000
31
0.0
0
ARC
8
SHEET
10
259.9000
20
189.9000
30
0.0
40
0.1000
50
0.0000
51
90.0000
0
ARC
8
SHEET
10
0.1000
20
189.9000
30
0.0
40
0.1000
50
90.0000
51
180.0000
0
ARC
8
SHEET
10
0.1000
20
0.1000
30
0.0
40
0.1000
50
180.0000
51
270.0000
0
ARC
8
SHEET
10
259.9000
20
0.1000
30
0.0
40
0.1000
50
270.0000
51
360.0000
0
LINE
8
CUT
10
11.0000
20
5.0000
30
0.0
11
249.0000
21
5.0000
31
0.0
0
LINE
8
CUT
10
11.0000
20
185.0000
30
0.0
11
249.0000
21
185.0000
31
0.0
0
LINE
8
CUT
10
5.0000
20
11.0000
30
0.0
11
5.0000
21
179.0000
31
0.0
0
LINE
8
CUT
10
255.0000
20
11.0000
30
0.0
11
255.0000
21
179.0000
31
0.0
0
ARC
8
CUT
10
249.0000
20
179.0000
30
0.0
40
6.0000
50
0.0000
51
90.0000
0
ARC
8
CUT
10
11.0000
20
179.0000
30
0.0
40
6.0000
50
90.0000
51
180.0000
0
ARC
8
CUT
10
11.0000
20
11.0000
30
0.0
40
6.0000
50
180.0000
51
270.0000
0
ARC
8
CUT
10
249.0000
20
11.0000
30
0.0
40
6.0000
50
270.0000
51
360.0000
0
CIRCLE
8
CUT
10
13.0000
20
45.0000
30
0.0
40
1.7000
0
CIRCLE
8
CUT
10
13.0000
20
145.0000
30
0.0
40
1.7000
0
CIRCLE
8
CUT
10
247.0000
20
45.0000
30
0.0
40
1.7000
0
CIRCLE
8
CUT
10
247.0000
20
145.0000
30
0.0
40
1.7000
0
LINE
8
CUT
10
166.6300
20
72.7600
30
0.0
11
166.6300
21
124.7600
31
0.0
0
LINE
8
CUT
10
158.6300
20
72.7600
30
0.0
11
158.6300
21
124.7600
31
0.0
0
ARC
8
CUT
10
162.6300
20
124.7600
30
0.0
40
4.0000
50
0.0000
51
180.0000
0
ARC
8
CUT
10
162.6300
20
72.7600
30
0.0
40
4.0000
50
180.0000
51
360.0000
0
LINE
8
CUT
10
180.6300
20
72.7600
30
0.0
11
180.6300
21
124.7600
31
0.0
0
LINE
8
CUT
10
172.6300
20
72.7600
30
0.0
11
172.6300
21
124.7600
31
0.0
0
ARC
8
CUT
10
176.6300
20
124.7600
30
0.0
40
4.0000
50
0.0000
51
180.0000
0
ARC
8
CUT
10
176.6300
20
72.7600
30
0.0
40
4.0000
50
180.0000
51
360.0000
0
LINE
8
CUT
10
194.6300
20
72.7600
30
0.0
11
194.6300
21
124.7600
31
0.0
0
LINE
8
CUT
10
186.6300
20
72.7600
30
0.0
11
186.6300
21
124.7600
31
0.0
0
ARC
8
CUT
10
190.6300
20
124.7600
30
0.0
40
4.0000
50
0.0000
51
180.0000
0
ARC
8
CUT
10
190.6300
20
72.7600
30
0.0
40
4.0000
50
180.0000
51
360.0000
0
LINE
8
CUT
10
208.6300
20
72.7600
30
0.0
11
208.6300
21
124.7600
31
0.0
0
LINE
8
CUT
10
200.6300
20
72.7600
30
0.0
11
200.6300
21
124.7600
31
0.0
0
ARC
8
CUT
10
204.6300
20
124.7600
30
0.0
40
4.0000
50
0.0000
51
180.0000
0
ARC
8
CUT
10
204.6300
20
72.7600
30
0.0
40
4.0000
50
180.0000
51
360.0000
0
LINE
8
CUT
10
222.6300
20
72.7600
30
0.0
11
222.6300
21
124.7600
31
0.0
0
LINE
8
CUT
10
214.6300
20
72.7600
30
0.0
11
214.6300
21
124.7600
31
0.0
0
ARC
8
CUT
10
218.6300
20
124.7600
30
0.0
40
4.0000
50
0.0000
51
180.0000
0
ARC
8
CUT
10
218.6300
20
72.7600
30
0.0
40
4.0000
50
180.0000
51
360.0000
0
LINE
8
ENGRAVE
10
25.0000
20
155.0000
30
0.0
11
25.0000
21
169.0000
31
0.0
0
LINE
8
ENGRAVE
10
32.8120
20
169.0000
30
0.0
11
25.0000
21
161.3000
31
0.0
0
LINE
8
ENGRAVE
10
26.3020
20
162.7000
30
0.0
11
33.2460
21
155.0000
31
0.0
0
LINE
8
ENGRAVE
10
44.2696
20
169.0000
30
0.0
11
35.5896
21
169.0000
31
0.0
0
LINE
8
ENGRAVE
10
35.5896
20
169.0000
30
0.0
11
35.5896
21
155.0000
31
0.0
0
LINE
8
ENGRAVE
10
35.5896
20
155.0000
30
0.0
11
44.2696
21
155.0000
31
0.0
0
LINE
8
ENGRAVE
10
35.5896
20
162.0000
30
0.0
11
42.0996
21
162.0000
31
0.0
0
LINE
8
ENGRAVE
10
46.1792
20
169.0000
30
0.0
11
54.8592
21
169.0000
31
0.0
0
LINE
8
ENGRAVE
10
50.5192
20
169.0000
30
0.0
11
50.5192
21
155.0000
31
0.0
0
LINE
8
ENGRAVE
10
61.1088
20
155.0000
30
0.0
11
61.1088
21
169.0000
31
0.0
0
LINE
8
ENGRAVE
10
58.0708
20
169.0000
30
0.0
11
64.1468
21
169.0000
31
0.0
0
LINE
8
ENGRAVE
10
58.0708
20
155.0000
30
0.0
11
64.1468
21
155.0000
31
0.0
0
LINE
8
ENGRAVE
10
25.0000
20
144.0000
30
0.0
11
25.0000
21
137.0000
31
0.0
0
LINE
8
ENGRAVE
10
25.0000
20
137.0000
30
0.0
11
28.9060
21
137.0000
31
0.0
0
LINE
8
ENGRAVE
10
30.2948
20
137.0000
30
0.0
11
32.4648
21
144.0000
31
0.0
0
LINE
8
ENGRAVE
10
32.4648
20
144.0000
30
0.0
11
34.6348
21
137.0000
31
0.0
0
LINE
8
ENGRAVE
10
31.2496
20
139.8000
30
0.0
11
33.6800
21
139.8000
31
0.0
0
LINE
8
ENGRAVE
10
35.5896
20
137.0000
30
0.0
11
35.5896
21
144.0000
31
0.0
0
LINE
8
ENGRAVE
10
35.5896
20
144.0000
30
0.0
11
39.9296
21
137.0000
31
0.0
0
LINE
8
ENGRAVE
10
39.9296
20
137.0000
30
0.0
11
39.9296
21
144.0000
31
0.0
0
LINE
8
ENGRAVE
10
40.8844
20
137.7000
30
0.0
11
43.0544
21
137.0000
31
0.0
0
LINE
8
ENGRAVE
10
43.0544
20
137.0000
30
0.0
11
45.2244
21
138.7500
31
0.0
0
LINE
8
ENGRAVE
10
45.2244
20
138.7500
30
0.0
11
45.2244
21
142.9500
31
0.0
0
LINE
8
ENGRAVE
10
45.2244
20
142.9500
30
0.0
11
43.0544
21
144.0000
31
0.0
0
LINE
8
ENGRAVE
10
43.0544
20
144.0000
30
0.0
11
40.8844
21
142.9500
31
0.0
0
LINE
8
ENGRAVE
10
40.8844
20
142.9500
30
0.0
11
40.8844
21
141.5500
31
0.0
0
LINE
8
ENGRAVE
10
40.8844
20
141.5500
30
0.0
11
43.0544
21
140.5000
31
0.0
0
LINE
8
ENGRAVE
10
43.0544
20
140.5000
30
0.0
11
45.2244
21
141.5500
31
0.0
0
LINE
8
ENGRAVE
10
50.5192
20
143.3000
30
0.0
11
48.3492
21
144.0000
31
0.0
0
LINE
8
ENGRAVE
10
48.3492
20
144.0000
30
0.0
11
46.1792
21
142.2500
31
0.0
0
LINE
8
ENGRAVE
10
46.1792
20
142.2500
30
0.0
11
46.1792
21
138.0500
31
0.0
0
LINE
8
ENGRAVE
10
46.1792
20
138.0500
30
0.0
11
48.3492
21
137.0000
31
0.0
0
LINE
8
ENGRAVE
10
48.3492
20
137.0000
30
0.0
11
50.5192
21
138.0500
31
0.0
0
LINE
8
ENGRAVE
10
50.5192
20
138.0500
30
0.0
11
50.5192
21
139.4500
31
0.0
0
LINE
8
ENGRAVE
10
50.5192
20
139.4500
30
0.0
11
48.3492
21
140.5000
31
0.0
0
LINE
8
ENGRAVE
10
48.3492
20
140.5000
30
0.0
11
46.1792
21
139.4500
31
0.0
0
LINE
8
ENGRAVE
10
51.4740
20
137.7000
30
0.0
11
53.6440
21
137.0000
31
0.0
0
LINE
8
ENGRAVE
10
53.6440
20
137.0000
30
0.0
11
55.8140
21
138.7500
31
0.0
0
LINE
8
ENGRAVE
10
55.8140
20
138.7500
30
0.0
11
55.8140
21
142.9500
31
0.0
0
LINE
8
ENGRAVE
10
55.8140
20
142.9500
30
0.0
11
53.6440
21
144.0000
31
0.0
0
LINE
8
ENGRAVE
10
53.6440
20
144.0000
30
0.0
11
51.4740
21
142.9500
31
0.0
0
LINE
8
ENGRAVE
10
51.4740
20
142.9500
30
0.0
11
51.4740
21
141.5500
31
0.0
0
LINE
8
ENGRAVE
10
51.4740
20
141.5500
30
0.0
11
53.6440
21
140.5000
31
0.0
0
LINE
8
ENGRAVE
10
53.6440
20
140.5000
30
0.0
11
55.8140
21
141.5500
31
0.0
0
LINE
8
ENGRAVE
10
56.7688
20
142.9500
30
0.0
11
58.9388
21
144.0000
31
0.0
0
LINE
8
ENGRAVE
10
58.9388
20
144.0000
30
0.0
11
61.1088
21
142.9500
31
0.0
0
LINE
8
ENGRAVE
10
61.1088
20
142.9500
30
0.0
11
61.1088
21
141.2000
31
0.0
0
LINE
8
ENGRAVE
10
61.1088
20
141.2000
30
0.0
11
56.7688
21
137.0000
31
0.0
0
LINE
8
ENGRAVE
10
56.7688
20
137.0000
30
0.0
11
61.1088
21
137.0000
31
0.0
0
LINE
8
ENGRAVE
10
67.3584
20
144.0000
30
0.0
11
71.6984
21
144.0000
31
0.0
0
LINE
8
ENGRAVE
10
69.5284
20
144.0000
30
0.0
11
69.5284
21
137.0000
31
0.0
0
LINE
8
ENGRAVE
10
76.9932
20
142.9500
30
0.0
11
74.8232
21
144.0000
31
0.0
0
LINE
8
ENGRAVE
10
74.8232
20
144.0000
30
0.0
11
72.6532
21
142.9500
31
0.0
0
LINE
8
ENGRAVE
10
72.6532
20
142.9500
30
0.0
11
72.6532
21
141.2000
31
0.0
0
LINE
8
ENGRAVE
10
72.6532
20
141.2000
30
0.0
11
76.9932
21
139.8000
31
0.0
0
LINE
8
ENGRAVE
10
76.9932
20
139.8000
30
0.0
11
76.9932
21
138.0500
31
0.0
0
LINE
8
ENGRAVE
10
76.9932
20
138.0500
30
0.0
11
74.8232
21
137.0000
31
0.0
0
LINE
8
ENGRAVE
10
74.8232
20
137.0000
30
0.0
11
72.6532
21
138.0500
31
0.0
0
LINE
8
ENGRAVE
10
77.9480
20
137.0000
30
0.0
11
77.9480
21
144.0000
31
0.0
0
LINE
8
ENGRAVE
10
77.9480
20
144.0000
30
0.0
11
82.2880
21
137.0000
31
0.0
0
LINE
8
ENGRAVE
10
82.2880
20
137.0000
30
0.0
11
82.2880
21
144.0000
31
0.0
0
LINE
8
ENGRAVE
10
88.5376
20
137.0000
30
0.0
11
88.5376
21
144.0000
31
0.0
0
LINE
8
ENGRAVE
10
88.5376
20
144.0000
30
0.0
11
91.5756
21
144.0000
31
0.0
0
LINE
8
ENGRAVE
10
91.5756
20
144.0000
30
0.0
11
92.8776
21
142.9500
31
0.0
0
LINE
8
ENGRAVE
10
92.8776
20
142.9500
30
0.0
11
92.8776
21
141.5500
31
0.0
0
LINE
8
ENGRAVE
10
92.8776
20
141.5500
30
0.0
11
91.5756
21
140.5000
31
0.0
0
LINE
8
ENGRAVE
10
91.5756
20
140.5000
30
0.0
11
88.5376
21
140.5000
31
0.0
0
LINE
8
ENGRAVE
10
91.5756
20
140.5000
30
0.0
11
92.8776
21
139.4500
31
0.0
0
LINE
8
ENGRAVE
10
92.8776
20
139.4500
30
0.0
11
92.8776
21
138.0500
31
0.0
0
LINE
8
ENGRAVE
10
92.8776
20
138.0500
30
0.0
11
91.5756
21
137.0000
31
0.0
0
LINE
8
ENGRAVE
10
91.5756
20
137.0000
30
0.0
11
88.5376
21
137.0000
31
0.0
0
LINE
8
ENGRAVE
10
98.1724
20
144.0000
30
0.0
11
93.8324
21
144.0000
31
0.0
0
LINE
8
ENGRAVE
10
93.8324
20
144.0000
30
0.0
11
93.8324
21
137.0000
31
0.0
0
LINE
8
ENGRAVE
10
93.8324
20
137.0000
30
0.0
11
98.1724
21
137.0000
31
0.0
0
LINE
8
ENGRAVE
10
93.8324
20
140.5000
30
0.0
11
97.0874
21
140.5000
31
0.0
0
LINE
8
ENGRAVE
10
99.1272
20
137.0000
30
0.0
11
99.1272
21
144.0000
31
0.0
0
LINE
8
ENGRAVE
10
99.1272
20
144.0000
30
0.0
11
103.4672
21
137.0000
31
0.0
0
LINE
8
ENGRAVE
10
103.4672
20
137.0000
30
0.0
11
103.4672
21
144.0000
31
0.0
0
LINE
8
ENGRAVE
10
108.7620
20
142.9500
30
0.0
11
106.5920
21
144.0000
31
0.0
0
LINE
8
ENGRAVE
10
106.5920
20
144.0000
30
0.0
11
104.4220
21
142.2500
31
0.0
0
LINE
8
ENGRAVE
10
104.4220
20
142.2500
30
0.0
11
104.4220
21
138.7500
31
0.0
0
LINE
8
ENGRAVE
10
104.4220
20
138.7500
30
0.0
11
106.5920
21
137.0000
31
0.0
0
LINE
8
ENGRAVE
10
106.5920
20
137.0000
30
0.0
11
108.7620
21
138.0500
31
0.0
0
LINE
8
ENGRAVE
10
109.7168
20
137.0000
30
0.0
11
109.7168
21
144.0000
31
0.0
0
LINE
8
ENGRAVE
10
114.0568
20
137.0000
30
0.0
11
114.0568
21
144.0000
31
0.0
0
LINE
8
ENGRAVE
10
109.7168
20
140.5000
30
0.0
11
114.0568
21
140.5000
31
0.0
0
ENDSEC
0
EOF
