0
SECTION
2
HEADER
9
$INSUNITS
70
4
9
$MEASUREMENT
70
1
0
ENDSEC
0
SECTION
2
ENTITIES
0
LINE
8
SHEET
10
0.1000
20
0.0000
30
0.0
11
259.9000
21
0.0000
31
0.0
0
LINE
8
SHEET
10
0.1000
20
190.0000
30
0.0
11
259.9000
21
190.0000
31
0.0
0
LINE
8
SHEET
10
0.0000
20
0.1000
30
0.0
11
0.0000
21
189.9000
31
0.0
0
LINE
8
SHEET
10
260.0000
20
0.1000
30
0.0
11
260.0000
21
189.9000
31
0.0
0
ARC
8
SHEET
10
259.9000
20
189.9000
30
0.0
40
0.1000
50
0.0000
51
90.0000
0
ARC
8
SHEET
10
0.1000
20
189.9000
30
0.0
40
0.1000
50
90.0000
51
180.0000
0
ARC
8
SHEET
10
0.1000
20
0.1000
30
0.0
40
0.1000
50
180.0000
51
270.0000
0
ARC
8
SHEET
10
259.9000
20
0.1000
30
0.0
40
0.1000
50
270.0000
51
360.0000
0
LINE
8
CUT
10
11.0000
20
5.0000
30
0.0
11
249.0000
21
5.0000
31
0.0
0
LINE
8
CUT
10
11.0000
20
185.0000
30
0.0
11
249.0000
21
185.0000
31
0.0
0
LINE
8
CUT
10
5.0000
20
11.0000
30
0.0
11
5.0000
21
179.0000
31
0.0
0
LINE
8
CUT
10
255.0000
20
11.0000
30
0.0
11
255.0000
21
179.0000
31
0.0
0
ARC
8
CUT
10
249.0000
20
179.0000
30
0.0
40
6.0000
50
0.0000
51
90.0000
0
ARC
8
CUT
10
11.0000
20
179.0000
30
0.0
40
6.0000
50
90.0000
51
180.0000
0
ARC
8
CUT
10
11.0000
20
11.0000
30
0.0
40
6.0000
50
180.0000
51
270.0000
0
ARC
8
CUT
10
249.0000
20
11.0000
30
0.0
40
6.0000
50
270.0000
51
360.0000
0
CIRCLE
8
CUT
10
13.0000
20
45.0000
30
0.0
40
1.7000
0
CIRCLE
8
CUT
10
13.0000
20
145.0000
30
0.0
40
1.7000
0
CIRCLE
8
CUT
10
247.0000
20
45.0000
30
0.0
40
1.7000
0
CIRCLE
8
CUT
10
247.0000
20
145.0000
30
0.0
40
1.7000
0
LINE
8
CUT
10
166.6300
20
72.7600
30
0.0
11
166.6300
21
124.7600
31
0.0
0
LINE
8
CUT
10
158.6300
20
72.7600
30
0.0
11
158.6300
21
124.7600
31
0.0
0
ARC
8
CUT
10
162.6300
20
124.7600
30
0.0
40
4.0000
50
0.0000
51
180.0000
0
ARC
8
CUT
10
162.6300
20
72.7600
30
0.0
40
4.0000
50
180.0000
51
360.0000
0
LINE
8
CUT
10
180.6300
20
72.7600
30
0.0
11
180.6300
21
124.7600
31
0.0
0
LINE
8
CUT
10
172.6300
20
72.7600
30
0.0
11
172.6300
21
124.7600
31
0.0
0
ARC
8
CUT
10
176.6300
20
124.7600
30
0.0
40
4.0000
50
0.0000
51
180.0000
0
ARC
8
CUT
10
176.6300
20
72.7600
30
0.0
40
4.0000
50
180.0000
51
360.0000
0
LINE
8
CUT
10
194.6300
20
72.7600
30
0.0
11
194.6300
21
124.7600
31
0.0
0
LINE
8
CUT
10
186.6300
20
72.7600
30
0.0
11
186.6300
21
124.7600
31
0.0
0
ARC
8
CUT
10
190.6300
20
124.7600
30
0.0
40
4.0000
50
0.0000
51
180.0000
0
ARC
8
CUT
10
190.6300
20
72.7600
30
0.0
40
4.0000
50
180.0000
51
360.0000
0
LINE
8
CUT
10
208.6300
20
72.7600
30
0.0
11
208.6300
21
124.7600
31
0.0
0
LINE
8
CUT
10
200.6300
20
72.7600
30
0.0
11
200.6300
21
124.7600
31
0.0
0
ARC
8
CUT
10
204.6300
20
124.7600
30
0.0
40
4.0000
50
0.0000
51
180.0000
0
ARC
8
CUT
10
204.6300
20
72.7600
30
0.0
40
4.0000
50
180.0000
51
360.0000
0
LINE
8
CUT
10
222.6300
20
72.7600
30
0.0
11
222.6300
21
124.7600
31
0.0
0
LINE
8
CUT
10
214.6300
20
72.7600
30
0.0
11
214.6300
21
124.7600
31
0.0
0
ARC
8
CUT
10
218.6300
20
124.7600
30
0.0
40
4.0000
50
0.0000
51
180.0000
0
ARC
8
CUT
10
218.6300
20
72.7600
30
0.0
40
4.0000
50
180.0000
51
360.0000
0
LINE
8
ENGRAVE
10
43.0000
20
79.0000
30
0.0
11
43.0000
21
111.0000
31
0.0
0
LINE
8
ENGRAVE
10
60.8560
20
111.0000
30
0.0
11
43.0000
21
93.4000
31
0.0
0
LINE
8
ENGRAVE
10
45.9760
20
96.6000
30
0.0
11
61.8480
21
79.0000
31
0.0
0
LINE
8
ENGRAVE
10
87.0448
20
111.0000
30
0.0
11
67.2048
21
111.0000
31
0.0
0
LINE
8
ENGRAVE
10
67.2048
20
111.0000
30
0.0
11
67.2048
21
79.0000
31
0.0
0
LINE
8
ENGRAVE
10
67.2048
20
79.0000
30
0.0
11
87.0448
21
79.0000
31
0.0
0
LINE
8
ENGRAVE
10
67.2048
20
95.0000
30
0.0
11
82.0848
21
95.0000
31
0.0
0
LINE
8
ENGRAVE
10
91.4096
20
111.0000
30
0.0
11
111.2496
21
111.0000
31
0.0
0
LINE
8
ENGRAVE
10
101.3296
20
111.0000
30
0.0
11
101.3296
21
79.0000
31
0.0
0
LINE
8
ENGRAVE
10
125.5344
20
79.0000
30
0.0
11
125.5344
21
111.0000
31
0.0
0
LINE
8
ENGRAVE
10
118.5904
20
111.0000
30
0.0
11
132.4784
21
111.0000
31
0.0
0
LINE
8
ENGRAVE
10
118.5904
20
79.0000
30
0.0
11
132.4784
21
79.0000
31
0.0
0
ENDSEC
0
EOF
