0
SECTION
2
HEADER
9
$INSUNITS
70
4
9
$MEASUREMENT
70
1
0
ENDSEC
0
SECTION
2
ENTITIES
0
LINE
8
SHEET
10
0.1000
20
0.0000
30
0.0
11
259.9000
21
0.0000
31
0.0
0
LINE
8
SHEET
10
0.1000
20
310.0000
30
0.0
11
259.9000
21
310.0000
31
0.0
0
LINE
8
SHEET
10
0.0000
20
0.1000
30
0.0
11
0.0000
21
309.9000
31
0.0
0
LINE
8
SHEET
10
260.0000
20
0.1000
30
0.0
11
260.0000
21
309.9000
31
0.0
0
ARC
8
SHEET
10
259.9000
20
309.9000
30
0.0
40
0.1000
50
0.0000
51
90.0000
0
ARC
8
SHEET
10
0.1000
20
309.9000
30
0.0
40
0.1000
50
90.0000
51
180.0000
0
ARC
8
SHEET
10
0.1000
20
0.1000
30
0.0
40
0.1000
50
180.0000
51
270.0000
0
ARC
8
SHEET
10
259.9000
20
0.1000
30
0.0
40
0.1000
50
270.0000
51
360.0000
0
LINE
8
CUT
10
11.0000
20
5.0000
30
0.0
11
249.0000
21
5.0000
31
0.0
0
LINE
8
CUT
10
11.0000
20
185.0000
30
0.0
11
249.0000
21
185.0000
31
0.0
0
LINE
8
CUT
10
5.0000
20
11.0000
30
0.0
11
5.0000
21
179.0000
31
0.0
0
LINE
8
CUT
10
255.0000
20
11.0000
30
0.0
11
255.0000
21
179.0000
31
0.0
0
ARC
8
CUT
10
249.0000
20
179.0000
30
0.0
40
6.0000
50
0.0000
51
90.0000
0
ARC
8
CUT
10
11.0000
20
179.0000
30
0.0
40
6.0000
50
90.0000
51
180.0000
0
ARC
8
CUT
10
11.0000
20
11.0000
30
0.0
40
6.0000
50
180.0000
51
270.0000
0
ARC
8
CUT
10
249.0000
20
11.0000
30
0.0
40
6.0000
50
270.0000
51
360.0000
0
CIRCLE
8
CUT
10
13.0000
20
13.0000
30
0.0
40
1.7000
0
CIRCLE
8
CUT
10
13.0000
20
177.0000
30
0.0
40
1.7000
0
CIRCLE
8
CUT
10
247.0000
20
13.0000
30
0.0
40
1.7000
0
CIRCLE
8
CUT
10
247.0000
20
177.0000
30
0.0
40
1.7000
0
LINE
8
CUT
10
166.6300
20
72.7600
30
0.0
11
166.6300
21
124.7600
31
0.0
0
LINE
8
CUT
10
158.6300
20
72.7600
30
0.0
11
158.6300
21
124.7600
31
0.0
0
ARC
8
CUT
10
162.6300
20
124.7600
30
0.0
40
4.0000
50
0.0000
51
180.0000
0
ARC
8
CUT
10
162.6300
20
72.7600
30
0.0
40
4.0000
50
180.0000
51
360.0000
0
LINE
8
CUT
10
180.6300
20
72.7600
30
0.0
11
180.6300
21
124.7600
31
0.0
0
LINE
8
CUT
10
172.6300
20
72.7600
30
0.0
11
172.6300
21
124.7600
31
0.0
0
ARC
8
CUT
10
176.6300
20
124.7600
30
0.0
40
4.0000
50
0.0000
51
180.0000
0
ARC
8
CUT
10
176.6300
20
72.7600
30
0.0
40
4.0000
50
180.0000
51
360.0000
0
LINE
8
CUT
10
194.6300
20
72.7600
30
0.0
11
194.6300
21
124.7600
31
0.0
0
LINE
8
CUT
10
186.6300
20
72.7600
30
0.0
11
186.6300
21
124.7600
31
0.0
0
ARC
8
CUT
10
190.6300
20
124.7600
30
0.0
40
4.0000
50
0.0000
51
180.0000
0
ARC
8
CUT
10
190.6300
20
72.7600
30
0.0
40
4.0000
50
180.0000
51
360.0000
0
LINE
8
CUT
10
208.6300
20
72.7600
30
0.0
11
208.6300
21
124.7600
31
0.0
0
LINE
8
CUT
10
200.6300
20
72.7600
30
0.0
11
200.6300
21
124.7600
31
0.0
0
ARC
8
CUT
10
204.6300
20
124.7600
30
0.0
40
4.0000
50
0.0000
51
180.0000
0
ARC
8
CUT
10
204.6300
20
72.7600
30
0.0
40
4.0000
50
180.0000
51
360.0000
0
LINE
8
CUT
10
222.6300
20
72.7600
30
0.0
11
222.6300
21
124.7600
31
0.0
0
LINE
8
CUT
10
214.6300
20
72.7600
30
0.0
11
214.6300
21
124.7600
31
0.0
0
ARC
8
CUT
10
218.6300
20
124.7600
30
0.0
40
4.0000
50
0.0000
51
180.0000
0
ARC
8
CUT
10
218.6300
20
72.7600
30
0.0
40
4.0000
50
180.0000
51
360.0000
0
LINE
8
CUT
10
9.0000
20
193.0000
30
0.0
11
111.0000
21
193.0000
31
0.0
0
LINE
8
CUT
10
9.0000
20
303.0000
30
0.0
11
111.0000
21
303.0000
31
0.0
0
LINE
8
CUT
10
5.0000
20
197.0000
30
0.0
11
5.0000
21
299.0000
31
0.0
0
LINE
8
CUT
10
115.0000
20
197.0000
30
0.0
11
115.0000
21
299.0000
31
0.0
0
ARC
8
CUT
10
111.0000
20
299.0000
30
0.0
40
4.0000
50
0.0000
51
90.0000
0
ARC
8
CUT
10
9.0000
20
299.0000
30
0.0
40
4.0000
50
90.0000
51
180.0000
0
ARC
8
CUT
10
9.0000
20
197.0000
30
0.0
40
4.0000
50
180.0000
51
270.0000
0
ARC
8
CUT
10
111.0000
20
197.0000
30
0.0
40
4.0000
50
270.0000
51
360.0000
0
CIRCLE
8
CUT
10
21.0000
20
202.0000
30
0.0
40
1.7000
0
CIRCLE
8
CUT
10
99.0000
20
202.0000
30
0.0
40
1.7000
0
CIRCLE
8
CUT
10
106.9900
20
257.0000
30
0.0
40
1.7000
0
CIRCLE
8
CUT
10
26.0000
20
280.0000
30
0.0
40
1.7000
0
CIRCLE
8
CUT
10
37.5000
20
225.5000
30
0.0
40
1.7000
0
CIRCLE
8
CUT
10
37.5000
20
270.5000
30
0.0
40
1.7000
0
CIRCLE
8
CUT
10
82.5000
20
225.5000
30
0.0
40
1.7000
0
CIRCLE
8
CUT
10
82.5000
20
270.5000
30
0.0
40
1.7000
0
LINE
8
CUT
10
129.0000
20
193.0000
30
0.0
11
197.0000
21
193.0000
31
0.0
0
LINE
8
CUT
10
129.0000
20
253.0000
30
0.0
11
197.0000
21
253.0000
31
0.0
0
LINE
8
CUT
10
125.0000
20
197.0000
30
0.0
11
125.0000
21
249.0000
31
0.0
0
LINE
8
CUT
10
201.0000
20
197.0000
30
0.0
11
201.0000
21
249.0000
31
0.0
0
ARC
8
CUT
10
197.0000
20
249.0000
30
0.0
40
4.0000
50
0.0000
51
90.0000
0
ARC
8
CUT
10
129.0000
20
249.0000
30
0.0
40
4.0000
50
90.0000
51
180.0000
0
ARC
8
CUT
10
129.0000
20
197.0000
30
0.0
40
4.0000
50
180.0000
51
270.0000
0
ARC
8
CUT
10
197.0000
20
197.0000
30
0.0
40
4.0000
50
270.0000
51
360.0000
0
CIRCLE
8
CUT
10
133.2345
20
203.0340
30
0.0
40
1.4500
0
CIRCLE
8
CUT
10
191.2345
20
203.0340
30
0.0
40
1.4500
0
CIRCLE
8
CUT
10
132.8845
20
244.6340
30
0.0
40
1.4500
0
CIRCLE
8
CUT
10
193.1345
20
244.6040
30
0.0
40
1.4500
0
CIRCLE
8
CUT
10
140.5000
20
200.5000
30
0.0
40
1.7000
0
CIRCLE
8
CUT
10
140.5000
20
245.5000
30
0.0
40
1.7000
0
CIRCLE
8
CUT
10
185.5000
20
200.5000
30
0.0
40
1.7000
0
CIRCLE
8
CUT
10
185.5000
20
245.5000
30
0.0
40
1.7000
0
ENDSEC
0
EOF
