0
SECTION
2
HEADER
9
$INSUNITS
70
4
9
$MEASUREMENT
70
1
0
ENDSEC
0
SECTION
2
ENTITIES
0
LINE
8
SHEET
10
0.1000
20
0.0000
30
0.0
11
259.9000
21
0.0000
31
0.0
0
LINE
8
SHEET
10
0.1000
20
380.0000
30
0.0
11
259.9000
21
380.0000
31
0.0
0
LINE
8
SHEET
10
0.0000
20
0.1000
30
0.0
11
0.0000
21
379.9000
31
0.0
0
LINE
8
SHEET
10
260.0000
20
0.1000
30
0.0
11
260.0000
21
379.9000
31
0.0
0
ARC
8
SHEET
10
259.9000
20
379.9000
30
0.0
40
0.1000
50
0.0000
51
90.0000
0
ARC
8
SHEET
10
0.1000
20
379.9000
30
0.0
40
0.1000
50
90.0000
51
180.0000
0
ARC
8
SHEET
10
0.1000
20
0.1000
30
0.0
40
0.1000
50
180.0000
51
270.0000
0
ARC
8
SHEET
10
259.9000
20
0.1000
30
0.0
40
0.1000
50
270.0000
51
360.0000
0
LINE
8
CUT
10
11.0000
20
5.0000
30
0.0
11
249.0000
21
5.0000
31
0.0
0
LINE
8
CUT
10
11.0000
20
185.0000
30
0.0
11
249.0000
21
185.0000
31
0.0
0
LINE
8
CUT
10
5.0000
20
11.0000
30
0.0
11
5.0000
21
179.0000
31
0.0
0
LINE
8
CUT
10
255.0000
20
11.0000
30
0.0
11
255.0000
21
179.0000
31
0.0
0
ARC
8
CUT
10
249.0000
20
179.0000
30
0.0
40
6.0000
50
0.0000
51
90.0000
0
ARC
8
CUT
10
11.0000
20
179.0000
30
0.0
40
6.0000
50
90.0000
51
180.0000
0
ARC
8
CUT
10
11.0000
20
11.0000
30
0.0
40
6.0000
50
180.0000
51
270.0000
0
ARC
8
CUT
10
249.0000
20
11.0000
30
0.0
40
6.0000
50
270.0000
51
360.0000
0
CIRCLE
8
CUT
10
13.0000
20
13.0000
30
0.0
40
1.7000
0
CIRCLE
8
CUT
10
13.0000
20
177.0000
30
0.0
40
1.7000
0
CIRCLE
8
CUT
10
247.0000
20
13.0000
30
0.0
40
1.7000
0
CIRCLE
8
CUT
10
247.0000
20
177.0000
30
0.0
40
1.7000
0
CIRCLE
8
CUT
10
26.8760
20
166.3740
30
0.0
40
1.7000
0
CIRCLE
8
CUT
10
124.9200
20
166.3740
30
0.0
40
1.7000
0
CIRCLE
8
CUT
10
233.1240
20
166.3740
30
0.0
40
1.7000
0
CIRCLE
8
CUT
10
228.5070
20
149.4000
30
0.0
40
1.7000
0
CIRCLE
8
CUT
10
228.5070
20
91.4000
30
0.0
40
1.7000
0
CIRCLE
8
CUT
10
232.1080
20
71.8860
30
0.0
40
1.7000
0
CIRCLE
8
CUT
10
156.6700
20
71.6320
30
0.0
40
1.7000
0
CIRCLE
8
CUT
10
26.8760
20
44.9620
30
0.0
40
1.7000
0
LINE
8
CUT
10
11.0000
20
195.0000
30
0.0
11
249.0000
21
195.0000
31
0.0
0
LINE
8
CUT
10
11.0000
20
375.0000
30
0.0
11
249.0000
21
375.0000
31
0.0
0
LINE
8
CUT
10
5.0000
20
201.0000
30
0.0
11
5.0000
21
369.0000
31
0.0
0
LINE
8
CUT
10
255.0000
20
201.0000
30
0.0
11
255.0000
21
369.0000
31
0.0
0
ARC
8
CUT
10
249.0000
20
369.0000
30
0.0
40
6.0000
50
0.0000
51
90.0000
0
ARC
8
CUT
10
11.0000
20
369.0000
30
0.0
40
6.0000
50
90.0000
51
180.0000
0
ARC
8
CUT
10
11.0000
20
201.0000
30
0.0
40
6.0000
50
180.0000
51
270.0000
0
ARC
8
CUT
10
249.0000
20
201.0000
30
0.0
40
6.0000
50
270.0000
51
360.0000
0
CIRCLE
8
CUT
10
13.0000
20
203.0000
30
0.0
40
1.7000
0
CIRCLE
8
CUT
10
13.0000
20
367.0000
30
0.0
40
1.7000
0
CIRCLE
8
CUT
10
247.0000
20
203.0000
30
0.0
40
1.7000
0
CIRCLE
8
CUT
10
247.0000
20
367.0000
30
0.0
40
1.7000
0
CIRCLE
8
CUT
10
13.0000
20
235.0000
30
0.0
40
1.7000
0
CIRCLE
8
CUT
10
13.0000
20
335.0000
30
0.0
40
1.7000
0
CIRCLE
8
CUT
10
247.0000
20
235.0000
30
0.0
40
1.7000
0
CIRCLE
8
CUT
10
247.0000
20
335.0000
30
0.0
40
1.7000
0
CIRCLE
8
CUT
10
190.6300
20
288.7600
30
0.0
40
18.0000
0
CIRCLE
8
CUT
10
174.6300
20
272.7600
30
0.0
40
1.7000
0
CIRCLE
8
CUT
10
174.6300
20
304.7600
30
0.0
40
1.7000
0
CIRCLE
8
CUT
10
206.6300
20
272.7600
30
0.0
40
1.7000
0
CIRCLE
8
CUT
10
206.6300
20
304.7600
30
0.0
40
1.7000
0
LINE
8
CUT
10
46.2000
20
290.2000
30
0.0
11
58.8000
21
290.2000
31
0.0
0
LINE
8
CUT
10
46.2000
20
286.8000
30
0.0
11
58.8000
21
286.8000
31
0.0
0
ARC
8
CUT
10
58.8000
20
288.5000
30
0.0
40
1.7000
50
-90.0000
51
90.0000
0
ARC
8
CUT
10
46.2000
20
288.5000
30
0.0
40
1.7000
50
90.0000
51
270.0000
0
LINE
8
CUT
10
46.2000
20
335.2000
30
0.0
11
58.8000
21
335.2000
31
0.0
0
LINE
8
CUT
10
46.2000
20
331.8000
30
0.0
11
58.8000
21
331.8000
31
0.0
0
ARC
8
CUT
10
58.8000
20
333.5000
30
0.0
40
1.7000
50
-90.0000
51
90.0000
0
ARC
8
CUT
10
46.2000
20
333.5000
30
0.0
40
1.7000
50
90.0000
51
270.0000
0
LINE
8
CUT
10
91.2000
20
290.2000
30
0.0
11
103.8000
21
290.2000
31
0.0
0
LINE
8
CUT
10
91.2000
20
286.8000
30
0.0
11
103.8000
21
286.8000
31
0.0
0
ARC
8
CUT
10
103.8000
20
288.5000
30
0.0
40
1.7000
50
-90.0000
51
90.0000
0
ARC
8
CUT
10
91.2000
20
288.5000
30
0.0
40
1.7000
50
90.0000
51
270.0000
0
LINE
8
CUT
10
91.2000
20
335.2000
30
0.0
11
103.8000
21
335.2000
31
0.0
0
LINE
8
CUT
10
91.2000
20
331.8000
30
0.0
11
103.8000
21
331.8000
31
0.0
0
ARC
8
CUT
10
103.8000
20
333.5000
30
0.0
40
1.7000
50
-90.0000
51
90.0000
0
ARC
8
CUT
10
91.2000
20
333.5000
30
0.0
40
1.7000
50
90.0000
51
270.0000
0
LINE
8
CUT
10
177.3000
20
208.8000
30
0.0
11
189.9000
21
208.8000
31
0.0
0
LINE
8
CUT
10
177.3000
20
205.4000
30
0.0
11
189.9000
21
205.4000
31
0.0
0
ARC
8
CUT
10
189.9000
20
207.1000
30
0.0
40
1.7000
50
-90.0000
51
90.0000
0
ARC
8
CUT
10
177.3000
20
207.1000
30
0.0
40
1.7000
50
90.0000
51
270.0000
0
LINE
8
CUT
10
177.3000
20
253.8000
30
0.0
11
189.9000
21
253.8000
31
0.0
0
LINE
8
CUT
10
177.3000
20
250.4000
30
0.0
11
189.9000
21
250.4000
31
0.0
0
ARC
8
CUT
10
189.9000
20
252.1000
30
0.0
40
1.7000
50
-90.0000
51
90.0000
0
ARC
8
CUT
10
177.3000
20
252.1000
30
0.0
40
1.7000
50
90.0000
51
270.0000
0
LINE
8
CUT
10
222.3000
20
208.8000
30
0.0
11
234.9000
21
208.8000
31
0.0
0
LINE
8
CUT
10
222.3000
20
205.4000
30
0.0
11
234.9000
21
205.4000
31
0.0
0
ARC
8
CUT
10
234.9000
20
207.1000
30
0.0
40
1.7000
50
-90.0000
51
90.0000
0
ARC
8
CUT
10
222.3000
20
207.1000
30
0.0
40
1.7000
50
90.0000
51
270.0000
0
LINE
8
CUT
10
222.3000
20
253.8000
30
0.0
11
234.9000
21
253.8000
31
0.0
0
LINE
8
CUT
10
222.3000
20
250.4000
30
0.0
11
234.9000
21
250.4000
31
0.0
0
ARC
8
CUT
10
234.9000
20
252.1000
30
0.0
40
1.7000
50
-90.0000
51
90.0000
0
ARC
8
CUT
10
222.3000
20
252.1000
30
0.0
40
1.7000
50
90.0000
51
270.0000
0
ENDSEC
0
EOF
