0
SECTION
2
HEADER
9
$INSUNITS
70
4
9
$MEASUREMENT
70
1
0
ENDSEC
0
SECTION
2
ENTITIES
0
LINE
8
CUT
10
6.0000
20
0.0000
30
0.0
11
244.0000
21
0.0000
31
0.0
0
LINE
8
CUT
10
6.0000
20
180.0000
30
0.0
11
244.0000
21
180.0000
31
0.0
0
LINE
8
CUT
10
0.0000
20
6.0000
30
0.0
11
0.0000
21
174.0000
31
0.0
0
LINE
8
CUT
10
250.0000
20
6.0000
30
0.0
11
250.0000
21
174.0000
31
0.0
0
ARC
8
CUT
10
244.0000
20
174.0000
30
0.0
40
6.0000
50
0.0000
51
90.0000
0
ARC
8
CUT
10
6.0000
20
174.0000
30
0.0
40
6.0000
50
90.0000
51
180.0000
0
ARC
8
CUT
10
6.0000
20
6.0000
30
0.0
40
6.0000
50
180.0000
51
270.0000
0
ARC
8
CUT
10
244.0000
20
6.0000
30
0.0
40
6.0000
50
270.0000
51
360.0000
0
CIRCLE
8
CUT
10
8.0000
20
8.0000
30
0.0
40
1.7000
0
CIRCLE
8
CUT
10
8.0000
20
172.0000
30
0.0
40
1.7000
0
CIRCLE
8
CUT
10
242.0000
20
8.0000
30
0.0
40
1.7000
0
CIRCLE
8
CUT
10
242.0000
20
172.0000
30
0.0
40
1.7000
0
CIRCLE
8
CUT
10
8.0000
20
40.0000
30
0.0
40
1.7000
0
CIRCLE
8
CUT
10
8.0000
20
140.0000
30
0.0
40
1.7000
0
CIRCLE
8
CUT
10
242.0000
20
40.0000
30
0.0
40
1.7000
0
CIRCLE
8
CUT
10
242.0000
20
140.0000
30
0.0
40
1.7000
0
CIRCLE
8
CUT
10
185.6300
20
93.7600
30
0.0
40
18.0000
0
CIRCLE
8
CUT
10
169.6300
20
77.7600
30
0.0
40
1.7000
0
CIRCLE
8
CUT
10
169.6300
20
109.7600
30
0.0
40
1.7000
0
CIRCLE
8
CUT
10
201.6300
20
77.7600
30
0.0
40
1.7000
0
CIRCLE
8
CUT
10
201.6300
20
109.7600
30
0.0
40
1.7000
0
CIRCLE
8
CUT
10
33.0000
20
74.0000
30
0.0
40
1.7000
0
CIRCLE
8
CUT
10
111.0000
20
74.0000
30
0.0
40
1.7000
0
LINE
8
CUT
10
116.1900
20
130.7000
30
0.0
11
121.7900
21
130.7000
31
0.0
0
LINE
8
CUT
10
116.1900
20
127.3000
30
0.0
11
121.7900
21
127.3000
31
0.0
0
ARC
8
CUT
10
121.7900
20
129.0000
30
0.0
40
1.7000
50
-90.0000
51
90.0000
0
ARC
8
CUT
10
116.1900
20
129.0000
30
0.0
40
1.7000
50
90.0000
51
270.0000
0
LINE
8
CUT
10
35.2000
20
153.7000
30
0.0
11
40.8000
21
153.7000
31
0.0
0
LINE
8
CUT
10
35.2000
20
150.3000
30
0.0
11
40.8000
21
150.3000
31
0.0
0
ARC
8
CUT
10
40.8000
20
152.0000
30
0.0
40
1.7000
50
-90.0000
51
90.0000
0
ARC
8
CUT
10
35.2000
20
152.0000
30
0.0
40
1.7000
50
90.0000
51
270.0000
0
CIRCLE
8
CUT
10
209.7655
20
165.9660
30
0.0
40
1.4500
0
CIRCLE
8
CUT
10
151.7655
20
165.9660
30
0.0
40
1.4500
0
LINE
8
CUT
10
207.0655
20
125.8160
30
0.0
11
213.1655
21
125.8160
31
0.0
0
LINE
8
CUT
10
207.0655
20
122.9160
30
0.0
11
213.1655
21
122.9160
31
0.0
0
ARC
8
CUT
10
213.1655
20
124.3660
30
0.0
40
1.4500
50
-90.0000
51
90.0000
0
ARC
8
CUT
10
207.0655
20
124.3660
30
0.0
40
1.4500
50
90.0000
51
270.0000
0
LINE
8
CUT
10
146.8155
20
125.8460
30
0.0
11
152.9155
21
125.8460
31
0.0
0
LINE
8
CUT
10
146.8155
20
122.9460
30
0.0
11
152.9155
21
122.9460
31
0.0
0
ARC
8
CUT
10
152.9155
20
124.3960
30
0.0
40
1.4500
50
-90.0000
51
90.0000
0
ARC
8
CUT
10
146.8155
20
124.3960
30
0.0
40
1.4500
50
90.0000
51
270.0000
0
CIRCLE
8
CUT
10
23.2925
20
19.4750
30
0.0
40
1.4500
0
CIRCLE
8
CUT
10
86.5425
20
19.4750
30
0.0
40
1.4500
0
CIRCLE
8
CUT
10
23.2925
20
46.5000
30
0.0
40
1.4500
0
CIRCLE
8
CUT
10
86.5425
20
46.5000
30
0.0
40
1.4500
0
CIRCLE
8
CUT
10
164.2925
20
17.0595
30
0.0
40
1.4500
0
CIRCLE
8
CUT
10
227.5425
20
17.0595
30
0.0
40
1.4500
0
CIRCLE
8
CUT
10
164.2925
20
43.0595
30
0.0
40
1.4500
0
CIRCLE
8
CUT
10
227.5425
20
43.0595
30
0.0
40
1.4500
0
ENDSEC
0
EOF
