0
SECTION
2
HEADER
9
$INSUNITS
70
4
9
$MEASUREMENT
70
1
0
ENDSEC
0
SECTION
2
ENTITIES
0
LINE
8
CUT
10
6.0000
20
0.0000
30
0.0
11
244.0000
21
0.0000
31
0.0
0
LINE
8
CUT
10
6.0000
20
180.0000
30
0.0
11
244.0000
21
180.0000
31
0.0
0
LINE
8
CUT
10
0.0000
20
6.0000
30
0.0
11
0.0000
21
174.0000
31
0.0
0
LINE
8
CUT
10
250.0000
20
6.0000
30
0.0
11
250.0000
21
174.0000
31
0.0
0
ARC
8
CUT
10
244.0000
20
174.0000
30
0.0
40
6.0000
50
0.0000
51
90.0000
0
ARC
8
CUT
10
6.0000
20
174.0000
30
0.0
40
6.0000
50
90.0000
51
180.0000
0
ARC
8
CUT
10
6.0000
20
6.0000
30
0.0
40
6.0000
50
180.0000
51
270.0000
0
ARC
8
CUT
10
244.0000
20
6.0000
30
0.0
40
6.0000
50
270.0000
51
360.0000
0
CIRCLE
8
CUT
10
8.0000
20
8.0000
30
0.0
40
1.7000
0
CIRCLE
8
CUT
10
8.0000
20
172.0000
30
0.0
40
1.7000
0
CIRCLE
8
CUT
10
242.0000
20
8.0000
30
0.0
40
1.7000
0
CIRCLE
8
CUT
10
242.0000
20
172.0000
30
0.0
40
1.7000
0
CIRCLE
8
CUT
10
185.6300
20
93.7600
30
0.0
40
19.0000
0
CIRCLE
8
CUT
10
169.6300
20
77.7600
30
0.0
40
1.7000
0
CIRCLE
8
CUT
10
169.6300
20
109.7600
30
0.0
40
1.7000
0
CIRCLE
8
CUT
10
201.6300
20
77.7600
30
0.0
40
1.7000
0
CIRCLE
8
CUT
10
201.6300
20
109.7600
30
0.0
40
1.7000
0
LINE
8
CUT
10
45.2000
20
69.2000
30
0.0
11
57.8000
21
69.2000
31
0.0
0
LINE
8
CUT
10
45.2000
20
65.8000
30
0.0
11
57.8000
21
65.8000
31
0.0
0
ARC
8
CUT
10
57.8000
20
67.5000
30
0.0
40
1.7000
50
-90.0000
51
90.0000
0
ARC
8
CUT
10
45.2000
20
67.5000
30
0.0
40
1.7000
50
90.0000
51
270.0000
0
LINE
8
CUT
10
45.2000
20
114.2000
30
0.0
11
57.8000
21
114.2000
31
0.0
0
LINE
8
CUT
10
45.2000
20
110.8000
30
0.0
11
57.8000
21
110.8000
31
0.0
0
ARC
8
CUT
10
57.8000
20
112.5000
30
0.0
40
1.7000
50
-90.0000
51
90.0000
0
ARC
8
CUT
10
45.2000
20
112.5000
30
0.0
40
1.7000
50
90.0000
51
270.0000
0
LINE
8
CUT
10
90.2000
20
69.2000
30
0.0
11
102.8000
21
69.2000
31
0.0
0
LINE
8
CUT
10
90.2000
20
65.8000
30
0.0
11
102.8000
21
65.8000
31
0.0
0
ARC
8
CUT
10
102.8000
20
67.5000
30
0.0
40
1.7000
50
-90.0000
51
90.0000
0
ARC
8
CUT
10
90.2000
20
67.5000
30
0.0
40
1.7000
50
90.0000
51
270.0000
0
LINE
8
CUT
10
90.2000
20
114.2000
30
0.0
11
102.8000
21
114.2000
31
0.0
0
LINE
8
CUT
10
90.2000
20
110.8000
30
0.0
11
102.8000
21
110.8000
31
0.0
0
ARC
8
CUT
10
102.8000
20
112.5000
30
0.0
40
1.7000
50
-90.0000
51
90.0000
0
ARC
8
CUT
10
90.2000
20
112.5000
30
0.0
40
1.7000
50
90.0000
51
270.0000
0
LINE
8
CUT
10
149.2000
20
15.2000
30
0.0
11
161.8000
21
15.2000
31
0.0
0
LINE
8
CUT
10
149.2000
20
11.8000
30
0.0
11
161.8000
21
11.8000
31
0.0
0
ARC
8
CUT
10
161.8000
20
13.5000
30
0.0
40
1.7000
50
-90.0000
51
90.0000
0
ARC
8
CUT
10
149.2000
20
13.5000
30
0.0
40
1.7000
50
90.0000
51
270.0000
0
LINE
8
CUT
10
149.2000
20
60.2000
30
0.0
11
161.8000
21
60.2000
31
0.0
0
LINE
8
CUT
10
149.2000
20
56.8000
30
0.0
11
161.8000
21
56.8000
31
0.0
0
ARC
8
CUT
10
161.8000
20
58.5000
30
0.0
40
1.7000
50
-90.0000
51
90.0000
0
ARC
8
CUT
10
149.2000
20
58.5000
30
0.0
40
1.7000
50
90.0000
51
270.0000
0
LINE
8
CUT
10
194.2000
20
15.2000
30
0.0
11
206.8000
21
15.2000
31
0.0
0
LINE
8
CUT
10
194.2000
20
11.8000
30
0.0
11
206.8000
21
11.8000
31
0.0
0
ARC
8
CUT
10
206.8000
20
13.5000
30
0.0
40
1.7000
50
-90.0000
51
90.0000
0
ARC
8
CUT
10
194.2000
20
13.5000
30
0.0
40
1.7000
50
90.0000
51
270.0000
0
LINE
8
CUT
10
194.2000
20
60.2000
30
0.0
11
206.8000
21
60.2000
31
0.0
0
LINE
8
CUT
10
194.2000
20
56.8000
30
0.0
11
206.8000
21
56.8000
31
0.0
0
ARC
8
CUT
10
206.8000
20
58.5000
30
0.0
40
1.7000
50
-90.0000
51
90.0000
0
ARC
8
CUT
10
194.2000
20
58.5000
30
0.0
40
1.7000
50
90.0000
51
270.0000
0
ENDSEC
0
EOF
