0
SECTION
2
HEADER
9
$INSUNITS
70
4
9
$MEASUREMENT
70
1
0
ENDSEC
0
SECTION
2
ENTITIES
0
LINE
8
CUT
10
4.0000
20
0.0000
30
0.0
11
72.0000
21
0.0000
31
0.0
0
LINE
8
CUT
10
4.0000
20
60.0000
30
0.0
11
72.0000
21
60.0000
31
0.0
0
LINE
8
CUT
10
0.0000
20
4.0000
30
0.0
11
0.0000
21
56.0000
31
0.0
0
LINE
8
CUT
10
76.0000
20
4.0000
30
0.0
11
76.0000
21
56.0000
31
0.0
0
ARC
8
CUT
10
72.0000
20
56.0000
30
0.0
40
4.0000
50
0.0000
51
90.0000
0
ARC
8
CUT
10
4.0000
20
56.0000
30
0.0
40
4.0000
50
90.0000
51
180.0000
0
ARC
8
CUT
10
4.0000
20
4.0000
30
0.0
40
4.0000
50
180.0000
51
270.0000
0
ARC
8
CUT
10
72.0000
20
4.0000
30
0.0
40
4.0000
50
270.0000
51
360.0000
0
CIRCLE
8
CUT
10
8.2345
20
10.0340
30
0.0
40
1.4500
0
CIRCLE
8
CUT
10
66.2345
20
10.0340
30
0.0
40
1.4500
0
CIRCLE
8
CUT
10
7.8845
20
51.6340
30
0.0
40
1.4500
0
CIRCLE
8
CUT
10
68.1345
20
51.6040
30
0.0
40
1.4500
0
CIRCLE
8
CUT
10
20.5000
20
7.5000
30
0.0
40
1.7000
0
CIRCLE
8
CUT
10
20.5000
20
52.5000
30
0.0
40
1.7000
0
CIRCLE
8
CUT
10
55.5000
20
7.5000
30
0.0
40
1.7000
0
CIRCLE
8
CUT
10
55.5000
20
52.5000
30
0.0
40
1.7000
0
ENDSEC
0
EOF
