0
SECTION
2
HEADER
9
$INSUNITS
70
4
9
$MEASUREMENT
70
1
0
ENDSEC
0
SECTION
2
ENTITIES
0
LINE
8
CUT
10
4.0000
20
0.0000
30
0.0
11
106.0000
21
0.0000
31
0.0
0
LINE
8
CUT
10
4.0000
20
110.0000
30
0.0
11
106.0000
21
110.0000
31
0.0
0
LINE
8
CUT
10
0.0000
20
4.0000
30
0.0
11
0.0000
21
106.0000
31
0.0
0
LINE
8
CUT
10
110.0000
20
4.0000
30
0.0
11
110.0000
21
106.0000
31
0.0
0
ARC
8
CUT
10
106.0000
20
106.0000
30
0.0
40
4.0000
50
0.0000
51
90.0000
0
ARC
8
CUT
10
4.0000
20
106.0000
30
0.0
40
4.0000
50
90.0000
51
180.0000
0
ARC
8
CUT
10
4.0000
20
4.0000
30
0.0
40
4.0000
50
180.0000
51
270.0000
0
ARC
8
CUT
10
106.0000
20
4.0000
30
0.0
40
4.0000
50
270.0000
51
360.0000
0
CIRCLE
8
CUT
10
16.0000
20
9.0000
30
0.0
40
1.7000
0
CIRCLE
8
CUT
10
94.0000
20
9.0000
30
0.0
40
1.7000
0
CIRCLE
8
CUT
10
32.5000
20
32.5000
30
0.0
40
1.7000
0
CIRCLE
8
CUT
10
32.5000
20
77.5000
30
0.0
40
1.7000
0
CIRCLE
8
CUT
10
77.5000
20
32.5000
30
0.0
40
1.7000
0
CIRCLE
8
CUT
10
77.5000
20
77.5000
30
0.0
40
1.7000
0
ENDSEC
0
EOF
