0
SECTION
2
HEADER
9
$INSUNITS
70
4
9
$MEASUREMENT
70
1
0
ENDSEC
0
SECTION
2
ENTITIES
0
LINE
8
CUT
10
6.0000
20
0.0000
30
0.0
11
244.0000
21
0.0000
31
0.0
0
LINE
8
CUT
10
6.0000
20
180.0000
30
0.0
11
244.0000
21
180.0000
31
0.0
0
LINE
8
CUT
10
0.0000
20
6.0000
30
0.0
11
0.0000
21
174.0000
31
0.0
0
LINE
8
CUT
10
250.0000
20
6.0000
30
0.0
11
250.0000
21
174.0000
31
0.0
0
ARC
8
CUT
10
244.0000
20
174.0000
30
0.0
40
6.0000
50
0.0000
51
90.0000
0
ARC
8
CUT
10
6.0000
20
174.0000
30
0.0
40
6.0000
50
90.0000
51
180.0000
0
ARC
8
CUT
10
6.0000
20
6.0000
30
0.0
40
6.0000
50
180.0000
51
270.0000
0
ARC
8
CUT
10
244.0000
20
6.0000
30
0.0
40
6.0000
50
270.0000
51
360.0000
0
CIRCLE
8
CUT
10
8.0000
20
40.0000
30
0.0
40
1.7000
0
CIRCLE
8
CUT
10
8.0000
20
140.0000
30
0.0
40
1.7000
0
CIRCLE
8
CUT
10
242.0000
20
40.0000
30
0.0
40
1.7000
0
CIRCLE
8
CUT
10
242.0000
20
140.0000
30
0.0
40
1.7000
0
LINE
8
CUT
10
161.6300
20
67.7600
30
0.0
11
161.6300
21
119.7600
31
0.0
0
LINE
8
CUT
10
153.6300
20
67.7600
30
0.0
11
153.6300
21
119.7600
31
0.0
0
ARC
8
CUT
10
157.6300
20
119.7600
30
0.0
40
4.0000
50
0.0000
51
180.0000
0
ARC
8
CUT
10
157.6300
20
67.7600
30
0.0
40
4.0000
50
180.0000
51
360.0000
0
LINE
8
CUT
10
175.6300
20
67.7600
30
0.0
11
175.6300
21
119.7600
31
0.0
0
LINE
8
CUT
10
167.6300
20
67.7600
30
0.0
11
167.6300
21
119.7600
31
0.0
0
ARC
8
CUT
10
171.6300
20
119.7600
30
0.0
40
4.0000
50
0.0000
51
180.0000
0
ARC
8
CUT
10
171.6300
20
67.7600
30
0.0
40
4.0000
50
180.0000
51
360.0000
0
LINE
8
CUT
10
189.6300
20
67.7600
30
0.0
11
189.6300
21
119.7600
31
0.0
0
LINE
8
CUT
10
181.6300
20
67.7600
30
0.0
11
181.6300
21
119.7600
31
0.0
0
ARC
8
CUT
10
185.6300
20
119.7600
30
0.0
40
4.0000
50
0.0000
51
180.0000
0
ARC
8
CUT
10
185.6300
20
67.7600
30
0.0
40
4.0000
50
180.0000
51
360.0000
0
LINE
8
CUT
10
203.6300
20
67.7600
30
0.0
11
203.6300
21
119.7600
31
0.0
0
LINE
8
CUT
10
195.6300
20
67.7600
30
0.0
11
195.6300
21
119.7600
31
0.0
0
ARC
8
CUT
10
199.6300
20
119.7600
30
0.0
40
4.0000
50
0.0000
51
180.0000
0
ARC
8
CUT
10
199.6300
20
67.7600
30
0.0
40
4.0000
50
180.0000
51
360.0000
0
LINE
8
CUT
10
217.6300
20
67.7600
30
0.0
11
217.6300
21
119.7600
31
0.0
0
LINE
8
CUT
10
209.6300
20
67.7600
30
0.0
11
209.6300
21
119.7600
31
0.0
0
ARC
8
CUT
10
213.6300
20
119.7600
30
0.0
40
4.0000
50
0.0000
51
180.0000
0
ARC
8
CUT
10
213.6300
20
67.7600
30
0.0
40
4.0000
50
180.0000
51
360.0000
0
LINE
8
ENGRAVE
10
20.0000
20
150.0000
30
0.0
11
20.0000
21
164.0000
31
0.0
0
LINE
8
ENGRAVE
10
27.8120
20
164.0000
30
0.0
11
20.0000
21
156.3000
31
0.0
0
LINE
8
ENGRAVE
10
21.3020
20
157.7000
30
0.0
11
28.2460
21
150.0000
31
0.0
0
LINE
8
ENGRAVE
10
39.2696
20
164.0000
30
0.0
11
30.5896
21
164.0000
31
0.0
0
LINE
8
ENGRAVE
10
30.5896
20
164.0000
30
0.0
11
30.5896
21
150.0000
31
0.0
0
LINE
8
ENGRAVE
10
30.5896
20
150.0000
30
0.0
11
39.2696
21
150.0000
31
0.0
0
LINE
8
ENGRAVE
10
30.5896
20
157.0000
30
0.0
11
37.0996
21
157.0000
31
0.0
0
LINE
8
ENGRAVE
10
41.1792
20
164.0000
30
0.0
11
49.8592
21
164.0000
31
0.0
0
LINE
8
ENGRAVE
10
45.5192
20
164.0000
30
0.0
11
45.5192
21
150.0000
31
0.0
0
LINE
8
ENGRAVE
10
56.1088
20
150.0000
30
0.0
11
56.1088
21
164.0000
31
0.0
0
LINE
8
ENGRAVE
10
53.0708
20
164.0000
30
0.0
11
59.1468
21
164.0000
31
0.0
0
LINE
8
ENGRAVE
10
53.0708
20
150.0000
30
0.0
11
59.1468
21
150.0000
31
0.0
0
LINE
8
ENGRAVE
10
20.0000
20
139.0000
30
0.0
11
20.0000
21
132.0000
31
0.0
0
LINE
8
ENGRAVE
10
20.0000
20
132.0000
30
0.0
11
23.9060
21
132.0000
31
0.0
0
LINE
8
ENGRAVE
10
25.2948
20
132.0000
30
0.0
11
27.4648
21
139.0000
31
0.0
0
LINE
8
ENGRAVE
10
27.4648
20
139.0000
30
0.0
11
29.6348
21
132.0000
31
0.0
0
LINE
8
ENGRAVE
10
26.2496
20
134.8000
30
0.0
11
28.6800
21
134.8000
31
0.0
0
LINE
8
ENGRAVE
10
30.5896
20
132.0000
30
0.0
11
30.5896
21
139.0000
31
0.0
0
LINE
8
ENGRAVE
10
30.5896
20
139.0000
30
0.0
11
34.9296
21
132.0000
31
0.0
0
LINE
8
ENGRAVE
10
34.9296
20
132.0000
30
0.0
11
34.9296
21
139.0000
31
0.0
0
LINE
8
ENGRAVE
10
35.8844
20
132.7000
30
0.0
11
38.0544
21
132.0000
31
0.0
0
LINE
8
ENGRAVE
10
38.0544
20
132.0000
30
0.0
11
40.2244
21
133.7500
31
0.0
0
LINE
8
ENGRAVE
10
40.2244
20
133.7500
30
0.0
11
40.2244
21
137.9500
31
0.0
0
LINE
8
ENGRAVE
10
40.2244
20
137.9500
30
0.0
11
38.0544
21
139.0000
31
0.0
0
LINE
8
ENGRAVE
10
38.0544
20
139.0000
30
0.0
11
35.8844
21
137.9500
31
0.0
0
LINE
8
ENGRAVE
10
35.8844
20
137.9500
30
0.0
11
35.8844
21
136.5500
31
0.0
0
LINE
8
ENGRAVE
10
35.8844
20
136.5500
30
0.0
11
38.0544
21
135.5000
31
0.0
0
LINE
8
ENGRAVE
10
38.0544
20
135.5000
30
0.0
11
40.2244
21
136.5500
31
0.0
0
LINE
8
ENGRAVE
10
45.5192
20
138.3000
30
0.0
11
43.3492
21
139.0000
31
0.0
0
LINE
8
ENGRAVE
10
43.3492
20
139.0000
30
0.0
11
41.1792
21
137.2500
31
0.0
0
LINE
8
ENGRAVE
10
41.1792
20
137.2500
30
0.0
11
41.1792
21
133.0500
31
0.0
0
LINE
8
ENGRAVE
10
41.1792
20
133.0500
30
0.0
11
43.3492
21
132.0000
31
0.0
0
LINE
8
ENGRAVE
10
43.3492
20
132.0000
30
0.0
11
45.5192
21
133.0500
31
0.0
0
LINE
8
ENGRAVE
10
45.5192
20
133.0500
30
0.0
11
45.5192
21
134.4500
31
0.0
0
LINE
8
ENGRAVE
10
45.5192
20
134.4500
30
0.0
11
43.3492
21
135.5000
31
0.0
0
LINE
8
ENGRAVE
10
43.3492
20
135.5000
30
0.0
11
41.1792
21
134.4500
31
0.0
0
LINE
8
ENGRAVE
10
46.4740
20
132.7000
30
0.0
11
48.6440
21
132.0000
31
0.0
0
LINE
8
ENGRAVE
10
48.6440
20
132.0000
30
0.0
11
50.8140
21
133.7500
31
0.0
0
LINE
8
ENGRAVE
10
50.8140
20
133.7500
30
0.0
11
50.8140
21
137.9500
31
0.0
0
LINE
8
ENGRAVE
10
50.8140
20
137.9500
30
0.0
11
48.6440
21
139.0000
31
0.0
0
LINE
8
ENGRAVE
10
48.6440
20
139.0000
30
0.0
11
46.4740
21
137.9500
31
0.0
0
LINE
8
ENGRAVE
10
46.4740
20
137.9500
30
0.0
11
46.4740
21
136.5500
31
0.0
0
LINE
8
ENGRAVE
10
46.4740
20
136.5500
30
0.0
11
48.6440
21
135.5000
31
0.0
0
LINE
8
ENGRAVE
10
48.6440
20
135.5000
30
0.0
11
50.8140
21
136.5500
31
0.0
0
LINE
8
ENGRAVE
10
51.7688
20
137.9500
30
0.0
11
53.9388
21
139.0000
31
0.0
0
LINE
8
ENGRAVE
10
53.9388
20
139.0000
30
0.0
11
56.1088
21
137.9500
31
0.0
0
LINE
8
ENGRAVE
10
56.1088
20
137.9500
30
0.0
11
56.1088
21
136.2000
31
0.0
0
LINE
8
ENGRAVE
10
56.1088
20
136.2000
30
0.0
11
51.7688
21
132.0000
31
0.0
0
LINE
8
ENGRAVE
10
51.7688
20
132.0000
30
0.0
11
56.1088
21
132.0000
31
0.0
0
LINE
8
ENGRAVE
10
62.3584
20
139.0000
30
0.0
11
66.6984
21
139.0000
31
0.0
0
LINE
8
ENGRAVE
10
64.5284
20
139.0000
30
0.0
11
64.5284
21
132.0000
31
0.0
0
LINE
8
ENGRAVE
10
71.9932
20
137.9500
30
0.0
11
69.8232
21
139.0000
31
0.0
0
LINE
8
ENGRAVE
10
69.8232
20
139.0000
30
0.0
11
67.6532
21
137.9500
31
0.0
0
LINE
8
ENGRAVE
10
67.6532
20
137.9500
30
0.0
11
67.6532
21
136.2000
31
0.0
0
LINE
8
ENGRAVE
10
67.6532
20
136.2000
30
0.0
11
71.9932
21
134.8000
31
0.0
0
LINE
8
ENGRAVE
10
71.9932
20
134.8000
30
0.0
11
71.9932
21
133.0500
31
0.0
0
LINE
8
ENGRAVE
10
71.9932
20
133.0500
30
0.0
11
69.8232
21
132.0000
31
0.0
0
LINE
8
ENGRAVE
10
69.8232
20
132.0000
30
0.0
11
67.6532
21
133.0500
31
0.0
0
LINE
8
ENGRAVE
10
72.9480
20
132.0000
30
0.0
11
72.9480
21
139.0000
31
0.0
0
LINE
8
ENGRAVE
10
72.9480
20
139.0000
30
0.0
11
77.2880
21
132.0000
31
0.0
0
LINE
8
ENGRAVE
10
77.2880
20
132.0000
30
0.0
11
77.2880
21
139.0000
31
0.0
0
LINE
8
ENGRAVE
10
83.5376
20
132.0000
30
0.0
11
83.5376
21
139.0000
31
0.0
0
LINE
8
ENGRAVE
10
83.5376
20
139.0000
30
0.0
11
86.5756
21
139.0000
31
0.0
0
LINE
8
ENGRAVE
10
86.5756
20
139.0000
30
0.0
11
87.8776
21
137.9500
31
0.0
0
LINE
8
ENGRAVE
10
87.8776
20
137.9500
30
0.0
11
87.8776
21
136.5500
31
0.0
0
LINE
8
ENGRAVE
10
87.8776
20
136.5500
30
0.0
11
86.5756
21
135.5000
31
0.0
0
LINE
8
ENGRAVE
10
86.5756
20
135.5000
30
0.0
11
83.5376
21
135.5000
31
0.0
0
LINE
8
ENGRAVE
10
86.5756
20
135.5000
30
0.0
11
87.8776
21
134.4500
31
0.0
0
LINE
8
ENGRAVE
10
87.8776
20
134.4500
30
0.0
11
87.8776
21
133.0500
31
0.0
0
LINE
8
ENGRAVE
10
87.8776
20
133.0500
30
0.0
11
86.5756
21
132.0000
31
0.0
0
LINE
8
ENGRAVE
10
86.5756
20
132.0000
30
0.0
11
83.5376
21
132.0000
31
0.0
0
LINE
8
ENGRAVE
10
93.1724
20
139.0000
30
0.0
11
88.8324
21
139.0000
31
0.0
0
LINE
8
ENGRAVE
10
88.8324
20
139.0000
30
0.0
11
88.8324
21
132.0000
31
0.0
0
LINE
8
ENGRAVE
10
88.8324
20
132.0000
30
0.0
11
93.1724
21
132.0000
31
0.0
0
LINE
8
ENGRAVE
10
88.8324
20
135.5000
30
0.0
11
92.0874
21
135.5000
31
0.0
0
LINE
8
ENGRAVE
10
94.1272
20
132.0000
30
0.0
11
94.1272
21
139.0000
31
0.0
0
LINE
8
ENGRAVE
10
94.1272
20
139.0000
30
0.0
11
98.4672
21
132.0000
31
0.0
0
LINE
8
ENGRAVE
10
98.4672
20
132.0000
30
0.0
11
98.4672
21
139.0000
31
0.0
0
LINE
8
ENGRAVE
10
103.7620
20
137.9500
30
0.0
11
101.5920
21
139.0000
31
0.0
0
LINE
8
ENGRAVE
10
101.5920
20
139.0000
30
0.0
11
99.4220
21
137.2500
31
0.0
0
LINE
8
ENGRAVE
10
99.4220
20
137.2500
30
0.0
11
99.4220
21
133.7500
31
0.0
0
LINE
8
ENGRAVE
10
99.4220
20
133.7500
30
0.0
11
101.5920
21
132.0000
31
0.0
0
LINE
8
ENGRAVE
10
101.5920
20
132.0000
30
0.0
11
103.7620
21
133.0500
31
0.0
0
LINE
8
ENGRAVE
10
104.7168
20
132.0000
30
0.0
11
104.7168
21
139.0000
31
0.0
0
LINE
8
ENGRAVE
10
109.0568
20
132.0000
30
0.0
11
109.0568
21
139.0000
31
0.0
0
LINE
8
ENGRAVE
10
104.7168
20
135.5000
30
0.0
11
109.0568
21
135.5000
31
0.0
0
ENDSEC
0
EOF
