0
SECTION
2
HEADER
9
$INSUNITS
70
4
9
$MEASUREMENT
70
1
0
ENDSEC
0
SECTION
2
ENTITIES
0
LINE
8
CUT
10
6.0000
20
0.0000
30
0.0
11
244.0000
21
0.0000
31
0.0
0
LINE
8
CUT
10
6.0000
20
180.0000
30
0.0
11
244.0000
21
180.0000
31
0.0
0
LINE
8
CUT
10
0.0000
20
6.0000
30
0.0
11
0.0000
21
174.0000
31
0.0
0
LINE
8
CUT
10
250.0000
20
6.0000
30
0.0
11
250.0000
21
174.0000
31
0.0
0
ARC
8
CUT
10
244.0000
20
174.0000
30
0.0
40
6.0000
50
0.0000
51
90.0000
0
ARC
8
CUT
10
6.0000
20
174.0000
30
0.0
40
6.0000
50
90.0000
51
180.0000
0
ARC
8
CUT
10
6.0000
20
6.0000
30
0.0
40
6.0000
50
180.0000
51
270.0000
0
ARC
8
CUT
10
244.0000
20
6.0000
30
0.0
40
6.0000
50
270.0000
51
360.0000
0
CIRCLE
8
CUT
10
8.0000
20
40.0000
30
0.0
40
1.7000
0
CIRCLE
8
CUT
10
8.0000
20
140.0000
30
0.0
40
1.7000
0
CIRCLE
8
CUT
10
242.0000
20
40.0000
30
0.0
40
1.7000
0
CIRCLE
8
CUT
10
242.0000
20
140.0000
30
0.0
40
1.7000
0
LINE
8
CUT
10
161.6300
20
67.7600
30
0.0
11
161.6300
21
119.7600
31
0.0
0
LINE
8
CUT
10
153.6300
20
67.7600
30
0.0
11
153.6300
21
119.7600
31
0.0
0
ARC
8
CUT
10
157.6300
20
119.7600
30
0.0
40
4.0000
50
0.0000
51
180.0000
0
ARC
8
CUT
10
157.6300
20
67.7600
30
0.0
40
4.0000
50
180.0000
51
360.0000
0
LINE
8
CUT
10
175.6300
20
67.7600
30
0.0
11
175.6300
21
119.7600
31
0.0
0
LINE
8
CUT
10
167.6300
20
67.7600
30
0.0
11
167.6300
21
119.7600
31
0.0
0
ARC
8
CUT
10
171.6300
20
119.7600
30
0.0
40
4.0000
50
0.0000
51
180.0000
0
ARC
8
CUT
10
171.6300
20
67.7600
30
0.0
40
4.0000
50
180.0000
51
360.0000
0
LINE
8
CUT
10
189.6300
20
67.7600
30
0.0
11
189.6300
21
119.7600
31
0.0
0
LINE
8
CUT
10
181.6300
20
67.7600
30
0.0
11
181.6300
21
119.7600
31
0.0
0
ARC
8
CUT
10
185.6300
20
119.7600
30
0.0
40
4.0000
50
0.0000
51
180.0000
0
ARC
8
CUT
10
185.6300
20
67.7600
30
0.0
40
4.0000
50
180.0000
51
360.0000
0
LINE
8
CUT
10
203.6300
20
67.7600
30
0.0
11
203.6300
21
119.7600
31
0.0
0
LINE
8
CUT
10
195.6300
20
67.7600
30
0.0
11
195.6300
21
119.7600
31
0.0
0
ARC
8
CUT
10
199.6300
20
119.7600
30
0.0
40
4.0000
50
0.0000
51
180.0000
0
ARC
8
CUT
10
199.6300
20
67.7600
30
0.0
40
4.0000
50
180.0000
51
360.0000
0
LINE
8
CUT
10
217.6300
20
67.7600
30
0.0
11
217.6300
21
119.7600
31
0.0
0
LINE
8
CUT
10
209.6300
20
67.7600
30
0.0
11
209.6300
21
119.7600
31
0.0
0
ARC
8
CUT
10
213.6300
20
119.7600
30
0.0
40
4.0000
50
0.0000
51
180.0000
0
ARC
8
CUT
10
213.6300
20
67.7600
30
0.0
40
4.0000
50
180.0000
51
360.0000
0
ENDSEC
0
EOF
