0
SECTION
2
HEADER
9
$INSUNITS
70
4
9
$MEASUREMENT
70
1
0
ENDSEC
0
SECTION
2
ENTITIES
0
LINE
8
CUT
10
6.0000
20
0.0000
30
0.0
11
244.0000
21
0.0000
31
0.0
0
LINE
8
CUT
10
6.0000
20
180.0000
30
0.0
11
244.0000
21
180.0000
31
0.0
0
LINE
8
CUT
10
0.0000
20
6.0000
30
0.0
11
0.0000
21
174.0000
31
0.0
0
LINE
8
CUT
10
250.0000
20
6.0000
30
0.0
11
250.0000
21
174.0000
31
0.0
0
ARC
8
CUT
10
244.0000
20
174.0000
30
0.0
40
6.0000
50
0.0000
51
90.0000
0
ARC
8
CUT
10
6.0000
20
174.0000
30
0.0
40
6.0000
50
90.0000
51
180.0000
0
ARC
8
CUT
10
6.0000
20
6.0000
30
0.0
40
6.0000
50
180.0000
51
270.0000
0
ARC
8
CUT
10
244.0000
20
6.0000
30
0.0
40
6.0000
50
270.0000
51
360.0000
0
CIRCLE
8
CUT
10
8.0000
20
8.0000
30
0.0
40
1.7000
0
CIRCLE
8
CUT
10
8.0000
20
172.0000
30
0.0
40
1.7000
0
CIRCLE
8
CUT
10
242.0000
20
8.0000
30
0.0
40
1.7000
0
CIRCLE
8
CUT
10
242.0000
20
172.0000
30
0.0
40
1.7000
0
CIRCLE
8
CUT
10
185.6300
20
93.7600
30
0.0
40
19.0000
0
CIRCLE
8
CUT
10
169.6300
20
77.7600
30
0.0
40
1.7000
0
CIRCLE
8
CUT
10
169.6300
20
109.7600
30
0.0
40
1.7000
0
CIRCLE
8
CUT
10
201.6300
20
77.7600
30
0.0
40
1.7000
0
CIRCLE
8
CUT
10
201.6300
20
109.7600
30
0.0
40
1.7000
0
LINE
8
CUT
10
31.2000
20
111.2000
30
0.0
11
43.8000
21
111.2000
31
0.0
0
LINE
8
CUT
10
31.2000
20
107.8000
30
0.0
11
43.8000
21
107.8000
31
0.0
0
ARC
8
CUT
10
43.8000
20
109.5000
30
0.0
40
1.7000
50
-90.0000
51
90.0000
0
ARC
8
CUT
10
31.2000
20
109.5000
30
0.0
40
1.7000
50
90.0000
51
270.0000
0
LINE
8
CUT
10
31.2000
20
156.2000
30
0.0
11
43.8000
21
156.2000
31
0.0
0
LINE
8
CUT
10
31.2000
20
152.8000
30
0.0
11
43.8000
21
152.8000
31
0.0
0
ARC
8
CUT
10
43.8000
20
154.5000
30
0.0
40
1.7000
50
-90.0000
51
90.0000
0
ARC
8
CUT
10
31.2000
20
154.5000
30
0.0
40
1.7000
50
90.0000
51
270.0000
0
LINE
8
CUT
10
76.2000
20
111.2000
30
0.0
11
88.8000
21
111.2000
31
0.0
0
LINE
8
CUT
10
76.2000
20
107.8000
30
0.0
11
88.8000
21
107.8000
31
0.0
0
ARC
8
CUT
10
88.8000
20
109.5000
30
0.0
40
1.7000
50
-90.0000
51
90.0000
0
ARC
8
CUT
10
76.2000
20
109.5000
30
0.0
40
1.7000
50
90.0000
51
270.0000
0
LINE
8
CUT
10
76.2000
20
156.2000
30
0.0
11
88.8000
21
156.2000
31
0.0
0
LINE
8
CUT
10
76.2000
20
152.8000
30
0.0
11
88.8000
21
152.8000
31
0.0
0
ARC
8
CUT
10
88.8000
20
154.5000
30
0.0
40
1.7000
50
-90.0000
51
90.0000
0
ARC
8
CUT
10
76.2000
20
154.5000
30
0.0
40
1.7000
50
90.0000
51
270.0000
0
LINE
8
CUT
10
31.2000
20
27.2000
30
0.0
11
43.8000
21
27.2000
31
0.0
0
LINE
8
CUT
10
31.2000
20
23.8000
30
0.0
11
43.8000
21
23.8000
31
0.0
0
ARC
8
CUT
10
43.8000
20
25.5000
30
0.0
40
1.7000
50
-90.0000
51
90.0000
0
ARC
8
CUT
10
31.2000
20
25.5000
30
0.0
40
1.7000
50
90.0000
51
270.0000
0
LINE
8
CUT
10
31.2000
20
72.2000
30
0.0
11
43.8000
21
72.2000
31
0.0
0
LINE
8
CUT
10
31.2000
20
68.8000
30
0.0
11
43.8000
21
68.8000
31
0.0
0
ARC
8
CUT
10
43.8000
20
70.5000
30
0.0
40
1.7000
50
-90.0000
51
90.0000
0
ARC
8
CUT
10
31.2000
20
70.5000
30
0.0
40
1.7000
50
90.0000
51
270.0000
0
LINE
8
CUT
10
76.2000
20
27.2000
30
0.0
11
88.8000
21
27.2000
31
0.0
0
LINE
8
CUT
10
76.2000
20
23.8000
30
0.0
11
88.8000
21
23.8000
31
0.0
0
ARC
8
CUT
10
88.8000
20
25.5000
30
0.0
40
1.7000
50
-90.0000
51
90.0000
0
ARC
8
CUT
10
76.2000
20
25.5000
30
0.0
40
1.7000
50
90.0000
51
270.0000
0
LINE
8
CUT
10
76.2000
20
72.2000
30
0.0
11
88.8000
21
72.2000
31
0.0
0
LINE
8
CUT
10
76.2000
20
68.8000
30
0.0
11
88.8000
21
68.8000
31
0.0
0
ARC
8
CUT
10
88.8000
20
70.5000
30
0.0
40
1.7000
50
-90.0000
51
90.0000
0
ARC
8
CUT
10
76.2000
20
70.5000
30
0.0
40
1.7000
50
90.0000
51
270.0000
0
ENDSEC
0
EOF
