0
SECTION
2
HEADER
9
$INSUNITS
70
4
9
$MEASUREMENT
70
1
0
ENDSEC
0
SECTION
2
ENTITIES
0
LINE
8
CUT
10
6.0000
20
0.0000
30
0.0
11
244.0000
21
0.0000
31
0.0
0
LINE
8
CUT
10
6.0000
20
180.0000
30
0.0
11
244.0000
21
180.0000
31
0.0
0
LINE
8
CUT
10
0.0000
20
6.0000
30
0.0
11
0.0000
21
174.0000
31
0.0
0
LINE
8
CUT
10
250.0000
20
6.0000
30
0.0
11
250.0000
21
174.0000
31
0.0
0
ARC
8
CUT
10
244.0000
20
174.0000
30
0.0
40
6.0000
50
0.0000
51
90.0000
0
ARC
8
CUT
10
6.0000
20
174.0000
30
0.0
40
6.0000
50
90.0000
51
180.0000
0
ARC
8
CUT
10
6.0000
20
6.0000
30
0.0
40
6.0000
50
180.0000
51
270.0000
0
ARC
8
CUT
10
244.0000
20
6.0000
30
0.0
40
6.0000
50
270.0000
51
360.0000
0
CIRCLE
8
CUT
10
8.0000
20
8.0000
30
0.0
40
1.7000
0
CIRCLE
8
CUT
10
8.0000
20
172.0000
30
0.0
40
1.7000
0
CIRCLE
8
CUT
10
242.0000
20
8.0000
30
0.0
40
1.7000
0
CIRCLE
8
CUT
10
242.0000
20
172.0000
30
0.0
40
1.7000
0
CIRCLE
8
CUT
10
185.6300
20
93.7600
30
0.0
40
19.0000
0
CIRCLE
8
CUT
10
169.6300
20
77.7600
30
0.0
40
1.7000
0
CIRCLE
8
CUT
10
169.6300
20
109.7600
30
0.0
40
1.7000
0
CIRCLE
8
CUT
10
201.6300
20
77.7600
30
0.0
40
1.7000
0
CIRCLE
8
CUT
10
201.6300
20
109.7600
30
0.0
40
1.7000
0
LINE
8
CUT
10
33.2000
20
107.2000
30
0.0
11
45.8000
21
107.2000
31
0.0
0
LINE
8
CUT
10
33.2000
20
103.8000
30
0.0
11
45.8000
21
103.8000
31
0.0
0
ARC
8
CUT
10
45.8000
20
105.5000
30
0.0
40
1.7000
50
-90.0000
51
90.0000
0
ARC
8
CUT
10
33.2000
20
105.5000
30
0.0
40
1.7000
50
90.0000
51
270.0000
0
LINE
8
CUT
10
33.2000
20
152.2000
30
0.0
11
45.8000
21
152.2000
31
0.0
0
LINE
8
CUT
10
33.2000
20
148.8000
30
0.0
11
45.8000
21
148.8000
31
0.0
0
ARC
8
CUT
10
45.8000
20
150.5000
30
0.0
40
1.7000
50
-90.0000
51
90.0000
0
ARC
8
CUT
10
33.2000
20
150.5000
30
0.0
40
1.7000
50
90.0000
51
270.0000
0
LINE
8
CUT
10
78.2000
20
107.2000
30
0.0
11
90.8000
21
107.2000
31
0.0
0
LINE
8
CUT
10
78.2000
20
103.8000
30
0.0
11
90.8000
21
103.8000
31
0.0
0
ARC
8
CUT
10
90.8000
20
105.5000
30
0.0
40
1.7000
50
-90.0000
51
90.0000
0
ARC
8
CUT
10
78.2000
20
105.5000
30
0.0
40
1.7000
50
90.0000
51
270.0000
0
LINE
8
CUT
10
78.2000
20
152.2000
30
0.0
11
90.8000
21
152.2000
31
0.0
0
LINE
8
CUT
10
78.2000
20
148.8000
30
0.0
11
90.8000
21
148.8000
31
0.0
0
ARC
8
CUT
10
90.8000
20
150.5000
30
0.0
40
1.7000
50
-90.0000
51
90.0000
0
ARC
8
CUT
10
78.2000
20
150.5000
30
0.0
40
1.7000
50
90.0000
51
270.0000
0
LINE
8
CUT
10
33.2000
20
31.2000
30
0.0
11
45.8000
21
31.2000
31
0.0
0
LINE
8
CUT
10
33.2000
20
27.8000
30
0.0
11
45.8000
21
27.8000
31
0.0
0
ARC
8
CUT
10
45.8000
20
29.5000
30
0.0
40
1.7000
50
-90.0000
51
90.0000
0
ARC
8
CUT
10
33.2000
20
29.5000
30
0.0
40
1.7000
50
90.0000
51
270.0000
0
LINE
8
CUT
10
33.2000
20
76.2000
30
0.0
11
45.8000
21
76.2000
31
0.0
0
LINE
8
CUT
10
33.2000
20
72.8000
30
0.0
11
45.8000
21
72.8000
31
0.0
0
ARC
8
CUT
10
45.8000
20
74.5000
30
0.0
40
1.7000
50
-90.0000
51
90.0000
0
ARC
8
CUT
10
33.2000
20
74.5000
30
0.0
40
1.7000
50
90.0000
51
270.0000
0
LINE
8
CUT
10
78.2000
20
31.2000
30
0.0
11
90.8000
21
31.2000
31
0.0
0
LINE
8
CUT
10
78.2000
20
27.8000
30
0.0
11
90.8000
21
27.8000
31
0.0
0
ARC
8
CUT
10
90.8000
20
29.5000
30
0.0
40
1.7000
50
-90.0000
51
90.0000
0
ARC
8
CUT
10
78.2000
20
29.5000
30
0.0
40
1.7000
50
90.0000
51
270.0000
0
LINE
8
CUT
10
78.2000
20
76.2000
30
0.0
11
90.8000
21
76.2000
31
0.0
0
LINE
8
CUT
10
78.2000
20
72.8000
30
0.0
11
90.8000
21
72.8000
31
0.0
0
ARC
8
CUT
10
90.8000
20
74.5000
30
0.0
40
1.7000
50
-90.0000
51
90.0000
0
ARC
8
CUT
10
78.2000
20
74.5000
30
0.0
40
1.7000
50
90.0000
51
270.0000
0
ENDSEC
0
EOF
