0
SECTION
2
HEADER
9
$INSUNITS
70
4
9
$MEASUREMENT
70
1
0
ENDSEC
0
SECTION
2
ENTITIES
0
LINE
8
CUT
10
6.0000
20
0.0000
30
0.0
11
244.0000
21
0.0000
31
0.0
0
LINE
8
CUT
10
6.0000
20
180.0000
30
0.0
11
244.0000
21
180.0000
31
0.0
0
LINE
8
CUT
10
0.0000
20
6.0000
30
0.0
11
0.0000
21
174.0000
31
0.0
0
LINE
8
CUT
10
250.0000
20
6.0000
30
0.0
11
250.0000
21
174.0000
31
0.0
0
ARC
8
CUT
10
244.0000
20
174.0000
30
0.0
40
6.0000
50
0.0000
51
90.0000
0
ARC
8
CUT
10
6.0000
20
174.0000
30
0.0
40
6.0000
50
90.0000
51
180.0000
0
ARC
8
CUT
10
6.0000
20
6.0000
30
0.0
40
6.0000
50
180.0000
51
270.0000
0
ARC
8
CUT
10
244.0000
20
6.0000
30
0.0
40
6.0000
50
270.0000
51
360.0000
0
CIRCLE
8
CUT
10
8.0000
20
8.0000
30
0.0
40
1.7000
0
CIRCLE
8
CUT
10
8.0000
20
172.0000
30
0.0
40
1.7000
0
CIRCLE
8
CUT
10
242.0000
20
8.0000
30
0.0
40
1.7000
0
CIRCLE
8
CUT
10
242.0000
20
172.0000
30
0.0
40
1.7000
0
CIRCLE
8
CUT
10
8.0000
20
40.0000
30
0.0
40
1.7000
0
CIRCLE
8
CUT
10
8.0000
20
140.0000
30
0.0
40
1.7000
0
CIRCLE
8
CUT
10
242.0000
20
40.0000
30
0.0
40
1.7000
0
CIRCLE
8
CUT
10
242.0000
20
140.0000
30
0.0
40
1.7000
0
CIRCLE
8
CUT
10
185.6300
20
93.7600
30
0.0
40
18.0000
0
CIRCLE
8
CUT
10
169.6300
20
77.7600
30
0.0
40
1.7000
0
CIRCLE
8
CUT
10
169.6300
20
109.7600
30
0.0
40
1.7000
0
CIRCLE
8
CUT
10
201.6300
20
77.7600
30
0.0
40
1.7000
0
CIRCLE
8
CUT
10
201.6300
20
109.7600
30
0.0
40
1.7000
0
LINE
8
CUT
10
28.2000
20
71.7000
30
0.0
11
33.8000
21
71.7000
31
0.0
0
LINE
8
CUT
10
28.2000
20
68.3000
30
0.0
11
33.8000
21
68.3000
31
0.0
0
ARC
8
CUT
10
33.8000
20
70.0000
30
0.0
40
1.7000
50
-90.0000
51
90.0000
0
ARC
8
CUT
10
28.2000
20
70.0000
30
0.0
40
1.7000
50
90.0000
51
270.0000
0
LINE
8
CUT
10
106.2000
20
71.7000
30
0.0
11
111.8000
21
71.7000
31
0.0
0
LINE
8
CUT
10
106.2000
20
68.3000
30
0.0
11
111.8000
21
68.3000
31
0.0
0
ARC
8
CUT
10
111.8000
20
70.0000
30
0.0
40
1.7000
50
-90.0000
51
90.0000
0
ARC
8
CUT
10
106.2000
20
70.0000
30
0.0
40
1.7000
50
90.0000
51
270.0000
0
LINE
8
CUT
10
114.1900
20
126.7000
30
0.0
11
119.7900
21
126.7000
31
0.0
0
LINE
8
CUT
10
114.1900
20
123.3000
30
0.0
11
119.7900
21
123.3000
31
0.0
0
ARC
8
CUT
10
119.7900
20
125.0000
30
0.0
40
1.7000
50
-90.0000
51
90.0000
0
ARC
8
CUT
10
114.1900
20
125.0000
30
0.0
40
1.7000
50
90.0000
51
270.0000
0
LINE
8
CUT
10
33.2000
20
149.7000
30
0.0
11
38.8000
21
149.7000
31
0.0
0
LINE
8
CUT
10
33.2000
20
146.3000
30
0.0
11
38.8000
21
146.3000
31
0.0
0
ARC
8
CUT
10
38.8000
20
148.0000
30
0.0
40
1.7000
50
-90.0000
51
90.0000
0
ARC
8
CUT
10
33.2000
20
148.0000
30
0.0
40
1.7000
50
90.0000
51
270.0000
0
LINE
8
CUT
10
168.2845
20
16.0840
30
0.0
11
174.3845
21
16.0840
31
0.0
0
LINE
8
CUT
10
168.2845
20
13.1840
30
0.0
11
174.3845
21
13.1840
31
0.0
0
ARC
8
CUT
10
174.3845
20
14.6340
30
0.0
40
1.4500
50
-90.0000
51
90.0000
0
ARC
8
CUT
10
168.2845
20
14.6340
30
0.0
40
1.4500
50
90.0000
51
270.0000
0
LINE
8
CUT
10
226.2845
20
16.0840
30
0.0
11
232.3845
21
16.0840
31
0.0
0
LINE
8
CUT
10
226.2845
20
13.1840
30
0.0
11
232.3845
21
13.1840
31
0.0
0
ARC
8
CUT
10
232.3845
20
14.6340
30
0.0
40
1.4500
50
-90.0000
51
90.0000
0
ARC
8
CUT
10
226.2845
20
14.6340
30
0.0
40
1.4500
50
90.0000
51
270.0000
0
LINE
8
CUT
10
167.9345
20
57.6840
30
0.0
11
174.0345
21
57.6840
31
0.0
0
LINE
8
CUT
10
167.9345
20
54.7840
30
0.0
11
174.0345
21
54.7840
31
0.0
0
ARC
8
CUT
10
174.0345
20
56.2340
30
0.0
40
1.4500
50
-90.0000
51
90.0000
0
ARC
8
CUT
10
167.9345
20
56.2340
30
0.0
40
1.4500
50
90.0000
51
270.0000
0
LINE
8
CUT
10
228.1845
20
57.6540
30
0.0
11
234.2845
21
57.6540
31
0.0
0
LINE
8
CUT
10
228.1845
20
54.7540
30
0.0
11
234.2845
21
54.7540
31
0.0
0
ARC
8
CUT
10
234.2845
20
56.2040
30
0.0
40
1.4500
50
-90.0000
51
90.0000
0
ARC
8
CUT
10
228.1845
20
56.2040
30
0.0
40
1.4500
50
90.0000
51
270.0000
0
CIRCLE
8
CUT
10
52.5000
20
93.5000
30
0.0
40
1.7000
0
CIRCLE
8
CUT
10
52.5000
20
138.5000
30
0.0
40
1.7000
0
CIRCLE
8
CUT
10
87.5000
20
93.5000
30
0.0
40
1.7000
0
CIRCLE
8
CUT
10
87.5000
20
138.5000
30
0.0
40
1.7000
0
CIRCLE
8
CUT
10
183.6000
20
12.1000
30
0.0
40
1.7000
0
CIRCLE
8
CUT
10
183.6000
20
57.1000
30
0.0
40
1.7000
0
CIRCLE
8
CUT
10
218.6000
20
12.1000
30
0.0
40
1.7000
0
CIRCLE
8
CUT
10
218.6000
20
57.1000
30
0.0
40
1.7000
0
ENDSEC
0
EOF
