0
SECTION
2
HEADER
9
$INSUNITS
70
4
9
$MEASUREMENT
70
1
0
ENDSEC
0
SECTION
2
ENTITIES
0
LINE
8
CUT
10
6.0000
20
0.0000
30
0.0
11
244.0000
21
0.0000
31
0.0
0
LINE
8
CUT
10
6.0000
20
180.0000
30
0.0
11
244.0000
21
180.0000
31
0.0
0
LINE
8
CUT
10
0.0000
20
6.0000
30
0.0
11
0.0000
21
174.0000
31
0.0
0
LINE
8
CUT
10
250.0000
20
6.0000
30
0.0
11
250.0000
21
174.0000
31
0.0
0
ARC
8
CUT
10
244.0000
20
174.0000
30
0.0
40
6.0000
50
0.0000
51
90.0000
0
ARC
8
CUT
10
6.0000
20
174.0000
30
0.0
40
6.0000
50
90.0000
51
180.0000
0
ARC
8
CUT
10
6.0000
20
6.0000
30
0.0
40
6.0000
50
180.0000
51
270.0000
0
ARC
8
CUT
10
244.0000
20
6.0000
30
0.0
40
6.0000
50
270.0000
51
360.0000
0
CIRCLE
8
CUT
10
8.0000
20
40.0000
30
0.0
40
1.7000
0
CIRCLE
8
CUT
10
8.0000
20
140.0000
30
0.0
40
1.7000
0
CIRCLE
8
CUT
10
242.0000
20
40.0000
30
0.0
40
1.7000
0
CIRCLE
8
CUT
10
242.0000
20
140.0000
30
0.0
40
1.7000
0
LINE
8
CUT
10
161.6300
20
67.7600
30
0.0
11
161.6300
21
119.7600
31
0.0
0
LINE
8
CUT
10
153.6300
20
67.7600
30
0.0
11
153.6300
21
119.7600
31
0.0
0
ARC
8
CUT
10
157.6300
20
119.7600
30
0.0
40
4.0000
50
0.0000
51
180.0000
0
ARC
8
CUT
10
157.6300
20
67.7600
30
0.0
40
4.0000
50
180.0000
51
360.0000
0
LINE
8
CUT
10
175.6300
20
67.7600
30
0.0
11
175.6300
21
119.7600
31
0.0
0
LINE
8
CUT
10
167.6300
20
67.7600
30
0.0
11
167.6300
21
119.7600
31
0.0
0
ARC
8
CUT
10
171.6300
20
119.7600
30
0.0
40
4.0000
50
0.0000
51
180.0000
0
ARC
8
CUT
10
171.6300
20
67.7600
30
0.0
40
4.0000
50
180.0000
51
360.0000
0
LINE
8
CUT
10
189.6300
20
67.7600
30
0.0
11
189.6300
21
119.7600
31
0.0
0
LINE
8
CUT
10
181.6300
20
67.7600
30
0.0
11
181.6300
21
119.7600
31
0.0
0
ARC
8
CUT
10
185.6300
20
119.7600
30
0.0
40
4.0000
50
0.0000
51
180.0000
0
ARC
8
CUT
10
185.6300
20
67.7600
30
0.0
40
4.0000
50
180.0000
51
360.0000
0
LINE
8
CUT
10
203.6300
20
67.7600
30
0.0
11
203.6300
21
119.7600
31
0.0
0
LINE
8
CUT
10
195.6300
20
67.7600
30
0.0
11
195.6300
21
119.7600
31
0.0
0
ARC
8
CUT
10
199.6300
20
119.7600
30
0.0
40
4.0000
50
0.0000
51
180.0000
0
ARC
8
CUT
10
199.6300
20
67.7600
30
0.0
40
4.0000
50
180.0000
51
360.0000
0
LINE
8
CUT
10
217.6300
20
67.7600
30
0.0
11
217.6300
21
119.7600
31
0.0
0
LINE
8
CUT
10
209.6300
20
67.7600
30
0.0
11
209.6300
21
119.7600
31
0.0
0
ARC
8
CUT
10
213.6300
20
119.7600
30
0.0
40
4.0000
50
0.0000
51
180.0000
0
ARC
8
CUT
10
213.6300
20
67.7600
30
0.0
40
4.0000
50
180.0000
51
360.0000
0
LINE
8
ENGRAVE
10
38.0000
20
74.0000
30
0.0
11
38.0000
21
106.0000
31
0.0
0
LINE
8
ENGRAVE
10
55.8560
20
106.0000
30
0.0
11
38.0000
21
88.4000
31
0.0
0
LINE
8
ENGRAVE
10
40.9760
20
91.6000
30
0.0
11
56.8480
21
74.0000
31
0.0
0
LINE
8
ENGRAVE
10
82.0448
20
106.0000
30
0.0
11
62.2048
21
106.0000
31
0.0
0
LINE
8
ENGRAVE
10
62.2048
20
106.0000
30
0.0
11
62.2048
21
74.0000
31
0.0
0
LINE
8
ENGRAVE
10
62.2048
20
74.0000
30
0.0
11
82.0448
21
74.0000
31
0.0
0
LINE
8
ENGRAVE
10
62.2048
20
90.0000
30
0.0
11
77.0848
21
90.0000
31
0.0
0
LINE
8
ENGRAVE
10
86.4096
20
106.0000
30
0.0
11
106.2496
21
106.0000
31
0.0
0
LINE
8
ENGRAVE
10
96.3296
20
106.0000
30
0.0
11
96.3296
21
74.0000
31
0.0
0
LINE
8
ENGRAVE
10
120.5344
20
74.0000
30
0.0
11
120.5344
21
106.0000
31
0.0
0
LINE
8
ENGRAVE
10
113.5904
20
106.0000
30
0.0
11
127.4784
21
106.0000
31
0.0
0
LINE
8
ENGRAVE
10
113.5904
20
74.0000
30
0.0
11
127.4784
21
74.0000
31
0.0
0
ENDSEC
0
EOF
