0
SECTION
2
HEADER
9
$INSUNITS
70
4
9
$MEASUREMENT
70
1
0
ENDSEC
0
SECTION
2
ENTITIES
0
LINE
8
CUT
10
6.0000
20
0.0000
30
0.0
11
244.0000
21
0.0000
31
0.0
0
LINE
8
CUT
10
6.0000
20
180.0000
30
0.0
11
244.0000
21
180.0000
31
0.0
0
LINE
8
CUT
10
0.0000
20
6.0000
30
0.0
11
0.0000
21
174.0000
31
0.0
0
LINE
8
CUT
10
250.0000
20
6.0000
30
0.0
11
250.0000
21
174.0000
31
0.0
0
ARC
8
CUT
10
244.0000
20
174.0000
30
0.0
40
6.0000
50
0.0000
51
90.0000
0
ARC
8
CUT
10
6.0000
20
174.0000
30
0.0
40
6.0000
50
90.0000
51
180.0000
0
ARC
8
CUT
10
6.0000
20
6.0000
30
0.0
40
6.0000
50
180.0000
51
270.0000
0
ARC
8
CUT
10
244.0000
20
6.0000
30
0.0
40
6.0000
50
270.0000
51
360.0000
0
CIRCLE
8
CUT
10
8.0000
20
8.0000
30
0.0
40
1.7000
0
CIRCLE
8
CUT
10
8.0000
20
172.0000
30
0.0
40
1.7000
0
CIRCLE
8
CUT
10
242.0000
20
8.0000
30
0.0
40
1.7000
0
CIRCLE
8
CUT
10
242.0000
20
172.0000
30
0.0
40
1.7000
0
CIRCLE
8
CUT
10
8.0000
20
40.0000
30
0.0
40
1.7000
0
CIRCLE
8
CUT
10
8.0000
20
140.0000
30
0.0
40
1.7000
0
CIRCLE
8
CUT
10
242.0000
20
40.0000
30
0.0
40
1.7000
0
CIRCLE
8
CUT
10
242.0000
20
140.0000
30
0.0
40
1.7000
0
CIRCLE
8
CUT
10
185.6300
20
93.7600
30
0.0
40
18.0000
0
CIRCLE
8
CUT
10
169.6300
20
77.7600
30
0.0
40
1.7000
0
CIRCLE
8
CUT
10
169.6300
20
109.7600
30
0.0
40
1.7000
0
CIRCLE
8
CUT
10
201.6300
20
77.7600
30
0.0
40
1.7000
0
CIRCLE
8
CUT
10
201.6300
20
109.7600
30
0.0
40
1.7000
0
LINE
8
CUT
10
41.2000
20
95.2000
30
0.0
11
53.8000
21
95.2000
31
0.0
0
LINE
8
CUT
10
41.2000
20
91.8000
30
0.0
11
53.8000
21
91.8000
31
0.0
0
ARC
8
CUT
10
53.8000
20
93.5000
30
0.0
40
1.7000
50
-90.0000
51
90.0000
0
ARC
8
CUT
10
41.2000
20
93.5000
30
0.0
40
1.7000
50
90.0000
51
270.0000
0
LINE
8
CUT
10
41.2000
20
140.2000
30
0.0
11
53.8000
21
140.2000
31
0.0
0
LINE
8
CUT
10
41.2000
20
136.8000
30
0.0
11
53.8000
21
136.8000
31
0.0
0
ARC
8
CUT
10
53.8000
20
138.5000
30
0.0
40
1.7000
50
-90.0000
51
90.0000
0
ARC
8
CUT
10
41.2000
20
138.5000
30
0.0
40
1.7000
50
90.0000
51
270.0000
0
LINE
8
CUT
10
86.2000
20
95.2000
30
0.0
11
98.8000
21
95.2000
31
0.0
0
LINE
8
CUT
10
86.2000
20
91.8000
30
0.0
11
98.8000
21
91.8000
31
0.0
0
ARC
8
CUT
10
98.8000
20
93.5000
30
0.0
40
1.7000
50
-90.0000
51
90.0000
0
ARC
8
CUT
10
86.2000
20
93.5000
30
0.0
40
1.7000
50
90.0000
51
270.0000
0
LINE
8
CUT
10
86.2000
20
140.2000
30
0.0
11
98.8000
21
140.2000
31
0.0
0
LINE
8
CUT
10
86.2000
20
136.8000
30
0.0
11
98.8000
21
136.8000
31
0.0
0
ARC
8
CUT
10
98.8000
20
138.5000
30
0.0
40
1.7000
50
-90.0000
51
90.0000
0
ARC
8
CUT
10
86.2000
20
138.5000
30
0.0
40
1.7000
50
90.0000
51
270.0000
0
LINE
8
CUT
10
172.3000
20
13.8000
30
0.0
11
184.9000
21
13.8000
31
0.0
0
LINE
8
CUT
10
172.3000
20
10.4000
30
0.0
11
184.9000
21
10.4000
31
0.0
0
ARC
8
CUT
10
184.9000
20
12.1000
30
0.0
40
1.7000
50
-90.0000
51
90.0000
0
ARC
8
CUT
10
172.3000
20
12.1000
30
0.0
40
1.7000
50
90.0000
51
270.0000
0
LINE
8
CUT
10
172.3000
20
58.8000
30
0.0
11
184.9000
21
58.8000
31
0.0
0
LINE
8
CUT
10
172.3000
20
55.4000
30
0.0
11
184.9000
21
55.4000
31
0.0
0
ARC
8
CUT
10
184.9000
20
57.1000
30
0.0
40
1.7000
50
-90.0000
51
90.0000
0
ARC
8
CUT
10
172.3000
20
57.1000
30
0.0
40
1.7000
50
90.0000
51
270.0000
0
LINE
8
CUT
10
217.3000
20
13.8000
30
0.0
11
229.9000
21
13.8000
31
0.0
0
LINE
8
CUT
10
217.3000
20
10.4000
30
0.0
11
229.9000
21
10.4000
31
0.0
0
ARC
8
CUT
10
229.9000
20
12.1000
30
0.0
40
1.7000
50
-90.0000
51
90.0000
0
ARC
8
CUT
10
217.3000
20
12.1000
30
0.0
40
1.7000
50
90.0000
51
270.0000
0
LINE
8
CUT
10
217.3000
20
58.8000
30
0.0
11
229.9000
21
58.8000
31
0.0
0
LINE
8
CUT
10
217.3000
20
55.4000
30
0.0
11
229.9000
21
55.4000
31
0.0
0
ARC
8
CUT
10
229.9000
20
57.1000
30
0.0
40
1.7000
50
-90.0000
51
90.0000
0
ARC
8
CUT
10
217.3000
20
57.1000
30
0.0
40
1.7000
50
90.0000
51
270.0000
0
ENDSEC
0
EOF
