0
SECTION
2
HEADER
9
$INSUNITS
70
4
9
$MEASUREMENT
70
1
0
ENDSEC
0
SECTION
2
ENTITIES
0
LINE
8
CUT
10
5.0000
20
0.0000
30
0.0
11
73.0000
21
0.0000
31
0.0
0
LINE
8
CUT
10
5.0000
20
98.0000
30
0.0
11
73.0000
21
98.0000
31
0.0
0
LINE
8
CUT
10
0.0000
20
5.0000
30
0.0
11
0.0000
21
93.0000
31
0.0
0
LINE
8
CUT
10
78.0000
20
5.0000
30
0.0
11
78.0000
21
93.0000
31
0.0
0
ARC
8
CUT
10
73.0000
20
93.0000
30
0.0
40
5.0000
50
0.0000
51
90.0000
0
ARC
8
CUT
10
5.0000
20
93.0000
30
0.0
40
5.0000
50
90.0000
51
180.0000
0
ARC
8
CUT
10
5.0000
20
5.0000
30
0.0
40
5.0000
50
180.0000
51
270.0000
0
ARC
8
CUT
10
73.0000
20
5.0000
30
0.0
40
5.0000
50
270.0000
51
360.0000
0
CIRCLE
8
CUT
10
7.5000
20
7.5000
30
0.0
40
1.7000
0
CIRCLE
8
CUT
10
70.5000
20
7.5000
30
0.0
40
1.7000
0
CIRCLE
8
CUT
10
70.5000
20
90.5000
30
0.0
40
1.7000
0
CIRCLE
8
CUT
10
7.5000
20
90.5000
30
0.0
40
1.7000
0
LINE
8
CUT
10
25.0800
20
9.4800
30
0.0
11
56.0800
21
9.4800
31
0.0
0
LINE
8
CUT
10
25.0800
20
56.4800
30
0.0
11
56.0800
21
56.4800
31
0.0
0
LINE
8
CUT
10
22.0800
20
12.4800
30
0.0
11
22.0800
21
53.4800
31
0.0
0
LINE
8
CUT
10
59.0800
20
12.4800
30
0.0
11
59.0800
21
53.4800
31
0.0
0
ARC
8
CUT
10
56.0800
20
53.4800
30
0.0
40
3.0000
50
0.0000
51
90.0000
0
ARC
8
CUT
10
25.0800
20
53.4800
30
0.0
40
3.0000
50
90.0000
51
180.0000
0
ARC
8
CUT
10
25.0800
20
12.4800
30
0.0
40
3.0000
50
180.0000
51
270.0000
0
ARC
8
CUT
10
56.0800
20
12.4800
30
0.0
40
3.0000
50
270.0000
51
360.0000
0
LINE
8
DIM
10
4.0000
20
103.0000
30
0.0
11
4.0000
21
108.0000
31
0.0
0
LINE
8
DIM
10
6.7900
20
108.0000
30
0.0
11
4.0000
21
105.2500
31
0.0
0
LINE
8
DIM
10
4.4650
20
105.7500
30
0.0
11
6.9450
21
103.0000
31
0.0
0
LINE
8
DIM
10
7.7820
20
103.0000
30
0.0
11
9.3320
21
108.0000
31
0.0
0
LINE
8
DIM
10
9.3320
20
108.0000
30
0.0
11
10.8820
21
103.0000
31
0.0
0
LINE
8
DIM
10
8.4640
20
105.0000
30
0.0
11
10.2000
21
105.0000
31
0.0
0
LINE
8
DIM
10
11.5640
20
108.0000
30
0.0
11
14.6640
21
108.0000
31
0.0
0
LINE
8
DIM
10
14.6640
20
108.0000
30
0.0
11
12.6490
21
103.0000
31
0.0
0
LINE
8
DIM
10
19.1280
20
103.0000
30
0.0
11
19.1280
21
108.0000
31
0.0
0
LINE
8
DIM
10
19.1280
20
108.0000
30
0.0
11
21.2980
21
108.0000
31
0.0
0
LINE
8
DIM
10
21.2980
20
108.0000
30
0.0
11
22.2280
21
107.0000
31
0.0
0
LINE
8
DIM
10
22.2280
20
107.0000
30
0.0
11
22.2280
21
106.0000
31
0.0
0
LINE
8
DIM
10
22.2280
20
106.0000
30
0.0
11
21.2980
21
105.2500
31
0.0
0
LINE
8
DIM
10
21.2980
20
105.2500
30
0.0
11
19.1280
21
105.2500
31
0.0
0
LINE
8
DIM
10
22.9100
20
108.0000
30
0.0
11
22.9100
21
103.0000
31
0.0
0
LINE
8
DIM
10
22.9100
20
103.0000
30
0.0
11
25.7000
21
103.0000
31
0.0
0
LINE
8
DIM
10
26.6920
20
103.0000
30
0.0
11
28.2420
21
108.0000
31
0.0
0
LINE
8
DIM
10
28.2420
20
108.0000
30
0.0
11
29.7920
21
103.0000
31
0.0
0
LINE
8
DIM
10
27.3740
20
105.0000
30
0.0
11
29.1100
21
105.0000
31
0.0
0
LINE
8
DIM
10
30.4740
20
108.0000
30
0.0
11
33.5740
21
108.0000
31
0.0
0
LINE
8
DIM
10
32.0240
20
108.0000
30
0.0
11
32.0240
21
103.0000
31
0.0
0
LINE
8
DIM
10
37.3560
20
108.0000
30
0.0
11
34.2560
21
108.0000
31
0.0
0
LINE
8
DIM
10
34.2560
20
108.0000
30
0.0
11
34.2560
21
103.0000
31
0.0
0
LINE
8
DIM
10
34.2560
20
103.0000
30
0.0
11
37.3560
21
103.0000
31
0.0
0
LINE
8
DIM
10
34.2560
20
105.5000
30
0.0
11
36.5810
21
105.5000
31
0.0
0
LINE
8
DIM
10
41.8200
20
103.0000
30
0.0
11
41.8200
21
108.0000
31
0.0
0
LINE
8
DIM
10
41.8200
20
108.0000
30
0.0
11
43.9900
21
108.0000
31
0.0
0
LINE
8
DIM
10
43.9900
20
108.0000
30
0.0
11
44.9200
21
107.2500
31
0.0
0
LINE
8
DIM
10
44.9200
20
107.2500
30
0.0
11
44.9200
21
106.2500
31
0.0
0
LINE
8
DIM
10
44.9200
20
106.2500
30
0.0
11
43.9900
21
105.5000
31
0.0
0
LINE
8
DIM
10
43.9900
20
105.5000
30
0.0
11
41.8200
21
105.5000
31
0.0
0
LINE
8
DIM
10
43.9900
20
105.5000
30
0.0
11
44.9200
21
104.7500
31
0.0
0
LINE
8
DIM
10
44.9200
20
104.7500
30
0.0
11
44.9200
21
103.7500
31
0.0
0
LINE
8
DIM
10
44.9200
20
103.7500
30
0.0
11
43.9900
21
103.0000
31
0.0
0
LINE
8
DIM
10
43.9900
20
103.0000
30
0.0
11
41.8200
21
103.0000
31
0.0
0
LINE
8
DIM
10
47.1520
20
108.0000
30
0.0
11
45.6020
21
106.7500
31
0.0
0
LINE
8
DIM
10
45.6020
20
106.7500
30
0.0
11
45.6020
21
104.2500
31
0.0
0
LINE
8
DIM
10
45.6020
20
104.2500
30
0.0
11
47.1520
21
103.0000
31
0.0
0
LINE
8
DIM
10
47.1520
20
103.0000
30
0.0
11
48.7020
21
104.2500
31
0.0
0
LINE
8
DIM
10
48.7020
20
104.2500
30
0.0
11
48.7020
21
106.7500
31
0.0
0
LINE
8
DIM
10
48.7020
20
106.7500
30
0.0
11
47.1520
21
108.0000
31
0.0
0
LINE
8
DIM
10
49.3840
20
108.0000
30
0.0
11
52.4840
21
108.0000
31
0.0
0
LINE
8
DIM
10
50.9340
20
108.0000
30
0.0
11
50.9340
21
103.0000
31
0.0
0
LINE
8
DIM
10
53.1660
20
108.0000
30
0.0
11
56.2660
21
108.0000
31
0.0
0
LINE
8
DIM
10
54.7160
20
108.0000
30
0.0
11
54.7160
21
103.0000
31
0.0
0
LINE
8
DIM
10
58.4980
20
108.0000
30
0.0
11
56.9480
21
106.7500
31
0.0
0
LINE
8
DIM
10
56.9480
20
106.7500
30
0.0
11
56.9480
21
104.2500
31
0.0
0
LINE
8
DIM
10
56.9480
20
104.2500
30
0.0
11
58.4980
21
103.0000
31
0.0
0
LINE
8
DIM
10
58.4980
20
103.0000
30
0.0
11
60.0480
21
104.2500
31
0.0
0
LINE
8
DIM
10
60.0480
20
104.2500
30
0.0
11
60.0480
21
106.7500
31
0.0
0
LINE
8
DIM
10
60.0480
20
106.7500
30
0.0
11
58.4980
21
108.0000
31
0.0
0
LINE
8
DIM
10
60.7300
20
103.0000
30
0.0
11
60.7300
21
108.0000
31
0.0
0
LINE
8
DIM
10
60.7300
20
108.0000
30
0.0
11
62.2800
21
105.2500
31
0.0
0
LINE
8
DIM
10
62.2800
20
105.2500
30
0.0
11
63.8300
21
108.0000
31
0.0
0
LINE
8
DIM
10
63.8300
20
108.0000
30
0.0
11
63.8300
21
103.0000
31
0.0
0
LINE
8
DIM
10
68.2940
20
107.5000
30
0.0
11
69.8440
21
108.0000
31
0.0
0
LINE
8
DIM
10
69.8440
20
108.0000
30
0.0
11
71.3940
21
107.2500
31
0.0
0
LINE
8
DIM
10
71.3940
20
107.2500
30
0.0
11
71.3940
21
106.0000
31
0.0
0
LINE
8
DIM
10
71.3940
20
106.0000
30
0.0
11
69.8440
21
105.5000
31
0.0
0
LINE
8
DIM
10
69.8440
20
105.5000
30
0.0
11
71.3940
21
105.0000
31
0.0
0
LINE
8
DIM
10
71.3940
20
105.0000
30
0.0
11
71.3940
21
103.7500
31
0.0
0
LINE
8
DIM
10
71.3940
20
103.7500
30
0.0
11
69.8440
21
103.0000
31
0.0
0
LINE
8
DIM
10
69.8440
20
103.0000
30
0.0
11
68.2940
21
103.5000
31
0.0
0
LINE
8
DIM
10
72.0760
20
108.0000
30
0.0
11
75.1760
21
108.0000
31
0.0
0
LINE
8
DIM
10
73.6260
20
108.0000
30
0.0
11
73.6260
21
103.0000
31
0.0
0
LINE
8
CUT
10
93.0000
20
0.0000
30
0.0
11
161.0000
21
0.0000
31
0.0
0
LINE
8
CUT
10
93.0000
20
98.0000
30
0.0
11
161.0000
21
98.0000
31
0.0
0
LINE
8
CUT
10
88.0000
20
5.0000
30
0.0
11
88.0000
21
93.0000
31
0.0
0
LINE
8
CUT
10
166.0000
20
5.0000
30
0.0
11
166.0000
21
93.0000
31
0.0
0
ARC
8
CUT
10
161.0000
20
93.0000
30
0.0
40
5.0000
50
0.0000
51
90.0000
0
ARC
8
CUT
10
93.0000
20
93.0000
30
0.0
40
5.0000
50
90.0000
51
180.0000
0
ARC
8
CUT
10
93.0000
20
5.0000
30
0.0
40
5.0000
50
180.0000
51
270.0000
0
ARC
8
CUT
10
161.0000
20
5.0000
30
0.0
40
5.0000
50
270.0000
51
360.0000
0
CIRCLE
8
CUT
10
95.5000
20
7.5000
30
0.0
40
1.7000
0
CIRCLE
8
CUT
10
158.5000
20
7.5000
30
0.0
40
1.7000
0
CIRCLE
8
CUT
10
158.5000
20
90.5000
30
0.0
40
1.7000
0
CIRCLE
8
CUT
10
95.5000
20
90.5000
30
0.0
40
1.7000
0
LINE
8
CUT
10
106.5000
20
22.0000
30
0.0
11
106.5000
21
44.0000
31
0.0
0
LINE
8
CUT
10
102.5000
20
22.0000
30
0.0
11
102.5000
21
44.0000
31
0.0
0
ARC
8
CUT
10
104.5000
20
44.0000
30
0.0
40
2.0000
50
0.0000
51
180.0000
0
ARC
8
CUT
10
104.5000
20
22.0000
30
0.0
40
2.0000
50
180.0000
51
360.0000
0
LINE
8
CUT
10
106.5000
20
54.0000
30
0.0
11
106.5000
21
76.0000
31
0.0
0
LINE
8
CUT
10
102.5000
20
54.0000
30
0.0
11
102.5000
21
76.0000
31
0.0
0
ARC
8
CUT
10
104.5000
20
76.0000
30
0.0
40
2.0000
50
0.0000
51
180.0000
0
ARC
8
CUT
10
104.5000
20
54.0000
30
0.0
40
2.0000
50
180.0000
51
360.0000
0
LINE
8
CUT
10
115.5000
20
22.0000
30
0.0
11
115.5000
21
44.0000
31
0.0
0
LINE
8
CUT
10
111.5000
20
22.0000
30
0.0
11
111.5000
21
44.0000
31
0.0
0
ARC
8
CUT
10
113.5000
20
44.0000
30
0.0
40
2.0000
50
0.0000
51
180.0000
0
ARC
8
CUT
10
113.5000
20
22.0000
30
0.0
40
2.0000
50
180.0000
51
360.0000
0
LINE
8
CUT
10
115.5000
20
54.0000
30
0.0
11
115.5000
21
76.0000
31
0.0
0
LINE
8
CUT
10
111.5000
20
54.0000
30
0.0
11
111.5000
21
76.0000
31
0.0
0
ARC
8
CUT
10
113.5000
20
76.0000
30
0.0
40
2.0000
50
0.0000
51
180.0000
0
ARC
8
CUT
10
113.5000
20
54.0000
30
0.0
40
2.0000
50
180.0000
51
360.0000
0
LINE
8
CUT
10
124.5000
20
22.0000
30
0.0
11
124.5000
21
44.0000
31
0.0
0
LINE
8
CUT
10
120.5000
20
22.0000
30
0.0
11
120.5000
21
44.0000
31
0.0
0
ARC
8
CUT
10
122.5000
20
44.0000
30
0.0
40
2.0000
50
0.0000
51
180.0000
0
ARC
8
CUT
10
122.5000
20
22.0000
30
0.0
40
2.0000
50
180.0000
51
360.0000
0
LINE
8
CUT
10
124.5000
20
54.0000
30
0.0
11
124.5000
21
76.0000
31
0.0
0
LINE
8
CUT
10
120.5000
20
54.0000
30
0.0
11
120.5000
21
76.0000
31
0.0
0
ARC
8
CUT
10
122.5000
20
76.0000
30
0.0
40
2.0000
50
0.0000
51
180.0000
0
ARC
8
CUT
10
122.5000
20
54.0000
30
0.0
40
2.0000
50
180.0000
51
360.0000
0
LINE
8
CUT
10
133.5000
20
22.0000
30
0.0
11
133.5000
21
44.0000
31
0.0
0
LINE
8
CUT
10
129.5000
20
22.0000
30
0.0
11
129.5000
21
44.0000
31
0.0
0
ARC
8
CUT
10
131.5000
20
44.0000
30
0.0
40
2.0000
50
0.0000
51
180.0000
0
ARC
8
CUT
10
131.5000
20
22.0000
30
0.0
40
2.0000
50
180.0000
51
360.0000
0
LINE
8
CUT
10
133.5000
20
54.0000
30
0.0
11
133.5000
21
76.0000
31
0.0
0
LINE
8
CUT
10
129.5000
20
54.0000
30
0.0
11
129.5000
21
76.0000
31
0.0
0
ARC
8
CUT
10
131.5000
20
76.0000
30
0.0
40
2.0000
50
0.0000
51
180.0000
0
ARC
8
CUT
10
131.5000
20
54.0000
30
0.0
40
2.0000
50
180.0000
51
360.0000
0
LINE
8
CUT
10
142.5000
20
22.0000
30
0.0
11
142.5000
21
44.0000
31
0.0
0
LINE
8
CUT
10
138.5000
20
22.0000
30
0.0
11
138.5000
21
44.0000
31
0.0
0
ARC
8
CUT
10
140.5000
20
44.0000
30
0.0
40
2.0000
50
0.0000
51
180.0000
0
ARC
8
CUT
10
140.5000
20
22.0000
30
0.0
40
2.0000
50
180.0000
51
360.0000
0
LINE
8
CUT
10
142.5000
20
54.0000
30
0.0
11
142.5000
21
76.0000
31
0.0
0
LINE
8
CUT
10
138.5000
20
54.0000
30
0.0
11
138.5000
21
76.0000
31
0.0
0
ARC
8
CUT
10
140.5000
20
76.0000
30
0.0
40
2.0000
50
0.0000
51
180.0000
0
ARC
8
CUT
10
140.5000
20
54.0000
30
0.0
40
2.0000
50
180.0000
51
360.0000
0
LINE
8
CUT
10
151.5000
20
22.0000
30
0.0
11
151.5000
21
44.0000
31
0.0
0
LINE
8
CUT
10
147.5000
20
22.0000
30
0.0
11
147.5000
21
44.0000
31
0.0
0
ARC
8
CUT
10
149.5000
20
44.0000
30
0.0
40
2.0000
50
0.0000
51
180.0000
0
ARC
8
CUT
10
149.5000
20
22.0000
30
0.0
40
2.0000
50
180.0000
51
360.0000
0
LINE
8
CUT
10
151.5000
20
54.0000
30
0.0
11
151.5000
21
76.0000
31
0.0
0
LINE
8
CUT
10
147.5000
20
54.0000
30
0.0
11
147.5000
21
76.0000
31
0.0
0
ARC
8
CUT
10
149.5000
20
76.0000
30
0.0
40
2.0000
50
0.0000
51
180.0000
0
ARC
8
CUT
10
149.5000
20
54.0000
30
0.0
40
2.0000
50
180.0000
51
360.0000
0
LINE
8
DIM
10
92.0000
20
103.0000
30
0.0
11
92.0000
21
108.0000
31
0.0
0
LINE
8
DIM
10
94.7900
20
108.0000
30
0.0
11
92.0000
21
105.2500
31
0.0
0
LINE
8
DIM
10
92.4650
20
105.7500
30
0.0
11
94.9450
21
103.0000
31
0.0
0
LINE
8
DIM
10
95.7820
20
103.0000
30
0.0
11
97.3320
21
108.0000
31
0.0
0
LINE
8
DIM
10
97.3320
20
108.0000
30
0.0
11
98.8820
21
103.0000
31
0.0
0
LINE
8
DIM
10
96.4640
20
105.0000
30
0.0
11
98.2000
21
105.0000
31
0.0
0
LINE
8
DIM
10
99.5640
20
108.0000
30
0.0
11
102.6640
21
108.0000
31
0.0
0
LINE
8
DIM
10
102.6640
20
108.0000
30
0.0
11
100.6490
21
103.0000
31
0.0
0
LINE
8
DIM
10
107.1280
20
103.0000
30
0.0
11
107.1280
21
108.0000
31
0.0
0
LINE
8
DIM
10
107.1280
20
108.0000
30
0.0
11
109.2980
21
108.0000
31
0.0
0
LINE
8
DIM
10
109.2980
20
108.0000
30
0.0
11
110.2280
21
107.0000
31
0.0
0
LINE
8
DIM
10
110.2280
20
107.0000
30
0.0
11
110.2280
21
106.0000
31
0.0
0
LINE
8
DIM
10
110.2280
20
106.0000
30
0.0
11
109.2980
21
105.2500
31
0.0
0
LINE
8
DIM
10
109.2980
20
105.2500
30
0.0
11
107.1280
21
105.2500
31
0.0
0
LINE
8
DIM
10
110.9100
20
108.0000
30
0.0
11
110.9100
21
103.0000
31
0.0
0
LINE
8
DIM
10
110.9100
20
103.0000
30
0.0
11
113.7000
21
103.0000
31
0.0
0
LINE
8
DIM
10
114.6920
20
103.0000
30
0.0
11
116.2420
21
108.0000
31
0.0
0
LINE
8
DIM
10
116.2420
20
108.0000
30
0.0
11
117.7920
21
103.0000
31
0.0
0
LINE
8
DIM
10
115.3740
20
105.0000
30
0.0
11
117.1100
21
105.0000
31
0.0
0
LINE
8
DIM
10
118.4740
20
108.0000
30
0.0
11
121.5740
21
108.0000
31
0.0
0
LINE
8
DIM
10
120.0240
20
108.0000
30
0.0
11
120.0240
21
103.0000
31
0.0
0
LINE
8
DIM
10
125.3560
20
108.0000
30
0.0
11
122.2560
21
108.0000
31
0.0
0
LINE
8
DIM
10
122.2560
20
108.0000
30
0.0
11
122.2560
21
103.0000
31
0.0
0
LINE
8
DIM
10
122.2560
20
103.0000
30
0.0
11
125.3560
21
103.0000
31
0.0
0
LINE
8
DIM
10
122.2560
20
105.5000
30
0.0
11
124.5810
21
105.5000
31
0.0
0
LINE
8
DIM
10
129.8200
20
108.0000
30
0.0
11
132.9200
21
108.0000
31
0.0
0
LINE
8
DIM
10
131.3700
20
108.0000
30
0.0
11
131.3700
21
103.0000
31
0.0
0
LINE
8
DIM
10
135.1520
20
108.0000
30
0.0
11
133.6020
21
106.7500
31
0.0
0
LINE
8
DIM
10
133.6020
20
106.7500
30
0.0
11
133.6020
21
104.2500
31
0.0
0
LINE
8
DIM
10
133.6020
20
104.2500
30
0.0
11
135.1520
21
103.0000
31
0.0
0
LINE
8
DIM
10
135.1520
20
103.0000
30
0.0
11
136.7020
21
104.2500
31
0.0
0
LINE
8
DIM
10
136.7020
20
104.2500
30
0.0
11
136.7020
21
106.7500
31
0.0
0
LINE
8
DIM
10
136.7020
20
106.7500
30
0.0
11
135.1520
21
108.0000
31
0.0
0
LINE
8
DIM
10
137.3840
20
103.0000
30
0.0
11
137.3840
21
108.0000
31
0.0
0
LINE
8
DIM
10
137.3840
20
108.0000
30
0.0
11
139.5540
21
108.0000
31
0.0
0
LINE
8
DIM
10
139.5540
20
108.0000
30
0.0
11
140.4840
21
107.0000
31
0.0
0
LINE
8
DIM
10
140.4840
20
107.0000
30
0.0
11
140.4840
21
106.0000
31
0.0
0
LINE
8
DIM
10
140.4840
20
106.0000
30
0.0
11
139.5540
21
105.2500
31
0.0
0
LINE
8
DIM
10
139.5540
20
105.2500
30
0.0
11
137.3840
21
105.2500
31
0.0
0
LINE
8
DIM
10
144.9480
20
107.5000
30
0.0
11
146.4980
21
108.0000
31
0.0
0
LINE
8
DIM
10
146.4980
20
108.0000
30
0.0
11
148.0480
21
107.2500
31
0.0
0
LINE
8
DIM
10
148.0480
20
107.2500
30
0.0
11
148.0480
21
106.0000
31
0.0
0
LINE
8
DIM
10
148.0480
20
106.0000
30
0.0
11
146.4980
21
105.5000
31
0.0
0
LINE
8
DIM
10
146.4980
20
105.5000
30
0.0
11
148.0480
21
105.0000
31
0.0
0
LINE
8
DIM
10
148.0480
20
105.0000
30
0.0
11
148.0480
21
103.7500
31
0.0
0
LINE
8
DIM
10
148.0480
20
103.7500
30
0.0
11
146.4980
21
103.0000
31
0.0
0
LINE
8
DIM
10
146.4980
20
103.0000
30
0.0
11
144.9480
21
103.5000
31
0.0
0
LINE
8
DIM
10
148.7300
20
108.0000
30
0.0
11
151.8300
21
108.0000
31
0.0
0
LINE
8
DIM
10
150.2800
20
108.0000
30
0.0
11
150.2800
21
103.0000
31
0.0
0
ENDSEC
0
EOF
