0
SECTION
2
HEADER
9
$INSUNITS
70
4
9
$MEASUREMENT
70
1
0
ENDSEC
0
SECTION
2
ENTITIES
0
LINE
8
CUT
10
5.0000
20
0.0000
30
0.0
11
73.0000
21
0.0000
31
0.0
0
LINE
8
CUT
10
5.0000
20
98.0000
30
0.0
11
73.0000
21
98.0000
31
0.0
0
LINE
8
CUT
10
0.0000
20
5.0000
30
0.0
11
0.0000
21
93.0000
31
0.0
0
LINE
8
CUT
10
78.0000
20
5.0000
30
0.0
11
78.0000
21
93.0000
31
0.0
0
ARC
8
CUT
10
73.0000
20
93.0000
30
0.0
40
5.0000
50
0.0000
51
90.0000
0
ARC
8
CUT
10
5.0000
20
93.0000
30
0.0
40
5.0000
50
90.0000
51
180.0000
0
ARC
8
CUT
10
5.0000
20
5.0000
30
0.0
40
5.0000
50
180.0000
51
270.0000
0
ARC
8
CUT
10
73.0000
20
5.0000
30
0.0
40
5.0000
50
270.0000
51
360.0000
0
CIRCLE
8
CUT
10
7.5000
20
7.5000
30
0.0
40
1.7000
0
CIRCLE
8
CUT
10
70.5000
20
7.5000
30
0.0
40
1.7000
0
CIRCLE
8
CUT
10
70.5000
20
90.5000
30
0.0
40
1.7000
0
CIRCLE
8
CUT
10
7.5000
20
90.5000
30
0.0
40
1.7000
0
LINE
8
CUT
10
25.0800
20
9.4800
30
0.0
11
56.0800
21
9.4800
31
0.0
0
LINE
8
CUT
10
25.0800
20
56.4800
30
0.0
11
56.0800
21
56.4800
31
0.0
0
LINE
8
CUT
10
22.0800
20
12.4800
30
0.0
11
22.0800
21
53.4800
31
0.0
0
LINE
8
CUT
10
59.0800
20
12.4800
30
0.0
11
59.0800
21
53.4800
31
0.0
0
ARC
8
CUT
10
56.0800
20
53.4800
30
0.0
40
3.0000
50
0.0000
51
90.0000
0
ARC
8
CUT
10
25.0800
20
53.4800
30
0.0
40
3.0000
50
90.0000
51
180.0000
0
ARC
8
CUT
10
25.0800
20
12.4800
30
0.0
40
3.0000
50
180.0000
51
270.0000
0
ARC
8
CUT
10
56.0800
20
12.4800
30
0.0
40
3.0000
50
270.0000
51
360.0000
0
ENDSEC
0
EOF
