0
SECTION
2
HEADER
9
$INSUNITS
70
4
9
$MEASUREMENT
70
1
0
ENDSEC
0
SECTION
2
ENTITIES
0
LINE
8
CUT
10
5.0000
20
0.0000
30
0.0
11
73.0000
21
0.0000
31
0.0
0
LINE
8
CUT
10
5.0000
20
98.0000
30
0.0
11
73.0000
21
98.0000
31
0.0
0
LINE
8
CUT
10
0.0000
20
5.0000
30
0.0
11
0.0000
21
93.0000
31
0.0
0
LINE
8
CUT
10
78.0000
20
5.0000
30
0.0
11
78.0000
21
93.0000
31
0.0
0
ARC
8
CUT
10
73.0000
20
93.0000
30
0.0
40
5.0000
50
0.0000
51
90.0000
0
ARC
8
CUT
10
5.0000
20
93.0000
30
0.0
40
5.0000
50
90.0000
51
180.0000
0
ARC
8
CUT
10
5.0000
20
5.0000
30
0.0
40
5.0000
50
180.0000
51
270.0000
0
ARC
8
CUT
10
73.0000
20
5.0000
30
0.0
40
5.0000
50
270.0000
51
360.0000
0
CIRCLE
8
CUT
10
7.5000
20
7.5000
30
0.0
40
1.7000
0
CIRCLE
8
CUT
10
70.5000
20
7.5000
30
0.0
40
1.7000
0
CIRCLE
8
CUT
10
70.5000
20
90.5000
30
0.0
40
1.7000
0
CIRCLE
8
CUT
10
7.5000
20
90.5000
30
0.0
40
1.7000
0
LINE
8
CUT
10
18.5000
20
22.0000
30
0.0
11
18.5000
21
44.0000
31
0.0
0
LINE
8
CUT
10
14.5000
20
22.0000
30
0.0
11
14.5000
21
44.0000
31
0.0
0
ARC
8
CUT
10
16.5000
20
44.0000
30
0.0
40
2.0000
50
0.0000
51
180.0000
0
ARC
8
CUT
10
16.5000
20
22.0000
30
0.0
40
2.0000
50
180.0000
51
360.0000
0
LINE
8
CUT
10
18.5000
20
54.0000
30
0.0
11
18.5000
21
76.0000
31
0.0
0
LINE
8
CUT
10
14.5000
20
54.0000
30
0.0
11
14.5000
21
76.0000
31
0.0
0
ARC
8
CUT
10
16.5000
20
76.0000
30
0.0
40
2.0000
50
0.0000
51
180.0000
0
ARC
8
CUT
10
16.5000
20
54.0000
30
0.0
40
2.0000
50
180.0000
51
360.0000
0
LINE
8
CUT
10
27.5000
20
22.0000
30
0.0
11
27.5000
21
44.0000
31
0.0
0
LINE
8
CUT
10
23.5000
20
22.0000
30
0.0
11
23.5000
21
44.0000
31
0.0
0
ARC
8
CUT
10
25.5000
20
44.0000
30
0.0
40
2.0000
50
0.0000
51
180.0000
0
ARC
8
CUT
10
25.5000
20
22.0000
30
0.0
40
2.0000
50
180.0000
51
360.0000
0
LINE
8
CUT
10
27.5000
20
54.0000
30
0.0
11
27.5000
21
76.0000
31
0.0
0
LINE
8
CUT
10
23.5000
20
54.0000
30
0.0
11
23.5000
21
76.0000
31
0.0
0
ARC
8
CUT
10
25.5000
20
76.0000
30
0.0
40
2.0000
50
0.0000
51
180.0000
0
ARC
8
CUT
10
25.5000
20
54.0000
30
0.0
40
2.0000
50
180.0000
51
360.0000
0
LINE
8
CUT
10
36.5000
20
22.0000
30
0.0
11
36.5000
21
44.0000
31
0.0
0
LINE
8
CUT
10
32.5000
20
22.0000
30
0.0
11
32.5000
21
44.0000
31
0.0
0
ARC
8
CUT
10
34.5000
20
44.0000
30
0.0
40
2.0000
50
0.0000
51
180.0000
0
ARC
8
CUT
10
34.5000
20
22.0000
30
0.0
40
2.0000
50
180.0000
51
360.0000
0
LINE
8
CUT
10
36.5000
20
54.0000
30
0.0
11
36.5000
21
76.0000
31
0.0
0
LINE
8
CUT
10
32.5000
20
54.0000
30
0.0
11
32.5000
21
76.0000
31
0.0
0
ARC
8
CUT
10
34.5000
20
76.0000
30
0.0
40
2.0000
50
0.0000
51
180.0000
0
ARC
8
CUT
10
34.5000
20
54.0000
30
0.0
40
2.0000
50
180.0000
51
360.0000
0
LINE
8
CUT
10
45.5000
20
22.0000
30
0.0
11
45.5000
21
44.0000
31
0.0
0
LINE
8
CUT
10
41.5000
20
22.0000
30
0.0
11
41.5000
21
44.0000
31
0.0
0
ARC
8
CUT
10
43.5000
20
44.0000
30
0.0
40
2.0000
50
0.0000
51
180.0000
0
ARC
8
CUT
10
43.5000
20
22.0000
30
0.0
40
2.0000
50
180.0000
51
360.0000
0
LINE
8
CUT
10
45.5000
20
54.0000
30
0.0
11
45.5000
21
76.0000
31
0.0
0
LINE
8
CUT
10
41.5000
20
54.0000
30
0.0
11
41.5000
21
76.0000
31
0.0
0
ARC
8
CUT
10
43.5000
20
76.0000
30
0.0
40
2.0000
50
0.0000
51
180.0000
0
ARC
8
CUT
10
43.5000
20
54.0000
30
0.0
40
2.0000
50
180.0000
51
360.0000
0
LINE
8
CUT
10
54.5000
20
22.0000
30
0.0
11
54.5000
21
44.0000
31
0.0
0
LINE
8
CUT
10
50.5000
20
22.0000
30
0.0
11
50.5000
21
44.0000
31
0.0
0
ARC
8
CUT
10
52.5000
20
44.0000
30
0.0
40
2.0000
50
0.0000
51
180.0000
0
ARC
8
CUT
10
52.5000
20
22.0000
30
0.0
40
2.0000
50
180.0000
51
360.0000
0
LINE
8
CUT
10
54.5000
20
54.0000
30
0.0
11
54.5000
21
76.0000
31
0.0
0
LINE
8
CUT
10
50.5000
20
54.0000
30
0.0
11
50.5000
21
76.0000
31
0.0
0
ARC
8
CUT
10
52.5000
20
76.0000
30
0.0
40
2.0000
50
0.0000
51
180.0000
0
ARC
8
CUT
10
52.5000
20
54.0000
30
0.0
40
2.0000
50
180.0000
51
360.0000
0
LINE
8
CUT
10
63.5000
20
22.0000
30
0.0
11
63.5000
21
44.0000
31
0.0
0
LINE
8
CUT
10
59.5000
20
22.0000
30
0.0
11
59.5000
21
44.0000
31
0.0
0
ARC
8
CUT
10
61.5000
20
44.0000
30
0.0
40
2.0000
50
0.0000
51
180.0000
0
ARC
8
CUT
10
61.5000
20
22.0000
30
0.0
40
2.0000
50
180.0000
51
360.0000
0
LINE
8
CUT
10
63.5000
20
54.0000
30
0.0
11
63.5000
21
76.0000
31
0.0
0
LINE
8
CUT
10
59.5000
20
54.0000
30
0.0
11
59.5000
21
76.0000
31
0.0
0
ARC
8
CUT
10
61.5000
20
76.0000
30
0.0
40
2.0000
50
0.0000
51
180.0000
0
ARC
8
CUT
10
61.5000
20
54.0000
30
0.0
40
2.0000
50
180.0000
51
360.0000
0
ENDSEC
0
EOF
