0
SECTION
2
HEADER
9
$INSUNITS
70
4
9
$MEASUREMENT
70
1
0
ENDSEC
0
SECTION
2
ENTITIES
0
LINE
8
CUT
10
6.0000
20
0.0000
30
0.0
11
244.0000
21
0.0000
31
0.0
0
LINE
8
CUT
10
6.0000
20
180.0000
30
0.0
11
244.0000
21
180.0000
31
0.0
0
LINE
8
CUT
10
0.0000
20
6.0000
30
0.0
11
0.0000
21
174.0000
31
0.0
0
LINE
8
CUT
10
250.0000
20
6.0000
30
0.0
11
250.0000
21
174.0000
31
0.0
0
ARC
8
CUT
10
244.0000
20
174.0000
30
0.0
40
6.0000
50
0.0000
51
90.0000
0
ARC
8
CUT
10
6.0000
20
174.0000
30
0.0
40
6.0000
50
90.0000
51
180.0000
0
ARC
8
CUT
10
6.0000
20
6.0000
30
0.0
40
6.0000
50
180.0000
51
270.0000
0
ARC
8
CUT
10
244.0000
20
6.0000
30
0.0
40
6.0000
50
270.0000
51
360.0000
0
CIRCLE
8
CUT
10
8.0000
20
8.0000
30
0.0
40
1.7000
0
CIRCLE
8
CUT
10
8.0000
20
172.0000
30
0.0
40
1.7000
0
CIRCLE
8
CUT
10
242.0000
20
8.0000
30
0.0
40
1.7000
0
CIRCLE
8
CUT
10
242.0000
20
172.0000
30
0.0
40
1.7000
0
CIRCLE
8
CUT
10
185.6300
20
93.7600
30
0.0
40
18.0000
0
CIRCLE
8
CUT
10
169.6300
20
77.7600
30
0.0
40
1.7000
0
CIRCLE
8
CUT
10
169.6300
20
109.7600
30
0.0
40
1.7000
0
CIRCLE
8
CUT
10
201.6300
20
77.7600
30
0.0
40
1.7000
0
CIRCLE
8
CUT
10
201.6300
20
109.7600
30
0.0
40
1.7000
0
CIRCLE
8
CUT
10
33.0000
20
74.0000
30
0.0
40
1.7000
0
CIRCLE
8
CUT
10
111.0000
20
74.0000
30
0.0
40
1.7000
0
CIRCLE
8
CUT
10
118.9900
20
129.0000
30
0.0
40
1.7000
0
CIRCLE
8
CUT
10
38.0000
20
152.0000
30
0.0
40
1.7000
0
CIRCLE
8
CUT
10
209.7655
20
165.9660
30
0.0
40
1.4500
0
CIRCLE
8
CUT
10
151.7655
20
165.9660
30
0.0
40
1.4500
0
CIRCLE
8
CUT
10
210.1155
20
124.3660
30
0.0
40
1.4500
0
CIRCLE
8
CUT
10
149.8655
20
124.3960
30
0.0
40
1.4500
0
CIRCLE
8
CUT
10
23.2925
20
19.4750
30
0.0
40
1.4500
0
CIRCLE
8
CUT
10
86.5425
20
19.4750
30
0.0
40
1.4500
0
CIRCLE
8
CUT
10
23.2925
20
46.5000
30
0.0
40
1.4500
0
CIRCLE
8
CUT
10
86.5425
20
46.5000
30
0.0
40
1.4500
0
CIRCLE
8
CUT
10
164.2925
20
17.0595
30
0.0
40
1.4500
0
CIRCLE
8
CUT
10
227.5425
20
17.0595
30
0.0
40
1.4500
0
CIRCLE
8
CUT
10
164.2925
20
43.0595
30
0.0
40
1.4500
0
CIRCLE
8
CUT
10
227.5425
20
43.0595
30
0.0
40
1.4500
0
ENDSEC
0
EOF
